G04 #@! TF.GenerationSoftware,KiCad,Pcbnew,8.0.7*
G04 #@! TF.CreationDate,2025-01-24T14:26:26+01:00*
G04 #@! TF.ProjectId,STM32F4_GateSignalGenerator_GateDriver,53544d33-3246-4345-9f47-617465536967,rev?*
G04 #@! TF.SameCoordinates,Original*
G04 #@! TF.FileFunction,Soldermask,Bot*
G04 #@! TF.FilePolarity,Negative*
%FSLAX46Y46*%
G04 Gerber Fmt 4.6, Leading zero omitted, Abs format (unit mm)*
G04 Created by KiCad (PCBNEW 8.0.7) date 2025-01-24 14:26:26*
%MOMM*%
%LPD*%
G01*
G04 APERTURE LIST*
G04 Aperture macros list*
%AMRoundRect*
0 Rectangle with rounded corners*
0 $1 Rounding radius*
0 $2 $3 $4 $5 $6 $7 $8 $9 X,Y pos of 4 corners*
0 Add a 4 corners polygon primitive as box body*
4,1,4,$2,$3,$4,$5,$6,$7,$8,$9,$2,$3,0*
0 Add four circle primitives for the rounded corners*
1,1,$1+$1,$2,$3*
1,1,$1+$1,$4,$5*
1,1,$1+$1,$6,$7*
1,1,$1+$1,$8,$9*
0 Add four rect primitives between the rounded corners*
20,1,$1+$1,$2,$3,$4,$5,0*
20,1,$1+$1,$4,$5,$6,$7,0*
20,1,$1+$1,$6,$7,$8,$9,0*
20,1,$1+$1,$8,$9,$2,$3,0*%
%AMFreePoly0*
4,1,9,3.862500,-0.866500,0.737500,-0.866500,0.737500,-0.450000,-0.737500,-0.450000,-0.737500,0.450000,0.737500,0.450000,0.737500,0.866500,3.862500,0.866500,3.862500,-0.866500,3.862500,-0.866500,$1*%
G04 Aperture macros list end*
%ADD10C,3.200000*%
%ADD11C,1.989000*%
%ADD12R,1.500000X1.500000*%
%ADD13C,1.500000*%
%ADD14C,1.524000*%
%ADD15R,2.100000X2.100000*%
%ADD16C,2.100000*%
%ADD17RoundRect,0.250000X1.075000X-0.312500X1.075000X0.312500X-1.075000X0.312500X-1.075000X-0.312500X0*%
%ADD18RoundRect,0.250000X-0.475000X0.250000X-0.475000X-0.250000X0.475000X-0.250000X0.475000X0.250000X0*%
%ADD19RoundRect,0.250000X-0.450000X0.262500X-0.450000X-0.262500X0.450000X-0.262500X0.450000X0.262500X0*%
%ADD20RoundRect,0.250000X0.475000X-0.250000X0.475000X0.250000X-0.475000X0.250000X-0.475000X-0.250000X0*%
%ADD21RoundRect,0.250000X0.650000X-1.000000X0.650000X1.000000X-0.650000X1.000000X-0.650000X-1.000000X0*%
%ADD22RoundRect,0.250000X-0.250000X-0.475000X0.250000X-0.475000X0.250000X0.475000X-0.250000X0.475000X0*%
%ADD23RoundRect,0.250000X0.312500X1.075000X-0.312500X1.075000X-0.312500X-1.075000X0.312500X-1.075000X0*%
%ADD24RoundRect,0.225000X0.225000X-0.425000X0.225000X0.425000X-0.225000X0.425000X-0.225000X-0.425000X0*%
%ADD25FreePoly0,90.000000*%
G04 APERTURE END LIST*
D10*
X148500000Y-123500000D03*
X148500000Y-96500000D03*
X121500000Y-96500000D03*
D11*
X127700000Y-99000000D03*
X127700000Y-94000000D03*
D12*
X134659700Y-103062500D03*
D13*
X134659700Y-105602500D03*
X134659700Y-110682500D03*
X134659700Y-115762500D03*
D11*
X142300000Y-99000000D03*
X142300000Y-94000000D03*
D14*
X120775000Y-113830000D03*
X120775000Y-111290000D03*
X120775000Y-108750000D03*
X120775000Y-106210000D03*
D15*
X147500000Y-113500000D03*
D16*
X147500000Y-110000000D03*
X147500000Y-106500000D03*
D10*
X121500000Y-123500000D03*
D17*
X144230000Y-111232500D03*
X144230000Y-108307500D03*
D18*
X130627800Y-103038600D03*
X130627800Y-104938600D03*
D19*
X150090000Y-109057500D03*
X150090000Y-110882500D03*
D20*
X134660000Y-113850000D03*
X134660000Y-111950000D03*
D21*
X131800000Y-100750000D03*
X131800000Y-96750000D03*
D22*
X124840000Y-104320000D03*
X126740000Y-104320000D03*
D20*
X132580000Y-104930000D03*
X132580000Y-103030000D03*
D22*
X124850000Y-102360000D03*
X126750000Y-102360000D03*
D23*
X137512500Y-118000000D03*
X134587500Y-118000000D03*
D24*
X128092500Y-109500000D03*
D25*
X126592500Y-109412500D03*
D24*
X125092500Y-109500000D03*
M02*
