%TF.GenerationSoftware,KiCad,Pcbnew,8.0.7*%
%TF.CreationDate,2025-01-24T14:26:29+01:00*%
%TF.ProjectId,STM32F4_GateSignalGenerator_GateDriver,53544d33-3246-4345-9f47-617465536967,rev?*%
%TF.SameCoordinates,Original*%
%TF.FileFunction,Drillmap*%
%TF.FilePolarity,Positive*%
%FSLAX45Y45*%
G04 Gerber Fmt 4.5, Leading zero omitted, Abs format (unit mm)*
G04 Created by KiCad (PCBNEW 8.0.7) date 2025-01-24 14:26:29*
%MOMM*%
%LPD*%
G01*
G04 APERTURE LIST*
%ADD10C,0.050000*%
%ADD11C,0.200000*%
%ADD12C,0.320000*%
G04 APERTURE END LIST*
D10*
X11750000Y-9250000D02*
X15250000Y-9250000D01*
X15250000Y-12750000D01*
X11750000Y-12750000D01*
X11750000Y-9250000D01*
D11*
D12*
X11990000Y-9490000D02*
X12310000Y-9810000D01*
X12310000Y-9490000D02*
X11990000Y-9810000D01*
X11990000Y-12190000D02*
X12310000Y-12510000D01*
X12310000Y-12190000D02*
X11990000Y-12510000D01*
X14690000Y-9490000D02*
X15010000Y-9810000D01*
X15010000Y-9490000D02*
X14690000Y-9810000D01*
X14690000Y-12190000D02*
X15010000Y-12510000D01*
X15010000Y-12190000D02*
X14690000Y-12510000D01*
D11*
X12008277Y-13063984D02*
X12008277Y-12863984D01*
X12008277Y-12863984D02*
X12055896Y-12863984D01*
X12055896Y-12863984D02*
X12084467Y-12873508D01*
X12084467Y-12873508D02*
X12103515Y-12892555D01*
X12103515Y-12892555D02*
X12113039Y-12911603D01*
X12113039Y-12911603D02*
X12122562Y-12949698D01*
X12122562Y-12949698D02*
X12122562Y-12978269D01*
X12122562Y-12978269D02*
X12113039Y-13016365D01*
X12113039Y-13016365D02*
X12103515Y-13035412D01*
X12103515Y-13035412D02*
X12084467Y-13054460D01*
X12084467Y-13054460D02*
X12055896Y-13063984D01*
X12055896Y-13063984D02*
X12008277Y-13063984D01*
X12208277Y-13063984D02*
X12208277Y-12930650D01*
X12208277Y-12968746D02*
X12217801Y-12949698D01*
X12217801Y-12949698D02*
X12227324Y-12940174D01*
X12227324Y-12940174D02*
X12246372Y-12930650D01*
X12246372Y-12930650D02*
X12265420Y-12930650D01*
X12332086Y-13063984D02*
X12332086Y-12930650D01*
X12332086Y-12863984D02*
X12322562Y-12873508D01*
X12322562Y-12873508D02*
X12332086Y-12883031D01*
X12332086Y-12883031D02*
X12341610Y-12873508D01*
X12341610Y-12873508D02*
X12332086Y-12863984D01*
X12332086Y-12863984D02*
X12332086Y-12883031D01*
X12455896Y-13063984D02*
X12436848Y-13054460D01*
X12436848Y-13054460D02*
X12427324Y-13035412D01*
X12427324Y-13035412D02*
X12427324Y-12863984D01*
X12560658Y-13063984D02*
X12541610Y-13054460D01*
X12541610Y-13054460D02*
X12532086Y-13035412D01*
X12532086Y-13035412D02*
X12532086Y-12863984D01*
X12789229Y-13063984D02*
X12789229Y-12863984D01*
X12789229Y-12863984D02*
X12855896Y-13006841D01*
X12855896Y-13006841D02*
X12922562Y-12863984D01*
X12922562Y-12863984D02*
X12922562Y-13063984D01*
X13103515Y-13063984D02*
X13103515Y-12959222D01*
X13103515Y-12959222D02*
X13093991Y-12940174D01*
X13093991Y-12940174D02*
X13074943Y-12930650D01*
X13074943Y-12930650D02*
X13036848Y-12930650D01*
X13036848Y-12930650D02*
X13017801Y-12940174D01*
X13103515Y-13054460D02*
X13084467Y-13063984D01*
X13084467Y-13063984D02*
X13036848Y-13063984D01*
X13036848Y-13063984D02*
X13017801Y-13054460D01*
X13017801Y-13054460D02*
X13008277Y-13035412D01*
X13008277Y-13035412D02*
X13008277Y-13016365D01*
X13008277Y-13016365D02*
X13017801Y-12997317D01*
X13017801Y-12997317D02*
X13036848Y-12987793D01*
X13036848Y-12987793D02*
X13084467Y-12987793D01*
X13084467Y-12987793D02*
X13103515Y-12978269D01*
X13198753Y-12930650D02*
X13198753Y-13130650D01*
X13198753Y-12940174D02*
X13217801Y-12930650D01*
X13217801Y-12930650D02*
X13255896Y-12930650D01*
X13255896Y-12930650D02*
X13274943Y-12940174D01*
X13274943Y-12940174D02*
X13284467Y-12949698D01*
X13284467Y-12949698D02*
X13293991Y-12968746D01*
X13293991Y-12968746D02*
X13293991Y-13025888D01*
X13293991Y-13025888D02*
X13284467Y-13044936D01*
X13284467Y-13044936D02*
X13274943Y-13054460D01*
X13274943Y-13054460D02*
X13255896Y-13063984D01*
X13255896Y-13063984D02*
X13217801Y-13063984D01*
X13217801Y-13063984D02*
X13198753Y-13054460D01*
X13379705Y-13044936D02*
X13389229Y-13054460D01*
X13389229Y-13054460D02*
X13379705Y-13063984D01*
X13379705Y-13063984D02*
X13370182Y-13054460D01*
X13370182Y-13054460D02*
X13379705Y-13044936D01*
X13379705Y-13044936D02*
X13379705Y-13063984D01*
X13379705Y-12940174D02*
X13389229Y-12949698D01*
X13389229Y-12949698D02*
X13379705Y-12959222D01*
X13379705Y-12959222D02*
X13370182Y-12949698D01*
X13370182Y-12949698D02*
X13379705Y-12940174D01*
X13379705Y-12940174D02*
X13379705Y-12959222D01*
X11547500Y-13292500D02*
X11747500Y-13492500D01*
X11747500Y-13292500D02*
X11547500Y-13492500D01*
X11989229Y-13283984D02*
X12113039Y-13283984D01*
X12113039Y-13283984D02*
X12046372Y-13360174D01*
X12046372Y-13360174D02*
X12074943Y-13360174D01*
X12074943Y-13360174D02*
X12093991Y-13369698D01*
X12093991Y-13369698D02*
X12103515Y-13379222D01*
X12103515Y-13379222D02*
X12113039Y-13398269D01*
X12113039Y-13398269D02*
X12113039Y-13445888D01*
X12113039Y-13445888D02*
X12103515Y-13464936D01*
X12103515Y-13464936D02*
X12093991Y-13474460D01*
X12093991Y-13474460D02*
X12074943Y-13483984D01*
X12074943Y-13483984D02*
X12017801Y-13483984D01*
X12017801Y-13483984D02*
X11998753Y-13474460D01*
X11998753Y-13474460D02*
X11989229Y-13464936D01*
X12198753Y-13464936D02*
X12208277Y-13474460D01*
X12208277Y-13474460D02*
X12198753Y-13483984D01*
X12198753Y-13483984D02*
X12189229Y-13474460D01*
X12189229Y-13474460D02*
X12198753Y-13464936D01*
X12198753Y-13464936D02*
X12198753Y-13483984D01*
X12284467Y-13303031D02*
X12293991Y-13293508D01*
X12293991Y-13293508D02*
X12313039Y-13283984D01*
X12313039Y-13283984D02*
X12360658Y-13283984D01*
X12360658Y-13283984D02*
X12379705Y-13293508D01*
X12379705Y-13293508D02*
X12389229Y-13303031D01*
X12389229Y-13303031D02*
X12398753Y-13322079D01*
X12398753Y-13322079D02*
X12398753Y-13341127D01*
X12398753Y-13341127D02*
X12389229Y-13369698D01*
X12389229Y-13369698D02*
X12274943Y-13483984D01*
X12274943Y-13483984D02*
X12398753Y-13483984D01*
X12522562Y-13283984D02*
X12541610Y-13283984D01*
X12541610Y-13283984D02*
X12560658Y-13293508D01*
X12560658Y-13293508D02*
X12570182Y-13303031D01*
X12570182Y-13303031D02*
X12579705Y-13322079D01*
X12579705Y-13322079D02*
X12589229Y-13360174D01*
X12589229Y-13360174D02*
X12589229Y-13407793D01*
X12589229Y-13407793D02*
X12579705Y-13445888D01*
X12579705Y-13445888D02*
X12570182Y-13464936D01*
X12570182Y-13464936D02*
X12560658Y-13474460D01*
X12560658Y-13474460D02*
X12541610Y-13483984D01*
X12541610Y-13483984D02*
X12522562Y-13483984D01*
X12522562Y-13483984D02*
X12503515Y-13474460D01*
X12503515Y-13474460D02*
X12493991Y-13464936D01*
X12493991Y-13464936D02*
X12484467Y-13445888D01*
X12484467Y-13445888D02*
X12474943Y-13407793D01*
X12474943Y-13407793D02*
X12474943Y-13360174D01*
X12474943Y-13360174D02*
X12484467Y-13322079D01*
X12484467Y-13322079D02*
X12493991Y-13303031D01*
X12493991Y-13303031D02*
X12503515Y-13293508D01*
X12503515Y-13293508D02*
X12522562Y-13283984D01*
X12713039Y-13283984D02*
X12732086Y-13283984D01*
X12732086Y-13283984D02*
X12751134Y-13293508D01*
X12751134Y-13293508D02*
X12760658Y-13303031D01*
X12760658Y-13303031D02*
X12770182Y-13322079D01*
X12770182Y-13322079D02*
X12779705Y-13360174D01*
X12779705Y-13360174D02*
X12779705Y-13407793D01*
X12779705Y-13407793D02*
X12770182Y-13445888D01*
X12770182Y-13445888D02*
X12760658Y-13464936D01*
X12760658Y-13464936D02*
X12751134Y-13474460D01*
X12751134Y-13474460D02*
X12732086Y-13483984D01*
X12732086Y-13483984D02*
X12713039Y-13483984D01*
X12713039Y-13483984D02*
X12693991Y-13474460D01*
X12693991Y-13474460D02*
X12684467Y-13464936D01*
X12684467Y-13464936D02*
X12674943Y-13445888D01*
X12674943Y-13445888D02*
X12665420Y-13407793D01*
X12665420Y-13407793D02*
X12665420Y-13360174D01*
X12665420Y-13360174D02*
X12674943Y-13322079D01*
X12674943Y-13322079D02*
X12684467Y-13303031D01*
X12684467Y-13303031D02*
X12693991Y-13293508D01*
X12693991Y-13293508D02*
X12713039Y-13283984D01*
X12865420Y-13483984D02*
X12865420Y-13350650D01*
X12865420Y-13369698D02*
X12874943Y-13360174D01*
X12874943Y-13360174D02*
X12893991Y-13350650D01*
X12893991Y-13350650D02*
X12922563Y-13350650D01*
X12922563Y-13350650D02*
X12941610Y-13360174D01*
X12941610Y-13360174D02*
X12951134Y-13379222D01*
X12951134Y-13379222D02*
X12951134Y-13483984D01*
X12951134Y-13379222D02*
X12960658Y-13360174D01*
X12960658Y-13360174D02*
X12979705Y-13350650D01*
X12979705Y-13350650D02*
X13008277Y-13350650D01*
X13008277Y-13350650D02*
X13027324Y-13360174D01*
X13027324Y-13360174D02*
X13036848Y-13379222D01*
X13036848Y-13379222D02*
X13036848Y-13483984D01*
X13132086Y-13483984D02*
X13132086Y-13350650D01*
X13132086Y-13369698D02*
X13141610Y-13360174D01*
X13141610Y-13360174D02*
X13160658Y-13350650D01*
X13160658Y-13350650D02*
X13189229Y-13350650D01*
X13189229Y-13350650D02*
X13208277Y-13360174D01*
X13208277Y-13360174D02*
X13217801Y-13379222D01*
X13217801Y-13379222D02*
X13217801Y-13483984D01*
X13217801Y-13379222D02*
X13227324Y-13360174D01*
X13227324Y-13360174D02*
X13246372Y-13350650D01*
X13246372Y-13350650D02*
X13274943Y-13350650D01*
X13274943Y-13350650D02*
X13293991Y-13360174D01*
X13293991Y-13360174D02*
X13303515Y-13379222D01*
X13303515Y-13379222D02*
X13303515Y-13483984D01*
X13693991Y-13274460D02*
X13522563Y-13531603D01*
X13951134Y-13283984D02*
X13970182Y-13283984D01*
X13970182Y-13283984D02*
X13989229Y-13293508D01*
X13989229Y-13293508D02*
X13998753Y-13303031D01*
X13998753Y-13303031D02*
X14008277Y-13322079D01*
X14008277Y-13322079D02*
X14017801Y-13360174D01*
X14017801Y-13360174D02*
X14017801Y-13407793D01*
X14017801Y-13407793D02*
X14008277Y-13445888D01*
X14008277Y-13445888D02*
X13998753Y-13464936D01*
X13998753Y-13464936D02*
X13989229Y-13474460D01*
X13989229Y-13474460D02*
X13970182Y-13483984D01*
X13970182Y-13483984D02*
X13951134Y-13483984D01*
X13951134Y-13483984D02*
X13932086Y-13474460D01*
X13932086Y-13474460D02*
X13922563Y-13464936D01*
X13922563Y-13464936D02*
X13913039Y-13445888D01*
X13913039Y-13445888D02*
X13903515Y-13407793D01*
X13903515Y-13407793D02*
X13903515Y-13360174D01*
X13903515Y-13360174D02*
X13913039Y-13322079D01*
X13913039Y-13322079D02*
X13922563Y-13303031D01*
X13922563Y-13303031D02*
X13932086Y-13293508D01*
X13932086Y-13293508D02*
X13951134Y-13283984D01*
X14103515Y-13464936D02*
X14113039Y-13474460D01*
X14113039Y-13474460D02*
X14103515Y-13483984D01*
X14103515Y-13483984D02*
X14093991Y-13474460D01*
X14093991Y-13474460D02*
X14103515Y-13464936D01*
X14103515Y-13464936D02*
X14103515Y-13483984D01*
X14303515Y-13483984D02*
X14189229Y-13483984D01*
X14246372Y-13483984D02*
X14246372Y-13283984D01*
X14246372Y-13283984D02*
X14227325Y-13312555D01*
X14227325Y-13312555D02*
X14208277Y-13331603D01*
X14208277Y-13331603D02*
X14189229Y-13341127D01*
X14379706Y-13303031D02*
X14389229Y-13293508D01*
X14389229Y-13293508D02*
X14408277Y-13283984D01*
X14408277Y-13283984D02*
X14455896Y-13283984D01*
X14455896Y-13283984D02*
X14474944Y-13293508D01*
X14474944Y-13293508D02*
X14484467Y-13303031D01*
X14484467Y-13303031D02*
X14493991Y-13322079D01*
X14493991Y-13322079D02*
X14493991Y-13341127D01*
X14493991Y-13341127D02*
X14484467Y-13369698D01*
X14484467Y-13369698D02*
X14370182Y-13483984D01*
X14370182Y-13483984D02*
X14493991Y-13483984D01*
X14665420Y-13283984D02*
X14627325Y-13283984D01*
X14627325Y-13283984D02*
X14608277Y-13293508D01*
X14608277Y-13293508D02*
X14598753Y-13303031D01*
X14598753Y-13303031D02*
X14579706Y-13331603D01*
X14579706Y-13331603D02*
X14570182Y-13369698D01*
X14570182Y-13369698D02*
X14570182Y-13445888D01*
X14570182Y-13445888D02*
X14579706Y-13464936D01*
X14579706Y-13464936D02*
X14589229Y-13474460D01*
X14589229Y-13474460D02*
X14608277Y-13483984D01*
X14608277Y-13483984D02*
X14646372Y-13483984D01*
X14646372Y-13483984D02*
X14665420Y-13474460D01*
X14665420Y-13474460D02*
X14674944Y-13464936D01*
X14674944Y-13464936D02*
X14684467Y-13445888D01*
X14684467Y-13445888D02*
X14684467Y-13398269D01*
X14684467Y-13398269D02*
X14674944Y-13379222D01*
X14674944Y-13379222D02*
X14665420Y-13369698D01*
X14665420Y-13369698D02*
X14646372Y-13360174D01*
X14646372Y-13360174D02*
X14608277Y-13360174D01*
X14608277Y-13360174D02*
X14589229Y-13369698D01*
X14589229Y-13369698D02*
X14579706Y-13379222D01*
X14579706Y-13379222D02*
X14570182Y-13398269D01*
X14808277Y-13283984D02*
X14827325Y-13283984D01*
X14827325Y-13283984D02*
X14846372Y-13293508D01*
X14846372Y-13293508D02*
X14855896Y-13303031D01*
X14855896Y-13303031D02*
X14865420Y-13322079D01*
X14865420Y-13322079D02*
X14874944Y-13360174D01*
X14874944Y-13360174D02*
X14874944Y-13407793D01*
X14874944Y-13407793D02*
X14865420Y-13445888D01*
X14865420Y-13445888D02*
X14855896Y-13464936D01*
X14855896Y-13464936D02*
X14846372Y-13474460D01*
X14846372Y-13474460D02*
X14827325Y-13483984D01*
X14827325Y-13483984D02*
X14808277Y-13483984D01*
X14808277Y-13483984D02*
X14789229Y-13474460D01*
X14789229Y-13474460D02*
X14779706Y-13464936D01*
X14779706Y-13464936D02*
X14770182Y-13445888D01*
X14770182Y-13445888D02*
X14760658Y-13407793D01*
X14760658Y-13407793D02*
X14760658Y-13360174D01*
X14760658Y-13360174D02*
X14770182Y-13322079D01*
X14770182Y-13322079D02*
X14779706Y-13303031D01*
X14779706Y-13303031D02*
X14789229Y-13293508D01*
X14789229Y-13293508D02*
X14808277Y-13283984D01*
X14951134Y-13283984D02*
X14951134Y-13322079D01*
X15027325Y-13283984D02*
X15027325Y-13322079D01*
X15322563Y-13560174D02*
X15313039Y-13550650D01*
X15313039Y-13550650D02*
X15293991Y-13522079D01*
X15293991Y-13522079D02*
X15284468Y-13503031D01*
X15284468Y-13503031D02*
X15274944Y-13474460D01*
X15274944Y-13474460D02*
X15265420Y-13426841D01*
X15265420Y-13426841D02*
X15265420Y-13388746D01*
X15265420Y-13388746D02*
X15274944Y-13341127D01*
X15274944Y-13341127D02*
X15284468Y-13312555D01*
X15284468Y-13312555D02*
X15293991Y-13293508D01*
X15293991Y-13293508D02*
X15313039Y-13264936D01*
X15313039Y-13264936D02*
X15322563Y-13255412D01*
X15484468Y-13350650D02*
X15484468Y-13483984D01*
X15436848Y-13274460D02*
X15389229Y-13417317D01*
X15389229Y-13417317D02*
X15513039Y-13417317D01*
X15741610Y-13483984D02*
X15741610Y-13283984D01*
X15827325Y-13483984D02*
X15827325Y-13379222D01*
X15827325Y-13379222D02*
X15817801Y-13360174D01*
X15817801Y-13360174D02*
X15798753Y-13350650D01*
X15798753Y-13350650D02*
X15770182Y-13350650D01*
X15770182Y-13350650D02*
X15751134Y-13360174D01*
X15751134Y-13360174D02*
X15741610Y-13369698D01*
X15951134Y-13483984D02*
X15932087Y-13474460D01*
X15932087Y-13474460D02*
X15922563Y-13464936D01*
X15922563Y-13464936D02*
X15913039Y-13445888D01*
X15913039Y-13445888D02*
X15913039Y-13388746D01*
X15913039Y-13388746D02*
X15922563Y-13369698D01*
X15922563Y-13369698D02*
X15932087Y-13360174D01*
X15932087Y-13360174D02*
X15951134Y-13350650D01*
X15951134Y-13350650D02*
X15979706Y-13350650D01*
X15979706Y-13350650D02*
X15998753Y-13360174D01*
X15998753Y-13360174D02*
X16008277Y-13369698D01*
X16008277Y-13369698D02*
X16017801Y-13388746D01*
X16017801Y-13388746D02*
X16017801Y-13445888D01*
X16017801Y-13445888D02*
X16008277Y-13464936D01*
X16008277Y-13464936D02*
X15998753Y-13474460D01*
X15998753Y-13474460D02*
X15979706Y-13483984D01*
X15979706Y-13483984D02*
X15951134Y-13483984D01*
X16132087Y-13483984D02*
X16113039Y-13474460D01*
X16113039Y-13474460D02*
X16103515Y-13455412D01*
X16103515Y-13455412D02*
X16103515Y-13283984D01*
X16284468Y-13474460D02*
X16265420Y-13483984D01*
X16265420Y-13483984D02*
X16227325Y-13483984D01*
X16227325Y-13483984D02*
X16208277Y-13474460D01*
X16208277Y-13474460D02*
X16198753Y-13455412D01*
X16198753Y-13455412D02*
X16198753Y-13379222D01*
X16198753Y-13379222D02*
X16208277Y-13360174D01*
X16208277Y-13360174D02*
X16227325Y-13350650D01*
X16227325Y-13350650D02*
X16265420Y-13350650D01*
X16265420Y-13350650D02*
X16284468Y-13360174D01*
X16284468Y-13360174D02*
X16293991Y-13379222D01*
X16293991Y-13379222D02*
X16293991Y-13398269D01*
X16293991Y-13398269D02*
X16198753Y-13417317D01*
X16370182Y-13474460D02*
X16389230Y-13483984D01*
X16389230Y-13483984D02*
X16427325Y-13483984D01*
X16427325Y-13483984D02*
X16446372Y-13474460D01*
X16446372Y-13474460D02*
X16455896Y-13455412D01*
X16455896Y-13455412D02*
X16455896Y-13445888D01*
X16455896Y-13445888D02*
X16446372Y-13426841D01*
X16446372Y-13426841D02*
X16427325Y-13417317D01*
X16427325Y-13417317D02*
X16398753Y-13417317D01*
X16398753Y-13417317D02*
X16379706Y-13407793D01*
X16379706Y-13407793D02*
X16370182Y-13388746D01*
X16370182Y-13388746D02*
X16370182Y-13379222D01*
X16370182Y-13379222D02*
X16379706Y-13360174D01*
X16379706Y-13360174D02*
X16398753Y-13350650D01*
X16398753Y-13350650D02*
X16427325Y-13350650D01*
X16427325Y-13350650D02*
X16446372Y-13360174D01*
X16522563Y-13560174D02*
X16532087Y-13550650D01*
X16532087Y-13550650D02*
X16551134Y-13522079D01*
X16551134Y-13522079D02*
X16560658Y-13503031D01*
X16560658Y-13503031D02*
X16570182Y-13474460D01*
X16570182Y-13474460D02*
X16579706Y-13426841D01*
X16579706Y-13426841D02*
X16579706Y-13388746D01*
X16579706Y-13388746D02*
X16570182Y-13341127D01*
X16570182Y-13341127D02*
X16560658Y-13312555D01*
X16560658Y-13312555D02*
X16551134Y-13293508D01*
X16551134Y-13293508D02*
X16532087Y-13264936D01*
X16532087Y-13264936D02*
X16522563Y-13255412D01*
X16884468Y-13560174D02*
X16874944Y-13550650D01*
X16874944Y-13550650D02*
X16855896Y-13522079D01*
X16855896Y-13522079D02*
X16846373Y-13503031D01*
X16846373Y-13503031D02*
X16836849Y-13474460D01*
X16836849Y-13474460D02*
X16827325Y-13426841D01*
X16827325Y-13426841D02*
X16827325Y-13388746D01*
X16827325Y-13388746D02*
X16836849Y-13341127D01*
X16836849Y-13341127D02*
X16846373Y-13312555D01*
X16846373Y-13312555D02*
X16855896Y-13293508D01*
X16855896Y-13293508D02*
X16874944Y-13264936D01*
X16874944Y-13264936D02*
X16884468Y-13255412D01*
X16960658Y-13350650D02*
X16960658Y-13483984D01*
X16960658Y-13369698D02*
X16970182Y-13360174D01*
X16970182Y-13360174D02*
X16989230Y-13350650D01*
X16989230Y-13350650D02*
X17017801Y-13350650D01*
X17017801Y-13350650D02*
X17036849Y-13360174D01*
X17036849Y-13360174D02*
X17046373Y-13379222D01*
X17046373Y-13379222D02*
X17046373Y-13483984D01*
X17170182Y-13483984D02*
X17151134Y-13474460D01*
X17151134Y-13474460D02*
X17141611Y-13464936D01*
X17141611Y-13464936D02*
X17132087Y-13445888D01*
X17132087Y-13445888D02*
X17132087Y-13388746D01*
X17132087Y-13388746D02*
X17141611Y-13369698D01*
X17141611Y-13369698D02*
X17151134Y-13360174D01*
X17151134Y-13360174D02*
X17170182Y-13350650D01*
X17170182Y-13350650D02*
X17198754Y-13350650D01*
X17198754Y-13350650D02*
X17217801Y-13360174D01*
X17217801Y-13360174D02*
X17227325Y-13369698D01*
X17227325Y-13369698D02*
X17236849Y-13388746D01*
X17236849Y-13388746D02*
X17236849Y-13445888D01*
X17236849Y-13445888D02*
X17227325Y-13464936D01*
X17227325Y-13464936D02*
X17217801Y-13474460D01*
X17217801Y-13474460D02*
X17198754Y-13483984D01*
X17198754Y-13483984D02*
X17170182Y-13483984D01*
X17293992Y-13350650D02*
X17370182Y-13350650D01*
X17322563Y-13283984D02*
X17322563Y-13455412D01*
X17322563Y-13455412D02*
X17332087Y-13474460D01*
X17332087Y-13474460D02*
X17351134Y-13483984D01*
X17351134Y-13483984D02*
X17370182Y-13483984D01*
X17589230Y-13350650D02*
X17589230Y-13550650D01*
X17589230Y-13360174D02*
X17608277Y-13350650D01*
X17608277Y-13350650D02*
X17646373Y-13350650D01*
X17646373Y-13350650D02*
X17665420Y-13360174D01*
X17665420Y-13360174D02*
X17674944Y-13369698D01*
X17674944Y-13369698D02*
X17684468Y-13388746D01*
X17684468Y-13388746D02*
X17684468Y-13445888D01*
X17684468Y-13445888D02*
X17674944Y-13464936D01*
X17674944Y-13464936D02*
X17665420Y-13474460D01*
X17665420Y-13474460D02*
X17646373Y-13483984D01*
X17646373Y-13483984D02*
X17608277Y-13483984D01*
X17608277Y-13483984D02*
X17589230Y-13474460D01*
X17798754Y-13483984D02*
X17779706Y-13474460D01*
X17779706Y-13474460D02*
X17770182Y-13455412D01*
X17770182Y-13455412D02*
X17770182Y-13283984D01*
X17960658Y-13483984D02*
X17960658Y-13379222D01*
X17960658Y-13379222D02*
X17951135Y-13360174D01*
X17951135Y-13360174D02*
X17932087Y-13350650D01*
X17932087Y-13350650D02*
X17893992Y-13350650D01*
X17893992Y-13350650D02*
X17874944Y-13360174D01*
X17960658Y-13474460D02*
X17941611Y-13483984D01*
X17941611Y-13483984D02*
X17893992Y-13483984D01*
X17893992Y-13483984D02*
X17874944Y-13474460D01*
X17874944Y-13474460D02*
X17865420Y-13455412D01*
X17865420Y-13455412D02*
X17865420Y-13436365D01*
X17865420Y-13436365D02*
X17874944Y-13417317D01*
X17874944Y-13417317D02*
X17893992Y-13407793D01*
X17893992Y-13407793D02*
X17941611Y-13407793D01*
X17941611Y-13407793D02*
X17960658Y-13398269D01*
X18027325Y-13350650D02*
X18103515Y-13350650D01*
X18055896Y-13283984D02*
X18055896Y-13455412D01*
X18055896Y-13455412D02*
X18065420Y-13474460D01*
X18065420Y-13474460D02*
X18084468Y-13483984D01*
X18084468Y-13483984D02*
X18103515Y-13483984D01*
X18246373Y-13474460D02*
X18227325Y-13483984D01*
X18227325Y-13483984D02*
X18189230Y-13483984D01*
X18189230Y-13483984D02*
X18170182Y-13474460D01*
X18170182Y-13474460D02*
X18160658Y-13455412D01*
X18160658Y-13455412D02*
X18160658Y-13379222D01*
X18160658Y-13379222D02*
X18170182Y-13360174D01*
X18170182Y-13360174D02*
X18189230Y-13350650D01*
X18189230Y-13350650D02*
X18227325Y-13350650D01*
X18227325Y-13350650D02*
X18246373Y-13360174D01*
X18246373Y-13360174D02*
X18255896Y-13379222D01*
X18255896Y-13379222D02*
X18255896Y-13398269D01*
X18255896Y-13398269D02*
X18160658Y-13417317D01*
X18427325Y-13483984D02*
X18427325Y-13283984D01*
X18427325Y-13474460D02*
X18408277Y-13483984D01*
X18408277Y-13483984D02*
X18370182Y-13483984D01*
X18370182Y-13483984D02*
X18351135Y-13474460D01*
X18351135Y-13474460D02*
X18341611Y-13464936D01*
X18341611Y-13464936D02*
X18332087Y-13445888D01*
X18332087Y-13445888D02*
X18332087Y-13388746D01*
X18332087Y-13388746D02*
X18341611Y-13369698D01*
X18341611Y-13369698D02*
X18351135Y-13360174D01*
X18351135Y-13360174D02*
X18370182Y-13350650D01*
X18370182Y-13350650D02*
X18408277Y-13350650D01*
X18408277Y-13350650D02*
X18427325Y-13360174D01*
X18503516Y-13560174D02*
X18513039Y-13550650D01*
X18513039Y-13550650D02*
X18532087Y-13522079D01*
X18532087Y-13522079D02*
X18541611Y-13503031D01*
X18541611Y-13503031D02*
X18551135Y-13474460D01*
X18551135Y-13474460D02*
X18560658Y-13426841D01*
X18560658Y-13426841D02*
X18560658Y-13388746D01*
X18560658Y-13388746D02*
X18551135Y-13341127D01*
X18551135Y-13341127D02*
X18541611Y-13312555D01*
X18541611Y-13312555D02*
X18532087Y-13293508D01*
X18532087Y-13293508D02*
X18513039Y-13264936D01*
X18513039Y-13264936D02*
X18503516Y-13255412D01*
M02*
