M48
; DRILL file {KiCad 8.0.7} date 2025-01-24T14:26:28+0100
; FORMAT={-:-/ absolute / metric / decimal}
; #@! TF.CreationDate,2025-01-24T14:26:28+01:00
; #@! TF.GenerationSoftware,Kicad,Pcbnew,8.0.7
; #@! TF.FileFunction,Plated,1,2,PTH
FMAT,2
METRIC
; #@! TA.AperFunction,Plated,PTH,ViaDrill
T1C0.400
; #@! TA.AperFunction,Plated,PTH,ComponentDrill
T2C1.000
; #@! TA.AperFunction,Plated,PTH,ComponentDrill
T3C1.016
; #@! TA.AperFunction,Plated,PTH,ComponentDrill
T4C1.190
; #@! TA.AperFunction,Plated,PTH,ComponentDrill
T5C1.300
%
G90
G05
T1
X119.0Y-100.0
X119.0Y-101.0
X119.0Y-102.0
X119.0Y-103.0
X119.0Y-104.0
X119.0Y-105.0
X119.0Y-106.0
X119.0Y-107.0
X119.0Y-108.0
X119.0Y-109.0
X119.0Y-110.0
X119.0Y-111.0
X119.0Y-112.0
X119.0Y-113.0
X119.0Y-114.0
X119.0Y-115.0
X119.0Y-116.0
X119.0Y-117.0
X119.0Y-118.0
X119.0Y-119.0
X119.0Y-120.0
X120.736Y-100.833
X120.736Y-119.177
X122.0Y-110.0
X122.0Y-115.0
X122.264Y-100.833
X122.264Y-119.177
X123.7Y-119.7
X124.871Y-120.682
X125.0Y-126.0
X125.635Y-122.006
X125.635Y-125.015
X125.9Y-123.511
X126.0Y-126.0
X127.0Y-115.0
X127.0Y-116.0
X127.0Y-117.0
X127.0Y-118.0
X127.0Y-119.0
X127.0Y-120.0
X127.0Y-121.0
X127.0Y-122.0
X127.0Y-123.0
X127.0Y-124.0
X127.0Y-125.0
X127.0Y-126.0
X128.28Y-113.71
X128.48Y-106.2
X131.0Y-94.0
X132.0Y-94.0
X133.0Y-94.0
X133.0Y-110.5
X133.0Y-112.0
X133.0Y-113.0
X133.0Y-114.0
X133.0Y-115.0
X133.0Y-116.0
X133.0Y-117.0
X133.0Y-118.0
X133.0Y-119.0
X133.0Y-120.0
X133.0Y-121.0
X133.0Y-122.0
X133.0Y-123.0
X133.0Y-124.0
X133.0Y-125.0
X133.0Y-126.0
X134.0Y-94.0
X134.0Y-99.5
X134.0Y-126.0
X135.0Y-94.0
X135.0Y-126.0
X135.5Y-99.5
X136.0Y-94.0
X136.0Y-126.0
X136.5Y-110.5
X136.5Y-114.0
X136.8Y-102.3
X137.0Y-94.0
X137.0Y-99.5
X137.0Y-126.0
X137.9Y-102.3
X138.0Y-94.0
X138.0Y-126.0
X138.5Y-99.5
X138.92Y-118.0
X138.995Y-111.535
X139.0Y-94.0
X139.0Y-126.0
X140.0Y-94.0
X140.0Y-126.0
X140.26Y-103.64
X140.27Y-112.3
X140.5Y-115.5
X141.0Y-118.0
X141.0Y-126.0
X142.0Y-101.0
X142.0Y-126.0
X143.0Y-126.0
X143.5Y-110.0
X143.5Y-113.5
X144.0Y-126.0
X144.036Y-123.533
X144.301Y-122.028
X144.301Y-125.038
X145.0Y-110.0
X145.0Y-126.0
X145.065Y-120.705
X145.5Y-113.5
X145.5Y-115.5
X145.5Y-118.0
X146.236Y-119.723
X147.672Y-119.2
X149.2Y-119.2
X149.5Y-113.5
X151.0Y-112.0
X151.0Y-113.0
X151.0Y-114.0
X151.0Y-115.0
X151.0Y-116.0
X151.0Y-117.0
X151.0Y-118.0
X151.0Y-119.0
X151.0Y-120.0
T2
X134.66Y-103.062
X134.66Y-105.602
X134.66Y-110.682
X134.66Y-115.762
T3
X120.775Y-106.21
X120.775Y-108.75
X120.775Y-111.29
X120.775Y-113.83
T4
X127.7Y-94.0
X127.7Y-99.0
X142.3Y-94.0
X142.3Y-99.0
T5
X147.5Y-106.5
X147.5Y-110.0
X147.5Y-113.5
M30
