G04 #@! TF.GenerationSoftware,KiCad,Pcbnew,8.0.7*
G04 #@! TF.CreationDate,2025-01-24T14:26:26+01:00*
G04 #@! TF.ProjectId,STM32F4_GateSignalGenerator_GateDriver,53544d33-3246-4345-9f47-617465536967,rev?*
G04 #@! TF.SameCoordinates,Original*
G04 #@! TF.FileFunction,Legend,Bot*
G04 #@! TF.FilePolarity,Positive*
%FSLAX46Y46*%
G04 Gerber Fmt 4.6, Leading zero omitted, Abs format (unit mm)*
G04 Created by KiCad (PCBNEW 8.0.7) date 2025-01-24 14:26:26*
%MOMM*%
%LPD*%
G01*
G04 APERTURE LIST*
G04 Aperture macros list*
%AMRoundRect*
0 Rectangle with rounded corners*
0 $1 Rounding radius*
0 $2 $3 $4 $5 $6 $7 $8 $9 X,Y pos of 4 corners*
0 Add a 4 corners polygon primitive as box body*
4,1,4,$2,$3,$4,$5,$6,$7,$8,$9,$2,$3,0*
0 Add four circle primitives for the rounded corners*
1,1,$1+$1,$2,$3*
1,1,$1+$1,$4,$5*
1,1,$1+$1,$6,$7*
1,1,$1+$1,$8,$9*
0 Add four rect primitives between the rounded corners*
20,1,$1+$1,$2,$3,$4,$5,0*
20,1,$1+$1,$4,$5,$6,$7,0*
20,1,$1+$1,$6,$7,$8,$9,0*
20,1,$1+$1,$8,$9,$2,$3,0*%
%AMFreePoly0*
4,1,9,3.862500,-0.866500,0.737500,-0.866500,0.737500,-0.450000,-0.737500,-0.450000,-0.737500,0.450000,0.737500,0.450000,0.737500,0.866500,3.862500,0.866500,3.862500,-0.866500,3.862500,-0.866500,$1*%
G04 Aperture macros list end*
%ADD10C,0.150000*%
%ADD11C,0.200000*%
%ADD12C,0.508000*%
%ADD13C,0.120000*%
%ADD14C,3.200000*%
%ADD15C,1.989000*%
%ADD16R,1.500000X1.500000*%
%ADD17C,1.500000*%
%ADD18C,1.524000*%
%ADD19R,2.100000X2.100000*%
%ADD20C,2.100000*%
%ADD21RoundRect,0.250000X1.075000X-0.312500X1.075000X0.312500X-1.075000X0.312500X-1.075000X-0.312500X0*%
%ADD22RoundRect,0.250000X-0.475000X0.250000X-0.475000X-0.250000X0.475000X-0.250000X0.475000X0.250000X0*%
%ADD23RoundRect,0.250000X-0.450000X0.262500X-0.450000X-0.262500X0.450000X-0.262500X0.450000X0.262500X0*%
%ADD24RoundRect,0.250000X0.475000X-0.250000X0.475000X0.250000X-0.475000X0.250000X-0.475000X-0.250000X0*%
%ADD25RoundRect,0.250000X0.650000X-1.000000X0.650000X1.000000X-0.650000X1.000000X-0.650000X-1.000000X0*%
%ADD26RoundRect,0.250000X-0.250000X-0.475000X0.250000X-0.475000X0.250000X0.475000X-0.250000X0.475000X0*%
%ADD27RoundRect,0.250000X0.312500X1.075000X-0.312500X1.075000X-0.312500X-1.075000X0.312500X-1.075000X0*%
%ADD28RoundRect,0.225000X0.225000X-0.425000X0.225000X0.425000X-0.225000X0.425000X-0.225000X-0.425000X0*%
%ADD29FreePoly0,90.000000*%
G04 APERTURE END LIST*
D10*
X144006077Y-120739987D02*
X143672744Y-121739987D01*
X143672744Y-121739987D02*
X143339411Y-120739987D01*
X142863220Y-121739987D02*
X142958458Y-121692368D01*
X142958458Y-121692368D02*
X143006077Y-121644748D01*
X143006077Y-121644748D02*
X143053696Y-121549510D01*
X143053696Y-121549510D02*
X143053696Y-121263796D01*
X143053696Y-121263796D02*
X143006077Y-121168558D01*
X143006077Y-121168558D02*
X142958458Y-121120939D01*
X142958458Y-121120939D02*
X142863220Y-121073320D01*
X142863220Y-121073320D02*
X142720363Y-121073320D01*
X142720363Y-121073320D02*
X142625125Y-121120939D01*
X142625125Y-121120939D02*
X142577506Y-121168558D01*
X142577506Y-121168558D02*
X142529887Y-121263796D01*
X142529887Y-121263796D02*
X142529887Y-121549510D01*
X142529887Y-121549510D02*
X142577506Y-121644748D01*
X142577506Y-121644748D02*
X142625125Y-121692368D01*
X142625125Y-121692368D02*
X142720363Y-121739987D01*
X142720363Y-121739987D02*
X142863220Y-121739987D01*
X141672744Y-121073320D02*
X141672744Y-121739987D01*
X142101315Y-121073320D02*
X142101315Y-121597129D01*
X142101315Y-121597129D02*
X142053696Y-121692368D01*
X142053696Y-121692368D02*
X141958458Y-121739987D01*
X141958458Y-121739987D02*
X141815601Y-121739987D01*
X141815601Y-121739987D02*
X141720363Y-121692368D01*
X141720363Y-121692368D02*
X141672744Y-121644748D01*
X141339410Y-121073320D02*
X140958458Y-121073320D01*
X141196553Y-120739987D02*
X141196553Y-121597129D01*
X141196553Y-121597129D02*
X141148934Y-121692368D01*
X141148934Y-121692368D02*
X141053696Y-121739987D01*
X141053696Y-121739987D02*
X140958458Y-121739987D01*
X139577505Y-122120939D02*
X139625124Y-122073320D01*
X139625124Y-122073320D02*
X139720362Y-121930463D01*
X139720362Y-121930463D02*
X139767981Y-121835225D01*
X139767981Y-121835225D02*
X139815600Y-121692368D01*
X139815600Y-121692368D02*
X139863219Y-121454272D01*
X139863219Y-121454272D02*
X139863219Y-121263796D01*
X139863219Y-121263796D02*
X139815600Y-121025701D01*
X139815600Y-121025701D02*
X139767981Y-120882844D01*
X139767981Y-120882844D02*
X139720362Y-120787606D01*
X139720362Y-120787606D02*
X139625124Y-120644748D01*
X139625124Y-120644748D02*
X139577505Y-120597129D01*
X139339409Y-120739987D02*
X138767981Y-120739987D01*
X139053695Y-121739987D02*
X139053695Y-120739987D01*
X138101314Y-121216177D02*
X137958457Y-121263796D01*
X137958457Y-121263796D02*
X137910838Y-121311415D01*
X137910838Y-121311415D02*
X137863219Y-121406653D01*
X137863219Y-121406653D02*
X137863219Y-121549510D01*
X137863219Y-121549510D02*
X137910838Y-121644748D01*
X137910838Y-121644748D02*
X137958457Y-121692368D01*
X137958457Y-121692368D02*
X138053695Y-121739987D01*
X138053695Y-121739987D02*
X138434647Y-121739987D01*
X138434647Y-121739987D02*
X138434647Y-120739987D01*
X138434647Y-120739987D02*
X138101314Y-120739987D01*
X138101314Y-120739987D02*
X138006076Y-120787606D01*
X138006076Y-120787606D02*
X137958457Y-120835225D01*
X137958457Y-120835225D02*
X137910838Y-120930463D01*
X137910838Y-120930463D02*
X137910838Y-121025701D01*
X137910838Y-121025701D02*
X137958457Y-121120939D01*
X137958457Y-121120939D02*
X138006076Y-121168558D01*
X138006076Y-121168558D02*
X138101314Y-121216177D01*
X138101314Y-121216177D02*
X138434647Y-121216177D01*
X137482266Y-121454272D02*
X137006076Y-121454272D01*
X137577504Y-121739987D02*
X137244171Y-120739987D01*
X137244171Y-120739987D02*
X136910838Y-121739987D01*
X135863218Y-120835225D02*
X135815599Y-120787606D01*
X135815599Y-120787606D02*
X135720361Y-120739987D01*
X135720361Y-120739987D02*
X135482266Y-120739987D01*
X135482266Y-120739987D02*
X135387028Y-120787606D01*
X135387028Y-120787606D02*
X135339409Y-120835225D01*
X135339409Y-120835225D02*
X135291790Y-120930463D01*
X135291790Y-120930463D02*
X135291790Y-121025701D01*
X135291790Y-121025701D02*
X135339409Y-121168558D01*
X135339409Y-121168558D02*
X135910837Y-121739987D01*
X135910837Y-121739987D02*
X135291790Y-121739987D01*
X134863218Y-121359034D02*
X134101314Y-121359034D01*
X133101314Y-121739987D02*
X133672742Y-121739987D01*
X133387028Y-121739987D02*
X133387028Y-120739987D01*
X133387028Y-120739987D02*
X133482266Y-120882844D01*
X133482266Y-120882844D02*
X133577504Y-120978082D01*
X133577504Y-120978082D02*
X133672742Y-121025701D01*
X132720361Y-120835225D02*
X132672742Y-120787606D01*
X132672742Y-120787606D02*
X132577504Y-120739987D01*
X132577504Y-120739987D02*
X132339409Y-120739987D01*
X132339409Y-120739987D02*
X132244171Y-120787606D01*
X132244171Y-120787606D02*
X132196552Y-120835225D01*
X132196552Y-120835225D02*
X132148933Y-120930463D01*
X132148933Y-120930463D02*
X132148933Y-121025701D01*
X132148933Y-121025701D02*
X132196552Y-121168558D01*
X132196552Y-121168558D02*
X132767980Y-121739987D01*
X132767980Y-121739987D02*
X132148933Y-121739987D01*
X131815599Y-121739987D02*
X131291790Y-121073320D01*
X131815599Y-121073320D02*
X131291790Y-121739987D01*
X131006075Y-121739987D02*
X130482266Y-121073320D01*
X131006075Y-121073320D02*
X130482266Y-121739987D01*
X130196551Y-122120939D02*
X130148932Y-122073320D01*
X130148932Y-122073320D02*
X130053694Y-121930463D01*
X130053694Y-121930463D02*
X130006075Y-121835225D01*
X130006075Y-121835225D02*
X129958456Y-121692368D01*
X129958456Y-121692368D02*
X129910837Y-121454272D01*
X129910837Y-121454272D02*
X129910837Y-121263796D01*
X129910837Y-121263796D02*
X129958456Y-121025701D01*
X129958456Y-121025701D02*
X130006075Y-120882844D01*
X130006075Y-120882844D02*
X130053694Y-120787606D01*
X130053694Y-120787606D02*
X130148932Y-120644748D01*
X130148932Y-120644748D02*
X130196551Y-120597129D01*
X129434646Y-121644748D02*
X129387027Y-121692368D01*
X129387027Y-121692368D02*
X129434646Y-121739987D01*
X129434646Y-121739987D02*
X129482265Y-121692368D01*
X129482265Y-121692368D02*
X129434646Y-121644748D01*
X129434646Y-121644748D02*
X129434646Y-121739987D01*
X129434646Y-121120939D02*
X129387027Y-121168558D01*
X129387027Y-121168558D02*
X129434646Y-121216177D01*
X129434646Y-121216177D02*
X129482265Y-121168558D01*
X129482265Y-121168558D02*
X129434646Y-121120939D01*
X129434646Y-121120939D02*
X129434646Y-121216177D01*
X143101315Y-122968978D02*
X142339411Y-122968978D01*
X140577506Y-123349931D02*
X141148934Y-123349931D01*
X140863220Y-123349931D02*
X140863220Y-122349931D01*
X140863220Y-122349931D02*
X140958458Y-122492788D01*
X140958458Y-122492788D02*
X141053696Y-122588026D01*
X141053696Y-122588026D02*
X141148934Y-122635645D01*
X139625125Y-123349931D02*
X140196553Y-123349931D01*
X139910839Y-123349931D02*
X139910839Y-122349931D01*
X139910839Y-122349931D02*
X140006077Y-122492788D01*
X140006077Y-122492788D02*
X140101315Y-122588026D01*
X140101315Y-122588026D02*
X140196553Y-122635645D01*
X138148934Y-123730883D02*
X138196553Y-123683264D01*
X138196553Y-123683264D02*
X138291791Y-123540407D01*
X138291791Y-123540407D02*
X138339410Y-123445169D01*
X138339410Y-123445169D02*
X138387029Y-123302312D01*
X138387029Y-123302312D02*
X138434648Y-123064216D01*
X138434648Y-123064216D02*
X138434648Y-122873740D01*
X138434648Y-122873740D02*
X138387029Y-122635645D01*
X138387029Y-122635645D02*
X138339410Y-122492788D01*
X138339410Y-122492788D02*
X138291791Y-122397550D01*
X138291791Y-122397550D02*
X138196553Y-122254692D01*
X138196553Y-122254692D02*
X138148934Y-122207073D01*
X137291791Y-122349931D02*
X137767981Y-122349931D01*
X137767981Y-122349931D02*
X137815600Y-122826121D01*
X137815600Y-122826121D02*
X137767981Y-122778502D01*
X137767981Y-122778502D02*
X137672743Y-122730883D01*
X137672743Y-122730883D02*
X137434648Y-122730883D01*
X137434648Y-122730883D02*
X137339410Y-122778502D01*
X137339410Y-122778502D02*
X137291791Y-122826121D01*
X137291791Y-122826121D02*
X137244172Y-122921359D01*
X137244172Y-122921359D02*
X137244172Y-123159454D01*
X137244172Y-123159454D02*
X137291791Y-123254692D01*
X137291791Y-123254692D02*
X137339410Y-123302312D01*
X137339410Y-123302312D02*
X137434648Y-123349931D01*
X137434648Y-123349931D02*
X137672743Y-123349931D01*
X137672743Y-123349931D02*
X137767981Y-123302312D01*
X137767981Y-123302312D02*
X137815600Y-123254692D01*
X136958457Y-122349931D02*
X136625124Y-123349931D01*
X136625124Y-123349931D02*
X136291791Y-122349931D01*
X136053695Y-123730883D02*
X136006076Y-123683264D01*
X136006076Y-123683264D02*
X135910838Y-123540407D01*
X135910838Y-123540407D02*
X135863219Y-123445169D01*
X135863219Y-123445169D02*
X135815600Y-123302312D01*
X135815600Y-123302312D02*
X135767981Y-123064216D01*
X135767981Y-123064216D02*
X135767981Y-122873740D01*
X135767981Y-122873740D02*
X135815600Y-122635645D01*
X135815600Y-122635645D02*
X135863219Y-122492788D01*
X135863219Y-122492788D02*
X135910838Y-122397550D01*
X135910838Y-122397550D02*
X136006076Y-122254692D01*
X136006076Y-122254692D02*
X136053695Y-122207073D01*
X143101315Y-124578922D02*
X142339411Y-124578922D01*
X140577506Y-124959875D02*
X141148934Y-124959875D01*
X140863220Y-124959875D02*
X140863220Y-123959875D01*
X140863220Y-123959875D02*
X140958458Y-124102732D01*
X140958458Y-124102732D02*
X141053696Y-124197970D01*
X141053696Y-124197970D02*
X141148934Y-124245589D01*
X140196553Y-124055113D02*
X140148934Y-124007494D01*
X140148934Y-124007494D02*
X140053696Y-123959875D01*
X140053696Y-123959875D02*
X139815601Y-123959875D01*
X139815601Y-123959875D02*
X139720363Y-124007494D01*
X139720363Y-124007494D02*
X139672744Y-124055113D01*
X139672744Y-124055113D02*
X139625125Y-124150351D01*
X139625125Y-124150351D02*
X139625125Y-124245589D01*
X139625125Y-124245589D02*
X139672744Y-124388446D01*
X139672744Y-124388446D02*
X140244172Y-124959875D01*
X140244172Y-124959875D02*
X139625125Y-124959875D01*
X138148934Y-125340827D02*
X138196553Y-125293208D01*
X138196553Y-125293208D02*
X138291791Y-125150351D01*
X138291791Y-125150351D02*
X138339410Y-125055113D01*
X138339410Y-125055113D02*
X138387029Y-124912256D01*
X138387029Y-124912256D02*
X138434648Y-124674160D01*
X138434648Y-124674160D02*
X138434648Y-124483684D01*
X138434648Y-124483684D02*
X138387029Y-124245589D01*
X138387029Y-124245589D02*
X138339410Y-124102732D01*
X138339410Y-124102732D02*
X138291791Y-124007494D01*
X138291791Y-124007494D02*
X138196553Y-123864636D01*
X138196553Y-123864636D02*
X138148934Y-123817017D01*
X137244172Y-124959875D02*
X137815600Y-124959875D01*
X137529886Y-124959875D02*
X137529886Y-123959875D01*
X137529886Y-123959875D02*
X137625124Y-124102732D01*
X137625124Y-124102732D02*
X137720362Y-124197970D01*
X137720362Y-124197970D02*
X137815600Y-124245589D01*
X136863219Y-124055113D02*
X136815600Y-124007494D01*
X136815600Y-124007494D02*
X136720362Y-123959875D01*
X136720362Y-123959875D02*
X136482267Y-123959875D01*
X136482267Y-123959875D02*
X136387029Y-124007494D01*
X136387029Y-124007494D02*
X136339410Y-124055113D01*
X136339410Y-124055113D02*
X136291791Y-124150351D01*
X136291791Y-124150351D02*
X136291791Y-124245589D01*
X136291791Y-124245589D02*
X136339410Y-124388446D01*
X136339410Y-124388446D02*
X136910838Y-124959875D01*
X136910838Y-124959875D02*
X136291791Y-124959875D01*
X136006076Y-123959875D02*
X135672743Y-124959875D01*
X135672743Y-124959875D02*
X135339410Y-123959875D01*
X135101314Y-125340827D02*
X135053695Y-125293208D01*
X135053695Y-125293208D02*
X134958457Y-125150351D01*
X134958457Y-125150351D02*
X134910838Y-125055113D01*
X134910838Y-125055113D02*
X134863219Y-124912256D01*
X134863219Y-124912256D02*
X134815600Y-124674160D01*
X134815600Y-124674160D02*
X134815600Y-124483684D01*
X134815600Y-124483684D02*
X134863219Y-124245589D01*
X134863219Y-124245589D02*
X134910838Y-124102732D01*
X134910838Y-124102732D02*
X134958457Y-124007494D01*
X134958457Y-124007494D02*
X135053695Y-123864636D01*
X135053695Y-123864636D02*
X135101314Y-123817017D01*
X143101315Y-126188866D02*
X142339411Y-126188866D01*
X140577506Y-126569819D02*
X141148934Y-126569819D01*
X140863220Y-126569819D02*
X140863220Y-125569819D01*
X140863220Y-125569819D02*
X140958458Y-125712676D01*
X140958458Y-125712676D02*
X141053696Y-125807914D01*
X141053696Y-125807914D02*
X141148934Y-125855533D01*
X140244172Y-125569819D02*
X139625125Y-125569819D01*
X139625125Y-125569819D02*
X139958458Y-125950771D01*
X139958458Y-125950771D02*
X139815601Y-125950771D01*
X139815601Y-125950771D02*
X139720363Y-125998390D01*
X139720363Y-125998390D02*
X139672744Y-126046009D01*
X139672744Y-126046009D02*
X139625125Y-126141247D01*
X139625125Y-126141247D02*
X139625125Y-126379342D01*
X139625125Y-126379342D02*
X139672744Y-126474580D01*
X139672744Y-126474580D02*
X139720363Y-126522200D01*
X139720363Y-126522200D02*
X139815601Y-126569819D01*
X139815601Y-126569819D02*
X140101315Y-126569819D01*
X140101315Y-126569819D02*
X140196553Y-126522200D01*
X140196553Y-126522200D02*
X140244172Y-126474580D01*
X138148934Y-126950771D02*
X138196553Y-126903152D01*
X138196553Y-126903152D02*
X138291791Y-126760295D01*
X138291791Y-126760295D02*
X138339410Y-126665057D01*
X138339410Y-126665057D02*
X138387029Y-126522200D01*
X138387029Y-126522200D02*
X138434648Y-126284104D01*
X138434648Y-126284104D02*
X138434648Y-126093628D01*
X138434648Y-126093628D02*
X138387029Y-125855533D01*
X138387029Y-125855533D02*
X138339410Y-125712676D01*
X138339410Y-125712676D02*
X138291791Y-125617438D01*
X138291791Y-125617438D02*
X138196553Y-125474580D01*
X138196553Y-125474580D02*
X138148934Y-125426961D01*
X137244172Y-126569819D02*
X137815600Y-126569819D01*
X137529886Y-126569819D02*
X137529886Y-125569819D01*
X137529886Y-125569819D02*
X137625124Y-125712676D01*
X137625124Y-125712676D02*
X137720362Y-125807914D01*
X137720362Y-125807914D02*
X137815600Y-125855533D01*
X136339410Y-125569819D02*
X136815600Y-125569819D01*
X136815600Y-125569819D02*
X136863219Y-126046009D01*
X136863219Y-126046009D02*
X136815600Y-125998390D01*
X136815600Y-125998390D02*
X136720362Y-125950771D01*
X136720362Y-125950771D02*
X136482267Y-125950771D01*
X136482267Y-125950771D02*
X136387029Y-125998390D01*
X136387029Y-125998390D02*
X136339410Y-126046009D01*
X136339410Y-126046009D02*
X136291791Y-126141247D01*
X136291791Y-126141247D02*
X136291791Y-126379342D01*
X136291791Y-126379342D02*
X136339410Y-126474580D01*
X136339410Y-126474580D02*
X136387029Y-126522200D01*
X136387029Y-126522200D02*
X136482267Y-126569819D01*
X136482267Y-126569819D02*
X136720362Y-126569819D01*
X136720362Y-126569819D02*
X136815600Y-126522200D01*
X136815600Y-126522200D02*
X136863219Y-126474580D01*
X136006076Y-125569819D02*
X135672743Y-126569819D01*
X135672743Y-126569819D02*
X135339410Y-125569819D01*
X135101314Y-126950771D02*
X135053695Y-126903152D01*
X135053695Y-126903152D02*
X134958457Y-126760295D01*
X134958457Y-126760295D02*
X134910838Y-126665057D01*
X134910838Y-126665057D02*
X134863219Y-126522200D01*
X134863219Y-126522200D02*
X134815600Y-126284104D01*
X134815600Y-126284104D02*
X134815600Y-126093628D01*
X134815600Y-126093628D02*
X134863219Y-125855533D01*
X134863219Y-125855533D02*
X134910838Y-125712676D01*
X134910838Y-125712676D02*
X134958457Y-125617438D01*
X134958457Y-125617438D02*
X135053695Y-125474580D01*
X135053695Y-125474580D02*
X135101314Y-125426961D01*
X144366666Y-113154819D02*
X144699999Y-112678628D01*
X144938094Y-113154819D02*
X144938094Y-112154819D01*
X144938094Y-112154819D02*
X144557142Y-112154819D01*
X144557142Y-112154819D02*
X144461904Y-112202438D01*
X144461904Y-112202438D02*
X144414285Y-112250057D01*
X144414285Y-112250057D02*
X144366666Y-112345295D01*
X144366666Y-112345295D02*
X144366666Y-112488152D01*
X144366666Y-112488152D02*
X144414285Y-112583390D01*
X144414285Y-112583390D02*
X144461904Y-112631009D01*
X144461904Y-112631009D02*
X144557142Y-112678628D01*
X144557142Y-112678628D02*
X144938094Y-112678628D01*
X143985713Y-112250057D02*
X143938094Y-112202438D01*
X143938094Y-112202438D02*
X143842856Y-112154819D01*
X143842856Y-112154819D02*
X143604761Y-112154819D01*
X143604761Y-112154819D02*
X143509523Y-112202438D01*
X143509523Y-112202438D02*
X143461904Y-112250057D01*
X143461904Y-112250057D02*
X143414285Y-112345295D01*
X143414285Y-112345295D02*
X143414285Y-112440533D01*
X143414285Y-112440533D02*
X143461904Y-112583390D01*
X143461904Y-112583390D02*
X144033332Y-113154819D01*
X144033332Y-113154819D02*
X143414285Y-113154819D01*
D11*
X130824466Y-106755580D02*
X130872085Y-106803200D01*
X130872085Y-106803200D02*
X131014942Y-106850819D01*
X131014942Y-106850819D02*
X131110180Y-106850819D01*
X131110180Y-106850819D02*
X131253037Y-106803200D01*
X131253037Y-106803200D02*
X131348275Y-106707961D01*
X131348275Y-106707961D02*
X131395894Y-106612723D01*
X131395894Y-106612723D02*
X131443513Y-106422247D01*
X131443513Y-106422247D02*
X131443513Y-106279390D01*
X131443513Y-106279390D02*
X131395894Y-106088914D01*
X131395894Y-106088914D02*
X131348275Y-105993676D01*
X131348275Y-105993676D02*
X131253037Y-105898438D01*
X131253037Y-105898438D02*
X131110180Y-105850819D01*
X131110180Y-105850819D02*
X131014942Y-105850819D01*
X131014942Y-105850819D02*
X130872085Y-105898438D01*
X130872085Y-105898438D02*
X130824466Y-105946057D01*
X129967323Y-106184152D02*
X129967323Y-106850819D01*
X130205418Y-105803200D02*
X130443513Y-106517485D01*
X130443513Y-106517485D02*
X129824466Y-106517485D01*
D10*
X150544819Y-107173333D02*
X150068628Y-106840000D01*
X150544819Y-106601905D02*
X149544819Y-106601905D01*
X149544819Y-106601905D02*
X149544819Y-106982857D01*
X149544819Y-106982857D02*
X149592438Y-107078095D01*
X149592438Y-107078095D02*
X149640057Y-107125714D01*
X149640057Y-107125714D02*
X149735295Y-107173333D01*
X149735295Y-107173333D02*
X149878152Y-107173333D01*
X149878152Y-107173333D02*
X149973390Y-107125714D01*
X149973390Y-107125714D02*
X150021009Y-107078095D01*
X150021009Y-107078095D02*
X150068628Y-106982857D01*
X150068628Y-106982857D02*
X150068628Y-106601905D01*
X149878152Y-108030476D02*
X150544819Y-108030476D01*
X149497200Y-107792381D02*
X150211485Y-107554286D01*
X150211485Y-107554286D02*
X150211485Y-108173333D01*
X136666666Y-113259580D02*
X136714285Y-113307200D01*
X136714285Y-113307200D02*
X136857142Y-113354819D01*
X136857142Y-113354819D02*
X136952380Y-113354819D01*
X136952380Y-113354819D02*
X137095237Y-113307200D01*
X137095237Y-113307200D02*
X137190475Y-113211961D01*
X137190475Y-113211961D02*
X137238094Y-113116723D01*
X137238094Y-113116723D02*
X137285713Y-112926247D01*
X137285713Y-112926247D02*
X137285713Y-112783390D01*
X137285713Y-112783390D02*
X137238094Y-112592914D01*
X137238094Y-112592914D02*
X137190475Y-112497676D01*
X137190475Y-112497676D02*
X137095237Y-112402438D01*
X137095237Y-112402438D02*
X136952380Y-112354819D01*
X136952380Y-112354819D02*
X136857142Y-112354819D01*
X136857142Y-112354819D02*
X136714285Y-112402438D01*
X136714285Y-112402438D02*
X136666666Y-112450057D01*
X135809523Y-112354819D02*
X135999999Y-112354819D01*
X135999999Y-112354819D02*
X136095237Y-112402438D01*
X136095237Y-112402438D02*
X136142856Y-112450057D01*
X136142856Y-112450057D02*
X136238094Y-112592914D01*
X136238094Y-112592914D02*
X136285713Y-112783390D01*
X136285713Y-112783390D02*
X136285713Y-113164342D01*
X136285713Y-113164342D02*
X136238094Y-113259580D01*
X136238094Y-113259580D02*
X136190475Y-113307200D01*
X136190475Y-113307200D02*
X136095237Y-113354819D01*
X136095237Y-113354819D02*
X135904761Y-113354819D01*
X135904761Y-113354819D02*
X135809523Y-113307200D01*
X135809523Y-113307200D02*
X135761904Y-113259580D01*
X135761904Y-113259580D02*
X135714285Y-113164342D01*
X135714285Y-113164342D02*
X135714285Y-112926247D01*
X135714285Y-112926247D02*
X135761904Y-112831009D01*
X135761904Y-112831009D02*
X135809523Y-112783390D01*
X135809523Y-112783390D02*
X135904761Y-112735771D01*
X135904761Y-112735771D02*
X136095237Y-112735771D01*
X136095237Y-112735771D02*
X136190475Y-112783390D01*
X136190475Y-112783390D02*
X136238094Y-112831009D01*
X136238094Y-112831009D02*
X136285713Y-112926247D01*
X135238094Y-98954819D02*
X135238094Y-97954819D01*
X135238094Y-97954819D02*
X134999999Y-97954819D01*
X134999999Y-97954819D02*
X134857142Y-98002438D01*
X134857142Y-98002438D02*
X134761904Y-98097676D01*
X134761904Y-98097676D02*
X134714285Y-98192914D01*
X134714285Y-98192914D02*
X134666666Y-98383390D01*
X134666666Y-98383390D02*
X134666666Y-98526247D01*
X134666666Y-98526247D02*
X134714285Y-98716723D01*
X134714285Y-98716723D02*
X134761904Y-98811961D01*
X134761904Y-98811961D02*
X134857142Y-98907200D01*
X134857142Y-98907200D02*
X134999999Y-98954819D01*
X134999999Y-98954819D02*
X135238094Y-98954819D01*
X133714285Y-98954819D02*
X134285713Y-98954819D01*
X133999999Y-98954819D02*
X133999999Y-97954819D01*
X133999999Y-97954819D02*
X134095237Y-98097676D01*
X134095237Y-98097676D02*
X134190475Y-98192914D01*
X134190475Y-98192914D02*
X134285713Y-98240533D01*
X128506666Y-104689580D02*
X128554285Y-104737200D01*
X128554285Y-104737200D02*
X128697142Y-104784819D01*
X128697142Y-104784819D02*
X128792380Y-104784819D01*
X128792380Y-104784819D02*
X128935237Y-104737200D01*
X128935237Y-104737200D02*
X129030475Y-104641961D01*
X129030475Y-104641961D02*
X129078094Y-104546723D01*
X129078094Y-104546723D02*
X129125713Y-104356247D01*
X129125713Y-104356247D02*
X129125713Y-104213390D01*
X129125713Y-104213390D02*
X129078094Y-104022914D01*
X129078094Y-104022914D02*
X129030475Y-103927676D01*
X129030475Y-103927676D02*
X128935237Y-103832438D01*
X128935237Y-103832438D02*
X128792380Y-103784819D01*
X128792380Y-103784819D02*
X128697142Y-103784819D01*
X128697142Y-103784819D02*
X128554285Y-103832438D01*
X128554285Y-103832438D02*
X128506666Y-103880057D01*
X128125713Y-103880057D02*
X128078094Y-103832438D01*
X128078094Y-103832438D02*
X127982856Y-103784819D01*
X127982856Y-103784819D02*
X127744761Y-103784819D01*
X127744761Y-103784819D02*
X127649523Y-103832438D01*
X127649523Y-103832438D02*
X127601904Y-103880057D01*
X127601904Y-103880057D02*
X127554285Y-103975295D01*
X127554285Y-103975295D02*
X127554285Y-104070533D01*
X127554285Y-104070533D02*
X127601904Y-104213390D01*
X127601904Y-104213390D02*
X128173332Y-104784819D01*
X128173332Y-104784819D02*
X127554285Y-104784819D01*
D11*
X132746666Y-106699180D02*
X132794285Y-106746800D01*
X132794285Y-106746800D02*
X132937142Y-106794419D01*
X132937142Y-106794419D02*
X133032380Y-106794419D01*
X133032380Y-106794419D02*
X133175237Y-106746800D01*
X133175237Y-106746800D02*
X133270475Y-106651561D01*
X133270475Y-106651561D02*
X133318094Y-106556323D01*
X133318094Y-106556323D02*
X133365713Y-106365847D01*
X133365713Y-106365847D02*
X133365713Y-106222990D01*
X133365713Y-106222990D02*
X133318094Y-106032514D01*
X133318094Y-106032514D02*
X133270475Y-105937276D01*
X133270475Y-105937276D02*
X133175237Y-105842038D01*
X133175237Y-105842038D02*
X133032380Y-105794419D01*
X133032380Y-105794419D02*
X132937142Y-105794419D01*
X132937142Y-105794419D02*
X132794285Y-105842038D01*
X132794285Y-105842038D02*
X132746666Y-105889657D01*
X131841904Y-105794419D02*
X132318094Y-105794419D01*
X132318094Y-105794419D02*
X132365713Y-106270609D01*
X132365713Y-106270609D02*
X132318094Y-106222990D01*
X132318094Y-106222990D02*
X132222856Y-106175371D01*
X132222856Y-106175371D02*
X131984761Y-106175371D01*
X131984761Y-106175371D02*
X131889523Y-106222990D01*
X131889523Y-106222990D02*
X131841904Y-106270609D01*
X131841904Y-106270609D02*
X131794285Y-106365847D01*
X131794285Y-106365847D02*
X131794285Y-106603942D01*
X131794285Y-106603942D02*
X131841904Y-106699180D01*
X131841904Y-106699180D02*
X131889523Y-106746800D01*
X131889523Y-106746800D02*
X131984761Y-106794419D01*
X131984761Y-106794419D02*
X132222856Y-106794419D01*
X132222856Y-106794419D02*
X132318094Y-106746800D01*
X132318094Y-106746800D02*
X132365713Y-106699180D01*
D10*
X128516666Y-102619580D02*
X128564285Y-102667200D01*
X128564285Y-102667200D02*
X128707142Y-102714819D01*
X128707142Y-102714819D02*
X128802380Y-102714819D01*
X128802380Y-102714819D02*
X128945237Y-102667200D01*
X128945237Y-102667200D02*
X129040475Y-102571961D01*
X129040475Y-102571961D02*
X129088094Y-102476723D01*
X129088094Y-102476723D02*
X129135713Y-102286247D01*
X129135713Y-102286247D02*
X129135713Y-102143390D01*
X129135713Y-102143390D02*
X129088094Y-101952914D01*
X129088094Y-101952914D02*
X129040475Y-101857676D01*
X129040475Y-101857676D02*
X128945237Y-101762438D01*
X128945237Y-101762438D02*
X128802380Y-101714819D01*
X128802380Y-101714819D02*
X128707142Y-101714819D01*
X128707142Y-101714819D02*
X128564285Y-101762438D01*
X128564285Y-101762438D02*
X128516666Y-101810057D01*
X127564285Y-102714819D02*
X128135713Y-102714819D01*
X127849999Y-102714819D02*
X127849999Y-101714819D01*
X127849999Y-101714819D02*
X127945237Y-101857676D01*
X127945237Y-101857676D02*
X128040475Y-101952914D01*
X128040475Y-101952914D02*
X128135713Y-102000533D01*
X133066666Y-118454819D02*
X133399999Y-117978628D01*
X133638094Y-118454819D02*
X133638094Y-117454819D01*
X133638094Y-117454819D02*
X133257142Y-117454819D01*
X133257142Y-117454819D02*
X133161904Y-117502438D01*
X133161904Y-117502438D02*
X133114285Y-117550057D01*
X133114285Y-117550057D02*
X133066666Y-117645295D01*
X133066666Y-117645295D02*
X133066666Y-117788152D01*
X133066666Y-117788152D02*
X133114285Y-117883390D01*
X133114285Y-117883390D02*
X133161904Y-117931009D01*
X133161904Y-117931009D02*
X133257142Y-117978628D01*
X133257142Y-117978628D02*
X133638094Y-117978628D01*
X132114285Y-118454819D02*
X132685713Y-118454819D01*
X132399999Y-118454819D02*
X132399999Y-117454819D01*
X132399999Y-117454819D02*
X132495237Y-117597676D01*
X132495237Y-117597676D02*
X132590475Y-117692914D01*
X132590475Y-117692914D02*
X132685713Y-117740533D01*
X127321904Y-110484819D02*
X127321904Y-111294342D01*
X127321904Y-111294342D02*
X127274285Y-111389580D01*
X127274285Y-111389580D02*
X127226666Y-111437200D01*
X127226666Y-111437200D02*
X127131428Y-111484819D01*
X127131428Y-111484819D02*
X126940952Y-111484819D01*
X126940952Y-111484819D02*
X126845714Y-111437200D01*
X126845714Y-111437200D02*
X126798095Y-111389580D01*
X126798095Y-111389580D02*
X126750476Y-111294342D01*
X126750476Y-111294342D02*
X126750476Y-110484819D01*
X125750476Y-111484819D02*
X126321904Y-111484819D01*
X126036190Y-111484819D02*
X126036190Y-110484819D01*
X126036190Y-110484819D02*
X126131428Y-110627676D01*
X126131428Y-110627676D02*
X126226666Y-110722914D01*
X126226666Y-110722914D02*
X126321904Y-110770533D01*
D12*
X121156000Y-117005000D02*
G75*
G02*
X120394000Y-117005000I-381000J0D01*
G01*
X120394000Y-117005000D02*
G75*
G02*
X121156000Y-117005000I381000J0D01*
G01*
D13*
X142875000Y-109046263D02*
X142875000Y-110493737D01*
X145585000Y-109046263D02*
X145585000Y-110493737D01*
X129892800Y-104249852D02*
X129892800Y-103727348D01*
X131362800Y-104249852D02*
X131362800Y-103727348D01*
X149355000Y-110197064D02*
X149355000Y-109742936D01*
X150825000Y-110197064D02*
X150825000Y-109742936D01*
X133925000Y-112638748D02*
X133925000Y-113161252D01*
X135395000Y-112638748D02*
X135395000Y-113161252D01*
X130150000Y-96750000D02*
X130150000Y-102260000D01*
X130150000Y-102260000D02*
X133450000Y-102260000D01*
X133450000Y-96750000D02*
X133450000Y-102260000D01*
X126051252Y-103585000D02*
X125528748Y-103585000D01*
X126051252Y-105055000D02*
X125528748Y-105055000D01*
X131845000Y-103718748D02*
X131845000Y-104241252D01*
X133315000Y-103718748D02*
X133315000Y-104241252D01*
X126061252Y-101625000D02*
X125538748Y-101625000D01*
X126061252Y-103095000D02*
X125538748Y-103095000D01*
X135326263Y-116645000D02*
X136773737Y-116645000D01*
X135326263Y-119355000D02*
X136773737Y-119355000D01*
X124232500Y-106190000D02*
X125212500Y-106190000D01*
X124232500Y-108910000D02*
X124232500Y-106190000D01*
X128952500Y-106190000D02*
X127972500Y-106190000D01*
X128952500Y-106190000D02*
X128952500Y-108770000D01*
X129132500Y-109560000D02*
X128802500Y-109320000D01*
X129132500Y-109080000D01*
X129132500Y-109560000D01*
G36*
X129132500Y-109560000D02*
G01*
X128802500Y-109320000D01*
X129132500Y-109080000D01*
X129132500Y-109560000D01*
G37*
%LPC*%
D14*
X148500000Y-123500000D03*
X148500000Y-96500000D03*
X121500000Y-96500000D03*
D15*
X127700000Y-99000000D03*
X127700000Y-94000000D03*
D16*
X134659700Y-103062500D03*
D17*
X134659700Y-105602500D03*
X134659700Y-110682500D03*
X134659700Y-115762500D03*
D15*
X142300000Y-99000000D03*
X142300000Y-94000000D03*
D18*
X120775000Y-113830000D03*
X120775000Y-111290000D03*
X120775000Y-108750000D03*
X120775000Y-106210000D03*
D19*
X147500000Y-113500000D03*
D20*
X147500000Y-110000000D03*
X147500000Y-106500000D03*
D14*
X121500000Y-123500000D03*
D21*
X144230000Y-111232500D03*
X144230000Y-108307500D03*
D22*
X130627800Y-103038600D03*
X130627800Y-104938600D03*
D23*
X150090000Y-109057500D03*
X150090000Y-110882500D03*
D24*
X134660000Y-113850000D03*
X134660000Y-111950000D03*
D25*
X131800000Y-100750000D03*
X131800000Y-96750000D03*
D26*
X124840000Y-104320000D03*
X126740000Y-104320000D03*
D24*
X132580000Y-104930000D03*
X132580000Y-103030000D03*
D26*
X124850000Y-102360000D03*
X126750000Y-102360000D03*
D27*
X137512500Y-118000000D03*
X134587500Y-118000000D03*
D28*
X128092500Y-109500000D03*
D29*
X126592500Y-109412500D03*
D28*
X125092500Y-109500000D03*
%LPD*%
M02*
