G04 #@! TF.GenerationSoftware,KiCad,Pcbnew,8.0.7*
G04 #@! TF.CreationDate,2025-01-24T14:26:26+01:00*
G04 #@! TF.ProjectId,STM32F4_GateSignalGenerator_GateDriver,53544d33-3246-4345-9f47-617465536967,rev?*
G04 #@! TF.SameCoordinates,Original*
G04 #@! TF.FileFunction,Legend,Top*
G04 #@! TF.FilePolarity,Positive*
%FSLAX46Y46*%
G04 Gerber Fmt 4.6, Leading zero omitted, Abs format (unit mm)*
G04 Created by KiCad (PCBNEW 8.0.7) date 2025-01-24 14:26:26*
%MOMM*%
%LPD*%
G01*
G04 APERTURE LIST*
G04 Aperture macros list*
%AMRoundRect*
0 Rectangle with rounded corners*
0 $1 Rounding radius*
0 $2 $3 $4 $5 $6 $7 $8 $9 X,Y pos of 4 corners*
0 Add a 4 corners polygon primitive as box body*
4,1,4,$2,$3,$4,$5,$6,$7,$8,$9,$2,$3,0*
0 Add four circle primitives for the rounded corners*
1,1,$1+$1,$2,$3*
1,1,$1+$1,$4,$5*
1,1,$1+$1,$6,$7*
1,1,$1+$1,$8,$9*
0 Add four rect primitives between the rounded corners*
20,1,$1+$1,$2,$3,$4,$5,0*
20,1,$1+$1,$4,$5,$6,$7,0*
20,1,$1+$1,$6,$7,$8,$9,0*
20,1,$1+$1,$8,$9,$2,$3,0*%
G04 Aperture macros list end*
%ADD10C,0.000000*%
%ADD11C,0.150000*%
%ADD12C,0.200000*%
%ADD13C,0.120000*%
%ADD14C,0.127000*%
%ADD15C,0.152400*%
%ADD16C,0.508000*%
%ADD17C,0.100000*%
%ADD18RoundRect,0.243750X0.243750X0.456250X-0.243750X0.456250X-0.243750X-0.456250X0.243750X-0.456250X0*%
%ADD19C,3.200000*%
%ADD20RoundRect,0.150000X-0.150000X0.512500X-0.150000X-0.512500X0.150000X-0.512500X0.150000X0.512500X0*%
%ADD21RoundRect,0.250000X0.250000X0.475000X-0.250000X0.475000X-0.250000X-0.475000X0.250000X-0.475000X0*%
%ADD22RoundRect,0.150000X-0.150000X0.825000X-0.150000X-0.825000X0.150000X-0.825000X0.150000X0.825000X0*%
%ADD23C,1.989000*%
%ADD24R,1.500000X1.500000*%
%ADD25C,1.500000*%
%ADD26RoundRect,0.250000X-0.450000X0.262500X-0.450000X-0.262500X0.450000X-0.262500X0.450000X0.262500X0*%
%ADD27C,1.524000*%
%ADD28R,2.100000X2.100000*%
%ADD29C,2.100000*%
G04 APERTURE END LIST*
D10*
G36*
X140500000Y-122500000D02*
G01*
X141262000Y-122119000D01*
X140817500Y-123706473D01*
X141073029Y-123591671D01*
X140563500Y-124341500D01*
X140373000Y-123452500D01*
X140563500Y-123643000D01*
X140754000Y-122627000D01*
X139928500Y-123008000D01*
X140436500Y-121166500D01*
X141008000Y-121166500D01*
X140500000Y-122500000D01*
G37*
G36*
X140721031Y-119426705D02*
G01*
X140736360Y-119428128D01*
X140751584Y-119430560D01*
X140766658Y-119434029D01*
X140781537Y-119438564D01*
X140788889Y-119441240D01*
X140796175Y-119444194D01*
X140803389Y-119447429D01*
X140810526Y-119450948D01*
X140817580Y-119454755D01*
X140824546Y-119458854D01*
X140831417Y-119463249D01*
X140838188Y-119467942D01*
X140844853Y-119472938D01*
X140851407Y-119478240D01*
X140857844Y-119483852D01*
X140864159Y-119489777D01*
X140870345Y-119496019D01*
X140876397Y-119502582D01*
X140882309Y-119509468D01*
X140888076Y-119516683D01*
X140893691Y-119524229D01*
X140899150Y-119532109D01*
X140904447Y-119540329D01*
X140909575Y-119548890D01*
X143802529Y-124559516D01*
X143802561Y-124559532D01*
X143802577Y-124559540D01*
X143802593Y-124559548D01*
X143810971Y-124575305D01*
X143818096Y-124591300D01*
X143823997Y-124607484D01*
X143828699Y-124623810D01*
X143832229Y-124640229D01*
X143834615Y-124656692D01*
X143835883Y-124673151D01*
X143836061Y-124689558D01*
X143835175Y-124705864D01*
X143833252Y-124722021D01*
X143830319Y-124737981D01*
X143826404Y-124753694D01*
X143821533Y-124769113D01*
X143815733Y-124784189D01*
X143809030Y-124798874D01*
X143801453Y-124813119D01*
X143793028Y-124826877D01*
X143783781Y-124840098D01*
X143773740Y-124852733D01*
X143762932Y-124864736D01*
X143751384Y-124876057D01*
X143739122Y-124886648D01*
X143726173Y-124896460D01*
X143712566Y-124905445D01*
X143698325Y-124913556D01*
X143683479Y-124920742D01*
X143668055Y-124926956D01*
X143652079Y-124932149D01*
X143635577Y-124936274D01*
X143618579Y-124939281D01*
X143601109Y-124941122D01*
X143583195Y-124941750D01*
X137797287Y-124941750D01*
X137779378Y-124941126D01*
X137761913Y-124939288D01*
X137744919Y-124936283D01*
X137728421Y-124932161D01*
X137712448Y-124926969D01*
X137697026Y-124920757D01*
X137682182Y-124913571D01*
X137667943Y-124905462D01*
X137654337Y-124896477D01*
X137641389Y-124886665D01*
X137629128Y-124876074D01*
X137617580Y-124864753D01*
X137606773Y-124852750D01*
X137596732Y-124840113D01*
X137587485Y-124826891D01*
X137579060Y-124813133D01*
X137571483Y-124798886D01*
X137564781Y-124784200D01*
X137558981Y-124769123D01*
X137554110Y-124753702D01*
X137550195Y-124737988D01*
X137547263Y-124722027D01*
X137545341Y-124705869D01*
X137544457Y-124689562D01*
X137544636Y-124673154D01*
X137545906Y-124656693D01*
X137548295Y-124640229D01*
X137551828Y-124623810D01*
X137556534Y-124607484D01*
X137562438Y-124591299D01*
X137569569Y-124575304D01*
X137577952Y-124559548D01*
X137650623Y-124433680D01*
X138237336Y-124433680D01*
X143143241Y-124433680D01*
X140690288Y-120185107D01*
X138237336Y-124433680D01*
X137650623Y-124433680D01*
X140470906Y-119548869D01*
X140481332Y-119532092D01*
X140492408Y-119516670D01*
X140504090Y-119502573D01*
X140516331Y-119489773D01*
X140529086Y-119478241D01*
X140542309Y-119467948D01*
X140555954Y-119458864D01*
X140569977Y-119450961D01*
X140584331Y-119444210D01*
X140598970Y-119438582D01*
X140613849Y-119434047D01*
X140628922Y-119430578D01*
X140644143Y-119428144D01*
X140659467Y-119426718D01*
X140674848Y-119426269D01*
X140690241Y-119426769D01*
X140705643Y-119426262D01*
X140721031Y-119426705D01*
G37*
D11*
X144293333Y-117204819D02*
X143817143Y-117204819D01*
X143817143Y-117204819D02*
X143817143Y-116204819D01*
X144626667Y-117204819D02*
X144626667Y-116204819D01*
X144626667Y-116204819D02*
X144864762Y-116204819D01*
X144864762Y-116204819D02*
X145007619Y-116252438D01*
X145007619Y-116252438D02*
X145102857Y-116347676D01*
X145102857Y-116347676D02*
X145150476Y-116442914D01*
X145150476Y-116442914D02*
X145198095Y-116633390D01*
X145198095Y-116633390D02*
X145198095Y-116776247D01*
X145198095Y-116776247D02*
X145150476Y-116966723D01*
X145150476Y-116966723D02*
X145102857Y-117061961D01*
X145102857Y-117061961D02*
X145007619Y-117157200D01*
X145007619Y-117157200D02*
X144864762Y-117204819D01*
X144864762Y-117204819D02*
X144626667Y-117204819D01*
X146150476Y-117204819D02*
X145579048Y-117204819D01*
X145864762Y-117204819D02*
X145864762Y-116204819D01*
X145864762Y-116204819D02*
X145769524Y-116347676D01*
X145769524Y-116347676D02*
X145674286Y-116442914D01*
X145674286Y-116442914D02*
X145579048Y-116490533D01*
X124738095Y-114854819D02*
X124738095Y-115664342D01*
X124738095Y-115664342D02*
X124785714Y-115759580D01*
X124785714Y-115759580D02*
X124833333Y-115807200D01*
X124833333Y-115807200D02*
X124928571Y-115854819D01*
X124928571Y-115854819D02*
X125119047Y-115854819D01*
X125119047Y-115854819D02*
X125214285Y-115807200D01*
X125214285Y-115807200D02*
X125261904Y-115759580D01*
X125261904Y-115759580D02*
X125309523Y-115664342D01*
X125309523Y-115664342D02*
X125309523Y-114854819D01*
X126214285Y-115188152D02*
X126214285Y-115854819D01*
X125976190Y-114807200D02*
X125738095Y-115521485D01*
X125738095Y-115521485D02*
X126357142Y-115521485D01*
X141973333Y-114019580D02*
X141925714Y-114067200D01*
X141925714Y-114067200D02*
X141782857Y-114114819D01*
X141782857Y-114114819D02*
X141687619Y-114114819D01*
X141687619Y-114114819D02*
X141544762Y-114067200D01*
X141544762Y-114067200D02*
X141449524Y-113971961D01*
X141449524Y-113971961D02*
X141401905Y-113876723D01*
X141401905Y-113876723D02*
X141354286Y-113686247D01*
X141354286Y-113686247D02*
X141354286Y-113543390D01*
X141354286Y-113543390D02*
X141401905Y-113352914D01*
X141401905Y-113352914D02*
X141449524Y-113257676D01*
X141449524Y-113257676D02*
X141544762Y-113162438D01*
X141544762Y-113162438D02*
X141687619Y-113114819D01*
X141687619Y-113114819D02*
X141782857Y-113114819D01*
X141782857Y-113114819D02*
X141925714Y-113162438D01*
X141925714Y-113162438D02*
X141973333Y-113210057D01*
X142306667Y-113114819D02*
X142973333Y-113114819D01*
X142973333Y-113114819D02*
X142544762Y-114114819D01*
X142548095Y-107134819D02*
X142548095Y-107944342D01*
X142548095Y-107944342D02*
X142595714Y-108039580D01*
X142595714Y-108039580D02*
X142643333Y-108087200D01*
X142643333Y-108087200D02*
X142738571Y-108134819D01*
X142738571Y-108134819D02*
X142929047Y-108134819D01*
X142929047Y-108134819D02*
X143024285Y-108087200D01*
X143024285Y-108087200D02*
X143071904Y-108039580D01*
X143071904Y-108039580D02*
X143119523Y-107944342D01*
X143119523Y-107944342D02*
X143119523Y-107134819D01*
X143500476Y-107134819D02*
X144119523Y-107134819D01*
X144119523Y-107134819D02*
X143786190Y-107515771D01*
X143786190Y-107515771D02*
X143929047Y-107515771D01*
X143929047Y-107515771D02*
X144024285Y-107563390D01*
X144024285Y-107563390D02*
X144071904Y-107611009D01*
X144071904Y-107611009D02*
X144119523Y-107706247D01*
X144119523Y-107706247D02*
X144119523Y-107944342D01*
X144119523Y-107944342D02*
X144071904Y-108039580D01*
X144071904Y-108039580D02*
X144024285Y-108087200D01*
X144024285Y-108087200D02*
X143929047Y-108134819D01*
X143929047Y-108134819D02*
X143643333Y-108134819D01*
X143643333Y-108134819D02*
X143548095Y-108087200D01*
X143548095Y-108087200D02*
X143500476Y-108039580D01*
X142703333Y-102709580D02*
X142655714Y-102757200D01*
X142655714Y-102757200D02*
X142512857Y-102804819D01*
X142512857Y-102804819D02*
X142417619Y-102804819D01*
X142417619Y-102804819D02*
X142274762Y-102757200D01*
X142274762Y-102757200D02*
X142179524Y-102661961D01*
X142179524Y-102661961D02*
X142131905Y-102566723D01*
X142131905Y-102566723D02*
X142084286Y-102376247D01*
X142084286Y-102376247D02*
X142084286Y-102233390D01*
X142084286Y-102233390D02*
X142131905Y-102042914D01*
X142131905Y-102042914D02*
X142179524Y-101947676D01*
X142179524Y-101947676D02*
X142274762Y-101852438D01*
X142274762Y-101852438D02*
X142417619Y-101804819D01*
X142417619Y-101804819D02*
X142512857Y-101804819D01*
X142512857Y-101804819D02*
X142655714Y-101852438D01*
X142655714Y-101852438D02*
X142703333Y-101900057D01*
X143179524Y-102804819D02*
X143370000Y-102804819D01*
X143370000Y-102804819D02*
X143465238Y-102757200D01*
X143465238Y-102757200D02*
X143512857Y-102709580D01*
X143512857Y-102709580D02*
X143608095Y-102566723D01*
X143608095Y-102566723D02*
X143655714Y-102376247D01*
X143655714Y-102376247D02*
X143655714Y-101995295D01*
X143655714Y-101995295D02*
X143608095Y-101900057D01*
X143608095Y-101900057D02*
X143560476Y-101852438D01*
X143560476Y-101852438D02*
X143465238Y-101804819D01*
X143465238Y-101804819D02*
X143274762Y-101804819D01*
X143274762Y-101804819D02*
X143179524Y-101852438D01*
X143179524Y-101852438D02*
X143131905Y-101900057D01*
X143131905Y-101900057D02*
X143084286Y-101995295D01*
X143084286Y-101995295D02*
X143084286Y-102233390D01*
X143084286Y-102233390D02*
X143131905Y-102328628D01*
X143131905Y-102328628D02*
X143179524Y-102376247D01*
X143179524Y-102376247D02*
X143274762Y-102423866D01*
X143274762Y-102423866D02*
X143465238Y-102423866D01*
X143465238Y-102423866D02*
X143560476Y-102376247D01*
X143560476Y-102376247D02*
X143608095Y-102328628D01*
X143608095Y-102328628D02*
X143655714Y-102233390D01*
X130966666Y-95954819D02*
X130966666Y-96669104D01*
X130966666Y-96669104D02*
X130919047Y-96811961D01*
X130919047Y-96811961D02*
X130823809Y-96907200D01*
X130823809Y-96907200D02*
X130680952Y-96954819D01*
X130680952Y-96954819D02*
X130585714Y-96954819D01*
X131966666Y-96954819D02*
X131395238Y-96954819D01*
X131680952Y-96954819D02*
X131680952Y-95954819D01*
X131680952Y-95954819D02*
X131585714Y-96097676D01*
X131585714Y-96097676D02*
X131490476Y-96192914D01*
X131490476Y-96192914D02*
X131395238Y-96240533D01*
X131238095Y-99267419D02*
X131238095Y-100076942D01*
X131238095Y-100076942D02*
X131285714Y-100172180D01*
X131285714Y-100172180D02*
X131333333Y-100219800D01*
X131333333Y-100219800D02*
X131428571Y-100267419D01*
X131428571Y-100267419D02*
X131619047Y-100267419D01*
X131619047Y-100267419D02*
X131714285Y-100219800D01*
X131714285Y-100219800D02*
X131761904Y-100172180D01*
X131761904Y-100172180D02*
X131809523Y-100076942D01*
X131809523Y-100076942D02*
X131809523Y-99267419D01*
X132238095Y-99362657D02*
X132285714Y-99315038D01*
X132285714Y-99315038D02*
X132380952Y-99267419D01*
X132380952Y-99267419D02*
X132619047Y-99267419D01*
X132619047Y-99267419D02*
X132714285Y-99315038D01*
X132714285Y-99315038D02*
X132761904Y-99362657D01*
X132761904Y-99362657D02*
X132809523Y-99457895D01*
X132809523Y-99457895D02*
X132809523Y-99553133D01*
X132809523Y-99553133D02*
X132761904Y-99695990D01*
X132761904Y-99695990D02*
X132190476Y-100267419D01*
X132190476Y-100267419D02*
X132809523Y-100267419D01*
X138466666Y-95954819D02*
X138466666Y-96669104D01*
X138466666Y-96669104D02*
X138419047Y-96811961D01*
X138419047Y-96811961D02*
X138323809Y-96907200D01*
X138323809Y-96907200D02*
X138180952Y-96954819D01*
X138180952Y-96954819D02*
X138085714Y-96954819D01*
X138895238Y-96050057D02*
X138942857Y-96002438D01*
X138942857Y-96002438D02*
X139038095Y-95954819D01*
X139038095Y-95954819D02*
X139276190Y-95954819D01*
X139276190Y-95954819D02*
X139371428Y-96002438D01*
X139371428Y-96002438D02*
X139419047Y-96050057D01*
X139419047Y-96050057D02*
X139466666Y-96145295D01*
X139466666Y-96145295D02*
X139466666Y-96240533D01*
X139466666Y-96240533D02*
X139419047Y-96383390D01*
X139419047Y-96383390D02*
X138847619Y-96954819D01*
X138847619Y-96954819D02*
X139466666Y-96954819D01*
X123248333Y-115224819D02*
X122915000Y-114748628D01*
X122676905Y-115224819D02*
X122676905Y-114224819D01*
X122676905Y-114224819D02*
X123057857Y-114224819D01*
X123057857Y-114224819D02*
X123153095Y-114272438D01*
X123153095Y-114272438D02*
X123200714Y-114320057D01*
X123200714Y-114320057D02*
X123248333Y-114415295D01*
X123248333Y-114415295D02*
X123248333Y-114558152D01*
X123248333Y-114558152D02*
X123200714Y-114653390D01*
X123200714Y-114653390D02*
X123153095Y-114701009D01*
X123153095Y-114701009D02*
X123057857Y-114748628D01*
X123057857Y-114748628D02*
X122676905Y-114748628D01*
X123581667Y-114224819D02*
X124200714Y-114224819D01*
X124200714Y-114224819D02*
X123867381Y-114605771D01*
X123867381Y-114605771D02*
X124010238Y-114605771D01*
X124010238Y-114605771D02*
X124105476Y-114653390D01*
X124105476Y-114653390D02*
X124153095Y-114701009D01*
X124153095Y-114701009D02*
X124200714Y-114796247D01*
X124200714Y-114796247D02*
X124200714Y-115034342D01*
X124200714Y-115034342D02*
X124153095Y-115129580D01*
X124153095Y-115129580D02*
X124105476Y-115177200D01*
X124105476Y-115177200D02*
X124010238Y-115224819D01*
X124010238Y-115224819D02*
X123724524Y-115224819D01*
X123724524Y-115224819D02*
X123629286Y-115177200D01*
X123629286Y-115177200D02*
X123581667Y-115129580D01*
D12*
X123298333Y-107872887D02*
X123250714Y-107920507D01*
X123250714Y-107920507D02*
X123107857Y-107968126D01*
X123107857Y-107968126D02*
X123012619Y-107968126D01*
X123012619Y-107968126D02*
X122869762Y-107920507D01*
X122869762Y-107920507D02*
X122774524Y-107825268D01*
X122774524Y-107825268D02*
X122726905Y-107730030D01*
X122726905Y-107730030D02*
X122679286Y-107539554D01*
X122679286Y-107539554D02*
X122679286Y-107396697D01*
X122679286Y-107396697D02*
X122726905Y-107206221D01*
X122726905Y-107206221D02*
X122774524Y-107110983D01*
X122774524Y-107110983D02*
X122869762Y-107015745D01*
X122869762Y-107015745D02*
X123012619Y-106968126D01*
X123012619Y-106968126D02*
X123107857Y-106968126D01*
X123107857Y-106968126D02*
X123250714Y-107015745D01*
X123250714Y-107015745D02*
X123298333Y-107063364D01*
X123631667Y-106968126D02*
X124250714Y-106968126D01*
X124250714Y-106968126D02*
X123917381Y-107349078D01*
X123917381Y-107349078D02*
X124060238Y-107349078D01*
X124060238Y-107349078D02*
X124155476Y-107396697D01*
X124155476Y-107396697D02*
X124203095Y-107444316D01*
X124203095Y-107444316D02*
X124250714Y-107539554D01*
X124250714Y-107539554D02*
X124250714Y-107777649D01*
X124250714Y-107777649D02*
X124203095Y-107872887D01*
X124203095Y-107872887D02*
X124155476Y-107920507D01*
X124155476Y-107920507D02*
X124060238Y-107968126D01*
X124060238Y-107968126D02*
X123774524Y-107968126D01*
X123774524Y-107968126D02*
X123679286Y-107920507D01*
X123679286Y-107920507D02*
X123631667Y-107872887D01*
D11*
X120341666Y-103304819D02*
X120341666Y-104019104D01*
X120341666Y-104019104D02*
X120294047Y-104161961D01*
X120294047Y-104161961D02*
X120198809Y-104257200D01*
X120198809Y-104257200D02*
X120055952Y-104304819D01*
X120055952Y-104304819D02*
X119960714Y-104304819D01*
X120722619Y-103304819D02*
X121341666Y-103304819D01*
X121341666Y-103304819D02*
X121008333Y-103685771D01*
X121008333Y-103685771D02*
X121151190Y-103685771D01*
X121151190Y-103685771D02*
X121246428Y-103733390D01*
X121246428Y-103733390D02*
X121294047Y-103781009D01*
X121294047Y-103781009D02*
X121341666Y-103876247D01*
X121341666Y-103876247D02*
X121341666Y-104114342D01*
X121341666Y-104114342D02*
X121294047Y-104209580D01*
X121294047Y-104209580D02*
X121246428Y-104257200D01*
X121246428Y-104257200D02*
X121151190Y-104304819D01*
X121151190Y-104304819D02*
X120865476Y-104304819D01*
X120865476Y-104304819D02*
X120770238Y-104257200D01*
X120770238Y-104257200D02*
X120722619Y-104209580D01*
X146666666Y-102954819D02*
X146666666Y-103669104D01*
X146666666Y-103669104D02*
X146619047Y-103811961D01*
X146619047Y-103811961D02*
X146523809Y-103907200D01*
X146523809Y-103907200D02*
X146380952Y-103954819D01*
X146380952Y-103954819D02*
X146285714Y-103954819D01*
X147571428Y-103288152D02*
X147571428Y-103954819D01*
X147333333Y-102907200D02*
X147095238Y-103621485D01*
X147095238Y-103621485D02*
X147714285Y-103621485D01*
D12*
X123298333Y-109876980D02*
X123250714Y-109924600D01*
X123250714Y-109924600D02*
X123107857Y-109972219D01*
X123107857Y-109972219D02*
X123012619Y-109972219D01*
X123012619Y-109972219D02*
X122869762Y-109924600D01*
X122869762Y-109924600D02*
X122774524Y-109829361D01*
X122774524Y-109829361D02*
X122726905Y-109734123D01*
X122726905Y-109734123D02*
X122679286Y-109543647D01*
X122679286Y-109543647D02*
X122679286Y-109400790D01*
X122679286Y-109400790D02*
X122726905Y-109210314D01*
X122726905Y-109210314D02*
X122774524Y-109115076D01*
X122774524Y-109115076D02*
X122869762Y-109019838D01*
X122869762Y-109019838D02*
X123012619Y-108972219D01*
X123012619Y-108972219D02*
X123107857Y-108972219D01*
X123107857Y-108972219D02*
X123250714Y-109019838D01*
X123250714Y-109019838D02*
X123298333Y-109067457D01*
X123869762Y-109400790D02*
X123774524Y-109353171D01*
X123774524Y-109353171D02*
X123726905Y-109305552D01*
X123726905Y-109305552D02*
X123679286Y-109210314D01*
X123679286Y-109210314D02*
X123679286Y-109162695D01*
X123679286Y-109162695D02*
X123726905Y-109067457D01*
X123726905Y-109067457D02*
X123774524Y-109019838D01*
X123774524Y-109019838D02*
X123869762Y-108972219D01*
X123869762Y-108972219D02*
X124060238Y-108972219D01*
X124060238Y-108972219D02*
X124155476Y-109019838D01*
X124155476Y-109019838D02*
X124203095Y-109067457D01*
X124203095Y-109067457D02*
X124250714Y-109162695D01*
X124250714Y-109162695D02*
X124250714Y-109210314D01*
X124250714Y-109210314D02*
X124203095Y-109305552D01*
X124203095Y-109305552D02*
X124155476Y-109353171D01*
X124155476Y-109353171D02*
X124060238Y-109400790D01*
X124060238Y-109400790D02*
X123869762Y-109400790D01*
X123869762Y-109400790D02*
X123774524Y-109448409D01*
X123774524Y-109448409D02*
X123726905Y-109496028D01*
X123726905Y-109496028D02*
X123679286Y-109591266D01*
X123679286Y-109591266D02*
X123679286Y-109781742D01*
X123679286Y-109781742D02*
X123726905Y-109876980D01*
X123726905Y-109876980D02*
X123774524Y-109924600D01*
X123774524Y-109924600D02*
X123869762Y-109972219D01*
X123869762Y-109972219D02*
X124060238Y-109972219D01*
X124060238Y-109972219D02*
X124155476Y-109924600D01*
X124155476Y-109924600D02*
X124203095Y-109876980D01*
X124203095Y-109876980D02*
X124250714Y-109781742D01*
X124250714Y-109781742D02*
X124250714Y-109591266D01*
X124250714Y-109591266D02*
X124203095Y-109496028D01*
X124203095Y-109496028D02*
X124155476Y-109448409D01*
X124155476Y-109448409D02*
X124060238Y-109400790D01*
D13*
X146870000Y-117720000D02*
X149555000Y-117720000D01*
X149555000Y-115800000D02*
X146870000Y-115800000D01*
X149555000Y-117720000D02*
X149555000Y-115800000D01*
X124530000Y-112605000D02*
X124530000Y-111805000D01*
X124530000Y-112605000D02*
X124530000Y-113405000D01*
X127650000Y-112605000D02*
X127650000Y-111805000D01*
X127650000Y-112605000D02*
X127650000Y-113405000D01*
X127930000Y-111545000D02*
X127600000Y-111305000D01*
X127930000Y-111065000D01*
X127930000Y-111545000D01*
G36*
X127930000Y-111545000D02*
G01*
X127600000Y-111305000D01*
X127930000Y-111065000D01*
X127930000Y-111545000D01*
G37*
X139851252Y-112935000D02*
X139328748Y-112935000D01*
X139851252Y-114405000D02*
X139328748Y-114405000D01*
X137070000Y-107640000D02*
X137070000Y-105690000D01*
X137070000Y-107640000D02*
X137070000Y-109590000D01*
X142190000Y-107640000D02*
X142190000Y-105690000D01*
X142190000Y-107640000D02*
X142190000Y-109590000D01*
X142425000Y-105180000D02*
X142095000Y-104940000D01*
X142425000Y-104700000D01*
X142425000Y-105180000D01*
G36*
X142425000Y-105180000D02*
G01*
X142095000Y-104940000D01*
X142425000Y-104700000D01*
X142425000Y-105180000D01*
G37*
X140561252Y-101605000D02*
X140038748Y-101605000D01*
X140561252Y-103075000D02*
X140038748Y-103075000D01*
D14*
X125200000Y-94025000D02*
X126480000Y-94025000D01*
X125200000Y-98975000D02*
X125200000Y-94025000D01*
X125200000Y-98975000D02*
X126480000Y-98975000D01*
X128920000Y-94025000D02*
X130200000Y-94025000D01*
X128920000Y-98975000D02*
X130200000Y-98975000D01*
X130200000Y-98975000D02*
X130200000Y-94025000D01*
D13*
X127909700Y-100162500D02*
X130443033Y-100162500D01*
X127909700Y-102695833D02*
X127909700Y-100162500D01*
X128289700Y-100542500D02*
X128289700Y-120332500D01*
X128289700Y-100542500D02*
X136129700Y-100542500D01*
X128289700Y-120332500D02*
X136129700Y-120332500D01*
X136129700Y-100542500D02*
X136129700Y-120332500D01*
D14*
X139800000Y-94025000D02*
X141080000Y-94025000D01*
X139800000Y-98975000D02*
X139800000Y-94025000D01*
X139800000Y-98975000D02*
X141080000Y-98975000D01*
X143520000Y-94025000D02*
X144800000Y-94025000D01*
X143520000Y-98975000D02*
X144800000Y-98975000D01*
X144800000Y-98975000D02*
X144800000Y-94025000D01*
D13*
X122705000Y-112190436D02*
X122705000Y-112644564D01*
X124175000Y-112190436D02*
X124175000Y-112644564D01*
X126352240Y-106780907D02*
X125829736Y-106780907D01*
X126352240Y-108250907D02*
X125829736Y-108250907D01*
D15*
X112266000Y-104813000D02*
X112266000Y-115227000D01*
X112266000Y-115227000D02*
X121410000Y-115227000D01*
X121410000Y-104813000D02*
X112266000Y-104813000D01*
X121410000Y-105318243D02*
X121410000Y-104813000D01*
X121410000Y-107858243D02*
X121410000Y-107101757D01*
X121410000Y-110398243D02*
X121410000Y-109641757D01*
X121410000Y-112938243D02*
X121410000Y-112181757D01*
X121410000Y-115227000D02*
X121410000Y-114721757D01*
D16*
X121156000Y-117005000D02*
G75*
G02*
X120394000Y-117005000I-381000J0D01*
G01*
X120394000Y-117005000D02*
G75*
G02*
X121156000Y-117005000I381000J0D01*
G01*
D17*
X155500000Y-115550000D02*
X146300000Y-115550000D01*
X146300000Y-104450000D01*
X155500000Y-104450000D01*
X155500000Y-115550000D01*
D13*
X126351252Y-108745000D02*
X125828748Y-108745000D01*
X126351252Y-110215000D02*
X125828748Y-110215000D01*
%LPC*%
D18*
X148807500Y-116760000D03*
X146932500Y-116760000D03*
D19*
X148500000Y-123500000D03*
D20*
X127040000Y-111467500D03*
X126090000Y-111467500D03*
X125140000Y-111467500D03*
X125140000Y-113742500D03*
X127040000Y-113742500D03*
D21*
X140540000Y-113670000D03*
X138640000Y-113670000D03*
D22*
X141535000Y-105165000D03*
X140265000Y-105165000D03*
X138995000Y-105165000D03*
X137725000Y-105165000D03*
X137725000Y-110115000D03*
X138995000Y-110115000D03*
X140265000Y-110115000D03*
X141535000Y-110115000D03*
D19*
X148500000Y-96500000D03*
X121500000Y-96500000D03*
D21*
X141250000Y-102340000D03*
X139350000Y-102340000D03*
D23*
X127700000Y-99000000D03*
X127700000Y-94000000D03*
D24*
X134659700Y-103062500D03*
D25*
X134659700Y-105602500D03*
X134659700Y-110682500D03*
X134659700Y-115762500D03*
D23*
X142300000Y-99000000D03*
X142300000Y-94000000D03*
D26*
X123440000Y-111505000D03*
X123440000Y-113330000D03*
D21*
X127040988Y-107515907D03*
X125140988Y-107515907D03*
D27*
X120775000Y-113830000D03*
X120775000Y-111290000D03*
X120775000Y-108750000D03*
X120775000Y-106210000D03*
D28*
X147500000Y-113500000D03*
D29*
X147500000Y-110000000D03*
X147500000Y-106500000D03*
D19*
X121500000Y-123500000D03*
D21*
X127040000Y-109480000D03*
X125140000Y-109480000D03*
%LPD*%
M02*
