%TF.GenerationSoftware,KiCad,Pcbnew,8.0.2*%
%TF.CreationDate,2024-06-29T14:50:50+02:00*%
%TF.ProjectId,STM32F4_GateSignalGenerator_GateDriver,53544d33-3246-4345-9f47-617465536967,rev?*%
%TF.SameCoordinates,Original*%
%TF.FileFunction,Drillmap*%
%TF.FilePolarity,Positive*%
%FSLAX45Y45*%
G04 Gerber Fmt 4.5, Leading zero omitted, Abs format (unit mm)*
G04 Created by KiCad (PCBNEW 8.0.2) date 2024-06-29 14:50:50*
%MOMM*%
%LPD*%
G01*
G04 APERTURE LIST*
%ADD10C,0.200000*%
%ADD11C,0.100000*%
%ADD12C,0.140000*%
G04 APERTURE END LIST*
D10*
X16770000Y-9400000D02*
G75*
G02*
X16430000Y-9400000I-170000J0D01*
G01*
X16430000Y-9400000D02*
G75*
G02*
X16770000Y-9400000I170000J0D01*
G01*
X15100000Y-8400000D02*
X19100000Y-8400000D01*
X19100000Y-10400000D01*
X15100000Y-10400000D01*
X15100000Y-8400000D01*
D11*
X15235000Y-9085000D02*
X15265000Y-9115000D01*
X15265000Y-9085000D02*
X15235000Y-9115000D01*
X15235000Y-9385000D02*
X15265000Y-9415000D01*
X15265000Y-9385000D02*
X15235000Y-9415000D01*
X15235000Y-10185000D02*
X15265000Y-10215000D01*
X15265000Y-10185000D02*
X15235000Y-10215000D01*
X15235000Y-10285000D02*
X15265000Y-10315000D01*
X15265000Y-10285000D02*
X15235000Y-10315000D01*
X15335000Y-10285000D02*
X15365000Y-10315000D01*
X15365000Y-10285000D02*
X15335000Y-10315000D01*
X15775000Y-10285000D02*
X15805000Y-10315000D01*
X15805000Y-10285000D02*
X15775000Y-10315000D01*
X15885000Y-8685000D02*
X15915000Y-8715000D01*
X15915000Y-8685000D02*
X15885000Y-8715000D01*
X15975000Y-9065000D02*
X16005000Y-9095000D01*
X16005000Y-9065000D02*
X15975000Y-9095000D01*
X16095000Y-9065000D02*
X16125000Y-9095000D01*
X16125000Y-9065000D02*
X16095000Y-9095000D01*
X16236250Y-9718750D02*
X16266250Y-9748750D01*
X16266250Y-9718750D02*
X16236250Y-9748750D01*
X16485000Y-8475000D02*
X16515000Y-8505000D01*
X16515000Y-8475000D02*
X16485000Y-8505000D01*
X16595000Y-8475000D02*
X16625000Y-8505000D01*
X16625000Y-8475000D02*
X16595000Y-8505000D01*
X16675000Y-10280000D02*
X16705000Y-10310000D01*
X16705000Y-10280000D02*
X16675000Y-10310000D01*
X16696054Y-8681500D02*
X16726054Y-8711500D01*
X16726054Y-8681500D02*
X16696054Y-8711500D01*
X16697500Y-8805000D02*
X16727500Y-8835000D01*
X16727500Y-8805000D02*
X16697500Y-8835000D01*
X16895000Y-10120000D02*
X16925000Y-10150000D01*
X16925000Y-10120000D02*
X16895000Y-10150000D01*
X17775000Y-10185000D02*
X17805000Y-10215000D01*
X17805000Y-10185000D02*
X17775000Y-10215000D01*
X17775000Y-10285000D02*
X17805000Y-10315000D01*
X17805000Y-10285000D02*
X17775000Y-10315000D01*
X17880000Y-10285000D02*
X17910000Y-10315000D01*
X17910000Y-10285000D02*
X17880000Y-10315000D01*
X17895000Y-8905000D02*
X17925000Y-8935000D01*
X17925000Y-8905000D02*
X17895000Y-8935000D01*
X18180000Y-9300000D02*
X18210000Y-9330000D01*
X18210000Y-9300000D02*
X18180000Y-9330000D01*
X18830000Y-10285000D02*
X18860000Y-10315000D01*
X18860000Y-10285000D02*
X18830000Y-10315000D01*
X18835000Y-8485000D02*
X18865000Y-8515000D01*
X18865000Y-8485000D02*
X18835000Y-8515000D01*
X18935000Y-8485000D02*
X18965000Y-8515000D01*
X18965000Y-8485000D02*
X18935000Y-8515000D01*
X18935000Y-8585000D02*
X18965000Y-8615000D01*
X18965000Y-8585000D02*
X18935000Y-8615000D01*
X18935000Y-9285000D02*
X18965000Y-9315000D01*
X18965000Y-9285000D02*
X18935000Y-9315000D01*
X18935000Y-9385000D02*
X18965000Y-9415000D01*
X18965000Y-9385000D02*
X18935000Y-9415000D01*
X18935000Y-9485000D02*
X18965000Y-9515000D01*
X18965000Y-9485000D02*
X18935000Y-9515000D01*
X18935000Y-10185000D02*
X18965000Y-10215000D01*
X18965000Y-10185000D02*
X18935000Y-10215000D01*
X18935000Y-10280000D02*
X18965000Y-10310000D01*
X18965000Y-10280000D02*
X18935000Y-10310000D01*
X15557500Y-8891500D02*
G75*
G02*
X15457500Y-8891500I-50000J0D01*
G01*
X15457500Y-8891500D02*
G75*
G02*
X15557500Y-8891500I50000J0D01*
G01*
X15557500Y-9145500D02*
G75*
G02*
X15457500Y-9145500I-50000J0D01*
G01*
X15457500Y-9145500D02*
G75*
G02*
X15557500Y-9145500I50000J0D01*
G01*
X15557500Y-9399500D02*
G75*
G02*
X15457500Y-9399500I-50000J0D01*
G01*
X15457500Y-9399500D02*
G75*
G02*
X15557500Y-9399500I50000J0D01*
G01*
X15557500Y-9653500D02*
G75*
G02*
X15457500Y-9653500I-50000J0D01*
G01*
X15457500Y-9653500D02*
G75*
G02*
X15557500Y-9653500I50000J0D01*
G01*
X15557500Y-9907500D02*
G75*
G02*
X15457500Y-9907500I-50000J0D01*
G01*
X15457500Y-9907500D02*
G75*
G02*
X15557500Y-9907500I50000J0D01*
G01*
X17380000Y-8860000D02*
G75*
G02*
X17280000Y-8860000I-50000J0D01*
G01*
X17280000Y-8860000D02*
G75*
G02*
X17380000Y-8860000I50000J0D01*
G01*
X17380000Y-9368000D02*
G75*
G02*
X17280000Y-9368000I-50000J0D01*
G01*
X17280000Y-9368000D02*
G75*
G02*
X17380000Y-9368000I50000J0D01*
G01*
X17380000Y-9876000D02*
G75*
G02*
X17280000Y-9876000I-50000J0D01*
G01*
X17280000Y-9876000D02*
G75*
G02*
X17380000Y-9876000I50000J0D01*
G01*
X17380000Y-10130000D02*
G75*
G02*
X17280000Y-10130000I-50000J0D01*
G01*
X17280000Y-10130000D02*
G75*
G02*
X17380000Y-10130000I50000J0D01*
G01*
D12*
X18610000Y-8980000D02*
X18610000Y-9120000D01*
X18540000Y-9050000D02*
X18680000Y-9050000D01*
X18610000Y-9330000D02*
X18610000Y-9470000D01*
X18540000Y-9400000D02*
X18680000Y-9400000D01*
X18610000Y-9680000D02*
X18610000Y-9820000D01*
X18540000Y-9750000D02*
X18680000Y-9750000D01*
D10*
X15350777Y-10721484D02*
X15350777Y-10521484D01*
X15350777Y-10521484D02*
X15398396Y-10521484D01*
X15398396Y-10521484D02*
X15426967Y-10531008D01*
X15426967Y-10531008D02*
X15446015Y-10550055D01*
X15446015Y-10550055D02*
X15455539Y-10569103D01*
X15455539Y-10569103D02*
X15465062Y-10607198D01*
X15465062Y-10607198D02*
X15465062Y-10635770D01*
X15465062Y-10635770D02*
X15455539Y-10673865D01*
X15455539Y-10673865D02*
X15446015Y-10692912D01*
X15446015Y-10692912D02*
X15426967Y-10711960D01*
X15426967Y-10711960D02*
X15398396Y-10721484D01*
X15398396Y-10721484D02*
X15350777Y-10721484D01*
X15550777Y-10721484D02*
X15550777Y-10588150D01*
X15550777Y-10626246D02*
X15560301Y-10607198D01*
X15560301Y-10607198D02*
X15569824Y-10597674D01*
X15569824Y-10597674D02*
X15588872Y-10588150D01*
X15588872Y-10588150D02*
X15607920Y-10588150D01*
X15674586Y-10721484D02*
X15674586Y-10588150D01*
X15674586Y-10521484D02*
X15665062Y-10531008D01*
X15665062Y-10531008D02*
X15674586Y-10540531D01*
X15674586Y-10540531D02*
X15684110Y-10531008D01*
X15684110Y-10531008D02*
X15674586Y-10521484D01*
X15674586Y-10521484D02*
X15674586Y-10540531D01*
X15798396Y-10721484D02*
X15779348Y-10711960D01*
X15779348Y-10711960D02*
X15769824Y-10692912D01*
X15769824Y-10692912D02*
X15769824Y-10521484D01*
X15903158Y-10721484D02*
X15884110Y-10711960D01*
X15884110Y-10711960D02*
X15874586Y-10692912D01*
X15874586Y-10692912D02*
X15874586Y-10521484D01*
X16131729Y-10721484D02*
X16131729Y-10521484D01*
X16131729Y-10521484D02*
X16198396Y-10664341D01*
X16198396Y-10664341D02*
X16265062Y-10521484D01*
X16265062Y-10521484D02*
X16265062Y-10721484D01*
X16446015Y-10721484D02*
X16446015Y-10616722D01*
X16446015Y-10616722D02*
X16436491Y-10597674D01*
X16436491Y-10597674D02*
X16417443Y-10588150D01*
X16417443Y-10588150D02*
X16379348Y-10588150D01*
X16379348Y-10588150D02*
X16360301Y-10597674D01*
X16446015Y-10711960D02*
X16426967Y-10721484D01*
X16426967Y-10721484D02*
X16379348Y-10721484D01*
X16379348Y-10721484D02*
X16360301Y-10711960D01*
X16360301Y-10711960D02*
X16350777Y-10692912D01*
X16350777Y-10692912D02*
X16350777Y-10673865D01*
X16350777Y-10673865D02*
X16360301Y-10654817D01*
X16360301Y-10654817D02*
X16379348Y-10645293D01*
X16379348Y-10645293D02*
X16426967Y-10645293D01*
X16426967Y-10645293D02*
X16446015Y-10635770D01*
X16541253Y-10588150D02*
X16541253Y-10788150D01*
X16541253Y-10597674D02*
X16560301Y-10588150D01*
X16560301Y-10588150D02*
X16598396Y-10588150D01*
X16598396Y-10588150D02*
X16617443Y-10597674D01*
X16617443Y-10597674D02*
X16626967Y-10607198D01*
X16626967Y-10607198D02*
X16636491Y-10626246D01*
X16636491Y-10626246D02*
X16636491Y-10683389D01*
X16636491Y-10683389D02*
X16626967Y-10702436D01*
X16626967Y-10702436D02*
X16617443Y-10711960D01*
X16617443Y-10711960D02*
X16598396Y-10721484D01*
X16598396Y-10721484D02*
X16560301Y-10721484D01*
X16560301Y-10721484D02*
X16541253Y-10711960D01*
X16722205Y-10702436D02*
X16731729Y-10711960D01*
X16731729Y-10711960D02*
X16722205Y-10721484D01*
X16722205Y-10721484D02*
X16712682Y-10711960D01*
X16712682Y-10711960D02*
X16722205Y-10702436D01*
X16722205Y-10702436D02*
X16722205Y-10721484D01*
X16722205Y-10597674D02*
X16731729Y-10607198D01*
X16731729Y-10607198D02*
X16722205Y-10616722D01*
X16722205Y-10616722D02*
X16712682Y-10607198D01*
X16712682Y-10607198D02*
X16722205Y-10597674D01*
X16722205Y-10597674D02*
X16722205Y-10616722D01*
D11*
X15060000Y-11035000D02*
X15090000Y-11065000D01*
X15090000Y-11035000D02*
X15060000Y-11065000D01*
D10*
X15388872Y-10941484D02*
X15407920Y-10941484D01*
X15407920Y-10941484D02*
X15426967Y-10951008D01*
X15426967Y-10951008D02*
X15436491Y-10960531D01*
X15436491Y-10960531D02*
X15446015Y-10979579D01*
X15446015Y-10979579D02*
X15455539Y-11017674D01*
X15455539Y-11017674D02*
X15455539Y-11065293D01*
X15455539Y-11065293D02*
X15446015Y-11103389D01*
X15446015Y-11103389D02*
X15436491Y-11122436D01*
X15436491Y-11122436D02*
X15426967Y-11131960D01*
X15426967Y-11131960D02*
X15407920Y-11141484D01*
X15407920Y-11141484D02*
X15388872Y-11141484D01*
X15388872Y-11141484D02*
X15369824Y-11131960D01*
X15369824Y-11131960D02*
X15360301Y-11122436D01*
X15360301Y-11122436D02*
X15350777Y-11103389D01*
X15350777Y-11103389D02*
X15341253Y-11065293D01*
X15341253Y-11065293D02*
X15341253Y-11017674D01*
X15341253Y-11017674D02*
X15350777Y-10979579D01*
X15350777Y-10979579D02*
X15360301Y-10960531D01*
X15360301Y-10960531D02*
X15369824Y-10951008D01*
X15369824Y-10951008D02*
X15388872Y-10941484D01*
X15541253Y-11122436D02*
X15550777Y-11131960D01*
X15550777Y-11131960D02*
X15541253Y-11141484D01*
X15541253Y-11141484D02*
X15531729Y-11131960D01*
X15531729Y-11131960D02*
X15541253Y-11122436D01*
X15541253Y-11122436D02*
X15541253Y-11141484D01*
X15617443Y-10941484D02*
X15741253Y-10941484D01*
X15741253Y-10941484D02*
X15674586Y-11017674D01*
X15674586Y-11017674D02*
X15703158Y-11017674D01*
X15703158Y-11017674D02*
X15722205Y-11027198D01*
X15722205Y-11027198D02*
X15731729Y-11036722D01*
X15731729Y-11036722D02*
X15741253Y-11055770D01*
X15741253Y-11055770D02*
X15741253Y-11103389D01*
X15741253Y-11103389D02*
X15731729Y-11122436D01*
X15731729Y-11122436D02*
X15722205Y-11131960D01*
X15722205Y-11131960D02*
X15703158Y-11141484D01*
X15703158Y-11141484D02*
X15646015Y-11141484D01*
X15646015Y-11141484D02*
X15626967Y-11131960D01*
X15626967Y-11131960D02*
X15617443Y-11122436D01*
X15865062Y-10941484D02*
X15884110Y-10941484D01*
X15884110Y-10941484D02*
X15903158Y-10951008D01*
X15903158Y-10951008D02*
X15912682Y-10960531D01*
X15912682Y-10960531D02*
X15922205Y-10979579D01*
X15922205Y-10979579D02*
X15931729Y-11017674D01*
X15931729Y-11017674D02*
X15931729Y-11065293D01*
X15931729Y-11065293D02*
X15922205Y-11103389D01*
X15922205Y-11103389D02*
X15912682Y-11122436D01*
X15912682Y-11122436D02*
X15903158Y-11131960D01*
X15903158Y-11131960D02*
X15884110Y-11141484D01*
X15884110Y-11141484D02*
X15865062Y-11141484D01*
X15865062Y-11141484D02*
X15846015Y-11131960D01*
X15846015Y-11131960D02*
X15836491Y-11122436D01*
X15836491Y-11122436D02*
X15826967Y-11103389D01*
X15826967Y-11103389D02*
X15817443Y-11065293D01*
X15817443Y-11065293D02*
X15817443Y-11017674D01*
X15817443Y-11017674D02*
X15826967Y-10979579D01*
X15826967Y-10979579D02*
X15836491Y-10960531D01*
X15836491Y-10960531D02*
X15846015Y-10951008D01*
X15846015Y-10951008D02*
X15865062Y-10941484D01*
X16055539Y-10941484D02*
X16074586Y-10941484D01*
X16074586Y-10941484D02*
X16093634Y-10951008D01*
X16093634Y-10951008D02*
X16103158Y-10960531D01*
X16103158Y-10960531D02*
X16112682Y-10979579D01*
X16112682Y-10979579D02*
X16122205Y-11017674D01*
X16122205Y-11017674D02*
X16122205Y-11065293D01*
X16122205Y-11065293D02*
X16112682Y-11103389D01*
X16112682Y-11103389D02*
X16103158Y-11122436D01*
X16103158Y-11122436D02*
X16093634Y-11131960D01*
X16093634Y-11131960D02*
X16074586Y-11141484D01*
X16074586Y-11141484D02*
X16055539Y-11141484D01*
X16055539Y-11141484D02*
X16036491Y-11131960D01*
X16036491Y-11131960D02*
X16026967Y-11122436D01*
X16026967Y-11122436D02*
X16017443Y-11103389D01*
X16017443Y-11103389D02*
X16007920Y-11065293D01*
X16007920Y-11065293D02*
X16007920Y-11017674D01*
X16007920Y-11017674D02*
X16017443Y-10979579D01*
X16017443Y-10979579D02*
X16026967Y-10960531D01*
X16026967Y-10960531D02*
X16036491Y-10951008D01*
X16036491Y-10951008D02*
X16055539Y-10941484D01*
X16207920Y-11141484D02*
X16207920Y-11008150D01*
X16207920Y-11027198D02*
X16217443Y-11017674D01*
X16217443Y-11017674D02*
X16236491Y-11008150D01*
X16236491Y-11008150D02*
X16265063Y-11008150D01*
X16265063Y-11008150D02*
X16284110Y-11017674D01*
X16284110Y-11017674D02*
X16293634Y-11036722D01*
X16293634Y-11036722D02*
X16293634Y-11141484D01*
X16293634Y-11036722D02*
X16303158Y-11017674D01*
X16303158Y-11017674D02*
X16322205Y-11008150D01*
X16322205Y-11008150D02*
X16350777Y-11008150D01*
X16350777Y-11008150D02*
X16369824Y-11017674D01*
X16369824Y-11017674D02*
X16379348Y-11036722D01*
X16379348Y-11036722D02*
X16379348Y-11141484D01*
X16474586Y-11141484D02*
X16474586Y-11008150D01*
X16474586Y-11027198D02*
X16484110Y-11017674D01*
X16484110Y-11017674D02*
X16503158Y-11008150D01*
X16503158Y-11008150D02*
X16531729Y-11008150D01*
X16531729Y-11008150D02*
X16550777Y-11017674D01*
X16550777Y-11017674D02*
X16560301Y-11036722D01*
X16560301Y-11036722D02*
X16560301Y-11141484D01*
X16560301Y-11036722D02*
X16569824Y-11017674D01*
X16569824Y-11017674D02*
X16588872Y-11008150D01*
X16588872Y-11008150D02*
X16617443Y-11008150D01*
X16617443Y-11008150D02*
X16636491Y-11017674D01*
X16636491Y-11017674D02*
X16646015Y-11036722D01*
X16646015Y-11036722D02*
X16646015Y-11141484D01*
X17036491Y-10931960D02*
X16865063Y-11189103D01*
X17293634Y-10941484D02*
X17312682Y-10941484D01*
X17312682Y-10941484D02*
X17331729Y-10951008D01*
X17331729Y-10951008D02*
X17341253Y-10960531D01*
X17341253Y-10960531D02*
X17350777Y-10979579D01*
X17350777Y-10979579D02*
X17360301Y-11017674D01*
X17360301Y-11017674D02*
X17360301Y-11065293D01*
X17360301Y-11065293D02*
X17350777Y-11103389D01*
X17350777Y-11103389D02*
X17341253Y-11122436D01*
X17341253Y-11122436D02*
X17331729Y-11131960D01*
X17331729Y-11131960D02*
X17312682Y-11141484D01*
X17312682Y-11141484D02*
X17293634Y-11141484D01*
X17293634Y-11141484D02*
X17274587Y-11131960D01*
X17274587Y-11131960D02*
X17265063Y-11122436D01*
X17265063Y-11122436D02*
X17255539Y-11103389D01*
X17255539Y-11103389D02*
X17246015Y-11065293D01*
X17246015Y-11065293D02*
X17246015Y-11017674D01*
X17246015Y-11017674D02*
X17255539Y-10979579D01*
X17255539Y-10979579D02*
X17265063Y-10960531D01*
X17265063Y-10960531D02*
X17274587Y-10951008D01*
X17274587Y-10951008D02*
X17293634Y-10941484D01*
X17446015Y-11122436D02*
X17455539Y-11131960D01*
X17455539Y-11131960D02*
X17446015Y-11141484D01*
X17446015Y-11141484D02*
X17436491Y-11131960D01*
X17436491Y-11131960D02*
X17446015Y-11122436D01*
X17446015Y-11122436D02*
X17446015Y-11141484D01*
X17579348Y-10941484D02*
X17598396Y-10941484D01*
X17598396Y-10941484D02*
X17617444Y-10951008D01*
X17617444Y-10951008D02*
X17626968Y-10960531D01*
X17626968Y-10960531D02*
X17636491Y-10979579D01*
X17636491Y-10979579D02*
X17646015Y-11017674D01*
X17646015Y-11017674D02*
X17646015Y-11065293D01*
X17646015Y-11065293D02*
X17636491Y-11103389D01*
X17636491Y-11103389D02*
X17626968Y-11122436D01*
X17626968Y-11122436D02*
X17617444Y-11131960D01*
X17617444Y-11131960D02*
X17598396Y-11141484D01*
X17598396Y-11141484D02*
X17579348Y-11141484D01*
X17579348Y-11141484D02*
X17560301Y-11131960D01*
X17560301Y-11131960D02*
X17550777Y-11122436D01*
X17550777Y-11122436D02*
X17541253Y-11103389D01*
X17541253Y-11103389D02*
X17531729Y-11065293D01*
X17531729Y-11065293D02*
X17531729Y-11017674D01*
X17531729Y-11017674D02*
X17541253Y-10979579D01*
X17541253Y-10979579D02*
X17550777Y-10960531D01*
X17550777Y-10960531D02*
X17560301Y-10951008D01*
X17560301Y-10951008D02*
X17579348Y-10941484D01*
X17836491Y-11141484D02*
X17722206Y-11141484D01*
X17779348Y-11141484D02*
X17779348Y-10941484D01*
X17779348Y-10941484D02*
X17760301Y-10970055D01*
X17760301Y-10970055D02*
X17741253Y-10989103D01*
X17741253Y-10989103D02*
X17722206Y-10998627D01*
X18026968Y-11141484D02*
X17912682Y-11141484D01*
X17969825Y-11141484D02*
X17969825Y-10941484D01*
X17969825Y-10941484D02*
X17950777Y-10970055D01*
X17950777Y-10970055D02*
X17931729Y-10989103D01*
X17931729Y-10989103D02*
X17912682Y-10998627D01*
X18141253Y-11027198D02*
X18122206Y-11017674D01*
X18122206Y-11017674D02*
X18112682Y-11008150D01*
X18112682Y-11008150D02*
X18103158Y-10989103D01*
X18103158Y-10989103D02*
X18103158Y-10979579D01*
X18103158Y-10979579D02*
X18112682Y-10960531D01*
X18112682Y-10960531D02*
X18122206Y-10951008D01*
X18122206Y-10951008D02*
X18141253Y-10941484D01*
X18141253Y-10941484D02*
X18179349Y-10941484D01*
X18179349Y-10941484D02*
X18198396Y-10951008D01*
X18198396Y-10951008D02*
X18207920Y-10960531D01*
X18207920Y-10960531D02*
X18217444Y-10979579D01*
X18217444Y-10979579D02*
X18217444Y-10989103D01*
X18217444Y-10989103D02*
X18207920Y-11008150D01*
X18207920Y-11008150D02*
X18198396Y-11017674D01*
X18198396Y-11017674D02*
X18179349Y-11027198D01*
X18179349Y-11027198D02*
X18141253Y-11027198D01*
X18141253Y-11027198D02*
X18122206Y-11036722D01*
X18122206Y-11036722D02*
X18112682Y-11046246D01*
X18112682Y-11046246D02*
X18103158Y-11065293D01*
X18103158Y-11065293D02*
X18103158Y-11103389D01*
X18103158Y-11103389D02*
X18112682Y-11122436D01*
X18112682Y-11122436D02*
X18122206Y-11131960D01*
X18122206Y-11131960D02*
X18141253Y-11141484D01*
X18141253Y-11141484D02*
X18179349Y-11141484D01*
X18179349Y-11141484D02*
X18198396Y-11131960D01*
X18198396Y-11131960D02*
X18207920Y-11122436D01*
X18207920Y-11122436D02*
X18217444Y-11103389D01*
X18217444Y-11103389D02*
X18217444Y-11065293D01*
X18217444Y-11065293D02*
X18207920Y-11046246D01*
X18207920Y-11046246D02*
X18198396Y-11036722D01*
X18198396Y-11036722D02*
X18179349Y-11027198D01*
X18293634Y-10941484D02*
X18293634Y-10979579D01*
X18369825Y-10941484D02*
X18369825Y-10979579D01*
X18665063Y-11217674D02*
X18655539Y-11208150D01*
X18655539Y-11208150D02*
X18636491Y-11179579D01*
X18636491Y-11179579D02*
X18626968Y-11160531D01*
X18626968Y-11160531D02*
X18617444Y-11131960D01*
X18617444Y-11131960D02*
X18607920Y-11084341D01*
X18607920Y-11084341D02*
X18607920Y-11046246D01*
X18607920Y-11046246D02*
X18617444Y-10998627D01*
X18617444Y-10998627D02*
X18626968Y-10970055D01*
X18626968Y-10970055D02*
X18636491Y-10951008D01*
X18636491Y-10951008D02*
X18655539Y-10922436D01*
X18655539Y-10922436D02*
X18665063Y-10912912D01*
X18722206Y-10941484D02*
X18846015Y-10941484D01*
X18846015Y-10941484D02*
X18779349Y-11017674D01*
X18779349Y-11017674D02*
X18807920Y-11017674D01*
X18807920Y-11017674D02*
X18826968Y-11027198D01*
X18826968Y-11027198D02*
X18836491Y-11036722D01*
X18836491Y-11036722D02*
X18846015Y-11055770D01*
X18846015Y-11055770D02*
X18846015Y-11103389D01*
X18846015Y-11103389D02*
X18836491Y-11122436D01*
X18836491Y-11122436D02*
X18826968Y-11131960D01*
X18826968Y-11131960D02*
X18807920Y-11141484D01*
X18807920Y-11141484D02*
X18750777Y-11141484D01*
X18750777Y-11141484D02*
X18731730Y-11131960D01*
X18731730Y-11131960D02*
X18722206Y-11122436D01*
X18969825Y-10941484D02*
X18988872Y-10941484D01*
X18988872Y-10941484D02*
X19007920Y-10951008D01*
X19007920Y-10951008D02*
X19017444Y-10960531D01*
X19017444Y-10960531D02*
X19026968Y-10979579D01*
X19026968Y-10979579D02*
X19036491Y-11017674D01*
X19036491Y-11017674D02*
X19036491Y-11065293D01*
X19036491Y-11065293D02*
X19026968Y-11103389D01*
X19026968Y-11103389D02*
X19017444Y-11122436D01*
X19017444Y-11122436D02*
X19007920Y-11131960D01*
X19007920Y-11131960D02*
X18988872Y-11141484D01*
X18988872Y-11141484D02*
X18969825Y-11141484D01*
X18969825Y-11141484D02*
X18950777Y-11131960D01*
X18950777Y-11131960D02*
X18941253Y-11122436D01*
X18941253Y-11122436D02*
X18931730Y-11103389D01*
X18931730Y-11103389D02*
X18922206Y-11065293D01*
X18922206Y-11065293D02*
X18922206Y-11017674D01*
X18922206Y-11017674D02*
X18931730Y-10979579D01*
X18931730Y-10979579D02*
X18941253Y-10960531D01*
X18941253Y-10960531D02*
X18950777Y-10951008D01*
X18950777Y-10951008D02*
X18969825Y-10941484D01*
X19274587Y-11141484D02*
X19274587Y-10941484D01*
X19360301Y-11141484D02*
X19360301Y-11036722D01*
X19360301Y-11036722D02*
X19350777Y-11017674D01*
X19350777Y-11017674D02*
X19331730Y-11008150D01*
X19331730Y-11008150D02*
X19303158Y-11008150D01*
X19303158Y-11008150D02*
X19284111Y-11017674D01*
X19284111Y-11017674D02*
X19274587Y-11027198D01*
X19484111Y-11141484D02*
X19465063Y-11131960D01*
X19465063Y-11131960D02*
X19455539Y-11122436D01*
X19455539Y-11122436D02*
X19446015Y-11103389D01*
X19446015Y-11103389D02*
X19446015Y-11046246D01*
X19446015Y-11046246D02*
X19455539Y-11027198D01*
X19455539Y-11027198D02*
X19465063Y-11017674D01*
X19465063Y-11017674D02*
X19484111Y-11008150D01*
X19484111Y-11008150D02*
X19512682Y-11008150D01*
X19512682Y-11008150D02*
X19531730Y-11017674D01*
X19531730Y-11017674D02*
X19541253Y-11027198D01*
X19541253Y-11027198D02*
X19550777Y-11046246D01*
X19550777Y-11046246D02*
X19550777Y-11103389D01*
X19550777Y-11103389D02*
X19541253Y-11122436D01*
X19541253Y-11122436D02*
X19531730Y-11131960D01*
X19531730Y-11131960D02*
X19512682Y-11141484D01*
X19512682Y-11141484D02*
X19484111Y-11141484D01*
X19665063Y-11141484D02*
X19646015Y-11131960D01*
X19646015Y-11131960D02*
X19636492Y-11112912D01*
X19636492Y-11112912D02*
X19636492Y-10941484D01*
X19817444Y-11131960D02*
X19798396Y-11141484D01*
X19798396Y-11141484D02*
X19760301Y-11141484D01*
X19760301Y-11141484D02*
X19741253Y-11131960D01*
X19741253Y-11131960D02*
X19731730Y-11112912D01*
X19731730Y-11112912D02*
X19731730Y-11036722D01*
X19731730Y-11036722D02*
X19741253Y-11017674D01*
X19741253Y-11017674D02*
X19760301Y-11008150D01*
X19760301Y-11008150D02*
X19798396Y-11008150D01*
X19798396Y-11008150D02*
X19817444Y-11017674D01*
X19817444Y-11017674D02*
X19826968Y-11036722D01*
X19826968Y-11036722D02*
X19826968Y-11055770D01*
X19826968Y-11055770D02*
X19731730Y-11074817D01*
X19903158Y-11131960D02*
X19922206Y-11141484D01*
X19922206Y-11141484D02*
X19960301Y-11141484D01*
X19960301Y-11141484D02*
X19979349Y-11131960D01*
X19979349Y-11131960D02*
X19988873Y-11112912D01*
X19988873Y-11112912D02*
X19988873Y-11103389D01*
X19988873Y-11103389D02*
X19979349Y-11084341D01*
X19979349Y-11084341D02*
X19960301Y-11074817D01*
X19960301Y-11074817D02*
X19931730Y-11074817D01*
X19931730Y-11074817D02*
X19912682Y-11065293D01*
X19912682Y-11065293D02*
X19903158Y-11046246D01*
X19903158Y-11046246D02*
X19903158Y-11036722D01*
X19903158Y-11036722D02*
X19912682Y-11017674D01*
X19912682Y-11017674D02*
X19931730Y-11008150D01*
X19931730Y-11008150D02*
X19960301Y-11008150D01*
X19960301Y-11008150D02*
X19979349Y-11017674D01*
X20055539Y-11217674D02*
X20065063Y-11208150D01*
X20065063Y-11208150D02*
X20084111Y-11179579D01*
X20084111Y-11179579D02*
X20093634Y-11160531D01*
X20093634Y-11160531D02*
X20103158Y-11131960D01*
X20103158Y-11131960D02*
X20112682Y-11084341D01*
X20112682Y-11084341D02*
X20112682Y-11046246D01*
X20112682Y-11046246D02*
X20103158Y-10998627D01*
X20103158Y-10998627D02*
X20093634Y-10970055D01*
X20093634Y-10970055D02*
X20084111Y-10951008D01*
X20084111Y-10951008D02*
X20065063Y-10922436D01*
X20065063Y-10922436D02*
X20055539Y-10912912D01*
D11*
X15090000Y-11314000D02*
G75*
G02*
X14990000Y-11314000I-50000J0D01*
G01*
X14990000Y-11314000D02*
G75*
G02*
X15090000Y-11314000I50000J0D01*
G01*
D10*
X15455539Y-11405484D02*
X15341253Y-11405484D01*
X15398396Y-11405484D02*
X15398396Y-11205484D01*
X15398396Y-11205484D02*
X15379348Y-11234055D01*
X15379348Y-11234055D02*
X15360301Y-11253103D01*
X15360301Y-11253103D02*
X15341253Y-11262627D01*
X15541253Y-11386436D02*
X15550777Y-11395960D01*
X15550777Y-11395960D02*
X15541253Y-11405484D01*
X15541253Y-11405484D02*
X15531729Y-11395960D01*
X15531729Y-11395960D02*
X15541253Y-11386436D01*
X15541253Y-11386436D02*
X15541253Y-11405484D01*
X15674586Y-11205484D02*
X15693634Y-11205484D01*
X15693634Y-11205484D02*
X15712682Y-11215008D01*
X15712682Y-11215008D02*
X15722205Y-11224531D01*
X15722205Y-11224531D02*
X15731729Y-11243579D01*
X15731729Y-11243579D02*
X15741253Y-11281674D01*
X15741253Y-11281674D02*
X15741253Y-11329293D01*
X15741253Y-11329293D02*
X15731729Y-11367388D01*
X15731729Y-11367388D02*
X15722205Y-11386436D01*
X15722205Y-11386436D02*
X15712682Y-11395960D01*
X15712682Y-11395960D02*
X15693634Y-11405484D01*
X15693634Y-11405484D02*
X15674586Y-11405484D01*
X15674586Y-11405484D02*
X15655539Y-11395960D01*
X15655539Y-11395960D02*
X15646015Y-11386436D01*
X15646015Y-11386436D02*
X15636491Y-11367388D01*
X15636491Y-11367388D02*
X15626967Y-11329293D01*
X15626967Y-11329293D02*
X15626967Y-11281674D01*
X15626967Y-11281674D02*
X15636491Y-11243579D01*
X15636491Y-11243579D02*
X15646015Y-11224531D01*
X15646015Y-11224531D02*
X15655539Y-11215008D01*
X15655539Y-11215008D02*
X15674586Y-11205484D01*
X15865062Y-11205484D02*
X15884110Y-11205484D01*
X15884110Y-11205484D02*
X15903158Y-11215008D01*
X15903158Y-11215008D02*
X15912682Y-11224531D01*
X15912682Y-11224531D02*
X15922205Y-11243579D01*
X15922205Y-11243579D02*
X15931729Y-11281674D01*
X15931729Y-11281674D02*
X15931729Y-11329293D01*
X15931729Y-11329293D02*
X15922205Y-11367388D01*
X15922205Y-11367388D02*
X15912682Y-11386436D01*
X15912682Y-11386436D02*
X15903158Y-11395960D01*
X15903158Y-11395960D02*
X15884110Y-11405484D01*
X15884110Y-11405484D02*
X15865062Y-11405484D01*
X15865062Y-11405484D02*
X15846015Y-11395960D01*
X15846015Y-11395960D02*
X15836491Y-11386436D01*
X15836491Y-11386436D02*
X15826967Y-11367388D01*
X15826967Y-11367388D02*
X15817443Y-11329293D01*
X15817443Y-11329293D02*
X15817443Y-11281674D01*
X15817443Y-11281674D02*
X15826967Y-11243579D01*
X15826967Y-11243579D02*
X15836491Y-11224531D01*
X15836491Y-11224531D02*
X15846015Y-11215008D01*
X15846015Y-11215008D02*
X15865062Y-11205484D01*
X16055539Y-11205484D02*
X16074586Y-11205484D01*
X16074586Y-11205484D02*
X16093634Y-11215008D01*
X16093634Y-11215008D02*
X16103158Y-11224531D01*
X16103158Y-11224531D02*
X16112682Y-11243579D01*
X16112682Y-11243579D02*
X16122205Y-11281674D01*
X16122205Y-11281674D02*
X16122205Y-11329293D01*
X16122205Y-11329293D02*
X16112682Y-11367388D01*
X16112682Y-11367388D02*
X16103158Y-11386436D01*
X16103158Y-11386436D02*
X16093634Y-11395960D01*
X16093634Y-11395960D02*
X16074586Y-11405484D01*
X16074586Y-11405484D02*
X16055539Y-11405484D01*
X16055539Y-11405484D02*
X16036491Y-11395960D01*
X16036491Y-11395960D02*
X16026967Y-11386436D01*
X16026967Y-11386436D02*
X16017443Y-11367388D01*
X16017443Y-11367388D02*
X16007920Y-11329293D01*
X16007920Y-11329293D02*
X16007920Y-11281674D01*
X16007920Y-11281674D02*
X16017443Y-11243579D01*
X16017443Y-11243579D02*
X16026967Y-11224531D01*
X16026967Y-11224531D02*
X16036491Y-11215008D01*
X16036491Y-11215008D02*
X16055539Y-11205484D01*
X16207920Y-11405484D02*
X16207920Y-11272150D01*
X16207920Y-11291198D02*
X16217443Y-11281674D01*
X16217443Y-11281674D02*
X16236491Y-11272150D01*
X16236491Y-11272150D02*
X16265063Y-11272150D01*
X16265063Y-11272150D02*
X16284110Y-11281674D01*
X16284110Y-11281674D02*
X16293634Y-11300722D01*
X16293634Y-11300722D02*
X16293634Y-11405484D01*
X16293634Y-11300722D02*
X16303158Y-11281674D01*
X16303158Y-11281674D02*
X16322205Y-11272150D01*
X16322205Y-11272150D02*
X16350777Y-11272150D01*
X16350777Y-11272150D02*
X16369824Y-11281674D01*
X16369824Y-11281674D02*
X16379348Y-11300722D01*
X16379348Y-11300722D02*
X16379348Y-11405484D01*
X16474586Y-11405484D02*
X16474586Y-11272150D01*
X16474586Y-11291198D02*
X16484110Y-11281674D01*
X16484110Y-11281674D02*
X16503158Y-11272150D01*
X16503158Y-11272150D02*
X16531729Y-11272150D01*
X16531729Y-11272150D02*
X16550777Y-11281674D01*
X16550777Y-11281674D02*
X16560301Y-11300722D01*
X16560301Y-11300722D02*
X16560301Y-11405484D01*
X16560301Y-11300722D02*
X16569824Y-11281674D01*
X16569824Y-11281674D02*
X16588872Y-11272150D01*
X16588872Y-11272150D02*
X16617443Y-11272150D01*
X16617443Y-11272150D02*
X16636491Y-11281674D01*
X16636491Y-11281674D02*
X16646015Y-11300722D01*
X16646015Y-11300722D02*
X16646015Y-11405484D01*
X17036491Y-11195960D02*
X16865063Y-11453103D01*
X17293634Y-11205484D02*
X17312682Y-11205484D01*
X17312682Y-11205484D02*
X17331729Y-11215008D01*
X17331729Y-11215008D02*
X17341253Y-11224531D01*
X17341253Y-11224531D02*
X17350777Y-11243579D01*
X17350777Y-11243579D02*
X17360301Y-11281674D01*
X17360301Y-11281674D02*
X17360301Y-11329293D01*
X17360301Y-11329293D02*
X17350777Y-11367388D01*
X17350777Y-11367388D02*
X17341253Y-11386436D01*
X17341253Y-11386436D02*
X17331729Y-11395960D01*
X17331729Y-11395960D02*
X17312682Y-11405484D01*
X17312682Y-11405484D02*
X17293634Y-11405484D01*
X17293634Y-11405484D02*
X17274587Y-11395960D01*
X17274587Y-11395960D02*
X17265063Y-11386436D01*
X17265063Y-11386436D02*
X17255539Y-11367388D01*
X17255539Y-11367388D02*
X17246015Y-11329293D01*
X17246015Y-11329293D02*
X17246015Y-11281674D01*
X17246015Y-11281674D02*
X17255539Y-11243579D01*
X17255539Y-11243579D02*
X17265063Y-11224531D01*
X17265063Y-11224531D02*
X17274587Y-11215008D01*
X17274587Y-11215008D02*
X17293634Y-11205484D01*
X17446015Y-11386436D02*
X17455539Y-11395960D01*
X17455539Y-11395960D02*
X17446015Y-11405484D01*
X17446015Y-11405484D02*
X17436491Y-11395960D01*
X17436491Y-11395960D02*
X17446015Y-11386436D01*
X17446015Y-11386436D02*
X17446015Y-11405484D01*
X17579348Y-11205484D02*
X17598396Y-11205484D01*
X17598396Y-11205484D02*
X17617444Y-11215008D01*
X17617444Y-11215008D02*
X17626968Y-11224531D01*
X17626968Y-11224531D02*
X17636491Y-11243579D01*
X17636491Y-11243579D02*
X17646015Y-11281674D01*
X17646015Y-11281674D02*
X17646015Y-11329293D01*
X17646015Y-11329293D02*
X17636491Y-11367388D01*
X17636491Y-11367388D02*
X17626968Y-11386436D01*
X17626968Y-11386436D02*
X17617444Y-11395960D01*
X17617444Y-11395960D02*
X17598396Y-11405484D01*
X17598396Y-11405484D02*
X17579348Y-11405484D01*
X17579348Y-11405484D02*
X17560301Y-11395960D01*
X17560301Y-11395960D02*
X17550777Y-11386436D01*
X17550777Y-11386436D02*
X17541253Y-11367388D01*
X17541253Y-11367388D02*
X17531729Y-11329293D01*
X17531729Y-11329293D02*
X17531729Y-11281674D01*
X17531729Y-11281674D02*
X17541253Y-11243579D01*
X17541253Y-11243579D02*
X17550777Y-11224531D01*
X17550777Y-11224531D02*
X17560301Y-11215008D01*
X17560301Y-11215008D02*
X17579348Y-11205484D01*
X17712682Y-11205484D02*
X17836491Y-11205484D01*
X17836491Y-11205484D02*
X17769825Y-11281674D01*
X17769825Y-11281674D02*
X17798396Y-11281674D01*
X17798396Y-11281674D02*
X17817444Y-11291198D01*
X17817444Y-11291198D02*
X17826968Y-11300722D01*
X17826968Y-11300722D02*
X17836491Y-11319769D01*
X17836491Y-11319769D02*
X17836491Y-11367388D01*
X17836491Y-11367388D02*
X17826968Y-11386436D01*
X17826968Y-11386436D02*
X17817444Y-11395960D01*
X17817444Y-11395960D02*
X17798396Y-11405484D01*
X17798396Y-11405484D02*
X17741253Y-11405484D01*
X17741253Y-11405484D02*
X17722206Y-11395960D01*
X17722206Y-11395960D02*
X17712682Y-11386436D01*
X17931729Y-11405484D02*
X17969825Y-11405484D01*
X17969825Y-11405484D02*
X17988872Y-11395960D01*
X17988872Y-11395960D02*
X17998396Y-11386436D01*
X17998396Y-11386436D02*
X18017444Y-11357865D01*
X18017444Y-11357865D02*
X18026968Y-11319769D01*
X18026968Y-11319769D02*
X18026968Y-11243579D01*
X18026968Y-11243579D02*
X18017444Y-11224531D01*
X18017444Y-11224531D02*
X18007920Y-11215008D01*
X18007920Y-11215008D02*
X17988872Y-11205484D01*
X17988872Y-11205484D02*
X17950777Y-11205484D01*
X17950777Y-11205484D02*
X17931729Y-11215008D01*
X17931729Y-11215008D02*
X17922206Y-11224531D01*
X17922206Y-11224531D02*
X17912682Y-11243579D01*
X17912682Y-11243579D02*
X17912682Y-11291198D01*
X17912682Y-11291198D02*
X17922206Y-11310246D01*
X17922206Y-11310246D02*
X17931729Y-11319769D01*
X17931729Y-11319769D02*
X17950777Y-11329293D01*
X17950777Y-11329293D02*
X17988872Y-11329293D01*
X17988872Y-11329293D02*
X18007920Y-11319769D01*
X18007920Y-11319769D02*
X18017444Y-11310246D01*
X18017444Y-11310246D02*
X18026968Y-11291198D01*
X18198396Y-11272150D02*
X18198396Y-11405484D01*
X18150777Y-11195960D02*
X18103158Y-11338817D01*
X18103158Y-11338817D02*
X18226968Y-11338817D01*
X18293634Y-11205484D02*
X18293634Y-11243579D01*
X18369825Y-11205484D02*
X18369825Y-11243579D01*
X18665063Y-11481674D02*
X18655539Y-11472150D01*
X18655539Y-11472150D02*
X18636491Y-11443579D01*
X18636491Y-11443579D02*
X18626968Y-11424531D01*
X18626968Y-11424531D02*
X18617444Y-11395960D01*
X18617444Y-11395960D02*
X18607920Y-11348341D01*
X18607920Y-11348341D02*
X18607920Y-11310246D01*
X18607920Y-11310246D02*
X18617444Y-11262627D01*
X18617444Y-11262627D02*
X18626968Y-11234055D01*
X18626968Y-11234055D02*
X18636491Y-11215008D01*
X18636491Y-11215008D02*
X18655539Y-11186436D01*
X18655539Y-11186436D02*
X18665063Y-11176912D01*
X18750777Y-11405484D02*
X18788872Y-11405484D01*
X18788872Y-11405484D02*
X18807920Y-11395960D01*
X18807920Y-11395960D02*
X18817444Y-11386436D01*
X18817444Y-11386436D02*
X18836491Y-11357865D01*
X18836491Y-11357865D02*
X18846015Y-11319769D01*
X18846015Y-11319769D02*
X18846015Y-11243579D01*
X18846015Y-11243579D02*
X18836491Y-11224531D01*
X18836491Y-11224531D02*
X18826968Y-11215008D01*
X18826968Y-11215008D02*
X18807920Y-11205484D01*
X18807920Y-11205484D02*
X18769825Y-11205484D01*
X18769825Y-11205484D02*
X18750777Y-11215008D01*
X18750777Y-11215008D02*
X18741253Y-11224531D01*
X18741253Y-11224531D02*
X18731730Y-11243579D01*
X18731730Y-11243579D02*
X18731730Y-11291198D01*
X18731730Y-11291198D02*
X18741253Y-11310246D01*
X18741253Y-11310246D02*
X18750777Y-11319769D01*
X18750777Y-11319769D02*
X18769825Y-11329293D01*
X18769825Y-11329293D02*
X18807920Y-11329293D01*
X18807920Y-11329293D02*
X18826968Y-11319769D01*
X18826968Y-11319769D02*
X18836491Y-11310246D01*
X18836491Y-11310246D02*
X18846015Y-11291198D01*
X19084111Y-11405484D02*
X19084111Y-11205484D01*
X19169825Y-11405484D02*
X19169825Y-11300722D01*
X19169825Y-11300722D02*
X19160301Y-11281674D01*
X19160301Y-11281674D02*
X19141253Y-11272150D01*
X19141253Y-11272150D02*
X19112682Y-11272150D01*
X19112682Y-11272150D02*
X19093634Y-11281674D01*
X19093634Y-11281674D02*
X19084111Y-11291198D01*
X19293634Y-11405484D02*
X19274587Y-11395960D01*
X19274587Y-11395960D02*
X19265063Y-11386436D01*
X19265063Y-11386436D02*
X19255539Y-11367388D01*
X19255539Y-11367388D02*
X19255539Y-11310246D01*
X19255539Y-11310246D02*
X19265063Y-11291198D01*
X19265063Y-11291198D02*
X19274587Y-11281674D01*
X19274587Y-11281674D02*
X19293634Y-11272150D01*
X19293634Y-11272150D02*
X19322206Y-11272150D01*
X19322206Y-11272150D02*
X19341253Y-11281674D01*
X19341253Y-11281674D02*
X19350777Y-11291198D01*
X19350777Y-11291198D02*
X19360301Y-11310246D01*
X19360301Y-11310246D02*
X19360301Y-11367388D01*
X19360301Y-11367388D02*
X19350777Y-11386436D01*
X19350777Y-11386436D02*
X19341253Y-11395960D01*
X19341253Y-11395960D02*
X19322206Y-11405484D01*
X19322206Y-11405484D02*
X19293634Y-11405484D01*
X19474587Y-11405484D02*
X19455539Y-11395960D01*
X19455539Y-11395960D02*
X19446015Y-11376912D01*
X19446015Y-11376912D02*
X19446015Y-11205484D01*
X19626968Y-11395960D02*
X19607920Y-11405484D01*
X19607920Y-11405484D02*
X19569825Y-11405484D01*
X19569825Y-11405484D02*
X19550777Y-11395960D01*
X19550777Y-11395960D02*
X19541253Y-11376912D01*
X19541253Y-11376912D02*
X19541253Y-11300722D01*
X19541253Y-11300722D02*
X19550777Y-11281674D01*
X19550777Y-11281674D02*
X19569825Y-11272150D01*
X19569825Y-11272150D02*
X19607920Y-11272150D01*
X19607920Y-11272150D02*
X19626968Y-11281674D01*
X19626968Y-11281674D02*
X19636492Y-11300722D01*
X19636492Y-11300722D02*
X19636492Y-11319769D01*
X19636492Y-11319769D02*
X19541253Y-11338817D01*
X19712682Y-11395960D02*
X19731730Y-11405484D01*
X19731730Y-11405484D02*
X19769825Y-11405484D01*
X19769825Y-11405484D02*
X19788873Y-11395960D01*
X19788873Y-11395960D02*
X19798396Y-11376912D01*
X19798396Y-11376912D02*
X19798396Y-11367388D01*
X19798396Y-11367388D02*
X19788873Y-11348341D01*
X19788873Y-11348341D02*
X19769825Y-11338817D01*
X19769825Y-11338817D02*
X19741253Y-11338817D01*
X19741253Y-11338817D02*
X19722206Y-11329293D01*
X19722206Y-11329293D02*
X19712682Y-11310246D01*
X19712682Y-11310246D02*
X19712682Y-11300722D01*
X19712682Y-11300722D02*
X19722206Y-11281674D01*
X19722206Y-11281674D02*
X19741253Y-11272150D01*
X19741253Y-11272150D02*
X19769825Y-11272150D01*
X19769825Y-11272150D02*
X19788873Y-11281674D01*
X19865063Y-11481674D02*
X19874587Y-11472150D01*
X19874587Y-11472150D02*
X19893634Y-11443579D01*
X19893634Y-11443579D02*
X19903158Y-11424531D01*
X19903158Y-11424531D02*
X19912682Y-11395960D01*
X19912682Y-11395960D02*
X19922206Y-11348341D01*
X19922206Y-11348341D02*
X19922206Y-11310246D01*
X19922206Y-11310246D02*
X19912682Y-11262627D01*
X19912682Y-11262627D02*
X19903158Y-11234055D01*
X19903158Y-11234055D02*
X19893634Y-11215008D01*
X19893634Y-11215008D02*
X19874587Y-11186436D01*
X19874587Y-11186436D02*
X19865063Y-11176912D01*
D12*
X15020000Y-11508000D02*
X15020000Y-11648000D01*
X14950000Y-11578000D02*
X15090000Y-11578000D01*
D10*
X15455539Y-11669484D02*
X15341253Y-11669484D01*
X15398396Y-11669484D02*
X15398396Y-11469484D01*
X15398396Y-11469484D02*
X15379348Y-11498055D01*
X15379348Y-11498055D02*
X15360301Y-11517103D01*
X15360301Y-11517103D02*
X15341253Y-11526627D01*
X15541253Y-11650436D02*
X15550777Y-11659960D01*
X15550777Y-11659960D02*
X15541253Y-11669484D01*
X15541253Y-11669484D02*
X15531729Y-11659960D01*
X15531729Y-11659960D02*
X15541253Y-11650436D01*
X15541253Y-11650436D02*
X15541253Y-11669484D01*
X15722205Y-11536150D02*
X15722205Y-11669484D01*
X15674586Y-11459960D02*
X15626967Y-11602817D01*
X15626967Y-11602817D02*
X15750777Y-11602817D01*
X15865062Y-11469484D02*
X15884110Y-11469484D01*
X15884110Y-11469484D02*
X15903158Y-11479008D01*
X15903158Y-11479008D02*
X15912682Y-11488531D01*
X15912682Y-11488531D02*
X15922205Y-11507579D01*
X15922205Y-11507579D02*
X15931729Y-11545674D01*
X15931729Y-11545674D02*
X15931729Y-11593293D01*
X15931729Y-11593293D02*
X15922205Y-11631388D01*
X15922205Y-11631388D02*
X15912682Y-11650436D01*
X15912682Y-11650436D02*
X15903158Y-11659960D01*
X15903158Y-11659960D02*
X15884110Y-11669484D01*
X15884110Y-11669484D02*
X15865062Y-11669484D01*
X15865062Y-11669484D02*
X15846015Y-11659960D01*
X15846015Y-11659960D02*
X15836491Y-11650436D01*
X15836491Y-11650436D02*
X15826967Y-11631388D01*
X15826967Y-11631388D02*
X15817443Y-11593293D01*
X15817443Y-11593293D02*
X15817443Y-11545674D01*
X15817443Y-11545674D02*
X15826967Y-11507579D01*
X15826967Y-11507579D02*
X15836491Y-11488531D01*
X15836491Y-11488531D02*
X15846015Y-11479008D01*
X15846015Y-11479008D02*
X15865062Y-11469484D01*
X16055539Y-11469484D02*
X16074586Y-11469484D01*
X16074586Y-11469484D02*
X16093634Y-11479008D01*
X16093634Y-11479008D02*
X16103158Y-11488531D01*
X16103158Y-11488531D02*
X16112682Y-11507579D01*
X16112682Y-11507579D02*
X16122205Y-11545674D01*
X16122205Y-11545674D02*
X16122205Y-11593293D01*
X16122205Y-11593293D02*
X16112682Y-11631388D01*
X16112682Y-11631388D02*
X16103158Y-11650436D01*
X16103158Y-11650436D02*
X16093634Y-11659960D01*
X16093634Y-11659960D02*
X16074586Y-11669484D01*
X16074586Y-11669484D02*
X16055539Y-11669484D01*
X16055539Y-11669484D02*
X16036491Y-11659960D01*
X16036491Y-11659960D02*
X16026967Y-11650436D01*
X16026967Y-11650436D02*
X16017443Y-11631388D01*
X16017443Y-11631388D02*
X16007920Y-11593293D01*
X16007920Y-11593293D02*
X16007920Y-11545674D01*
X16007920Y-11545674D02*
X16017443Y-11507579D01*
X16017443Y-11507579D02*
X16026967Y-11488531D01*
X16026967Y-11488531D02*
X16036491Y-11479008D01*
X16036491Y-11479008D02*
X16055539Y-11469484D01*
X16207920Y-11669484D02*
X16207920Y-11536150D01*
X16207920Y-11555198D02*
X16217443Y-11545674D01*
X16217443Y-11545674D02*
X16236491Y-11536150D01*
X16236491Y-11536150D02*
X16265063Y-11536150D01*
X16265063Y-11536150D02*
X16284110Y-11545674D01*
X16284110Y-11545674D02*
X16293634Y-11564722D01*
X16293634Y-11564722D02*
X16293634Y-11669484D01*
X16293634Y-11564722D02*
X16303158Y-11545674D01*
X16303158Y-11545674D02*
X16322205Y-11536150D01*
X16322205Y-11536150D02*
X16350777Y-11536150D01*
X16350777Y-11536150D02*
X16369824Y-11545674D01*
X16369824Y-11545674D02*
X16379348Y-11564722D01*
X16379348Y-11564722D02*
X16379348Y-11669484D01*
X16474586Y-11669484D02*
X16474586Y-11536150D01*
X16474586Y-11555198D02*
X16484110Y-11545674D01*
X16484110Y-11545674D02*
X16503158Y-11536150D01*
X16503158Y-11536150D02*
X16531729Y-11536150D01*
X16531729Y-11536150D02*
X16550777Y-11545674D01*
X16550777Y-11545674D02*
X16560301Y-11564722D01*
X16560301Y-11564722D02*
X16560301Y-11669484D01*
X16560301Y-11564722D02*
X16569824Y-11545674D01*
X16569824Y-11545674D02*
X16588872Y-11536150D01*
X16588872Y-11536150D02*
X16617443Y-11536150D01*
X16617443Y-11536150D02*
X16636491Y-11545674D01*
X16636491Y-11545674D02*
X16646015Y-11564722D01*
X16646015Y-11564722D02*
X16646015Y-11669484D01*
X17036491Y-11459960D02*
X16865063Y-11717103D01*
X17293634Y-11469484D02*
X17312682Y-11469484D01*
X17312682Y-11469484D02*
X17331729Y-11479008D01*
X17331729Y-11479008D02*
X17341253Y-11488531D01*
X17341253Y-11488531D02*
X17350777Y-11507579D01*
X17350777Y-11507579D02*
X17360301Y-11545674D01*
X17360301Y-11545674D02*
X17360301Y-11593293D01*
X17360301Y-11593293D02*
X17350777Y-11631388D01*
X17350777Y-11631388D02*
X17341253Y-11650436D01*
X17341253Y-11650436D02*
X17331729Y-11659960D01*
X17331729Y-11659960D02*
X17312682Y-11669484D01*
X17312682Y-11669484D02*
X17293634Y-11669484D01*
X17293634Y-11669484D02*
X17274587Y-11659960D01*
X17274587Y-11659960D02*
X17265063Y-11650436D01*
X17265063Y-11650436D02*
X17255539Y-11631388D01*
X17255539Y-11631388D02*
X17246015Y-11593293D01*
X17246015Y-11593293D02*
X17246015Y-11545674D01*
X17246015Y-11545674D02*
X17255539Y-11507579D01*
X17255539Y-11507579D02*
X17265063Y-11488531D01*
X17265063Y-11488531D02*
X17274587Y-11479008D01*
X17274587Y-11479008D02*
X17293634Y-11469484D01*
X17446015Y-11650436D02*
X17455539Y-11659960D01*
X17455539Y-11659960D02*
X17446015Y-11669484D01*
X17446015Y-11669484D02*
X17436491Y-11659960D01*
X17436491Y-11659960D02*
X17446015Y-11650436D01*
X17446015Y-11650436D02*
X17446015Y-11669484D01*
X17579348Y-11469484D02*
X17598396Y-11469484D01*
X17598396Y-11469484D02*
X17617444Y-11479008D01*
X17617444Y-11479008D02*
X17626968Y-11488531D01*
X17626968Y-11488531D02*
X17636491Y-11507579D01*
X17636491Y-11507579D02*
X17646015Y-11545674D01*
X17646015Y-11545674D02*
X17646015Y-11593293D01*
X17646015Y-11593293D02*
X17636491Y-11631388D01*
X17636491Y-11631388D02*
X17626968Y-11650436D01*
X17626968Y-11650436D02*
X17617444Y-11659960D01*
X17617444Y-11659960D02*
X17598396Y-11669484D01*
X17598396Y-11669484D02*
X17579348Y-11669484D01*
X17579348Y-11669484D02*
X17560301Y-11659960D01*
X17560301Y-11659960D02*
X17550777Y-11650436D01*
X17550777Y-11650436D02*
X17541253Y-11631388D01*
X17541253Y-11631388D02*
X17531729Y-11593293D01*
X17531729Y-11593293D02*
X17531729Y-11545674D01*
X17531729Y-11545674D02*
X17541253Y-11507579D01*
X17541253Y-11507579D02*
X17550777Y-11488531D01*
X17550777Y-11488531D02*
X17560301Y-11479008D01*
X17560301Y-11479008D02*
X17579348Y-11469484D01*
X17826968Y-11469484D02*
X17731729Y-11469484D01*
X17731729Y-11469484D02*
X17722206Y-11564722D01*
X17722206Y-11564722D02*
X17731729Y-11555198D01*
X17731729Y-11555198D02*
X17750777Y-11545674D01*
X17750777Y-11545674D02*
X17798396Y-11545674D01*
X17798396Y-11545674D02*
X17817444Y-11555198D01*
X17817444Y-11555198D02*
X17826968Y-11564722D01*
X17826968Y-11564722D02*
X17836491Y-11583769D01*
X17836491Y-11583769D02*
X17836491Y-11631388D01*
X17836491Y-11631388D02*
X17826968Y-11650436D01*
X17826968Y-11650436D02*
X17817444Y-11659960D01*
X17817444Y-11659960D02*
X17798396Y-11669484D01*
X17798396Y-11669484D02*
X17750777Y-11669484D01*
X17750777Y-11669484D02*
X17731729Y-11659960D01*
X17731729Y-11659960D02*
X17722206Y-11650436D01*
X18017444Y-11469484D02*
X17922206Y-11469484D01*
X17922206Y-11469484D02*
X17912682Y-11564722D01*
X17912682Y-11564722D02*
X17922206Y-11555198D01*
X17922206Y-11555198D02*
X17941253Y-11545674D01*
X17941253Y-11545674D02*
X17988872Y-11545674D01*
X17988872Y-11545674D02*
X18007920Y-11555198D01*
X18007920Y-11555198D02*
X18017444Y-11564722D01*
X18017444Y-11564722D02*
X18026968Y-11583769D01*
X18026968Y-11583769D02*
X18026968Y-11631388D01*
X18026968Y-11631388D02*
X18017444Y-11650436D01*
X18017444Y-11650436D02*
X18007920Y-11659960D01*
X18007920Y-11659960D02*
X17988872Y-11669484D01*
X17988872Y-11669484D02*
X17941253Y-11669484D01*
X17941253Y-11669484D02*
X17922206Y-11659960D01*
X17922206Y-11659960D02*
X17912682Y-11650436D01*
X18217444Y-11669484D02*
X18103158Y-11669484D01*
X18160301Y-11669484D02*
X18160301Y-11469484D01*
X18160301Y-11469484D02*
X18141253Y-11498055D01*
X18141253Y-11498055D02*
X18122206Y-11517103D01*
X18122206Y-11517103D02*
X18103158Y-11526627D01*
X18293634Y-11469484D02*
X18293634Y-11507579D01*
X18369825Y-11469484D02*
X18369825Y-11507579D01*
X18665063Y-11745674D02*
X18655539Y-11736150D01*
X18655539Y-11736150D02*
X18636491Y-11707579D01*
X18636491Y-11707579D02*
X18626968Y-11688531D01*
X18626968Y-11688531D02*
X18617444Y-11659960D01*
X18617444Y-11659960D02*
X18607920Y-11612341D01*
X18607920Y-11612341D02*
X18607920Y-11574246D01*
X18607920Y-11574246D02*
X18617444Y-11526627D01*
X18617444Y-11526627D02*
X18626968Y-11498055D01*
X18626968Y-11498055D02*
X18636491Y-11479008D01*
X18636491Y-11479008D02*
X18655539Y-11450436D01*
X18655539Y-11450436D02*
X18665063Y-11440912D01*
X18722206Y-11469484D02*
X18846015Y-11469484D01*
X18846015Y-11469484D02*
X18779349Y-11545674D01*
X18779349Y-11545674D02*
X18807920Y-11545674D01*
X18807920Y-11545674D02*
X18826968Y-11555198D01*
X18826968Y-11555198D02*
X18836491Y-11564722D01*
X18836491Y-11564722D02*
X18846015Y-11583769D01*
X18846015Y-11583769D02*
X18846015Y-11631388D01*
X18846015Y-11631388D02*
X18836491Y-11650436D01*
X18836491Y-11650436D02*
X18826968Y-11659960D01*
X18826968Y-11659960D02*
X18807920Y-11669484D01*
X18807920Y-11669484D02*
X18750777Y-11669484D01*
X18750777Y-11669484D02*
X18731730Y-11659960D01*
X18731730Y-11659960D02*
X18722206Y-11650436D01*
X19084111Y-11669484D02*
X19084111Y-11469484D01*
X19169825Y-11669484D02*
X19169825Y-11564722D01*
X19169825Y-11564722D02*
X19160301Y-11545674D01*
X19160301Y-11545674D02*
X19141253Y-11536150D01*
X19141253Y-11536150D02*
X19112682Y-11536150D01*
X19112682Y-11536150D02*
X19093634Y-11545674D01*
X19093634Y-11545674D02*
X19084111Y-11555198D01*
X19293634Y-11669484D02*
X19274587Y-11659960D01*
X19274587Y-11659960D02*
X19265063Y-11650436D01*
X19265063Y-11650436D02*
X19255539Y-11631388D01*
X19255539Y-11631388D02*
X19255539Y-11574246D01*
X19255539Y-11574246D02*
X19265063Y-11555198D01*
X19265063Y-11555198D02*
X19274587Y-11545674D01*
X19274587Y-11545674D02*
X19293634Y-11536150D01*
X19293634Y-11536150D02*
X19322206Y-11536150D01*
X19322206Y-11536150D02*
X19341253Y-11545674D01*
X19341253Y-11545674D02*
X19350777Y-11555198D01*
X19350777Y-11555198D02*
X19360301Y-11574246D01*
X19360301Y-11574246D02*
X19360301Y-11631388D01*
X19360301Y-11631388D02*
X19350777Y-11650436D01*
X19350777Y-11650436D02*
X19341253Y-11659960D01*
X19341253Y-11659960D02*
X19322206Y-11669484D01*
X19322206Y-11669484D02*
X19293634Y-11669484D01*
X19474587Y-11669484D02*
X19455539Y-11659960D01*
X19455539Y-11659960D02*
X19446015Y-11640912D01*
X19446015Y-11640912D02*
X19446015Y-11469484D01*
X19626968Y-11659960D02*
X19607920Y-11669484D01*
X19607920Y-11669484D02*
X19569825Y-11669484D01*
X19569825Y-11669484D02*
X19550777Y-11659960D01*
X19550777Y-11659960D02*
X19541253Y-11640912D01*
X19541253Y-11640912D02*
X19541253Y-11564722D01*
X19541253Y-11564722D02*
X19550777Y-11545674D01*
X19550777Y-11545674D02*
X19569825Y-11536150D01*
X19569825Y-11536150D02*
X19607920Y-11536150D01*
X19607920Y-11536150D02*
X19626968Y-11545674D01*
X19626968Y-11545674D02*
X19636492Y-11564722D01*
X19636492Y-11564722D02*
X19636492Y-11583769D01*
X19636492Y-11583769D02*
X19541253Y-11602817D01*
X19712682Y-11659960D02*
X19731730Y-11669484D01*
X19731730Y-11669484D02*
X19769825Y-11669484D01*
X19769825Y-11669484D02*
X19788873Y-11659960D01*
X19788873Y-11659960D02*
X19798396Y-11640912D01*
X19798396Y-11640912D02*
X19798396Y-11631388D01*
X19798396Y-11631388D02*
X19788873Y-11612341D01*
X19788873Y-11612341D02*
X19769825Y-11602817D01*
X19769825Y-11602817D02*
X19741253Y-11602817D01*
X19741253Y-11602817D02*
X19722206Y-11593293D01*
X19722206Y-11593293D02*
X19712682Y-11574246D01*
X19712682Y-11574246D02*
X19712682Y-11564722D01*
X19712682Y-11564722D02*
X19722206Y-11545674D01*
X19722206Y-11545674D02*
X19741253Y-11536150D01*
X19741253Y-11536150D02*
X19769825Y-11536150D01*
X19769825Y-11536150D02*
X19788873Y-11545674D01*
X19865063Y-11745674D02*
X19874587Y-11736150D01*
X19874587Y-11736150D02*
X19893634Y-11707579D01*
X19893634Y-11707579D02*
X19903158Y-11688531D01*
X19903158Y-11688531D02*
X19912682Y-11659960D01*
X19912682Y-11659960D02*
X19922206Y-11612341D01*
X19922206Y-11612341D02*
X19922206Y-11574246D01*
X19922206Y-11574246D02*
X19912682Y-11526627D01*
X19912682Y-11526627D02*
X19903158Y-11498055D01*
X19903158Y-11498055D02*
X19893634Y-11479008D01*
X19893634Y-11479008D02*
X19874587Y-11450436D01*
X19874587Y-11450436D02*
X19865063Y-11440912D01*
M02*
