M48
; DRILL file {KiCad 8.0.2} date 2024-06-29T14:50:52+0200
; FORMAT={-:-/ absolute / metric / decimal}
; #@! TF.CreationDate,2024-06-29T14:50:52+02:00
; #@! TF.GenerationSoftware,Kicad,Pcbnew,8.0.2
; #@! TF.FileFunction,Plated,1,2,PTH
FMAT,2
METRIC
; #@! TA.AperFunction,Plated,PTH,ViaDrill
T1C0.300
; #@! TA.AperFunction,Plated,PTH,ComponentDrill
T2C1.000
; #@! TA.AperFunction,Plated,PTH,ComponentDrill
T3C1.400
%
G90
G05
T1
X152.5Y-91.0
X152.5Y-94.0
X152.5Y-102.0
X152.5Y-103.0
X153.5Y-103.0
X157.9Y-103.0
X159.0Y-87.0
X159.9Y-90.8
X161.1Y-90.8
X162.512Y-97.337
X165.0Y-84.9
X166.1Y-84.9
X166.9Y-102.95
X167.111Y-86.965
X167.125Y-88.2
X169.1Y-101.35
X177.9Y-102.0
X177.9Y-103.0
X178.95Y-103.0
X179.1Y-89.2
X181.95Y-93.15
X188.45Y-103.0
X188.5Y-85.0
X189.5Y-85.0
X189.5Y-86.0
X189.5Y-93.0
X189.5Y-94.0
X189.5Y-95.0
X189.5Y-102.0
X189.5Y-102.95
T2
X155.075Y-88.915
X155.075Y-91.455
X155.075Y-93.995
X155.075Y-96.535
X155.075Y-99.075
X173.3Y-88.6
X173.3Y-93.68
X173.3Y-98.76
X173.3Y-101.3
T3
X186.1Y-90.5
X186.1Y-94.0
X186.1Y-97.5
M30
