G04 #@! TF.GenerationSoftware,KiCad,Pcbnew,8.0.2*
G04 #@! TF.CreationDate,2024-06-29T14:49:14+02:00*
G04 #@! TF.ProjectId,STM32F4_GateSignalGenerator_GateDriver,53544d33-3246-4345-9f47-617465536967,rev?*
G04 #@! TF.SameCoordinates,Original*
G04 #@! TF.FileFunction,Copper,L2,Bot*
G04 #@! TF.FilePolarity,Positive*
%FSLAX46Y46*%
G04 Gerber Fmt 4.6, Leading zero omitted, Abs format (unit mm)*
G04 Created by KiCad (PCBNEW 8.0.2) date 2024-06-29 14:49:14*
%MOMM*%
%LPD*%
G01*
G04 APERTURE LIST*
G04 Aperture macros list*
%AMFreePoly0*
4,1,6,1.000000,0.000000,0.500000,-0.750000,-0.500000,-0.750000,-0.500000,0.750000,0.500000,0.750000,1.000000,0.000000,1.000000,0.000000,$1*%
%AMFreePoly1*
4,1,6,0.500000,-0.750000,-0.650000,-0.750000,-0.150000,0.000000,-0.650000,0.750000,0.500000,0.750000,0.500000,-0.750000,0.500000,-0.750000,$1*%
G04 Aperture macros list end*
G04 #@! TA.AperFunction,ComponentPad*
%ADD10C,2.500000*%
G04 #@! TD*
G04 #@! TA.AperFunction,ComponentPad*
%ADD11R,1.500000X1.500000*%
G04 #@! TD*
G04 #@! TA.AperFunction,ComponentPad*
%ADD12C,1.500000*%
G04 #@! TD*
G04 #@! TA.AperFunction,SMDPad,CuDef*
%ADD13C,1.000000*%
G04 #@! TD*
G04 #@! TA.AperFunction,SMDPad,CuDef*
%ADD14FreePoly0,0.000000*%
G04 #@! TD*
G04 #@! TA.AperFunction,SMDPad,CuDef*
%ADD15FreePoly1,0.000000*%
G04 #@! TD*
G04 #@! TA.AperFunction,ComponentPad*
%ADD16O,1.700000X1.700000*%
G04 #@! TD*
G04 #@! TA.AperFunction,ComponentPad*
%ADD17R,1.700000X1.700000*%
G04 #@! TD*
G04 #@! TA.AperFunction,ViaPad*
%ADD18C,0.700000*%
G04 #@! TD*
G04 #@! TA.AperFunction,Conductor*
%ADD19C,0.500000*%
G04 #@! TD*
G04 APERTURE END LIST*
D10*
X186100000Y-97500000D03*
X186100000Y-94000000D03*
X186100000Y-90500000D03*
D11*
X173300000Y-101300000D03*
D12*
X173300000Y-98760000D03*
X173300000Y-93680000D03*
X173300000Y-88600000D03*
D13*
X163750000Y-98600000D03*
D14*
X167575000Y-98750000D03*
D15*
X169025000Y-98750000D03*
D16*
X155075000Y-88915000D03*
X155075000Y-91455000D03*
X155075000Y-93995000D03*
X155075000Y-96535000D03*
D17*
X155075000Y-99075000D03*
D18*
X162512500Y-97337500D03*
X169100000Y-101350000D03*
X188450000Y-103000000D03*
X189500000Y-102000000D03*
X189500000Y-102950000D03*
X178950000Y-103000000D03*
X177900000Y-102000000D03*
X177900000Y-103000000D03*
X181950000Y-93150000D03*
X179100000Y-89200000D03*
X166900000Y-102950000D03*
X157900000Y-103000000D03*
X166100000Y-84900000D03*
X165000000Y-84900000D03*
X189500000Y-94000000D03*
X189500000Y-93000000D03*
X189500000Y-86000000D03*
X188500000Y-85000000D03*
X189500000Y-95000000D03*
X189500000Y-85000000D03*
X161100000Y-90800000D03*
X152500000Y-102000000D03*
X159900000Y-90800000D03*
X153500000Y-103000000D03*
X152500000Y-91000000D03*
X152500000Y-103000000D03*
X152500000Y-94000000D03*
X159000000Y-87000000D03*
X167110537Y-86965000D03*
X167125000Y-88200000D03*
D19*
X162512500Y-97337500D02*
X163750000Y-98575000D01*
X163750000Y-98575000D02*
X163750000Y-98600000D01*
X173300000Y-98760000D02*
X169460000Y-98760000D01*
X169460000Y-98760000D02*
X169450000Y-98750000D01*
X169100000Y-101350000D02*
X157350000Y-101350000D01*
X157350000Y-101350000D02*
X155075000Y-99075000D01*
X181950000Y-93150000D02*
X180400000Y-91600000D01*
X167950000Y-86150000D02*
X167135000Y-86965000D01*
X180400000Y-91600000D02*
X180400000Y-89150000D01*
X180400000Y-89150000D02*
X177400000Y-86150000D01*
X177400000Y-86150000D02*
X167950000Y-86150000D01*
X167135000Y-86965000D02*
X167110537Y-86965000D01*
X179100000Y-89200000D02*
X179100000Y-89150000D01*
X179100000Y-89150000D02*
X176950000Y-87000000D01*
X176950000Y-87000000D02*
X168375000Y-87000000D01*
X168375000Y-87000000D02*
X167175000Y-88200000D01*
X167175000Y-88200000D02*
X167125000Y-88200000D01*
X167125537Y-86950000D02*
X167110537Y-86965000D01*
X159000000Y-87000000D02*
X155075000Y-90925000D01*
X155075000Y-90925000D02*
X155075000Y-91455000D01*
G04 #@! TA.AperFunction,Conductor*
G36*
X190414006Y-84536319D02*
G01*
X190450324Y-84623674D01*
X190479328Y-95673995D01*
X190499674Y-103425675D01*
X190463585Y-103513451D01*
X190375999Y-103550000D01*
X177474000Y-103550000D01*
X177386319Y-103513681D01*
X177350000Y-103426000D01*
X177350000Y-95250000D01*
X171974000Y-95250000D01*
X171886319Y-95213681D01*
X171850000Y-95126000D01*
X171850000Y-90000000D01*
X171849999Y-89999999D01*
X164574838Y-90049156D01*
X164486913Y-90013431D01*
X164450003Y-89925997D01*
X164450000Y-89925159D01*
X164450000Y-86964997D01*
X166249435Y-86964997D01*
X166249435Y-86965002D01*
X166291578Y-87231092D01*
X166291580Y-87231095D01*
X166413891Y-87471143D01*
X166413893Y-87471145D01*
X166413895Y-87471148D01*
X166444797Y-87502050D01*
X166481116Y-87589731D01*
X166444801Y-87677408D01*
X166428355Y-87693854D01*
X166306041Y-87933907D01*
X166263898Y-88199997D01*
X166263898Y-88200002D01*
X166306041Y-88466092D01*
X166306043Y-88466095D01*
X166428354Y-88706143D01*
X166428356Y-88706145D01*
X166428358Y-88706148D01*
X166618851Y-88896641D01*
X166618853Y-88896642D01*
X166618857Y-88896646D01*
X166858905Y-89018957D01*
X166858907Y-89018958D01*
X167124998Y-89061102D01*
X167125000Y-89061102D01*
X167125002Y-89061102D01*
X167391092Y-89018958D01*
X167391093Y-89018957D01*
X167391095Y-89018957D01*
X167631143Y-88896646D01*
X167821646Y-88706143D01*
X167907704Y-88537243D01*
X167930504Y-88505861D01*
X168649548Y-87786819D01*
X168737229Y-87750500D01*
X172130633Y-87750500D01*
X172218314Y-87786819D01*
X172254633Y-87874500D01*
X172232683Y-87944940D01*
X172184605Y-88014593D01*
X172184604Y-88014594D01*
X172076918Y-88298537D01*
X172040315Y-88599999D01*
X172040315Y-88600000D01*
X172076918Y-88901462D01*
X172137462Y-89061102D01*
X172184604Y-89185405D01*
X172298253Y-89350053D01*
X172357113Y-89435327D01*
X172584414Y-89636698D01*
X172584415Y-89636698D01*
X172584417Y-89636700D01*
X172853310Y-89777826D01*
X172853312Y-89777826D01*
X172853313Y-89777827D01*
X173148162Y-89850500D01*
X173451838Y-89850500D01*
X173746686Y-89777827D01*
X173746686Y-89777826D01*
X173746690Y-89777826D01*
X174015583Y-89636700D01*
X174242888Y-89435326D01*
X174415396Y-89185405D01*
X174523081Y-88901462D01*
X174559685Y-88600000D01*
X174523081Y-88298538D01*
X174415396Y-88014595D01*
X174367317Y-87944940D01*
X174347398Y-87852148D01*
X174398927Y-87772450D01*
X174469367Y-87750500D01*
X176587771Y-87750500D01*
X176675452Y-87786819D01*
X178238686Y-89350053D01*
X178273478Y-89418336D01*
X178281041Y-89466092D01*
X178281043Y-89466095D01*
X178403354Y-89706143D01*
X178403356Y-89706145D01*
X178403358Y-89706148D01*
X178593851Y-89896641D01*
X178593853Y-89896642D01*
X178593857Y-89896646D01*
X178796698Y-89999999D01*
X178833907Y-90018958D01*
X179099998Y-90061102D01*
X179100000Y-90061102D01*
X179100002Y-90061102D01*
X179366092Y-90018958D01*
X179366093Y-90018957D01*
X179366095Y-90018957D01*
X179469206Y-89966418D01*
X179563818Y-89958973D01*
X179635985Y-90020609D01*
X179649500Y-90076904D01*
X179649500Y-91698804D01*
X179700645Y-91889684D01*
X179750048Y-91975250D01*
X179799451Y-92060818D01*
X179799453Y-92060820D01*
X181098592Y-93359959D01*
X181128841Y-93409319D01*
X181131041Y-93416092D01*
X181131043Y-93416095D01*
X181253354Y-93656143D01*
X181253356Y-93656145D01*
X181253358Y-93656148D01*
X181443851Y-93846641D01*
X181443853Y-93846642D01*
X181443857Y-93846646D01*
X181683905Y-93968957D01*
X181683907Y-93968958D01*
X181949998Y-94011102D01*
X181950000Y-94011102D01*
X181950002Y-94011102D01*
X182216092Y-93968958D01*
X182216093Y-93968957D01*
X182216095Y-93968957D01*
X182456143Y-93846646D01*
X182646646Y-93656143D01*
X182768957Y-93416095D01*
X182768957Y-93416093D01*
X182768958Y-93416092D01*
X182811102Y-93150002D01*
X182811102Y-93149997D01*
X182768958Y-92883907D01*
X182740155Y-92827378D01*
X182646646Y-92643857D01*
X182646642Y-92643853D01*
X182646641Y-92643851D01*
X182456148Y-92453358D01*
X182456145Y-92453356D01*
X182456143Y-92453354D01*
X182293000Y-92370228D01*
X182216092Y-92331041D01*
X182209319Y-92328841D01*
X182159959Y-92298592D01*
X181186819Y-91325452D01*
X181150500Y-91237771D01*
X181150500Y-90500000D01*
X184339858Y-90500000D01*
X184378321Y-90865954D01*
X184378322Y-90865957D01*
X184492027Y-91215908D01*
X184492030Y-91215914D01*
X184676015Y-91534586D01*
X184922235Y-91808040D01*
X185034607Y-91889683D01*
X185219929Y-92024328D01*
X185472366Y-92136721D01*
X185537694Y-92205563D01*
X185535209Y-92300436D01*
X185472366Y-92363279D01*
X185219929Y-92475671D01*
X184922233Y-92691961D01*
X184676014Y-92965415D01*
X184492030Y-93284085D01*
X184492027Y-93284091D01*
X184378322Y-93634042D01*
X184378321Y-93634046D01*
X184339858Y-94000000D01*
X184378321Y-94365954D01*
X184378322Y-94365957D01*
X184492027Y-94715908D01*
X184492030Y-94715914D01*
X184676015Y-95034586D01*
X184922235Y-95308040D01*
X185219929Y-95524328D01*
X185556086Y-95673995D01*
X185916015Y-95750500D01*
X185916016Y-95750500D01*
X186283983Y-95750500D01*
X186283985Y-95750500D01*
X186643914Y-95673995D01*
X186980071Y-95524328D01*
X187277765Y-95308040D01*
X187523985Y-95034586D01*
X187707970Y-94715914D01*
X187821679Y-94365954D01*
X187860142Y-94000000D01*
X187821679Y-93634046D01*
X187707970Y-93284086D01*
X187523985Y-92965414D01*
X187277765Y-92691960D01*
X186980071Y-92475672D01*
X186727631Y-92363278D01*
X186662305Y-92294437D01*
X186664789Y-92199564D01*
X186727631Y-92136721D01*
X186980071Y-92024328D01*
X187277765Y-91808040D01*
X187523985Y-91534586D01*
X187707970Y-91215914D01*
X187821679Y-90865954D01*
X187860142Y-90500000D01*
X187821679Y-90134046D01*
X187744541Y-89896641D01*
X187707972Y-89784091D01*
X187707969Y-89784085D01*
X187704356Y-89777827D01*
X187523985Y-89465414D01*
X187277765Y-89191960D01*
X186980071Y-88975672D01*
X186643914Y-88826005D01*
X186643912Y-88826004D01*
X186643911Y-88826004D01*
X186405906Y-88775415D01*
X186283985Y-88749500D01*
X185916015Y-88749500D01*
X185818860Y-88770150D01*
X185556088Y-88826004D01*
X185556086Y-88826005D01*
X185397429Y-88896644D01*
X185219925Y-88975674D01*
X184922233Y-89191961D01*
X184676014Y-89465415D01*
X184492030Y-89784085D01*
X184492027Y-89784091D01*
X184378322Y-90134042D01*
X184378321Y-90134046D01*
X184339858Y-90500000D01*
X181150500Y-90500000D01*
X181150500Y-89051197D01*
X181150500Y-89051195D01*
X181099355Y-88860318D01*
X181050337Y-88775416D01*
X181050337Y-88775415D01*
X181000554Y-88689188D01*
X181000548Y-88689180D01*
X177860820Y-85549453D01*
X177860818Y-85549451D01*
X177775250Y-85500048D01*
X177689684Y-85450645D01*
X177594244Y-85425072D01*
X177498805Y-85399500D01*
X168048805Y-85399500D01*
X167851195Y-85399500D01*
X167660315Y-85450645D01*
X167489182Y-85549451D01*
X167489179Y-85549453D01*
X166930139Y-86108492D01*
X166861857Y-86143284D01*
X166844444Y-86146041D01*
X166684410Y-86227583D01*
X166604394Y-86268354D01*
X166604393Y-86268355D01*
X166604388Y-86268358D01*
X166413895Y-86458851D01*
X166413892Y-86458856D01*
X166291578Y-86698907D01*
X166249435Y-86964997D01*
X164450000Y-86964997D01*
X164450000Y-84624000D01*
X164486319Y-84536319D01*
X164574000Y-84500000D01*
X190326325Y-84500000D01*
X190414006Y-84536319D01*
G37*
G04 #@! TD.AperFunction*
G04 #@! TA.AperFunction,Conductor*
G36*
X161663681Y-87536319D02*
G01*
X161700000Y-87624000D01*
X161700000Y-92500000D01*
X161702122Y-92727015D01*
X161741553Y-96946240D01*
X161728043Y-97003693D01*
X161693543Y-97071402D01*
X161693542Y-97071406D01*
X161651398Y-97337497D01*
X161651398Y-97337502D01*
X161693541Y-97603592D01*
X161735471Y-97685883D01*
X161748981Y-97741019D01*
X161750000Y-97850000D01*
X161770849Y-97850000D01*
X161858530Y-97886319D01*
X162006357Y-98034146D01*
X162246405Y-98156457D01*
X162246411Y-98156457D01*
X162253178Y-98158657D01*
X162302540Y-98188907D01*
X162714323Y-98600690D01*
X162749380Y-98670724D01*
X162780155Y-98884772D01*
X162899670Y-99146471D01*
X162899671Y-99146473D01*
X163088075Y-99363903D01*
X163088077Y-99363904D01*
X163088079Y-99363906D01*
X163330100Y-99519444D01*
X163330103Y-99519445D01*
X163606148Y-99600500D01*
X163606150Y-99600500D01*
X163893851Y-99600500D01*
X164031873Y-99559972D01*
X164169897Y-99519445D01*
X164411925Y-99363903D01*
X164600329Y-99146473D01*
X164719844Y-98884772D01*
X164760788Y-98600000D01*
X164719844Y-98315228D01*
X164719843Y-98315224D01*
X164600329Y-98053528D01*
X164600329Y-98053527D01*
X164600326Y-98053524D01*
X164595534Y-98046066D01*
X164598175Y-98044368D01*
X164571810Y-97965155D01*
X164614290Y-97880288D01*
X164695494Y-97850000D01*
X167326000Y-97850000D01*
X167413681Y-97886319D01*
X167450000Y-97974000D01*
X167450000Y-100475500D01*
X167413681Y-100563181D01*
X167326000Y-100599500D01*
X157712229Y-100599500D01*
X157624548Y-100563181D01*
X156461818Y-99400451D01*
X156425499Y-99312770D01*
X156425499Y-98175710D01*
X156425499Y-98175708D01*
X156396460Y-98029715D01*
X156396459Y-98029714D01*
X156396459Y-98029712D01*
X156341024Y-97946748D01*
X156285840Y-97864160D01*
X156120285Y-97753540D01*
X156120283Y-97753539D01*
X156120281Y-97753538D01*
X156051624Y-97739881D01*
X155972714Y-97687153D01*
X155954200Y-97594071D01*
X155993588Y-97525451D01*
X156093288Y-97437125D01*
X156279591Y-97167218D01*
X156395888Y-96860570D01*
X156435419Y-96535000D01*
X156428304Y-96476398D01*
X156395888Y-96209429D01*
X156343049Y-96070107D01*
X156279591Y-95902782D01*
X156093288Y-95632875D01*
X156093285Y-95632872D01*
X156093283Y-95632870D01*
X155847808Y-95415398D01*
X155751007Y-95364593D01*
X155557411Y-95262986D01*
X155557410Y-95262985D01*
X155557407Y-95262984D01*
X155238980Y-95184500D01*
X154911020Y-95184500D01*
X154592592Y-95262984D01*
X154302191Y-95415398D01*
X154056716Y-95632870D01*
X154056710Y-95632877D01*
X153870410Y-95902780D01*
X153870409Y-95902781D01*
X153754111Y-96209429D01*
X153714581Y-96534999D01*
X153714581Y-96535000D01*
X153754111Y-96860570D01*
X153870409Y-97167218D01*
X154056712Y-97437125D01*
X154056714Y-97437127D01*
X154056716Y-97437129D01*
X154156410Y-97525450D01*
X154197957Y-97610778D01*
X154166998Y-97700492D01*
X154098375Y-97739882D01*
X154029714Y-97753539D01*
X153864160Y-97864160D01*
X153753540Y-98029715D01*
X153753538Y-98029719D01*
X153724500Y-98175702D01*
X153724500Y-99974289D01*
X153753540Y-100120287D01*
X153827286Y-100230655D01*
X153864160Y-100285840D01*
X154029715Y-100396460D01*
X154029718Y-100396460D01*
X154029719Y-100396461D01*
X154102711Y-100410980D01*
X154175707Y-100425500D01*
X155312770Y-100425499D01*
X155400451Y-100461818D01*
X156889182Y-101950549D01*
X157060318Y-102049355D01*
X157251195Y-102100500D01*
X157251197Y-102100500D01*
X167326000Y-102100500D01*
X167413681Y-102136819D01*
X167450000Y-102224500D01*
X167450000Y-103376000D01*
X167413681Y-103463681D01*
X167326000Y-103500000D01*
X152124000Y-103500000D01*
X152036319Y-103463681D01*
X152000000Y-103376000D01*
X152000000Y-90424000D01*
X152036319Y-90336319D01*
X152124000Y-90300000D01*
X154015188Y-90300000D01*
X154102869Y-90336319D01*
X154139188Y-90424000D01*
X154102869Y-90511681D01*
X154097415Y-90516815D01*
X154056716Y-90552870D01*
X154056710Y-90552877D01*
X153870410Y-90822780D01*
X153870409Y-90822781D01*
X153754111Y-91129429D01*
X153714581Y-91454999D01*
X153714581Y-91455000D01*
X153754111Y-91780570D01*
X153795362Y-91889337D01*
X153870409Y-92087218D01*
X154056712Y-92357125D01*
X154056714Y-92357127D01*
X154056716Y-92357129D01*
X154302191Y-92574601D01*
X154302192Y-92574601D01*
X154302194Y-92574603D01*
X154592589Y-92727014D01*
X154592591Y-92727014D01*
X154592592Y-92727015D01*
X154911020Y-92805500D01*
X155238980Y-92805500D01*
X155557407Y-92727015D01*
X155557407Y-92727014D01*
X155557411Y-92727014D01*
X155847806Y-92574603D01*
X156093288Y-92357125D01*
X156279591Y-92087218D01*
X156395888Y-91780570D01*
X156435419Y-91455000D01*
X156395888Y-91129430D01*
X156296744Y-90868010D01*
X156299610Y-90773150D01*
X156325002Y-90736363D01*
X159209960Y-87851405D01*
X159259325Y-87821156D01*
X159266089Y-87818957D01*
X159266095Y-87818957D01*
X159506143Y-87696646D01*
X159578789Y-87624000D01*
X159666471Y-87536319D01*
X159754152Y-87500000D01*
X161576000Y-87500000D01*
X161663681Y-87536319D01*
G37*
G04 #@! TD.AperFunction*
M02*
