G04 #@! TF.GenerationSoftware,KiCad,Pcbnew,8.0.2*
G04 #@! TF.CreationDate,2024-06-29T14:49:14+02:00*
G04 #@! TF.ProjectId,STM32F4_GateSignalGenerator_GateDriver,53544d33-3246-4345-9f47-617465536967,rev?*
G04 #@! TF.SameCoordinates,Original*
G04 #@! TF.FileFunction,Copper,L1,Top*
G04 #@! TF.FilePolarity,Positive*
%FSLAX46Y46*%
G04 Gerber Fmt 4.6, Leading zero omitted, Abs format (unit mm)*
G04 Created by KiCad (PCBNEW 8.0.2) date 2024-06-29 14:49:14*
%MOMM*%
%LPD*%
G01*
G04 APERTURE LIST*
G04 Aperture macros list*
%AMRoundRect*
0 Rectangle with rounded corners*
0 $1 Rounding radius*
0 $2 $3 $4 $5 $6 $7 $8 $9 X,Y pos of 4 corners*
0 Add a 4 corners polygon primitive as box body*
4,1,4,$2,$3,$4,$5,$6,$7,$8,$9,$2,$3,0*
0 Add four circle primitives for the rounded corners*
1,1,$1+$1,$2,$3*
1,1,$1+$1,$4,$5*
1,1,$1+$1,$6,$7*
1,1,$1+$1,$8,$9*
0 Add four rect primitives between the rounded corners*
20,1,$1+$1,$2,$3,$4,$5,0*
20,1,$1+$1,$4,$5,$6,$7,0*
20,1,$1+$1,$6,$7,$8,$9,0*
20,1,$1+$1,$8,$9,$2,$3,0*%
G04 Aperture macros list end*
G04 #@! TA.AperFunction,SMDPad,CuDef*
%ADD10RoundRect,0.250000X-0.262500X-0.450000X0.262500X-0.450000X0.262500X0.450000X-0.262500X0.450000X0*%
G04 #@! TD*
G04 #@! TA.AperFunction,SMDPad,CuDef*
%ADD11RoundRect,0.150000X-0.587500X-0.150000X0.587500X-0.150000X0.587500X0.150000X-0.587500X0.150000X0*%
G04 #@! TD*
G04 #@! TA.AperFunction,SMDPad,CuDef*
%ADD12RoundRect,0.250000X0.475000X-0.250000X0.475000X0.250000X-0.475000X0.250000X-0.475000X-0.250000X0*%
G04 #@! TD*
G04 #@! TA.AperFunction,SMDPad,CuDef*
%ADD13RoundRect,0.150000X0.512500X0.150000X-0.512500X0.150000X-0.512500X-0.150000X0.512500X-0.150000X0*%
G04 #@! TD*
G04 #@! TA.AperFunction,SMDPad,CuDef*
%ADD14RoundRect,0.250000X-0.475000X0.250000X-0.475000X-0.250000X0.475000X-0.250000X0.475000X0.250000X0*%
G04 #@! TD*
G04 #@! TA.AperFunction,SMDPad,CuDef*
%ADD15RoundRect,0.150000X-0.825000X-0.150000X0.825000X-0.150000X0.825000X0.150000X-0.825000X0.150000X0*%
G04 #@! TD*
G04 #@! TA.AperFunction,SMDPad,CuDef*
%ADD16RoundRect,0.250000X0.262500X0.450000X-0.262500X0.450000X-0.262500X-0.450000X0.262500X-0.450000X0*%
G04 #@! TD*
G04 #@! TA.AperFunction,ComponentPad*
%ADD17C,2.500000*%
G04 #@! TD*
G04 #@! TA.AperFunction,ComponentPad*
%ADD18R,1.500000X1.500000*%
G04 #@! TD*
G04 #@! TA.AperFunction,ComponentPad*
%ADD19C,1.500000*%
G04 #@! TD*
G04 #@! TA.AperFunction,ComponentPad*
%ADD20O,1.700000X1.700000*%
G04 #@! TD*
G04 #@! TA.AperFunction,ComponentPad*
%ADD21R,1.700000X1.700000*%
G04 #@! TD*
G04 #@! TA.AperFunction,ViaPad*
%ADD22C,0.700000*%
G04 #@! TD*
G04 #@! TA.AperFunction,Conductor*
%ADD23C,0.500000*%
G04 #@! TD*
G04 APERTURE END LIST*
D10*
X181687500Y-89200000D03*
X183512500Y-89200000D03*
D11*
X168300000Y-99500000D03*
X166425000Y-100450000D03*
X166425000Y-98550000D03*
D12*
X170600000Y-88550000D03*
X170600000Y-86650000D03*
D13*
X183437500Y-93162500D03*
X183437500Y-91262500D03*
X181162500Y-92212500D03*
D12*
X170600000Y-101350000D03*
X170600000Y-99450000D03*
D10*
X162512500Y-98600000D03*
X160687500Y-98600000D03*
D14*
X164400000Y-100450000D03*
X164400000Y-98550000D03*
D15*
X160625000Y-85695000D03*
X160625000Y-86965000D03*
X160625000Y-88235000D03*
X160625000Y-89505000D03*
X165575000Y-89505000D03*
X165575000Y-88235000D03*
X165575000Y-86965000D03*
X165575000Y-85695000D03*
D16*
X160687500Y-100500000D03*
X162512500Y-100500000D03*
D12*
X168500000Y-88550000D03*
X168500000Y-86650000D03*
D17*
X186100000Y-97500000D03*
X186100000Y-94000000D03*
X186100000Y-90500000D03*
D18*
X173300000Y-101300000D03*
D19*
X173300000Y-98760000D03*
X173300000Y-93680000D03*
X173300000Y-88600000D03*
D14*
X157600000Y-86150000D03*
X157600000Y-88050000D03*
D20*
X155075000Y-88915000D03*
X155075000Y-91455000D03*
X155075000Y-93995000D03*
X155075000Y-96535000D03*
D21*
X155075000Y-99075000D03*
D22*
X162512500Y-97337500D03*
X169100000Y-101350000D03*
X188450000Y-103000000D03*
X189500000Y-102000000D03*
X189500000Y-102950000D03*
X178950000Y-103000000D03*
X177900000Y-102000000D03*
X177900000Y-103000000D03*
X181950000Y-93150000D03*
X179100000Y-89200000D03*
X166900000Y-102950000D03*
X157900000Y-103000000D03*
X166100000Y-84900000D03*
X165000000Y-84900000D03*
X189500000Y-94000000D03*
X189500000Y-93000000D03*
X189500000Y-86000000D03*
X188500000Y-85000000D03*
X189500000Y-95000000D03*
X189500000Y-85000000D03*
X161100000Y-90800000D03*
X152500000Y-102000000D03*
X159900000Y-90800000D03*
X153500000Y-103000000D03*
X152500000Y-91000000D03*
X152500000Y-103000000D03*
X152500000Y-94000000D03*
X159000000Y-87000000D03*
X167110537Y-86965000D03*
X167125000Y-88200000D03*
D23*
X162512500Y-97337500D02*
X162512500Y-98600000D01*
X170600000Y-101350000D02*
X169100000Y-101350000D01*
X170600000Y-101350000D02*
X173250000Y-101350000D01*
X173250000Y-101350000D02*
X173300000Y-101300000D01*
X183437500Y-93162500D02*
X185262500Y-93162500D01*
X185262500Y-93162500D02*
X186100000Y-94000000D01*
X181950000Y-93150000D02*
X183425000Y-93150000D01*
X183425000Y-93150000D02*
X183437500Y-93162500D01*
X181687500Y-89200000D02*
X179100000Y-89200000D01*
X172800000Y-101340000D02*
X172790000Y-101350000D01*
X155300000Y-99300000D02*
X155075000Y-99075000D01*
X160537500Y-98750000D02*
X160687500Y-98600000D01*
X162512500Y-98600000D02*
X164350000Y-98600000D01*
X164350000Y-98600000D02*
X164400000Y-98550000D01*
X159000000Y-87000000D02*
X159035000Y-86965000D01*
X159035000Y-86965000D02*
X160625000Y-86965000D01*
X167110537Y-86965000D02*
X165575000Y-86965000D01*
X185850000Y-97750000D02*
X186100000Y-97500000D01*
X167125000Y-88200000D02*
X167090000Y-88235000D01*
X167090000Y-88235000D02*
X165575000Y-88235000D01*
X164400000Y-98550000D02*
X166425000Y-98550000D01*
G04 #@! TA.AperFunction,Conductor*
G36*
X158317949Y-87529322D02*
G01*
X158349337Y-87552127D01*
X158493851Y-87696641D01*
X158493853Y-87696642D01*
X158493857Y-87696646D01*
X158733905Y-87818957D01*
X158733907Y-87818958D01*
X158999998Y-87861102D01*
X159000000Y-87861102D01*
X159000002Y-87861102D01*
X159266092Y-87818958D01*
X159266093Y-87818957D01*
X159266095Y-87818957D01*
X159442615Y-87729014D01*
X159498910Y-87715500D01*
X159521072Y-87715500D01*
X159573476Y-87727118D01*
X159629041Y-87753028D01*
X159723776Y-87765500D01*
X159723783Y-87765500D01*
X161526217Y-87765500D01*
X161526224Y-87765500D01*
X161559814Y-87761077D01*
X161651484Y-87785638D01*
X161698939Y-87867828D01*
X161700000Y-87884016D01*
X161700000Y-90900000D01*
X156600000Y-90900000D01*
X156600000Y-90441135D01*
X156624658Y-90424660D01*
X156735321Y-90259042D01*
X156769308Y-90176990D01*
X156771401Y-90172564D01*
X156771640Y-90171360D01*
X156771641Y-90171360D01*
X156810500Y-89976000D01*
X156810500Y-87722163D01*
X156846819Y-87634482D01*
X156920436Y-87598963D01*
X156934446Y-87597364D01*
X156934449Y-87597363D01*
X156934451Y-87597363D01*
X156988892Y-87584769D01*
X156988898Y-87584766D01*
X156988906Y-87584765D01*
X157024837Y-87572012D01*
X157048426Y-87566168D01*
X157071577Y-87562796D01*
X157081883Y-87561295D01*
X157099757Y-87560000D01*
X158025157Y-87560000D01*
X158094871Y-87548957D01*
X158182905Y-87535015D01*
X158223336Y-87521878D01*
X158317949Y-87529322D01*
G37*
G04 #@! TD.AperFunction*
G04 #@! TA.AperFunction,Conductor*
G36*
X161963681Y-84536319D02*
G01*
X162000000Y-84624000D01*
X162000000Y-86159080D01*
X161963681Y-86246761D01*
X161876000Y-86283080D01*
X161823595Y-86271462D01*
X161620960Y-86176972D01*
X161620959Y-86176971D01*
X161526234Y-86164501D01*
X161526229Y-86164500D01*
X161526224Y-86164500D01*
X159723776Y-86164500D01*
X159723770Y-86164500D01*
X159723765Y-86164501D01*
X159629042Y-86176971D01*
X159629040Y-86176971D01*
X159573476Y-86202882D01*
X159521072Y-86214500D01*
X159361528Y-86214500D01*
X159305234Y-86200985D01*
X159266092Y-86181041D01*
X159000002Y-86138898D01*
X158999998Y-86138898D01*
X158733907Y-86181041D01*
X158573873Y-86262583D01*
X158493857Y-86303354D01*
X158493856Y-86303355D01*
X158493851Y-86303358D01*
X158303358Y-86493851D01*
X158303355Y-86493856D01*
X158181041Y-86733907D01*
X158147625Y-86944898D01*
X158098038Y-87025818D01*
X158025152Y-87049500D01*
X157053777Y-87049500D01*
X156907895Y-87070754D01*
X156873844Y-87087401D01*
X156819384Y-87100000D01*
X156300000Y-87100000D01*
X156300000Y-89976000D01*
X156263681Y-90063681D01*
X156176000Y-90100000D01*
X152174000Y-90100000D01*
X152086319Y-90063681D01*
X152050000Y-89976000D01*
X152050000Y-84624000D01*
X152086319Y-84536319D01*
X152174000Y-84500000D01*
X161876000Y-84500000D01*
X161963681Y-84536319D01*
G37*
G04 #@! TD.AperFunction*
G04 #@! TA.AperFunction,Conductor*
G36*
X190414006Y-84536319D02*
G01*
X190450324Y-84623674D01*
X190479328Y-95673995D01*
X190499674Y-103425675D01*
X190463585Y-103513451D01*
X190375999Y-103550000D01*
X177474000Y-103550000D01*
X177386319Y-103513681D01*
X177350000Y-103426000D01*
X177350000Y-95250000D01*
X171974000Y-95250000D01*
X171886319Y-95213681D01*
X171850000Y-95126000D01*
X171850000Y-90646698D01*
X171886319Y-90559017D01*
X171973376Y-90522700D01*
X174279188Y-90511113D01*
X174473167Y-90471767D01*
X174560225Y-90435450D01*
X174724658Y-90325281D01*
X174835321Y-90159663D01*
X174869308Y-90077611D01*
X174871401Y-90073185D01*
X174871640Y-90071981D01*
X174871641Y-90071981D01*
X174910500Y-89876621D01*
X174910500Y-89199997D01*
X178238898Y-89199997D01*
X178238898Y-89200002D01*
X178281041Y-89466092D01*
X178281043Y-89466095D01*
X178403354Y-89706143D01*
X178403356Y-89706145D01*
X178403358Y-89706148D01*
X178593851Y-89896641D01*
X178593853Y-89896642D01*
X178593857Y-89896646D01*
X178833905Y-90018957D01*
X178833907Y-90018958D01*
X179099998Y-90061102D01*
X179100000Y-90061102D01*
X179100002Y-90061102D01*
X179366092Y-90018958D01*
X179366093Y-90018957D01*
X179366095Y-90018957D01*
X179473924Y-89964014D01*
X179530219Y-89950500D01*
X180659119Y-89950500D01*
X180746800Y-89986819D01*
X180770519Y-90020038D01*
X180798666Y-90077614D01*
X180805762Y-90092130D01*
X180982869Y-90269237D01*
X180982870Y-90269237D01*
X180982872Y-90269239D01*
X181207894Y-90379245D01*
X181277373Y-90389368D01*
X181353777Y-90400500D01*
X181353778Y-90400500D01*
X182021221Y-90400500D01*
X182021222Y-90400500D01*
X182097623Y-90389368D01*
X182189623Y-90412665D01*
X182238204Y-90494193D01*
X182239500Y-90512072D01*
X182239500Y-92026006D01*
X182268201Y-92170296D01*
X182249686Y-92263378D01*
X182170775Y-92316104D01*
X182127187Y-92316960D01*
X181950003Y-92288898D01*
X181949998Y-92288898D01*
X181683907Y-92331041D01*
X181549551Y-92399500D01*
X181443857Y-92453354D01*
X181443856Y-92453355D01*
X181443851Y-92453358D01*
X181253358Y-92643851D01*
X181253355Y-92643856D01*
X181253354Y-92643857D01*
X181219665Y-92709975D01*
X181131041Y-92883907D01*
X181088898Y-93149997D01*
X181088898Y-93150002D01*
X181131041Y-93416092D01*
X181131043Y-93416095D01*
X181253354Y-93656143D01*
X181253356Y-93656145D01*
X181253358Y-93656148D01*
X181443851Y-93846641D01*
X181443853Y-93846642D01*
X181443857Y-93846646D01*
X181672210Y-93962998D01*
X181683907Y-93968958D01*
X181949998Y-94011102D01*
X181950000Y-94011102D01*
X181950002Y-94011102D01*
X182216092Y-93968958D01*
X182216093Y-93968957D01*
X182216095Y-93968957D01*
X182323924Y-93914014D01*
X182380219Y-93900500D01*
X182619266Y-93900500D01*
X182671670Y-93912117D01*
X182754041Y-93950528D01*
X182848776Y-93963000D01*
X182848783Y-93963000D01*
X184026217Y-93963000D01*
X184026224Y-93963000D01*
X184120959Y-93950528D01*
X184167119Y-93929002D01*
X184261933Y-93924862D01*
X184331905Y-93988978D01*
X184342845Y-94028422D01*
X184378321Y-94365954D01*
X184378322Y-94365957D01*
X184492027Y-94715908D01*
X184492030Y-94715914D01*
X184676015Y-95034586D01*
X184922235Y-95308040D01*
X185219929Y-95524328D01*
X185556086Y-95673995D01*
X185916015Y-95750500D01*
X185916016Y-95750500D01*
X186283983Y-95750500D01*
X186283985Y-95750500D01*
X186643914Y-95673995D01*
X186980071Y-95524328D01*
X187277765Y-95308040D01*
X187523985Y-95034586D01*
X187707970Y-94715914D01*
X187821679Y-94365954D01*
X187860142Y-94000000D01*
X187821679Y-93634046D01*
X187707970Y-93284086D01*
X187523985Y-92965414D01*
X187435796Y-92867471D01*
X187404117Y-92778011D01*
X187444975Y-92692350D01*
X187527947Y-92660500D01*
X187676004Y-92660500D01*
X187807431Y-92634356D01*
X187871361Y-92621640D01*
X187959042Y-92585321D01*
X188124658Y-92474660D01*
X188235321Y-92309042D01*
X188269308Y-92226990D01*
X188271401Y-92222564D01*
X188271640Y-92221360D01*
X188271641Y-92221360D01*
X188310500Y-92026000D01*
X188310500Y-88423998D01*
X188310500Y-88423995D01*
X188271641Y-88228644D01*
X188271640Y-88228643D01*
X188271640Y-88228639D01*
X188235321Y-88140958D01*
X188235320Y-88140957D01*
X188235317Y-88140951D01*
X188124660Y-87975342D01*
X188124657Y-87975339D01*
X187959039Y-87864677D01*
X187876992Y-87830692D01*
X187872564Y-87828598D01*
X187676004Y-87789500D01*
X187676000Y-87789500D01*
X182873998Y-87789500D01*
X182873996Y-87789500D01*
X182678644Y-87828358D01*
X182678638Y-87828360D01*
X182590960Y-87864677D01*
X182590951Y-87864682D01*
X182425342Y-87975339D01*
X182425338Y-87975344D01*
X182399089Y-88014628D01*
X182320178Y-88067354D01*
X182241529Y-88057137D01*
X182167106Y-88020754D01*
X182021223Y-87999500D01*
X182021222Y-87999500D01*
X181353778Y-87999500D01*
X181353777Y-87999500D01*
X181207895Y-88020754D01*
X180982869Y-88130762D01*
X180805762Y-88307869D01*
X180770520Y-88379960D01*
X180699382Y-88442781D01*
X180659119Y-88449500D01*
X179530219Y-88449500D01*
X179473924Y-88435985D01*
X179366092Y-88381041D01*
X179100002Y-88338898D01*
X179099998Y-88338898D01*
X178833907Y-88381041D01*
X178699551Y-88449500D01*
X178593857Y-88503354D01*
X178593856Y-88503355D01*
X178593851Y-88503358D01*
X178403358Y-88693851D01*
X178403355Y-88693856D01*
X178281041Y-88933907D01*
X178238898Y-89199997D01*
X174910500Y-89199997D01*
X174910500Y-87673998D01*
X174910500Y-87673995D01*
X174871641Y-87478644D01*
X174871640Y-87478643D01*
X174871640Y-87478639D01*
X174835321Y-87390958D01*
X174835320Y-87390957D01*
X174835317Y-87390951D01*
X174724660Y-87225342D01*
X174724657Y-87225339D01*
X174559039Y-87114677D01*
X174476992Y-87080692D01*
X174472564Y-87078598D01*
X174276004Y-87039500D01*
X174276000Y-87039500D01*
X171482893Y-87039500D01*
X171482891Y-87039500D01*
X171406190Y-87048256D01*
X171367839Y-87052634D01*
X171313379Y-87065232D01*
X171313375Y-87065233D01*
X171313372Y-87065234D01*
X171313358Y-87065238D01*
X171204241Y-87103961D01*
X171204217Y-87103971D01*
X171156962Y-87127072D01*
X171120429Y-87138368D01*
X171119957Y-87138436D01*
X171118160Y-87138698D01*
X171100246Y-87140000D01*
X170099760Y-87140000D01*
X170081840Y-87138698D01*
X170081229Y-87138609D01*
X170079565Y-87138366D01*
X170043026Y-87127068D01*
X169995794Y-87103977D01*
X169995770Y-87103967D01*
X169886628Y-87065234D01*
X169886622Y-87065232D01*
X169832163Y-87052634D01*
X169774635Y-87046067D01*
X169717109Y-87039500D01*
X169717107Y-87039500D01*
X169382893Y-87039500D01*
X169382891Y-87039500D01*
X169306190Y-87048256D01*
X169267839Y-87052634D01*
X169213379Y-87065232D01*
X169213375Y-87065233D01*
X169213372Y-87065234D01*
X169213358Y-87065238D01*
X169104241Y-87103961D01*
X169104217Y-87103971D01*
X169056962Y-87127072D01*
X169020429Y-87138368D01*
X169019957Y-87138436D01*
X169018160Y-87138698D01*
X169000246Y-87140000D01*
X168089107Y-87140000D01*
X168001426Y-87103681D01*
X167965107Y-87016000D01*
X167966634Y-86996602D01*
X167971639Y-86965001D01*
X167971639Y-86964997D01*
X167929495Y-86698907D01*
X167901539Y-86644041D01*
X167807183Y-86458857D01*
X167807179Y-86458853D01*
X167807178Y-86458851D01*
X167616685Y-86268358D01*
X167616682Y-86268356D01*
X167616680Y-86268354D01*
X167453537Y-86185228D01*
X167376629Y-86146041D01*
X167110539Y-86103898D01*
X167110535Y-86103898D01*
X166844444Y-86146041D01*
X166736613Y-86200985D01*
X166680318Y-86214500D01*
X166678928Y-86214500D01*
X166626524Y-86202882D01*
X166570958Y-86176971D01*
X166476234Y-86164501D01*
X166476229Y-86164500D01*
X166476224Y-86164500D01*
X164673776Y-86164500D01*
X164673771Y-86164500D01*
X164673763Y-86164501D01*
X164590184Y-86175504D01*
X164498513Y-86150940D01*
X164451061Y-86068749D01*
X164450000Y-86052565D01*
X164450000Y-84624000D01*
X164486319Y-84536319D01*
X164574000Y-84500000D01*
X190326325Y-84500000D01*
X190414006Y-84536319D01*
G37*
G04 #@! TD.AperFunction*
G04 #@! TA.AperFunction,Conductor*
G36*
X156600000Y-90900000D02*
G01*
X161700000Y-90900000D01*
X161700000Y-92500000D01*
X161702122Y-92727015D01*
X161720710Y-94716032D01*
X161685212Y-94804049D01*
X161597874Y-94841186D01*
X161582102Y-94839706D01*
X161582064Y-94840097D01*
X161576002Y-94839500D01*
X161576000Y-94839500D01*
X153623998Y-94839500D01*
X153623996Y-94839500D01*
X153428644Y-94878358D01*
X153428638Y-94878360D01*
X153340960Y-94914677D01*
X153340951Y-94914682D01*
X153175342Y-95025339D01*
X153175339Y-95025342D01*
X153064678Y-95190958D01*
X153030692Y-95273008D01*
X153028598Y-95277434D01*
X152989500Y-95473995D01*
X152989500Y-95473998D01*
X152989500Y-95474000D01*
X152989500Y-97626002D01*
X152989500Y-97626004D01*
X152989499Y-97626004D01*
X153028358Y-97821355D01*
X153028360Y-97821361D01*
X153064677Y-97909039D01*
X153064682Y-97909048D01*
X153175339Y-98074657D01*
X153175342Y-98074660D01*
X153285252Y-98148099D01*
X153340958Y-98185321D01*
X153340959Y-98185321D01*
X153340960Y-98185322D01*
X153423007Y-98219307D01*
X153427433Y-98221400D01*
X153428638Y-98221639D01*
X153428639Y-98221640D01*
X153428640Y-98221641D01*
X153624000Y-98260500D01*
X153624006Y-98260500D01*
X153624690Y-98260636D01*
X153703602Y-98313363D01*
X153724500Y-98382254D01*
X153724500Y-99974289D01*
X153753540Y-100120287D01*
X153827286Y-100230655D01*
X153864160Y-100285840D01*
X154029715Y-100396460D01*
X154029718Y-100396460D01*
X154029719Y-100396461D01*
X154102711Y-100410980D01*
X154175707Y-100425500D01*
X155974292Y-100425499D01*
X156120285Y-100396460D01*
X156120286Y-100396459D01*
X156120287Y-100396459D01*
X156152914Y-100374658D01*
X156285840Y-100285840D01*
X156396460Y-100120285D01*
X156425500Y-99974293D01*
X156425499Y-98384499D01*
X156461818Y-98296819D01*
X156549499Y-98260500D01*
X157206984Y-98260500D01*
X157294665Y-98296819D01*
X157330984Y-98384500D01*
X157330973Y-98386153D01*
X157291199Y-101369065D01*
X157291200Y-101369066D01*
X157291199Y-101369141D01*
X157291195Y-101369466D01*
X157302833Y-101432163D01*
X157327547Y-101565308D01*
X157362739Y-101653448D01*
X157471266Y-101820467D01*
X157471267Y-101820467D01*
X157471268Y-101820469D01*
X157635453Y-101933247D01*
X157635454Y-101933247D01*
X157635455Y-101933248D01*
X157635457Y-101933249D01*
X157722661Y-101970687D01*
X157722890Y-101970735D01*
X157917509Y-102012048D01*
X161499953Y-102057977D01*
X161618370Y-102045610D01*
X161664928Y-102035152D01*
X161674421Y-102033021D01*
X161674427Y-102033019D01*
X161786755Y-101993560D01*
X161786755Y-101993559D01*
X161786754Y-101993559D01*
X161786758Y-101993558D01*
X161945200Y-101872846D01*
X162008021Y-101801708D01*
X162108206Y-101629555D01*
X162134887Y-101432163D01*
X162129245Y-101341273D01*
X162129163Y-101338638D01*
X162129007Y-101337440D01*
X162129007Y-101337437D01*
X162078117Y-101144860D01*
X162022927Y-101031967D01*
X162011619Y-100995342D01*
X162011288Y-100993067D01*
X162010000Y-100975243D01*
X162010000Y-100024756D01*
X162011290Y-100006917D01*
X162011620Y-100004647D01*
X162022927Y-99968031D01*
X162070834Y-99870037D01*
X162141973Y-99807218D01*
X162182234Y-99800500D01*
X162846223Y-99800500D01*
X162894850Y-99793415D01*
X162992106Y-99779245D01*
X163217128Y-99669239D01*
X163394239Y-99492128D01*
X163394240Y-99492124D01*
X163394718Y-99491457D01*
X163395231Y-99491136D01*
X163401505Y-99484863D01*
X163402955Y-99486313D01*
X163475223Y-99441197D01*
X163550098Y-99452103D01*
X163707894Y-99529245D01*
X163780836Y-99539872D01*
X163853777Y-99550500D01*
X163853778Y-99550500D01*
X164946223Y-99550500D01*
X164994850Y-99543415D01*
X165092106Y-99529245D01*
X165317128Y-99419239D01*
X165399548Y-99336818D01*
X165487228Y-99300500D01*
X165558572Y-99300500D01*
X165610976Y-99312118D01*
X165663948Y-99336819D01*
X165666541Y-99338028D01*
X165761276Y-99350500D01*
X166815500Y-99350500D01*
X166903181Y-99386819D01*
X166939500Y-99474500D01*
X166939500Y-99766194D01*
X166939500Y-99766196D01*
X166939499Y-99766196D01*
X166978358Y-99961547D01*
X166978360Y-99961553D01*
X167014677Y-100049231D01*
X167014682Y-100049240D01*
X167125340Y-100214850D01*
X167129206Y-100219561D01*
X167128830Y-100219868D01*
X167143500Y-100238985D01*
X167162113Y-100271224D01*
X167172348Y-100285840D01*
X167186812Y-100306496D01*
X167244007Y-100374658D01*
X167394892Y-100475476D01*
X167447617Y-100554386D01*
X167450000Y-100578577D01*
X167450000Y-103376000D01*
X167413681Y-103463681D01*
X167326000Y-103500000D01*
X152124000Y-103500000D01*
X152036319Y-103463681D01*
X152000000Y-103376000D01*
X152000000Y-90726983D01*
X152036319Y-90639302D01*
X152124000Y-90602983D01*
X152148183Y-90605364D01*
X152174000Y-90610500D01*
X153780674Y-90610500D01*
X153868355Y-90646819D01*
X153904674Y-90734500D01*
X153882725Y-90804939D01*
X153870409Y-90822781D01*
X153754111Y-91129429D01*
X153714581Y-91454999D01*
X153714581Y-91455000D01*
X153754111Y-91780570D01*
X153795362Y-91889337D01*
X153870409Y-92087218D01*
X154056712Y-92357125D01*
X154056714Y-92357127D01*
X154056716Y-92357129D01*
X154302191Y-92574601D01*
X154302192Y-92574601D01*
X154302194Y-92574603D01*
X154592589Y-92727014D01*
X154592591Y-92727014D01*
X154592592Y-92727015D01*
X154911020Y-92805500D01*
X155238980Y-92805500D01*
X155557407Y-92727015D01*
X155557407Y-92727014D01*
X155557411Y-92727014D01*
X155847806Y-92574603D01*
X156093288Y-92357125D01*
X156279591Y-92087218D01*
X156395888Y-91780570D01*
X156435419Y-91455000D01*
X156395888Y-91129430D01*
X156279591Y-90822782D01*
X156245411Y-90773263D01*
X156225492Y-90680471D01*
X156277021Y-90600773D01*
X156323267Y-90581206D01*
X156371361Y-90571640D01*
X156459042Y-90535321D01*
X156600000Y-90441135D01*
X156600000Y-90900000D01*
G37*
G04 #@! TD.AperFunction*
G04 #@! TA.AperFunction,Conductor*
G36*
X174413681Y-97636319D02*
G01*
X174450000Y-97724000D01*
X174450000Y-99926000D01*
X174413681Y-100013681D01*
X174326000Y-100050000D01*
X174110461Y-100050000D01*
X174100282Y-100049500D01*
X172499710Y-100049500D01*
X172489551Y-100050000D01*
X167692667Y-100050000D01*
X167604986Y-100013681D01*
X167580285Y-99978405D01*
X167553579Y-99921133D01*
X167486319Y-99853873D01*
X167450000Y-99766192D01*
X167450000Y-99233808D01*
X167486319Y-99146127D01*
X167553579Y-99078867D01*
X167650528Y-98870959D01*
X167663000Y-98776224D01*
X167663000Y-98374000D01*
X167699319Y-98286319D01*
X167787000Y-98250000D01*
X172050000Y-98250000D01*
X172050000Y-97724000D01*
X172086319Y-97636319D01*
X172174000Y-97600000D01*
X174326000Y-97600000D01*
X174413681Y-97636319D01*
G37*
G04 #@! TD.AperFunction*
G04 #@! TA.AperFunction,Conductor*
G36*
X169771566Y-87562598D02*
G01*
X169907894Y-87629245D01*
X169980836Y-87639872D01*
X170053777Y-87650500D01*
X170053778Y-87650500D01*
X171146223Y-87650500D01*
X171194850Y-87643415D01*
X171292106Y-87629245D01*
X171428433Y-87562598D01*
X171482893Y-87550000D01*
X174276000Y-87550000D01*
X174363681Y-87586319D01*
X174400000Y-87674000D01*
X174400000Y-89876621D01*
X174363681Y-89964302D01*
X174276623Y-90000619D01*
X164577140Y-90049361D01*
X164489277Y-90013484D01*
X164452519Y-89925986D01*
X164452542Y-89922884D01*
X164468053Y-89147324D01*
X164506116Y-89060390D01*
X164594506Y-89025832D01*
X164608203Y-89026867D01*
X164667848Y-89034719D01*
X164673760Y-89035498D01*
X164673776Y-89035500D01*
X164673783Y-89035500D01*
X166476217Y-89035500D01*
X166476224Y-89035500D01*
X166570959Y-89023028D01*
X166626524Y-88997118D01*
X166678928Y-88985500D01*
X166763472Y-88985500D01*
X166819766Y-88999015D01*
X166858907Y-89018958D01*
X167124998Y-89061102D01*
X167125000Y-89061102D01*
X167125002Y-89061102D01*
X167391092Y-89018958D01*
X167391093Y-89018957D01*
X167391095Y-89018957D01*
X167631143Y-88896646D01*
X167821646Y-88706143D01*
X167943957Y-88466095D01*
X167943957Y-88466093D01*
X167943958Y-88466092D01*
X167986102Y-88200002D01*
X167986102Y-88199997D01*
X167943958Y-87933907D01*
X167933836Y-87914041D01*
X167891418Y-87830793D01*
X167883973Y-87736182D01*
X167945609Y-87664015D01*
X168001904Y-87650500D01*
X169046223Y-87650500D01*
X169094850Y-87643415D01*
X169192106Y-87629245D01*
X169328433Y-87562598D01*
X169382893Y-87550000D01*
X169717107Y-87550000D01*
X169771566Y-87562598D01*
G37*
G04 #@! TD.AperFunction*
G04 #@! TA.AperFunction,Conductor*
G36*
X187763681Y-88336319D02*
G01*
X187800000Y-88424000D01*
X187800000Y-92026000D01*
X187763681Y-92113681D01*
X187676000Y-92150000D01*
X182874000Y-92150000D01*
X182786319Y-92113681D01*
X182750000Y-92026000D01*
X182750000Y-88424000D01*
X182786319Y-88336319D01*
X182874000Y-88300000D01*
X187676000Y-88300000D01*
X187763681Y-88336319D01*
G37*
G04 #@! TD.AperFunction*
G04 #@! TA.AperFunction,Conductor*
G36*
X161663681Y-95386319D02*
G01*
X161700000Y-95474000D01*
X161700000Y-97031892D01*
X161693932Y-97070208D01*
X161693541Y-97071408D01*
X161651398Y-97337497D01*
X161651398Y-97337502D01*
X161689332Y-97577012D01*
X161667177Y-97669296D01*
X161654543Y-97684088D01*
X161630761Y-97707870D01*
X161520754Y-97932895D01*
X161499500Y-98078777D01*
X161499500Y-99121222D01*
X161520754Y-99267104D01*
X161632429Y-99495540D01*
X161638309Y-99590263D01*
X161632429Y-99604460D01*
X161520754Y-99832895D01*
X161499500Y-99978777D01*
X161499500Y-101021222D01*
X161520754Y-101167104D01*
X161619488Y-101369069D01*
X161625368Y-101463792D01*
X161562547Y-101534930D01*
X161506497Y-101547519D01*
X157924053Y-101501590D01*
X157836845Y-101464150D01*
X157801653Y-101376010D01*
X157801654Y-101375947D01*
X157850000Y-97750000D01*
X156114700Y-97750000D01*
X156090508Y-97747617D01*
X155974295Y-97724500D01*
X154175709Y-97724500D01*
X154059488Y-97747618D01*
X154035298Y-97750000D01*
X153624000Y-97750000D01*
X153536319Y-97713681D01*
X153500000Y-97626000D01*
X153500000Y-95474000D01*
X153536319Y-95386319D01*
X153624000Y-95350000D01*
X161576000Y-95350000D01*
X161663681Y-95386319D01*
G37*
G04 #@! TD.AperFunction*
M02*
