G04 #@! TF.GenerationSoftware,KiCad,Pcbnew,8.0.2*
G04 #@! TF.CreationDate,2024-06-29T14:49:15+02:00*
G04 #@! TF.ProjectId,STM32F4_GateSignalGenerator_GateDriver,53544d33-3246-4345-9f47-617465536967,rev?*
G04 #@! TF.SameCoordinates,Original*
G04 #@! TF.FileFunction,Legend,Bot*
G04 #@! TF.FilePolarity,Positive*
%FSLAX46Y46*%
G04 Gerber Fmt 4.6, Leading zero omitted, Abs format (unit mm)*
G04 Created by KiCad (PCBNEW 8.0.2) date 2024-06-29 14:49:15*
%MOMM*%
%LPD*%
G01*
G04 APERTURE LIST*
G04 Aperture macros list*
%AMFreePoly0*
4,1,6,1.000000,0.000000,0.500000,-0.750000,-0.500000,-0.750000,-0.500000,0.750000,0.500000,0.750000,1.000000,0.000000,1.000000,0.000000,$1*%
%AMFreePoly1*
4,1,6,0.500000,-0.750000,-0.650000,-0.750000,-0.150000,0.000000,-0.650000,0.750000,0.500000,0.750000,0.500000,-0.750000,0.500000,-0.750000,$1*%
G04 Aperture macros list end*
%ADD10C,0.500000*%
%ADD11C,0.200000*%
%ADD12C,0.120000*%
%ADD13C,2.500000*%
%ADD14R,1.500000X1.500000*%
%ADD15C,1.500000*%
%ADD16C,1.000000*%
%ADD17FreePoly0,0.000000*%
%ADD18FreePoly1,0.000000*%
%ADD19O,1.700000X1.700000*%
%ADD20R,1.700000X1.700000*%
G04 APERTURE END LIST*
D10*
X183413910Y-89429238D02*
X183032957Y-89429238D01*
X183032957Y-89429238D02*
X182842481Y-89524476D01*
X182842481Y-89524476D02*
X182652005Y-89714952D01*
X182652005Y-89714952D02*
X182556767Y-90095904D01*
X182556767Y-90095904D02*
X182556767Y-90762571D01*
X182556767Y-90762571D02*
X182652005Y-91143523D01*
X182652005Y-91143523D02*
X182842481Y-91334000D01*
X182842481Y-91334000D02*
X183032957Y-91429238D01*
X183032957Y-91429238D02*
X183413910Y-91429238D01*
X183413910Y-91429238D02*
X183604386Y-91334000D01*
X183604386Y-91334000D02*
X183794862Y-91143523D01*
X183794862Y-91143523D02*
X183890100Y-90762571D01*
X183890100Y-90762571D02*
X183890100Y-90095904D01*
X183890100Y-90095904D02*
X183794862Y-89714952D01*
X183794862Y-89714952D02*
X183604386Y-89524476D01*
X183604386Y-89524476D02*
X183413910Y-89429238D01*
X181699624Y-89429238D02*
X181699624Y-91048285D01*
X181699624Y-91048285D02*
X181604386Y-91238761D01*
X181604386Y-91238761D02*
X181509148Y-91334000D01*
X181509148Y-91334000D02*
X181318672Y-91429238D01*
X181318672Y-91429238D02*
X180937719Y-91429238D01*
X180937719Y-91429238D02*
X180747243Y-91334000D01*
X180747243Y-91334000D02*
X180652005Y-91238761D01*
X180652005Y-91238761D02*
X180556767Y-91048285D01*
X180556767Y-91048285D02*
X180556767Y-89429238D01*
X179890100Y-89429238D02*
X178747243Y-89429238D01*
X179318672Y-91429238D02*
X179318672Y-89429238D01*
X161885338Y-87729238D02*
X160647243Y-87729238D01*
X160647243Y-87729238D02*
X161313910Y-88491142D01*
X161313910Y-88491142D02*
X161028195Y-88491142D01*
X161028195Y-88491142D02*
X160837719Y-88586380D01*
X160837719Y-88586380D02*
X160742481Y-88681619D01*
X160742481Y-88681619D02*
X160647243Y-88872095D01*
X160647243Y-88872095D02*
X160647243Y-89348285D01*
X160647243Y-89348285D02*
X160742481Y-89538761D01*
X160742481Y-89538761D02*
X160837719Y-89634000D01*
X160837719Y-89634000D02*
X161028195Y-89729238D01*
X161028195Y-89729238D02*
X161599624Y-89729238D01*
X161599624Y-89729238D02*
X161790100Y-89634000D01*
X161790100Y-89634000D02*
X161885338Y-89538761D01*
X160075814Y-87729238D02*
X159409148Y-89729238D01*
X159409148Y-89729238D02*
X158742481Y-87729238D01*
X158266290Y-87729238D02*
X157028195Y-87729238D01*
X157028195Y-87729238D02*
X157694862Y-88491142D01*
X157694862Y-88491142D02*
X157409147Y-88491142D01*
X157409147Y-88491142D02*
X157218671Y-88586380D01*
X157218671Y-88586380D02*
X157123433Y-88681619D01*
X157123433Y-88681619D02*
X157028195Y-88872095D01*
X157028195Y-88872095D02*
X157028195Y-89348285D01*
X157028195Y-89348285D02*
X157123433Y-89538761D01*
X157123433Y-89538761D02*
X157218671Y-89634000D01*
X157218671Y-89634000D02*
X157409147Y-89729238D01*
X157409147Y-89729238D02*
X157980576Y-89729238D01*
X157980576Y-89729238D02*
X158171052Y-89634000D01*
X158171052Y-89634000D02*
X158266290Y-89538761D01*
X182652005Y-94738761D02*
X182747243Y-94834000D01*
X182747243Y-94834000D02*
X183032957Y-94929238D01*
X183032957Y-94929238D02*
X183223433Y-94929238D01*
X183223433Y-94929238D02*
X183509148Y-94834000D01*
X183509148Y-94834000D02*
X183699624Y-94643523D01*
X183699624Y-94643523D02*
X183794862Y-94453047D01*
X183794862Y-94453047D02*
X183890100Y-94072095D01*
X183890100Y-94072095D02*
X183890100Y-93786380D01*
X183890100Y-93786380D02*
X183794862Y-93405428D01*
X183794862Y-93405428D02*
X183699624Y-93214952D01*
X183699624Y-93214952D02*
X183509148Y-93024476D01*
X183509148Y-93024476D02*
X183223433Y-92929238D01*
X183223433Y-92929238D02*
X183032957Y-92929238D01*
X183032957Y-92929238D02*
X182747243Y-93024476D01*
X182747243Y-93024476D02*
X182652005Y-93119714D01*
X180842481Y-94929238D02*
X181794862Y-94929238D01*
X181794862Y-94929238D02*
X181794862Y-92929238D01*
X180271052Y-94357809D02*
X179318671Y-94357809D01*
X180461528Y-94929238D02*
X179794862Y-92929238D01*
X179794862Y-92929238D02*
X179128195Y-94929238D01*
X178461528Y-94929238D02*
X178461528Y-92929238D01*
X178461528Y-92929238D02*
X177794861Y-94357809D01*
X177794861Y-94357809D02*
X177128195Y-92929238D01*
X177128195Y-92929238D02*
X177128195Y-94929238D01*
X176175814Y-94929238D02*
X176175814Y-92929238D01*
X176175814Y-92929238D02*
X175413909Y-92929238D01*
X175413909Y-92929238D02*
X175223433Y-93024476D01*
X175223433Y-93024476D02*
X175128195Y-93119714D01*
X175128195Y-93119714D02*
X175032957Y-93310190D01*
X175032957Y-93310190D02*
X175032957Y-93595904D01*
X175032957Y-93595904D02*
X175128195Y-93786380D01*
X175128195Y-93786380D02*
X175223433Y-93881619D01*
X175223433Y-93881619D02*
X175413909Y-93976857D01*
X175413909Y-93976857D02*
X176175814Y-93976857D01*
X160747243Y-100129238D02*
X161890100Y-100129238D01*
X161318672Y-100129238D02*
X161318672Y-98129238D01*
X161318672Y-98129238D02*
X161509148Y-98414952D01*
X161509148Y-98414952D02*
X161699624Y-98605428D01*
X161699624Y-98605428D02*
X161890100Y-98700666D01*
X159985338Y-98319714D02*
X159890100Y-98224476D01*
X159890100Y-98224476D02*
X159699624Y-98129238D01*
X159699624Y-98129238D02*
X159223433Y-98129238D01*
X159223433Y-98129238D02*
X159032957Y-98224476D01*
X159032957Y-98224476D02*
X158937719Y-98319714D01*
X158937719Y-98319714D02*
X158842481Y-98510190D01*
X158842481Y-98510190D02*
X158842481Y-98700666D01*
X158842481Y-98700666D02*
X158937719Y-98986380D01*
X158937719Y-98986380D02*
X160080576Y-100129238D01*
X160080576Y-100129238D02*
X158842481Y-100129238D01*
X158271052Y-98129238D02*
X157604386Y-100129238D01*
X157604386Y-100129238D02*
X156937719Y-98129238D01*
X160747243Y-93024476D02*
X160937719Y-92929238D01*
X160937719Y-92929238D02*
X161223433Y-92929238D01*
X161223433Y-92929238D02*
X161509148Y-93024476D01*
X161509148Y-93024476D02*
X161699624Y-93214952D01*
X161699624Y-93214952D02*
X161794862Y-93405428D01*
X161794862Y-93405428D02*
X161890100Y-93786380D01*
X161890100Y-93786380D02*
X161890100Y-94072095D01*
X161890100Y-94072095D02*
X161794862Y-94453047D01*
X161794862Y-94453047D02*
X161699624Y-94643523D01*
X161699624Y-94643523D02*
X161509148Y-94834000D01*
X161509148Y-94834000D02*
X161223433Y-94929238D01*
X161223433Y-94929238D02*
X161032957Y-94929238D01*
X161032957Y-94929238D02*
X160747243Y-94834000D01*
X160747243Y-94834000D02*
X160652005Y-94738761D01*
X160652005Y-94738761D02*
X160652005Y-94072095D01*
X160652005Y-94072095D02*
X161032957Y-94072095D01*
X159794862Y-94929238D02*
X159794862Y-92929238D01*
X159794862Y-92929238D02*
X158652005Y-94929238D01*
X158652005Y-94929238D02*
X158652005Y-92929238D01*
X157699624Y-94929238D02*
X157699624Y-92929238D01*
X157699624Y-92929238D02*
X157223434Y-92929238D01*
X157223434Y-92929238D02*
X156937719Y-93024476D01*
X156937719Y-93024476D02*
X156747243Y-93214952D01*
X156747243Y-93214952D02*
X156652005Y-93405428D01*
X156652005Y-93405428D02*
X156556767Y-93786380D01*
X156556767Y-93786380D02*
X156556767Y-94072095D01*
X156556767Y-94072095D02*
X156652005Y-94453047D01*
X156652005Y-94453047D02*
X156747243Y-94643523D01*
X156747243Y-94643523D02*
X156937719Y-94834000D01*
X156937719Y-94834000D02*
X157223434Y-94929238D01*
X157223434Y-94929238D02*
X157699624Y-94929238D01*
X161794862Y-96481619D02*
X161128195Y-96481619D01*
X160842481Y-97529238D02*
X161794862Y-97529238D01*
X161794862Y-97529238D02*
X161794862Y-95529238D01*
X161794862Y-95529238D02*
X160842481Y-95529238D01*
X159985338Y-96195904D02*
X159985338Y-97529238D01*
X159985338Y-96386380D02*
X159890100Y-96291142D01*
X159890100Y-96291142D02*
X159699624Y-96195904D01*
X159699624Y-96195904D02*
X159413909Y-96195904D01*
X159413909Y-96195904D02*
X159223433Y-96291142D01*
X159223433Y-96291142D02*
X159128195Y-96481619D01*
X159128195Y-96481619D02*
X159128195Y-97529238D01*
X182797243Y-96524476D02*
X182987719Y-96429238D01*
X182987719Y-96429238D02*
X183273433Y-96429238D01*
X183273433Y-96429238D02*
X183559148Y-96524476D01*
X183559148Y-96524476D02*
X183749624Y-96714952D01*
X183749624Y-96714952D02*
X183844862Y-96905428D01*
X183844862Y-96905428D02*
X183940100Y-97286380D01*
X183940100Y-97286380D02*
X183940100Y-97572095D01*
X183940100Y-97572095D02*
X183844862Y-97953047D01*
X183844862Y-97953047D02*
X183749624Y-98143523D01*
X183749624Y-98143523D02*
X183559148Y-98334000D01*
X183559148Y-98334000D02*
X183273433Y-98429238D01*
X183273433Y-98429238D02*
X183082957Y-98429238D01*
X183082957Y-98429238D02*
X182797243Y-98334000D01*
X182797243Y-98334000D02*
X182702005Y-98238761D01*
X182702005Y-98238761D02*
X182702005Y-97572095D01*
X182702005Y-97572095D02*
X183082957Y-97572095D01*
X181844862Y-98429238D02*
X181844862Y-96429238D01*
X181844862Y-96429238D02*
X180702005Y-98429238D01*
X180702005Y-98429238D02*
X180702005Y-96429238D01*
X179749624Y-98429238D02*
X179749624Y-96429238D01*
X179749624Y-96429238D02*
X179273434Y-96429238D01*
X179273434Y-96429238D02*
X178987719Y-96524476D01*
X178987719Y-96524476D02*
X178797243Y-96714952D01*
X178797243Y-96714952D02*
X178702005Y-96905428D01*
X178702005Y-96905428D02*
X178606767Y-97286380D01*
X178606767Y-97286380D02*
X178606767Y-97572095D01*
X178606767Y-97572095D02*
X178702005Y-97953047D01*
X178702005Y-97953047D02*
X178797243Y-98143523D01*
X178797243Y-98143523D02*
X178987719Y-98334000D01*
X178987719Y-98334000D02*
X179273434Y-98429238D01*
X179273434Y-98429238D02*
X179749624Y-98429238D01*
X161794862Y-92329238D02*
X161794862Y-90329238D01*
X160842481Y-90995904D02*
X160842481Y-92329238D01*
X160842481Y-91186380D02*
X160747243Y-91091142D01*
X160747243Y-91091142D02*
X160556767Y-90995904D01*
X160556767Y-90995904D02*
X160271052Y-90995904D01*
X160271052Y-90995904D02*
X160080576Y-91091142D01*
X160080576Y-91091142D02*
X159985338Y-91281619D01*
X159985338Y-91281619D02*
X159985338Y-92329238D01*
D11*
X165011904Y-99952219D02*
X164440476Y-99952219D01*
X164726190Y-100952219D02*
X164726190Y-99952219D01*
X164107142Y-100952219D02*
X164107142Y-99952219D01*
X164107142Y-99952219D02*
X163726190Y-99952219D01*
X163726190Y-99952219D02*
X163630952Y-99999838D01*
X163630952Y-99999838D02*
X163583333Y-100047457D01*
X163583333Y-100047457D02*
X163535714Y-100142695D01*
X163535714Y-100142695D02*
X163535714Y-100285552D01*
X163535714Y-100285552D02*
X163583333Y-100380790D01*
X163583333Y-100380790D02*
X163630952Y-100428409D01*
X163630952Y-100428409D02*
X163726190Y-100476028D01*
X163726190Y-100476028D02*
X164107142Y-100476028D01*
X162583333Y-100952219D02*
X163154761Y-100952219D01*
X162869047Y-100952219D02*
X162869047Y-99952219D01*
X162869047Y-99952219D02*
X162964285Y-100095076D01*
X162964285Y-100095076D02*
X163059523Y-100190314D01*
X163059523Y-100190314D02*
X163154761Y-100237933D01*
X169561904Y-100954600D02*
X169419047Y-101002219D01*
X169419047Y-101002219D02*
X169180952Y-101002219D01*
X169180952Y-101002219D02*
X169085714Y-100954600D01*
X169085714Y-100954600D02*
X169038095Y-100906980D01*
X169038095Y-100906980D02*
X168990476Y-100811742D01*
X168990476Y-100811742D02*
X168990476Y-100716504D01*
X168990476Y-100716504D02*
X169038095Y-100621266D01*
X169038095Y-100621266D02*
X169085714Y-100573647D01*
X169085714Y-100573647D02*
X169180952Y-100526028D01*
X169180952Y-100526028D02*
X169371428Y-100478409D01*
X169371428Y-100478409D02*
X169466666Y-100430790D01*
X169466666Y-100430790D02*
X169514285Y-100383171D01*
X169514285Y-100383171D02*
X169561904Y-100287933D01*
X169561904Y-100287933D02*
X169561904Y-100192695D01*
X169561904Y-100192695D02*
X169514285Y-100097457D01*
X169514285Y-100097457D02*
X169466666Y-100049838D01*
X169466666Y-100049838D02*
X169371428Y-100002219D01*
X169371428Y-100002219D02*
X169133333Y-100002219D01*
X169133333Y-100002219D02*
X168990476Y-100049838D01*
X168228571Y-100478409D02*
X168085714Y-100526028D01*
X168085714Y-100526028D02*
X168038095Y-100573647D01*
X168038095Y-100573647D02*
X167990476Y-100668885D01*
X167990476Y-100668885D02*
X167990476Y-100811742D01*
X167990476Y-100811742D02*
X168038095Y-100906980D01*
X168038095Y-100906980D02*
X168085714Y-100954600D01*
X168085714Y-100954600D02*
X168180952Y-101002219D01*
X168180952Y-101002219D02*
X168561904Y-101002219D01*
X168561904Y-101002219D02*
X168561904Y-100002219D01*
X168561904Y-100002219D02*
X168228571Y-100002219D01*
X168228571Y-100002219D02*
X168133333Y-100049838D01*
X168133333Y-100049838D02*
X168085714Y-100097457D01*
X168085714Y-100097457D02*
X168038095Y-100192695D01*
X168038095Y-100192695D02*
X168038095Y-100287933D01*
X168038095Y-100287933D02*
X168085714Y-100383171D01*
X168085714Y-100383171D02*
X168133333Y-100430790D01*
X168133333Y-100430790D02*
X168228571Y-100478409D01*
X168228571Y-100478409D02*
X168561904Y-100478409D01*
X167038095Y-101002219D02*
X167609523Y-101002219D01*
X167323809Y-101002219D02*
X167323809Y-100002219D01*
X167323809Y-100002219D02*
X167419047Y-100145076D01*
X167419047Y-100145076D02*
X167514285Y-100240314D01*
X167514285Y-100240314D02*
X167609523Y-100287933D01*
D12*
X164450000Y-98600000D02*
G75*
G02*
X163050000Y-98600000I-700000J0D01*
G01*
X163050000Y-98600000D02*
G75*
G02*
X164450000Y-98600000I700000J0D01*
G01*
X166900000Y-97750000D02*
X169700000Y-97750000D01*
X166900000Y-99750000D02*
X166900000Y-97750000D01*
X169700000Y-97750000D02*
X169700000Y-99750000D01*
X169700000Y-99750000D02*
X166900000Y-99750000D01*
%LPC*%
D13*
X186100000Y-97500000D03*
X186100000Y-94000000D03*
X186100000Y-90500000D03*
D14*
X173300000Y-101300000D03*
D15*
X173300000Y-98760000D03*
X173300000Y-93680000D03*
X173300000Y-88600000D03*
D16*
X163750000Y-98600000D03*
D17*
X167575000Y-98750000D03*
D18*
X169025000Y-98750000D03*
D19*
X155075000Y-88915000D03*
X155075000Y-91455000D03*
X155075000Y-93995000D03*
X155075000Y-96535000D03*
D20*
X155075000Y-99075000D03*
%LPD*%
M02*
