G04 #@! TF.GenerationSoftware,KiCad,Pcbnew,8.0.2*
G04 #@! TF.CreationDate,2024-06-29T14:49:14+02:00*
G04 #@! TF.ProjectId,STM32F4_GateSignalGenerator_GateDriver,53544d33-3246-4345-9f47-617465536967,rev?*
G04 #@! TF.SameCoordinates,Original*
G04 #@! TF.FileFunction,Legend,Top*
G04 #@! TF.FilePolarity,Positive*
%FSLAX46Y46*%
G04 Gerber Fmt 4.6, Leading zero omitted, Abs format (unit mm)*
G04 Created by KiCad (PCBNEW 8.0.2) date 2024-06-29 14:49:14*
%MOMM*%
%LPD*%
G01*
G04 APERTURE LIST*
G04 Aperture macros list*
%AMRoundRect*
0 Rectangle with rounded corners*
0 $1 Rounding radius*
0 $2 $3 $4 $5 $6 $7 $8 $9 X,Y pos of 4 corners*
0 Add a 4 corners polygon primitive as box body*
4,1,4,$2,$3,$4,$5,$6,$7,$8,$9,$2,$3,0*
0 Add four circle primitives for the rounded corners*
1,1,$1+$1,$2,$3*
1,1,$1+$1,$4,$5*
1,1,$1+$1,$6,$7*
1,1,$1+$1,$8,$9*
0 Add four rect primitives between the rounded corners*
20,1,$1+$1,$2,$3,$4,$5,0*
20,1,$1+$1,$4,$5,$6,$7,0*
20,1,$1+$1,$6,$7,$8,$9,0*
20,1,$1+$1,$8,$9,$2,$3,0*%
G04 Aperture macros list end*
%ADD10C,0.300000*%
%ADD11C,0.200000*%
%ADD12C,0.120000*%
%ADD13RoundRect,0.250000X-0.262500X-0.450000X0.262500X-0.450000X0.262500X0.450000X-0.262500X0.450000X0*%
%ADD14RoundRect,0.150000X-0.587500X-0.150000X0.587500X-0.150000X0.587500X0.150000X-0.587500X0.150000X0*%
%ADD15RoundRect,0.250000X0.475000X-0.250000X0.475000X0.250000X-0.475000X0.250000X-0.475000X-0.250000X0*%
%ADD16RoundRect,0.150000X0.512500X0.150000X-0.512500X0.150000X-0.512500X-0.150000X0.512500X-0.150000X0*%
%ADD17RoundRect,0.250000X-0.475000X0.250000X-0.475000X-0.250000X0.475000X-0.250000X0.475000X0.250000X0*%
%ADD18RoundRect,0.150000X-0.825000X-0.150000X0.825000X-0.150000X0.825000X0.150000X-0.825000X0.150000X0*%
%ADD19RoundRect,0.250000X0.262500X0.450000X-0.262500X0.450000X-0.262500X-0.450000X0.262500X-0.450000X0*%
%ADD20C,2.500000*%
%ADD21R,1.500000X1.500000*%
%ADD22C,1.500000*%
%ADD23O,1.700000X1.700000*%
%ADD24R,1.700000X1.700000*%
G04 APERTURE END LIST*
D10*
X184111653Y-103300828D02*
X183611653Y-102586542D01*
X183254510Y-103300828D02*
X183254510Y-101800828D01*
X183254510Y-101800828D02*
X183825939Y-101800828D01*
X183825939Y-101800828D02*
X183968796Y-101872257D01*
X183968796Y-101872257D02*
X184040225Y-101943685D01*
X184040225Y-101943685D02*
X184111653Y-102086542D01*
X184111653Y-102086542D02*
X184111653Y-102300828D01*
X184111653Y-102300828D02*
X184040225Y-102443685D01*
X184040225Y-102443685D02*
X183968796Y-102515114D01*
X183968796Y-102515114D02*
X183825939Y-102586542D01*
X183825939Y-102586542D02*
X183254510Y-102586542D01*
X185325939Y-103229400D02*
X185183082Y-103300828D01*
X185183082Y-103300828D02*
X184897368Y-103300828D01*
X184897368Y-103300828D02*
X184754510Y-103229400D01*
X184754510Y-103229400D02*
X184683082Y-103086542D01*
X184683082Y-103086542D02*
X184683082Y-102515114D01*
X184683082Y-102515114D02*
X184754510Y-102372257D01*
X184754510Y-102372257D02*
X184897368Y-102300828D01*
X184897368Y-102300828D02*
X185183082Y-102300828D01*
X185183082Y-102300828D02*
X185325939Y-102372257D01*
X185325939Y-102372257D02*
X185397368Y-102515114D01*
X185397368Y-102515114D02*
X185397368Y-102657971D01*
X185397368Y-102657971D02*
X184683082Y-102800828D01*
X185897367Y-102300828D02*
X186254510Y-103300828D01*
X186254510Y-103300828D02*
X186611653Y-102300828D01*
X187183081Y-103157971D02*
X187254510Y-103229400D01*
X187254510Y-103229400D02*
X187183081Y-103300828D01*
X187183081Y-103300828D02*
X187111653Y-103229400D01*
X187111653Y-103229400D02*
X187183081Y-103157971D01*
X187183081Y-103157971D02*
X187183081Y-103300828D01*
X188968796Y-102872257D02*
X189683082Y-102872257D01*
X188825939Y-103300828D02*
X189325939Y-101800828D01*
X189325939Y-101800828D02*
X189825939Y-103300828D01*
D11*
X182283333Y-88002219D02*
X181950000Y-87526028D01*
X181711905Y-88002219D02*
X181711905Y-87002219D01*
X181711905Y-87002219D02*
X182092857Y-87002219D01*
X182092857Y-87002219D02*
X182188095Y-87049838D01*
X182188095Y-87049838D02*
X182235714Y-87097457D01*
X182235714Y-87097457D02*
X182283333Y-87192695D01*
X182283333Y-87192695D02*
X182283333Y-87335552D01*
X182283333Y-87335552D02*
X182235714Y-87430790D01*
X182235714Y-87430790D02*
X182188095Y-87478409D01*
X182188095Y-87478409D02*
X182092857Y-87526028D01*
X182092857Y-87526028D02*
X181711905Y-87526028D01*
X182616667Y-87002219D02*
X183235714Y-87002219D01*
X183235714Y-87002219D02*
X182902381Y-87383171D01*
X182902381Y-87383171D02*
X183045238Y-87383171D01*
X183045238Y-87383171D02*
X183140476Y-87430790D01*
X183140476Y-87430790D02*
X183188095Y-87478409D01*
X183188095Y-87478409D02*
X183235714Y-87573647D01*
X183235714Y-87573647D02*
X183235714Y-87811742D01*
X183235714Y-87811742D02*
X183188095Y-87906980D01*
X183188095Y-87906980D02*
X183140476Y-87954600D01*
X183140476Y-87954600D02*
X183045238Y-88002219D01*
X183045238Y-88002219D02*
X182759524Y-88002219D01*
X182759524Y-88002219D02*
X182664286Y-87954600D01*
X182664286Y-87954600D02*
X182616667Y-87906980D01*
X167454761Y-102547457D02*
X167359523Y-102499838D01*
X167359523Y-102499838D02*
X167264285Y-102404600D01*
X167264285Y-102404600D02*
X167121428Y-102261742D01*
X167121428Y-102261742D02*
X167026190Y-102214123D01*
X167026190Y-102214123D02*
X166930952Y-102214123D01*
X166978571Y-102452219D02*
X166883333Y-102404600D01*
X166883333Y-102404600D02*
X166788095Y-102309361D01*
X166788095Y-102309361D02*
X166740476Y-102118885D01*
X166740476Y-102118885D02*
X166740476Y-101785552D01*
X166740476Y-101785552D02*
X166788095Y-101595076D01*
X166788095Y-101595076D02*
X166883333Y-101499838D01*
X166883333Y-101499838D02*
X166978571Y-101452219D01*
X166978571Y-101452219D02*
X167169047Y-101452219D01*
X167169047Y-101452219D02*
X167264285Y-101499838D01*
X167264285Y-101499838D02*
X167359523Y-101595076D01*
X167359523Y-101595076D02*
X167407142Y-101785552D01*
X167407142Y-101785552D02*
X167407142Y-102118885D01*
X167407142Y-102118885D02*
X167359523Y-102309361D01*
X167359523Y-102309361D02*
X167264285Y-102404600D01*
X167264285Y-102404600D02*
X167169047Y-102452219D01*
X167169047Y-102452219D02*
X166978571Y-102452219D01*
X168359523Y-102452219D02*
X167788095Y-102452219D01*
X168073809Y-102452219D02*
X168073809Y-101452219D01*
X168073809Y-101452219D02*
X167978571Y-101595076D01*
X167978571Y-101595076D02*
X167883333Y-101690314D01*
X167883333Y-101690314D02*
X167788095Y-101737933D01*
X170433333Y-90556980D02*
X170385714Y-90604600D01*
X170385714Y-90604600D02*
X170242857Y-90652219D01*
X170242857Y-90652219D02*
X170147619Y-90652219D01*
X170147619Y-90652219D02*
X170004762Y-90604600D01*
X170004762Y-90604600D02*
X169909524Y-90509361D01*
X169909524Y-90509361D02*
X169861905Y-90414123D01*
X169861905Y-90414123D02*
X169814286Y-90223647D01*
X169814286Y-90223647D02*
X169814286Y-90080790D01*
X169814286Y-90080790D02*
X169861905Y-89890314D01*
X169861905Y-89890314D02*
X169909524Y-89795076D01*
X169909524Y-89795076D02*
X170004762Y-89699838D01*
X170004762Y-89699838D02*
X170147619Y-89652219D01*
X170147619Y-89652219D02*
X170242857Y-89652219D01*
X170242857Y-89652219D02*
X170385714Y-89699838D01*
X170385714Y-89699838D02*
X170433333Y-89747457D01*
X170766667Y-89652219D02*
X171385714Y-89652219D01*
X171385714Y-89652219D02*
X171052381Y-90033171D01*
X171052381Y-90033171D02*
X171195238Y-90033171D01*
X171195238Y-90033171D02*
X171290476Y-90080790D01*
X171290476Y-90080790D02*
X171338095Y-90128409D01*
X171338095Y-90128409D02*
X171385714Y-90223647D01*
X171385714Y-90223647D02*
X171385714Y-90461742D01*
X171385714Y-90461742D02*
X171338095Y-90556980D01*
X171338095Y-90556980D02*
X171290476Y-90604600D01*
X171290476Y-90604600D02*
X171195238Y-90652219D01*
X171195238Y-90652219D02*
X170909524Y-90652219D01*
X170909524Y-90652219D02*
X170814286Y-90604600D01*
X170814286Y-90604600D02*
X170766667Y-90556980D01*
X181611905Y-95152219D02*
X181611905Y-94152219D01*
X181611905Y-94152219D02*
X181850000Y-94152219D01*
X181850000Y-94152219D02*
X181992857Y-94199838D01*
X181992857Y-94199838D02*
X182088095Y-94295076D01*
X182088095Y-94295076D02*
X182135714Y-94390314D01*
X182135714Y-94390314D02*
X182183333Y-94580790D01*
X182183333Y-94580790D02*
X182183333Y-94723647D01*
X182183333Y-94723647D02*
X182135714Y-94914123D01*
X182135714Y-94914123D02*
X182088095Y-95009361D01*
X182088095Y-95009361D02*
X181992857Y-95104600D01*
X181992857Y-95104600D02*
X181850000Y-95152219D01*
X181850000Y-95152219D02*
X181611905Y-95152219D01*
X183135714Y-95152219D02*
X182564286Y-95152219D01*
X182850000Y-95152219D02*
X182850000Y-94152219D01*
X182850000Y-94152219D02*
X182754762Y-94295076D01*
X182754762Y-94295076D02*
X182659524Y-94390314D01*
X182659524Y-94390314D02*
X182564286Y-94437933D01*
X170383333Y-103256980D02*
X170335714Y-103304600D01*
X170335714Y-103304600D02*
X170192857Y-103352219D01*
X170192857Y-103352219D02*
X170097619Y-103352219D01*
X170097619Y-103352219D02*
X169954762Y-103304600D01*
X169954762Y-103304600D02*
X169859524Y-103209361D01*
X169859524Y-103209361D02*
X169811905Y-103114123D01*
X169811905Y-103114123D02*
X169764286Y-102923647D01*
X169764286Y-102923647D02*
X169764286Y-102780790D01*
X169764286Y-102780790D02*
X169811905Y-102590314D01*
X169811905Y-102590314D02*
X169859524Y-102495076D01*
X169859524Y-102495076D02*
X169954762Y-102399838D01*
X169954762Y-102399838D02*
X170097619Y-102352219D01*
X170097619Y-102352219D02*
X170192857Y-102352219D01*
X170192857Y-102352219D02*
X170335714Y-102399838D01*
X170335714Y-102399838D02*
X170383333Y-102447457D01*
X171335714Y-103352219D02*
X170764286Y-103352219D01*
X171050000Y-103352219D02*
X171050000Y-102352219D01*
X171050000Y-102352219D02*
X170954762Y-102495076D01*
X170954762Y-102495076D02*
X170859524Y-102590314D01*
X170859524Y-102590314D02*
X170764286Y-102637933D01*
X158758333Y-99002219D02*
X158425000Y-98526028D01*
X158186905Y-99002219D02*
X158186905Y-98002219D01*
X158186905Y-98002219D02*
X158567857Y-98002219D01*
X158567857Y-98002219D02*
X158663095Y-98049838D01*
X158663095Y-98049838D02*
X158710714Y-98097457D01*
X158710714Y-98097457D02*
X158758333Y-98192695D01*
X158758333Y-98192695D02*
X158758333Y-98335552D01*
X158758333Y-98335552D02*
X158710714Y-98430790D01*
X158710714Y-98430790D02*
X158663095Y-98478409D01*
X158663095Y-98478409D02*
X158567857Y-98526028D01*
X158567857Y-98526028D02*
X158186905Y-98526028D01*
X159710714Y-99002219D02*
X159139286Y-99002219D01*
X159425000Y-99002219D02*
X159425000Y-98002219D01*
X159425000Y-98002219D02*
X159329762Y-98145076D01*
X159329762Y-98145076D02*
X159234524Y-98240314D01*
X159234524Y-98240314D02*
X159139286Y-98287933D01*
X164333333Y-102356980D02*
X164285714Y-102404600D01*
X164285714Y-102404600D02*
X164142857Y-102452219D01*
X164142857Y-102452219D02*
X164047619Y-102452219D01*
X164047619Y-102452219D02*
X163904762Y-102404600D01*
X163904762Y-102404600D02*
X163809524Y-102309361D01*
X163809524Y-102309361D02*
X163761905Y-102214123D01*
X163761905Y-102214123D02*
X163714286Y-102023647D01*
X163714286Y-102023647D02*
X163714286Y-101880790D01*
X163714286Y-101880790D02*
X163761905Y-101690314D01*
X163761905Y-101690314D02*
X163809524Y-101595076D01*
X163809524Y-101595076D02*
X163904762Y-101499838D01*
X163904762Y-101499838D02*
X164047619Y-101452219D01*
X164047619Y-101452219D02*
X164142857Y-101452219D01*
X164142857Y-101452219D02*
X164285714Y-101499838D01*
X164285714Y-101499838D02*
X164333333Y-101547457D01*
X165190476Y-101785552D02*
X165190476Y-102452219D01*
X164952381Y-101404600D02*
X164714286Y-102118885D01*
X164714286Y-102118885D02*
X165333333Y-102118885D01*
X162338095Y-90752219D02*
X162338095Y-91561742D01*
X162338095Y-91561742D02*
X162385714Y-91656980D01*
X162385714Y-91656980D02*
X162433333Y-91704600D01*
X162433333Y-91704600D02*
X162528571Y-91752219D01*
X162528571Y-91752219D02*
X162719047Y-91752219D01*
X162719047Y-91752219D02*
X162814285Y-91704600D01*
X162814285Y-91704600D02*
X162861904Y-91656980D01*
X162861904Y-91656980D02*
X162909523Y-91561742D01*
X162909523Y-91561742D02*
X162909523Y-90752219D01*
X163338095Y-90847457D02*
X163385714Y-90799838D01*
X163385714Y-90799838D02*
X163480952Y-90752219D01*
X163480952Y-90752219D02*
X163719047Y-90752219D01*
X163719047Y-90752219D02*
X163814285Y-90799838D01*
X163814285Y-90799838D02*
X163861904Y-90847457D01*
X163861904Y-90847457D02*
X163909523Y-90942695D01*
X163909523Y-90942695D02*
X163909523Y-91037933D01*
X163909523Y-91037933D02*
X163861904Y-91180790D01*
X163861904Y-91180790D02*
X163290476Y-91752219D01*
X163290476Y-91752219D02*
X163909523Y-91752219D01*
X158758333Y-100902219D02*
X158425000Y-100426028D01*
X158186905Y-100902219D02*
X158186905Y-99902219D01*
X158186905Y-99902219D02*
X158567857Y-99902219D01*
X158567857Y-99902219D02*
X158663095Y-99949838D01*
X158663095Y-99949838D02*
X158710714Y-99997457D01*
X158710714Y-99997457D02*
X158758333Y-100092695D01*
X158758333Y-100092695D02*
X158758333Y-100235552D01*
X158758333Y-100235552D02*
X158710714Y-100330790D01*
X158710714Y-100330790D02*
X158663095Y-100378409D01*
X158663095Y-100378409D02*
X158567857Y-100426028D01*
X158567857Y-100426028D02*
X158186905Y-100426028D01*
X159139286Y-99997457D02*
X159186905Y-99949838D01*
X159186905Y-99949838D02*
X159282143Y-99902219D01*
X159282143Y-99902219D02*
X159520238Y-99902219D01*
X159520238Y-99902219D02*
X159615476Y-99949838D01*
X159615476Y-99949838D02*
X159663095Y-99997457D01*
X159663095Y-99997457D02*
X159710714Y-100092695D01*
X159710714Y-100092695D02*
X159710714Y-100187933D01*
X159710714Y-100187933D02*
X159663095Y-100330790D01*
X159663095Y-100330790D02*
X159091667Y-100902219D01*
X159091667Y-100902219D02*
X159710714Y-100902219D01*
X168333333Y-90556980D02*
X168285714Y-90604600D01*
X168285714Y-90604600D02*
X168142857Y-90652219D01*
X168142857Y-90652219D02*
X168047619Y-90652219D01*
X168047619Y-90652219D02*
X167904762Y-90604600D01*
X167904762Y-90604600D02*
X167809524Y-90509361D01*
X167809524Y-90509361D02*
X167761905Y-90414123D01*
X167761905Y-90414123D02*
X167714286Y-90223647D01*
X167714286Y-90223647D02*
X167714286Y-90080790D01*
X167714286Y-90080790D02*
X167761905Y-89890314D01*
X167761905Y-89890314D02*
X167809524Y-89795076D01*
X167809524Y-89795076D02*
X167904762Y-89699838D01*
X167904762Y-89699838D02*
X168047619Y-89652219D01*
X168047619Y-89652219D02*
X168142857Y-89652219D01*
X168142857Y-89652219D02*
X168285714Y-89699838D01*
X168285714Y-89699838D02*
X168333333Y-89747457D01*
X168714286Y-89747457D02*
X168761905Y-89699838D01*
X168761905Y-89699838D02*
X168857143Y-89652219D01*
X168857143Y-89652219D02*
X169095238Y-89652219D01*
X169095238Y-89652219D02*
X169190476Y-89699838D01*
X169190476Y-89699838D02*
X169238095Y-89747457D01*
X169238095Y-89747457D02*
X169285714Y-89842695D01*
X169285714Y-89842695D02*
X169285714Y-89937933D01*
X169285714Y-89937933D02*
X169238095Y-90080790D01*
X169238095Y-90080790D02*
X168666667Y-90652219D01*
X168666667Y-90652219D02*
X169285714Y-90652219D01*
X185166666Y-86652219D02*
X185166666Y-87366504D01*
X185166666Y-87366504D02*
X185119047Y-87509361D01*
X185119047Y-87509361D02*
X185023809Y-87604600D01*
X185023809Y-87604600D02*
X184880952Y-87652219D01*
X184880952Y-87652219D02*
X184785714Y-87652219D01*
X186166666Y-87652219D02*
X185595238Y-87652219D01*
X185880952Y-87652219D02*
X185880952Y-86652219D01*
X185880952Y-86652219D02*
X185785714Y-86795076D01*
X185785714Y-86795076D02*
X185690476Y-86890314D01*
X185690476Y-86890314D02*
X185595238Y-86937933D01*
X180438095Y-102152219D02*
X180438095Y-102961742D01*
X180438095Y-102961742D02*
X180485714Y-103056980D01*
X180485714Y-103056980D02*
X180533333Y-103104600D01*
X180533333Y-103104600D02*
X180628571Y-103152219D01*
X180628571Y-103152219D02*
X180819047Y-103152219D01*
X180819047Y-103152219D02*
X180914285Y-103104600D01*
X180914285Y-103104600D02*
X180961904Y-103056980D01*
X180961904Y-103056980D02*
X181009523Y-102961742D01*
X181009523Y-102961742D02*
X181009523Y-102152219D01*
X182009523Y-103152219D02*
X181438095Y-103152219D01*
X181723809Y-103152219D02*
X181723809Y-102152219D01*
X181723809Y-102152219D02*
X181628571Y-102295076D01*
X181628571Y-102295076D02*
X181533333Y-102390314D01*
X181533333Y-102390314D02*
X181438095Y-102437933D01*
X157433333Y-89956980D02*
X157385714Y-90004600D01*
X157385714Y-90004600D02*
X157242857Y-90052219D01*
X157242857Y-90052219D02*
X157147619Y-90052219D01*
X157147619Y-90052219D02*
X157004762Y-90004600D01*
X157004762Y-90004600D02*
X156909524Y-89909361D01*
X156909524Y-89909361D02*
X156861905Y-89814123D01*
X156861905Y-89814123D02*
X156814286Y-89623647D01*
X156814286Y-89623647D02*
X156814286Y-89480790D01*
X156814286Y-89480790D02*
X156861905Y-89290314D01*
X156861905Y-89290314D02*
X156909524Y-89195076D01*
X156909524Y-89195076D02*
X157004762Y-89099838D01*
X157004762Y-89099838D02*
X157147619Y-89052219D01*
X157147619Y-89052219D02*
X157242857Y-89052219D01*
X157242857Y-89052219D02*
X157385714Y-89099838D01*
X157385714Y-89099838D02*
X157433333Y-89147457D01*
X158338095Y-89052219D02*
X157861905Y-89052219D01*
X157861905Y-89052219D02*
X157814286Y-89528409D01*
X157814286Y-89528409D02*
X157861905Y-89480790D01*
X157861905Y-89480790D02*
X157957143Y-89433171D01*
X157957143Y-89433171D02*
X158195238Y-89433171D01*
X158195238Y-89433171D02*
X158290476Y-89480790D01*
X158290476Y-89480790D02*
X158338095Y-89528409D01*
X158338095Y-89528409D02*
X158385714Y-89623647D01*
X158385714Y-89623647D02*
X158385714Y-89861742D01*
X158385714Y-89861742D02*
X158338095Y-89956980D01*
X158338095Y-89956980D02*
X158290476Y-90004600D01*
X158290476Y-90004600D02*
X158195238Y-90052219D01*
X158195238Y-90052219D02*
X157957143Y-90052219D01*
X157957143Y-90052219D02*
X157861905Y-90004600D01*
X157861905Y-90004600D02*
X157814286Y-89956980D01*
X157066666Y-93452219D02*
X157066666Y-94166504D01*
X157066666Y-94166504D02*
X157019047Y-94309361D01*
X157019047Y-94309361D02*
X156923809Y-94404600D01*
X156923809Y-94404600D02*
X156780952Y-94452219D01*
X156780952Y-94452219D02*
X156685714Y-94452219D01*
X157495238Y-93547457D02*
X157542857Y-93499838D01*
X157542857Y-93499838D02*
X157638095Y-93452219D01*
X157638095Y-93452219D02*
X157876190Y-93452219D01*
X157876190Y-93452219D02*
X157971428Y-93499838D01*
X157971428Y-93499838D02*
X158019047Y-93547457D01*
X158019047Y-93547457D02*
X158066666Y-93642695D01*
X158066666Y-93642695D02*
X158066666Y-93737933D01*
X158066666Y-93737933D02*
X158019047Y-93880790D01*
X158019047Y-93880790D02*
X157447619Y-94452219D01*
X157447619Y-94452219D02*
X158066666Y-94452219D01*
D12*
X182372936Y-88465000D02*
X182827064Y-88465000D01*
X182372936Y-89935000D02*
X182827064Y-89935000D01*
X166200000Y-97990000D02*
X165960000Y-97660000D01*
X166440000Y-97660000D01*
X166200000Y-97990000D01*
G36*
X166200000Y-97990000D02*
G01*
X165960000Y-97660000D01*
X166440000Y-97660000D01*
X166200000Y-97990000D01*
G37*
X167362500Y-101060000D02*
X168012500Y-101060000D01*
X167362500Y-101060000D02*
X166712500Y-101060000D01*
X167362500Y-97940000D02*
X168012500Y-97940000D01*
X167362500Y-97940000D02*
X166712500Y-97940000D01*
X169865000Y-87861252D02*
X169865000Y-87338748D01*
X171335000Y-87861252D02*
X171335000Y-87338748D01*
X182300000Y-90652500D02*
X181500000Y-90652500D01*
X182300000Y-90652500D02*
X183100000Y-90652500D01*
X182300000Y-93772500D02*
X181500000Y-93772500D01*
X182300000Y-93772500D02*
X183100000Y-93772500D01*
X183840000Y-94052500D02*
X183360000Y-94052500D01*
X183600000Y-93722500D01*
X183840000Y-94052500D01*
G36*
X183840000Y-94052500D02*
G01*
X183360000Y-94052500D01*
X183600000Y-93722500D01*
X183840000Y-94052500D01*
G37*
X171335000Y-100661252D02*
X171335000Y-100138748D01*
X169865000Y-100661252D02*
X169865000Y-100138748D01*
X161372936Y-99335000D02*
X161827064Y-99335000D01*
X161372936Y-97865000D02*
X161827064Y-97865000D01*
X165135000Y-99238748D02*
X165135000Y-99761252D01*
X163665000Y-99238748D02*
X163665000Y-99761252D01*
X163100000Y-85040000D02*
X161150000Y-85040000D01*
X163100000Y-85040000D02*
X165050000Y-85040000D01*
X163100000Y-90160000D02*
X161150000Y-90160000D01*
X163100000Y-90160000D02*
X165050000Y-90160000D01*
X160400000Y-85135000D02*
X160160000Y-84805000D01*
X160640000Y-84805000D01*
X160400000Y-85135000D01*
G36*
X160400000Y-85135000D02*
G01*
X160160000Y-84805000D01*
X160640000Y-84805000D01*
X160400000Y-85135000D01*
G37*
X161827064Y-101235000D02*
X161372936Y-101235000D01*
X161827064Y-99765000D02*
X161372936Y-99765000D01*
X167765000Y-87861252D02*
X167765000Y-87338748D01*
X169235000Y-87861252D02*
X169235000Y-87338748D01*
X171830000Y-103820000D02*
X171830000Y-84030000D01*
X179670000Y-84030000D02*
X171830000Y-84030000D01*
X179670000Y-103820000D02*
X171830000Y-103820000D01*
X179670000Y-103820000D02*
X179670000Y-84030000D01*
X180050000Y-101666667D02*
X180050000Y-104200000D01*
X180050000Y-104200000D02*
X177516667Y-104200000D01*
X156865000Y-86838748D02*
X156865000Y-87361252D01*
X158335000Y-86838748D02*
X158335000Y-87361252D01*
X156345000Y-100345000D02*
X155075000Y-100345000D01*
X156345000Y-99075000D02*
X156345000Y-100345000D01*
X154032071Y-96915000D02*
X153635000Y-96915000D01*
X154032071Y-96155000D02*
X153635000Y-96155000D01*
X154032071Y-94375000D02*
X153635000Y-94375000D01*
X154032071Y-93615000D02*
X153635000Y-93615000D01*
X154032071Y-91835000D02*
X153635000Y-91835000D01*
X154032071Y-91075000D02*
X153635000Y-91075000D01*
X154032071Y-89295000D02*
X153635000Y-89295000D01*
X154032071Y-88535000D02*
X153635000Y-88535000D01*
X153965000Y-99455000D02*
X153635000Y-99455000D01*
X153965000Y-98695000D02*
X153635000Y-98695000D01*
X153635000Y-100405000D02*
X153635000Y-87585000D01*
X153635000Y-97805000D02*
X150975000Y-97805000D01*
X153635000Y-95265000D02*
X150975000Y-95265000D01*
X153635000Y-92725000D02*
X150975000Y-92725000D01*
X153635000Y-90185000D02*
X150975000Y-90185000D01*
X153635000Y-87585000D02*
X150975000Y-87585000D01*
X150975000Y-100405000D02*
X153635000Y-100405000D01*
X150975000Y-99455000D02*
X144975000Y-99455000D01*
X150975000Y-99395000D02*
X144975000Y-99395000D01*
X150975000Y-99275000D02*
X144975000Y-99275000D01*
X150975000Y-99155000D02*
X144975000Y-99155000D01*
X150975000Y-99035000D02*
X144975000Y-99035000D01*
X150975000Y-98915000D02*
X144975000Y-98915000D01*
X150975000Y-98795000D02*
X144975000Y-98795000D01*
X150975000Y-96915000D02*
X144975000Y-96915000D01*
X150975000Y-94375000D02*
X144975000Y-94375000D01*
X150975000Y-91835000D02*
X144975000Y-91835000D01*
X150975000Y-89295000D02*
X144975000Y-89295000D01*
X150975000Y-87585000D02*
X150975000Y-100405000D01*
X144975000Y-99455000D02*
X144975000Y-98695000D01*
X144975000Y-98695000D02*
X150975000Y-98695000D01*
X144975000Y-96915000D02*
X144975000Y-96155000D01*
X144975000Y-96155000D02*
X150975000Y-96155000D01*
X144975000Y-94375000D02*
X144975000Y-93615000D01*
X144975000Y-93615000D02*
X150975000Y-93615000D01*
X144975000Y-91835000D02*
X144975000Y-91075000D01*
X144975000Y-91075000D02*
X150975000Y-91075000D01*
X144975000Y-89295000D02*
X144975000Y-88535000D01*
X144975000Y-88535000D02*
X150975000Y-88535000D01*
%LPC*%
D13*
X181687500Y-89200000D03*
X183512500Y-89200000D03*
D14*
X168300000Y-99500000D03*
X166425000Y-100450000D03*
X166425000Y-98550000D03*
D15*
X170600000Y-88550000D03*
X170600000Y-86650000D03*
D16*
X183437500Y-93162500D03*
X183437500Y-91262500D03*
X181162500Y-92212500D03*
D15*
X170600000Y-101350000D03*
X170600000Y-99450000D03*
D13*
X162512500Y-98600000D03*
X160687500Y-98600000D03*
D17*
X164400000Y-100450000D03*
X164400000Y-98550000D03*
D18*
X160625000Y-85695000D03*
X160625000Y-86965000D03*
X160625000Y-88235000D03*
X160625000Y-89505000D03*
X165575000Y-89505000D03*
X165575000Y-88235000D03*
X165575000Y-86965000D03*
X165575000Y-85695000D03*
D19*
X160687500Y-100500000D03*
X162512500Y-100500000D03*
D15*
X168500000Y-88550000D03*
X168500000Y-86650000D03*
D20*
X186100000Y-97500000D03*
X186100000Y-94000000D03*
X186100000Y-90500000D03*
D21*
X173300000Y-101300000D03*
D22*
X173300000Y-98760000D03*
X173300000Y-93680000D03*
X173300000Y-88600000D03*
D17*
X157600000Y-86150000D03*
X157600000Y-88050000D03*
D23*
X155075000Y-88915000D03*
X155075000Y-91455000D03*
X155075000Y-93995000D03*
X155075000Y-96535000D03*
D24*
X155075000Y-99075000D03*
%LPD*%
M02*
