%TF.GenerationSoftware,KiCad,Pcbnew,8.0.2*%
%TF.CreationDate,2024-06-29T14:50:50+02:00*%
%TF.ProjectId,STM32F4_GateSignalGenerator_GateDriver,53544d33-3246-4345-9f47-617465536967,rev?*%
%TF.SameCoordinates,Original*%
%TF.FileFunction,Drillmap*%
%TF.FilePolarity,Positive*%
%FSLAX45Y45*%
G04 Gerber Fmt 4.5, Leading zero omitted, Abs format (unit mm)*
G04 Created by KiCad (PCBNEW 8.0.2) date 2024-06-29 14:50:50*
%MOMM*%
%LPD*%
G01*
G04 APERTURE LIST*
%ADD10C,0.200000*%
G04 APERTURE END LIST*
D10*
X16770000Y-9400000D02*
G75*
G02*
X16430000Y-9400000I-170000J0D01*
G01*
X16430000Y-9400000D02*
G75*
G02*
X16770000Y-9400000I170000J0D01*
G01*
X15100000Y-8400000D02*
X19100000Y-8400000D01*
X19100000Y-10400000D01*
X15100000Y-10400000D01*
X15100000Y-8400000D01*
X15350777Y-10721484D02*
X15350777Y-10521484D01*
X15350777Y-10521484D02*
X15398396Y-10521484D01*
X15398396Y-10521484D02*
X15426967Y-10531008D01*
X15426967Y-10531008D02*
X15446015Y-10550055D01*
X15446015Y-10550055D02*
X15455539Y-10569103D01*
X15455539Y-10569103D02*
X15465062Y-10607198D01*
X15465062Y-10607198D02*
X15465062Y-10635770D01*
X15465062Y-10635770D02*
X15455539Y-10673865D01*
X15455539Y-10673865D02*
X15446015Y-10692912D01*
X15446015Y-10692912D02*
X15426967Y-10711960D01*
X15426967Y-10711960D02*
X15398396Y-10721484D01*
X15398396Y-10721484D02*
X15350777Y-10721484D01*
X15550777Y-10721484D02*
X15550777Y-10588150D01*
X15550777Y-10626246D02*
X15560301Y-10607198D01*
X15560301Y-10607198D02*
X15569824Y-10597674D01*
X15569824Y-10597674D02*
X15588872Y-10588150D01*
X15588872Y-10588150D02*
X15607920Y-10588150D01*
X15674586Y-10721484D02*
X15674586Y-10588150D01*
X15674586Y-10521484D02*
X15665062Y-10531008D01*
X15665062Y-10531008D02*
X15674586Y-10540531D01*
X15674586Y-10540531D02*
X15684110Y-10531008D01*
X15684110Y-10531008D02*
X15674586Y-10521484D01*
X15674586Y-10521484D02*
X15674586Y-10540531D01*
X15798396Y-10721484D02*
X15779348Y-10711960D01*
X15779348Y-10711960D02*
X15769824Y-10692912D01*
X15769824Y-10692912D02*
X15769824Y-10521484D01*
X15903158Y-10721484D02*
X15884110Y-10711960D01*
X15884110Y-10711960D02*
X15874586Y-10692912D01*
X15874586Y-10692912D02*
X15874586Y-10521484D01*
X16131729Y-10721484D02*
X16131729Y-10521484D01*
X16131729Y-10521484D02*
X16198396Y-10664341D01*
X16198396Y-10664341D02*
X16265062Y-10521484D01*
X16265062Y-10521484D02*
X16265062Y-10721484D01*
X16446015Y-10721484D02*
X16446015Y-10616722D01*
X16446015Y-10616722D02*
X16436491Y-10597674D01*
X16436491Y-10597674D02*
X16417443Y-10588150D01*
X16417443Y-10588150D02*
X16379348Y-10588150D01*
X16379348Y-10588150D02*
X16360301Y-10597674D01*
X16446015Y-10711960D02*
X16426967Y-10721484D01*
X16426967Y-10721484D02*
X16379348Y-10721484D01*
X16379348Y-10721484D02*
X16360301Y-10711960D01*
X16360301Y-10711960D02*
X16350777Y-10692912D01*
X16350777Y-10692912D02*
X16350777Y-10673865D01*
X16350777Y-10673865D02*
X16360301Y-10654817D01*
X16360301Y-10654817D02*
X16379348Y-10645293D01*
X16379348Y-10645293D02*
X16426967Y-10645293D01*
X16426967Y-10645293D02*
X16446015Y-10635770D01*
X16541253Y-10588150D02*
X16541253Y-10788150D01*
X16541253Y-10597674D02*
X16560301Y-10588150D01*
X16560301Y-10588150D02*
X16598396Y-10588150D01*
X16598396Y-10588150D02*
X16617443Y-10597674D01*
X16617443Y-10597674D02*
X16626967Y-10607198D01*
X16626967Y-10607198D02*
X16636491Y-10626246D01*
X16636491Y-10626246D02*
X16636491Y-10683389D01*
X16636491Y-10683389D02*
X16626967Y-10702436D01*
X16626967Y-10702436D02*
X16617443Y-10711960D01*
X16617443Y-10711960D02*
X16598396Y-10721484D01*
X16598396Y-10721484D02*
X16560301Y-10721484D01*
X16560301Y-10721484D02*
X16541253Y-10711960D01*
X16722205Y-10702436D02*
X16731729Y-10711960D01*
X16731729Y-10711960D02*
X16722205Y-10721484D01*
X16722205Y-10721484D02*
X16712682Y-10711960D01*
X16712682Y-10711960D02*
X16722205Y-10702436D01*
X16722205Y-10702436D02*
X16722205Y-10721484D01*
X16722205Y-10597674D02*
X16731729Y-10607198D01*
X16731729Y-10607198D02*
X16722205Y-10616722D01*
X16722205Y-10616722D02*
X16712682Y-10607198D01*
X16712682Y-10607198D02*
X16722205Y-10597674D01*
X16722205Y-10597674D02*
X16722205Y-10616722D01*
M02*
