G04 #@! TF.GenerationSoftware,KiCad,Pcbnew,8.0.7*
G04 #@! TF.CreationDate,2025-01-24T14:27:24+01:00*
G04 #@! TF.ProjectId,GateDriverControlTransmitter,47617465-4472-4697-9665-72436f6e7472,rev?*
G04 #@! TF.SameCoordinates,Original*
G04 #@! TF.FileFunction,Copper,L2,Bot*
G04 #@! TF.FilePolarity,Positive*
%FSLAX46Y46*%
G04 Gerber Fmt 4.6, Leading zero omitted, Abs format (unit mm)*
G04 Created by KiCad (PCBNEW 8.0.7) date 2025-01-24 14:27:24*
%MOMM*%
%LPD*%
G01*
G04 APERTURE LIST*
G04 Aperture macros list*
%AMRoundRect*
0 Rectangle with rounded corners*
0 $1 Rounding radius*
0 $2 $3 $4 $5 $6 $7 $8 $9 X,Y pos of 4 corners*
0 Add a 4 corners polygon primitive as box body*
4,1,4,$2,$3,$4,$5,$6,$7,$8,$9,$2,$3,0*
0 Add four circle primitives for the rounded corners*
1,1,$1+$1,$2,$3*
1,1,$1+$1,$4,$5*
1,1,$1+$1,$6,$7*
1,1,$1+$1,$8,$9*
0 Add four rect primitives between the rounded corners*
20,1,$1+$1,$2,$3,$4,$5,0*
20,1,$1+$1,$4,$5,$6,$7,0*
20,1,$1+$1,$6,$7,$8,$9,0*
20,1,$1+$1,$8,$9,$2,$3,0*%
G04 Aperture macros list end*
G04 #@! TA.AperFunction,ComponentPad*
%ADD10R,1.700000X1.700000*%
G04 #@! TD*
G04 #@! TA.AperFunction,ComponentPad*
%ADD11O,1.700000X1.700000*%
G04 #@! TD*
G04 #@! TA.AperFunction,ComponentPad*
%ADD12C,1.524000*%
G04 #@! TD*
G04 #@! TA.AperFunction,SMDPad,CuDef*
%ADD13RoundRect,0.250000X-0.262500X-0.450000X0.262500X-0.450000X0.262500X0.450000X-0.262500X0.450000X0*%
G04 #@! TD*
G04 #@! TA.AperFunction,SMDPad,CuDef*
%ADD14RoundRect,0.150000X-0.150000X0.512500X-0.150000X-0.512500X0.150000X-0.512500X0.150000X0.512500X0*%
G04 #@! TD*
G04 #@! TA.AperFunction,SMDPad,CuDef*
%ADD15RoundRect,0.250000X-0.250000X-0.475000X0.250000X-0.475000X0.250000X0.475000X-0.250000X0.475000X0*%
G04 #@! TD*
G04 #@! TA.AperFunction,SMDPad,CuDef*
%ADD16RoundRect,0.250000X0.450000X-0.262500X0.450000X0.262500X-0.450000X0.262500X-0.450000X-0.262500X0*%
G04 #@! TD*
G04 #@! TA.AperFunction,ViaPad*
%ADD17C,0.600000*%
G04 #@! TD*
G04 #@! TA.AperFunction,Conductor*
%ADD18C,0.500000*%
G04 #@! TD*
G04 APERTURE END LIST*
D10*
X125100000Y-115075000D03*
D11*
X125100000Y-112535000D03*
X125100000Y-109995000D03*
X125100000Y-107455000D03*
X125100000Y-104915000D03*
D12*
X147700000Y-106210000D03*
X147700000Y-108750000D03*
X147700000Y-111290000D03*
X147700000Y-113830000D03*
D13*
X143337500Y-116600000D03*
X145162500Y-116600000D03*
D14*
X144050000Y-106462500D03*
X145000000Y-106462500D03*
X145950000Y-106462500D03*
X145950000Y-108737500D03*
X144050000Y-108737500D03*
D13*
X144060000Y-110600000D03*
X145885000Y-110600000D03*
D15*
X144042500Y-104570000D03*
X145942500Y-104570000D03*
D16*
X127950000Y-112462500D03*
X127950000Y-110637500D03*
D15*
X144042500Y-102610000D03*
X145942500Y-102610000D03*
D17*
X148000000Y-101000000D03*
X136000000Y-119000000D03*
X140000000Y-119000000D03*
X124000000Y-101000000D03*
X140000000Y-101000000D03*
X136000000Y-101000000D03*
X130000000Y-119000000D03*
X150000000Y-111000000D03*
X142500000Y-105500000D03*
X150000000Y-119000000D03*
X122000000Y-107000000D03*
X122000000Y-119000000D03*
X150000000Y-103000000D03*
X142500000Y-112000000D03*
X148000000Y-119000000D03*
X142000000Y-101000000D03*
X124000000Y-119000000D03*
X128000000Y-101000000D03*
X126000000Y-119000000D03*
X150000000Y-115000000D03*
X150000000Y-101000000D03*
X122000000Y-103000000D03*
X136000000Y-105000000D03*
X150000000Y-119000000D03*
X150000000Y-113000000D03*
X126000000Y-101000000D03*
X134000000Y-119000000D03*
X122000000Y-115000000D03*
X132000000Y-119000000D03*
X146000000Y-101000000D03*
X122000000Y-105000000D03*
X122000000Y-109000000D03*
X122000000Y-101000000D03*
X136000000Y-103500000D03*
X122000000Y-113000000D03*
X150000000Y-107000000D03*
X128000000Y-105000000D03*
X150000000Y-105000000D03*
X150000000Y-109000000D03*
X144000000Y-101000000D03*
X122000000Y-111000000D03*
X122000000Y-117000000D03*
X142500000Y-103500000D03*
X134000000Y-101000000D03*
X132000000Y-101000000D03*
X138000000Y-119000000D03*
X146000000Y-119000000D03*
X130000000Y-101000000D03*
X128000000Y-119000000D03*
X128000000Y-103500000D03*
X142500000Y-109000000D03*
X138000000Y-101000000D03*
X139500000Y-117730000D03*
X146450000Y-116600000D03*
D18*
X144042500Y-102610000D02*
X127390000Y-102610000D01*
X144042500Y-106455000D02*
X144050000Y-106462500D01*
X127390000Y-102610000D02*
X125100000Y-104900000D01*
X144042500Y-102610000D02*
X144042500Y-106455000D01*
X125100000Y-104900000D02*
X125100000Y-104915000D01*
X145000000Y-105706250D02*
X145942500Y-104763750D01*
X145000000Y-106462500D02*
X145000000Y-105706250D01*
X145942500Y-104570000D02*
X145942500Y-102610000D01*
X145942500Y-104763750D02*
X145942500Y-104570000D01*
X125100000Y-107455000D02*
X126755000Y-105800000D01*
X141500000Y-105800000D02*
X144050000Y-108350000D01*
X126755000Y-105800000D02*
X141500000Y-105800000D01*
X144060000Y-108747500D02*
X144050000Y-108737500D01*
X144060000Y-110600000D02*
X144060000Y-108747500D01*
X144050000Y-108350000D02*
X144050000Y-108737500D01*
X142207500Y-117730000D02*
X143337500Y-116600000D01*
X125100000Y-112535000D02*
X128910000Y-112535000D01*
X128910000Y-112535000D02*
X134105000Y-117730000D01*
X134105000Y-117730000D02*
X142207500Y-117730000D01*
X147687500Y-108737500D02*
X147700000Y-108750000D01*
X145950000Y-108737500D02*
X147687500Y-108737500D01*
X147447500Y-106462500D02*
X147700000Y-106210000D01*
X145950000Y-106462500D02*
X147447500Y-106462500D01*
X145162500Y-116600000D02*
X146450000Y-116600000D01*
G04 #@! TA.AperFunction,Conductor*
G36*
X143248775Y-103130185D02*
G01*
X143294530Y-103182989D01*
X143297918Y-103191167D01*
X143348702Y-103327328D01*
X143348703Y-103327329D01*
X143348704Y-103327331D01*
X143434952Y-103442543D01*
X143434955Y-103442547D01*
X143492310Y-103485482D01*
X143534182Y-103541415D01*
X143542000Y-103584749D01*
X143542000Y-103595249D01*
X143522315Y-103662288D01*
X143492312Y-103694515D01*
X143434957Y-103737451D01*
X143434951Y-103737457D01*
X143348706Y-103852664D01*
X143348702Y-103852671D01*
X143298408Y-103987517D01*
X143292001Y-104047116D01*
X143292000Y-104047135D01*
X143292000Y-105092870D01*
X143292001Y-105092876D01*
X143298408Y-105152483D01*
X143348702Y-105287328D01*
X143348703Y-105287329D01*
X143348704Y-105287331D01*
X143434952Y-105402543D01*
X143434955Y-105402547D01*
X143492310Y-105445482D01*
X143534182Y-105501415D01*
X143542000Y-105544749D01*
X143542000Y-105740668D01*
X143528485Y-105796962D01*
X143514352Y-105824698D01*
X143499500Y-105918475D01*
X143499500Y-106792324D01*
X143479815Y-106859363D01*
X143427011Y-106905118D01*
X143357853Y-106915062D01*
X143294297Y-106886037D01*
X143287819Y-106880005D01*
X141807316Y-105399502D01*
X141807314Y-105399500D01*
X141745937Y-105364064D01*
X141693187Y-105333608D01*
X141629539Y-105316554D01*
X141565892Y-105299500D01*
X126820892Y-105299500D01*
X126689107Y-105299500D01*
X126561812Y-105333608D01*
X126447686Y-105399500D01*
X126447683Y-105399502D01*
X126269042Y-105578143D01*
X126207719Y-105611628D01*
X126138027Y-105606644D01*
X126082094Y-105564772D01*
X126057677Y-105499308D01*
X126070361Y-105435190D01*
X126086616Y-105402547D01*
X126130582Y-105314250D01*
X126186397Y-105118083D01*
X126205215Y-104915000D01*
X126186397Y-104711917D01*
X126164142Y-104633700D01*
X126164728Y-104563834D01*
X126195725Y-104512087D01*
X127560995Y-103146819D01*
X127622318Y-103113334D01*
X127648676Y-103110500D01*
X143181736Y-103110500D01*
X143248775Y-103130185D01*
G37*
G04 #@! TD.AperFunction*
G04 #@! TA.AperFunction,Conductor*
G36*
X150442539Y-100530185D02*
G01*
X150488294Y-100582989D01*
X150499500Y-100634500D01*
X150499500Y-119376000D01*
X150479815Y-119443039D01*
X150427011Y-119488794D01*
X150375500Y-119500000D01*
X121624500Y-119500000D01*
X121557461Y-119480315D01*
X121511706Y-119427511D01*
X121500500Y-119376000D01*
X121500500Y-114200321D01*
X123999500Y-114200321D01*
X123999500Y-115949678D01*
X124014032Y-116022735D01*
X124014033Y-116022739D01*
X124027248Y-116042516D01*
X124069399Y-116105601D01*
X124152260Y-116160966D01*
X124152264Y-116160967D01*
X124225321Y-116175499D01*
X124225324Y-116175500D01*
X124225326Y-116175500D01*
X125974676Y-116175500D01*
X125974677Y-116175499D01*
X126047740Y-116160966D01*
X126130601Y-116105601D01*
X126185966Y-116022740D01*
X126200500Y-115949674D01*
X126200500Y-114200326D01*
X126200500Y-114200323D01*
X126200499Y-114200321D01*
X126185967Y-114127264D01*
X126185966Y-114127260D01*
X126130601Y-114044399D01*
X126047740Y-113989034D01*
X126047739Y-113989033D01*
X126047735Y-113989032D01*
X125974677Y-113974500D01*
X125974674Y-113974500D01*
X124225326Y-113974500D01*
X124225323Y-113974500D01*
X124152264Y-113989032D01*
X124152260Y-113989033D01*
X124069399Y-114044399D01*
X124014033Y-114127260D01*
X124014032Y-114127264D01*
X123999500Y-114200321D01*
X121500500Y-114200321D01*
X121500500Y-109744999D01*
X123769364Y-109744999D01*
X123769364Y-109745000D01*
X124666988Y-109745000D01*
X124634075Y-109802007D01*
X124600000Y-109929174D01*
X124600000Y-110060826D01*
X124634075Y-110187993D01*
X124666988Y-110245000D01*
X123769364Y-110245000D01*
X123826567Y-110458486D01*
X123826570Y-110458492D01*
X123926399Y-110672578D01*
X124061894Y-110866082D01*
X124228917Y-111033105D01*
X124422421Y-111168600D01*
X124636507Y-111268429D01*
X124636516Y-111268433D01*
X124675583Y-111278901D01*
X124735244Y-111315266D01*
X124765773Y-111378113D01*
X124757479Y-111447488D01*
X124712993Y-111501366D01*
X124688284Y-111514302D01*
X124607373Y-111545647D01*
X124607357Y-111545655D01*
X124433960Y-111653017D01*
X124433958Y-111653019D01*
X124283237Y-111790418D01*
X124160327Y-111953178D01*
X124069422Y-112135739D01*
X124069417Y-112135752D01*
X124013602Y-112331917D01*
X123994785Y-112534999D01*
X123994785Y-112535000D01*
X124013602Y-112738082D01*
X124069417Y-112934247D01*
X124069422Y-112934260D01*
X124160327Y-113116821D01*
X124283237Y-113279581D01*
X124433958Y-113416980D01*
X124433960Y-113416982D01*
X124444484Y-113423498D01*
X124607363Y-113524348D01*
X124797544Y-113598024D01*
X124998024Y-113635500D01*
X124998026Y-113635500D01*
X125201974Y-113635500D01*
X125201976Y-113635500D01*
X125402456Y-113598024D01*
X125592637Y-113524348D01*
X125766041Y-113416981D01*
X125916764Y-113279579D01*
X126039673Y-113116821D01*
X126045945Y-113104226D01*
X126093449Y-113052990D01*
X126156944Y-113035500D01*
X127045165Y-113035500D01*
X127112204Y-113055185D01*
X127135541Y-113076910D01*
X127136180Y-113076272D01*
X127142451Y-113082542D01*
X127142454Y-113082546D01*
X127171095Y-113103987D01*
X127257664Y-113168793D01*
X127257671Y-113168797D01*
X127392517Y-113219091D01*
X127392516Y-113219091D01*
X127399444Y-113219835D01*
X127452127Y-113225500D01*
X128447872Y-113225499D01*
X128507483Y-113219091D01*
X128642331Y-113168796D01*
X128667062Y-113150282D01*
X128732520Y-113125864D01*
X128800794Y-113140713D01*
X128829053Y-113161867D01*
X133704500Y-118037314D01*
X133797686Y-118130500D01*
X133911814Y-118196392D01*
X134039107Y-118230500D01*
X134039108Y-118230500D01*
X139245124Y-118230500D01*
X139292572Y-118239937D01*
X139356291Y-118266330D01*
X139452097Y-118278943D01*
X139499999Y-118285250D01*
X139500000Y-118285250D01*
X139500001Y-118285250D01*
X139535927Y-118280520D01*
X139643709Y-118266330D01*
X139707427Y-118239937D01*
X139754876Y-118230500D01*
X142273390Y-118230500D01*
X142273392Y-118230500D01*
X142400686Y-118196392D01*
X142514814Y-118130500D01*
X143058494Y-117586817D01*
X143119817Y-117553333D01*
X143146175Y-117550499D01*
X143647871Y-117550499D01*
X143647872Y-117550499D01*
X143707483Y-117544091D01*
X143842331Y-117493796D01*
X143957546Y-117407546D01*
X144043796Y-117292331D01*
X144094091Y-117157483D01*
X144100500Y-117097873D01*
X144100499Y-116102135D01*
X144399500Y-116102135D01*
X144399500Y-117097870D01*
X144399501Y-117097876D01*
X144405908Y-117157483D01*
X144456202Y-117292328D01*
X144456206Y-117292335D01*
X144542452Y-117407544D01*
X144542455Y-117407547D01*
X144657664Y-117493793D01*
X144657671Y-117493797D01*
X144702618Y-117510561D01*
X144792517Y-117544091D01*
X144852127Y-117550500D01*
X145472872Y-117550499D01*
X145532483Y-117544091D01*
X145667331Y-117493796D01*
X145782546Y-117407546D01*
X145868796Y-117292331D01*
X145876149Y-117272615D01*
X145910258Y-117181167D01*
X145952129Y-117125233D01*
X146017593Y-117100816D01*
X146026440Y-117100500D01*
X146195124Y-117100500D01*
X146242572Y-117109937D01*
X146306291Y-117136330D01*
X146402097Y-117148943D01*
X146449999Y-117155250D01*
X146450000Y-117155250D01*
X146450001Y-117155250D01*
X146464977Y-117153278D01*
X146593709Y-117136330D01*
X146727625Y-117080861D01*
X146842621Y-116992621D01*
X146930861Y-116877625D01*
X146986330Y-116743709D01*
X147005250Y-116600000D01*
X146986330Y-116456291D01*
X146930861Y-116322375D01*
X146842621Y-116207379D01*
X146727625Y-116119139D01*
X146727624Y-116119138D01*
X146727622Y-116119137D01*
X146593712Y-116063671D01*
X146593710Y-116063670D01*
X146593709Y-116063670D01*
X146521854Y-116054210D01*
X146450001Y-116044750D01*
X146449999Y-116044750D01*
X146306293Y-116063669D01*
X146289912Y-116070453D01*
X146242572Y-116090062D01*
X146195124Y-116099500D01*
X146026440Y-116099500D01*
X145959401Y-116079815D01*
X145913646Y-116027011D01*
X145910258Y-116018833D01*
X145868797Y-115907671D01*
X145868793Y-115907664D01*
X145782547Y-115792455D01*
X145782544Y-115792452D01*
X145667335Y-115706206D01*
X145667328Y-115706202D01*
X145532486Y-115655910D01*
X145532485Y-115655909D01*
X145532483Y-115655909D01*
X145472873Y-115649500D01*
X145472863Y-115649500D01*
X144852129Y-115649500D01*
X144852123Y-115649501D01*
X144792516Y-115655908D01*
X144657671Y-115706202D01*
X144657664Y-115706206D01*
X144542455Y-115792452D01*
X144542452Y-115792455D01*
X144456206Y-115907664D01*
X144456202Y-115907671D01*
X144405908Y-116042517D01*
X144400797Y-116090062D01*
X144399501Y-116102123D01*
X144399500Y-116102135D01*
X144100499Y-116102135D01*
X144100499Y-116102128D01*
X144094091Y-116042517D01*
X144086714Y-116022739D01*
X144043797Y-115907671D01*
X144043793Y-115907664D01*
X143957547Y-115792455D01*
X143957544Y-115792452D01*
X143842335Y-115706206D01*
X143842328Y-115706202D01*
X143707486Y-115655910D01*
X143707485Y-115655909D01*
X143707483Y-115655909D01*
X143647873Y-115649500D01*
X143647863Y-115649500D01*
X143027129Y-115649500D01*
X143027123Y-115649501D01*
X142967516Y-115655908D01*
X142832671Y-115706202D01*
X142832664Y-115706206D01*
X142717455Y-115792452D01*
X142717452Y-115792455D01*
X142631206Y-115907664D01*
X142631202Y-115907671D01*
X142580908Y-116042517D01*
X142575797Y-116090062D01*
X142574501Y-116102123D01*
X142574500Y-116102135D01*
X142574500Y-116603824D01*
X142554815Y-116670863D01*
X142538181Y-116691505D01*
X142036505Y-117193181D01*
X141975182Y-117226666D01*
X141948824Y-117229500D01*
X139754876Y-117229500D01*
X139707427Y-117220062D01*
X139643709Y-117193670D01*
X139643708Y-117193669D01*
X139643706Y-117193669D01*
X139500001Y-117174750D01*
X139499999Y-117174750D01*
X139356293Y-117193669D01*
X139356291Y-117193670D01*
X139292572Y-117220062D01*
X139245124Y-117229500D01*
X134363676Y-117229500D01*
X134296637Y-117209815D01*
X134275995Y-117193181D01*
X130912813Y-113829999D01*
X146433179Y-113829999D01*
X146433179Y-113830000D01*
X146452424Y-114049976D01*
X146452426Y-114049986D01*
X146509575Y-114263270D01*
X146509580Y-114263284D01*
X146602898Y-114463405D01*
X146602901Y-114463411D01*
X146648258Y-114528187D01*
X146648258Y-114528188D01*
X147210504Y-113965941D01*
X147226619Y-114026081D01*
X147293498Y-114141920D01*
X147388080Y-114236502D01*
X147503919Y-114303381D01*
X147564057Y-114319494D01*
X147001810Y-114881740D01*
X147066590Y-114927099D01*
X147066592Y-114927100D01*
X147266715Y-115020419D01*
X147266729Y-115020424D01*
X147480013Y-115077573D01*
X147480023Y-115077575D01*
X147699999Y-115096821D01*
X147700001Y-115096821D01*
X147919976Y-115077575D01*
X147919986Y-115077573D01*
X148133270Y-115020424D01*
X148133284Y-115020419D01*
X148333407Y-114927100D01*
X148333417Y-114927094D01*
X148398188Y-114881741D01*
X147835942Y-114319494D01*
X147896081Y-114303381D01*
X148011920Y-114236502D01*
X148106502Y-114141920D01*
X148173381Y-114026081D01*
X148189495Y-113965942D01*
X148751741Y-114528188D01*
X148797094Y-114463417D01*
X148797100Y-114463407D01*
X148890419Y-114263284D01*
X148890424Y-114263270D01*
X148947573Y-114049986D01*
X148947575Y-114049976D01*
X148966821Y-113830000D01*
X148966821Y-113829999D01*
X148947575Y-113610023D01*
X148947573Y-113610013D01*
X148890424Y-113396729D01*
X148890420Y-113396720D01*
X148797096Y-113196586D01*
X148751741Y-113131811D01*
X148751740Y-113131810D01*
X148189494Y-113694056D01*
X148173381Y-113633919D01*
X148106502Y-113518080D01*
X148011920Y-113423498D01*
X147896081Y-113356619D01*
X147835941Y-113340504D01*
X148398188Y-112778258D01*
X148333411Y-112732901D01*
X148333405Y-112732898D01*
X148133284Y-112639580D01*
X148133270Y-112639575D01*
X147919986Y-112582426D01*
X147919976Y-112582424D01*
X147700001Y-112563179D01*
X147699999Y-112563179D01*
X147480023Y-112582424D01*
X147480013Y-112582426D01*
X147266729Y-112639575D01*
X147266720Y-112639579D01*
X147066590Y-112732901D01*
X147001811Y-112778258D01*
X147564058Y-113340504D01*
X147503919Y-113356619D01*
X147388080Y-113423498D01*
X147293498Y-113518080D01*
X147226619Y-113633919D01*
X147210504Y-113694057D01*
X146648258Y-113131811D01*
X146602901Y-113196590D01*
X146509579Y-113396720D01*
X146509575Y-113396729D01*
X146452426Y-113610013D01*
X146452424Y-113610023D01*
X146433179Y-113829999D01*
X130912813Y-113829999D01*
X129217316Y-112134502D01*
X129217314Y-112134500D01*
X129160250Y-112101554D01*
X129103187Y-112068608D01*
X129039539Y-112051554D01*
X128975892Y-112034500D01*
X128975891Y-112034500D01*
X128958548Y-112034500D01*
X128891509Y-112014815D01*
X128848515Y-111965198D01*
X128848047Y-111965454D01*
X128846870Y-111963299D01*
X128845754Y-111962011D01*
X128844455Y-111958877D01*
X128843793Y-111957664D01*
X128757547Y-111842455D01*
X128696157Y-111796498D01*
X128654287Y-111740564D01*
X128649303Y-111670872D01*
X128682789Y-111609550D01*
X128713090Y-111588335D01*
X128712975Y-111588149D01*
X128716189Y-111586166D01*
X128718081Y-111584842D01*
X128719126Y-111584354D01*
X128868345Y-111492315D01*
X128992315Y-111368345D01*
X129084356Y-111219124D01*
X129084358Y-111219119D01*
X129139505Y-111052697D01*
X129139506Y-111052690D01*
X129149999Y-110949986D01*
X129150000Y-110949973D01*
X129150000Y-110887500D01*
X126750001Y-110887500D01*
X126750001Y-110949986D01*
X126760494Y-111052697D01*
X126815641Y-111219119D01*
X126815643Y-111219124D01*
X126907684Y-111368345D01*
X127031654Y-111492315D01*
X127180877Y-111584356D01*
X127181924Y-111584845D01*
X127182522Y-111585371D01*
X127187025Y-111588149D01*
X127186550Y-111588917D01*
X127234368Y-111631012D01*
X127253526Y-111698204D01*
X127233317Y-111765087D01*
X127203842Y-111796498D01*
X127142452Y-111842455D01*
X127056206Y-111957664D01*
X127051953Y-111965454D01*
X127049811Y-111964284D01*
X127015757Y-112009771D01*
X126950291Y-112034185D01*
X126941452Y-112034500D01*
X126156944Y-112034500D01*
X126089905Y-112014815D01*
X126045945Y-111965774D01*
X126039673Y-111953178D01*
X125916762Y-111790418D01*
X125766041Y-111653019D01*
X125766039Y-111653017D01*
X125592642Y-111545655D01*
X125592635Y-111545651D01*
X125511715Y-111514303D01*
X125456313Y-111471730D01*
X125432723Y-111405963D01*
X125448434Y-111337883D01*
X125498458Y-111289104D01*
X125524417Y-111278901D01*
X125563481Y-111268434D01*
X125563492Y-111268429D01*
X125777578Y-111168600D01*
X125971082Y-111033105D01*
X126138105Y-110866082D01*
X126273600Y-110672578D01*
X126373429Y-110458492D01*
X126373432Y-110458486D01*
X126409196Y-110325013D01*
X126750000Y-110325013D01*
X126750000Y-110387500D01*
X127700000Y-110387500D01*
X128200000Y-110387500D01*
X129149999Y-110387500D01*
X129149999Y-110325028D01*
X129149998Y-110325013D01*
X129139505Y-110222302D01*
X129084358Y-110055880D01*
X129084356Y-110055875D01*
X128992315Y-109906654D01*
X128868345Y-109782684D01*
X128719124Y-109690643D01*
X128719119Y-109690641D01*
X128552697Y-109635494D01*
X128552690Y-109635493D01*
X128449986Y-109625000D01*
X128200000Y-109625000D01*
X128200000Y-110387500D01*
X127700000Y-110387500D01*
X127700000Y-109625000D01*
X127450029Y-109625000D01*
X127450012Y-109625001D01*
X127347302Y-109635494D01*
X127180880Y-109690641D01*
X127180875Y-109690643D01*
X127031654Y-109782684D01*
X126907684Y-109906654D01*
X126815643Y-110055875D01*
X126815641Y-110055880D01*
X126760494Y-110222302D01*
X126760493Y-110222309D01*
X126750000Y-110325013D01*
X126409196Y-110325013D01*
X126430636Y-110245000D01*
X125533012Y-110245000D01*
X125565925Y-110187993D01*
X125600000Y-110060826D01*
X125600000Y-109929174D01*
X125565925Y-109802007D01*
X125533012Y-109745000D01*
X126430636Y-109745000D01*
X126430635Y-109744999D01*
X126373432Y-109531513D01*
X126373429Y-109531507D01*
X126273600Y-109317422D01*
X126273599Y-109317420D01*
X126138113Y-109123926D01*
X126138108Y-109123920D01*
X125971082Y-108956894D01*
X125777578Y-108821399D01*
X125563492Y-108721570D01*
X125563477Y-108721564D01*
X125524414Y-108711097D01*
X125464754Y-108674732D01*
X125434226Y-108611885D01*
X125442521Y-108542509D01*
X125487007Y-108488632D01*
X125511710Y-108475698D01*
X125592637Y-108444348D01*
X125766041Y-108336981D01*
X125916764Y-108199579D01*
X126039673Y-108036821D01*
X126130582Y-107854250D01*
X126186397Y-107658083D01*
X126205215Y-107455000D01*
X126186397Y-107251917D01*
X126167464Y-107185375D01*
X126168050Y-107115513D01*
X126199047Y-107063765D01*
X126925995Y-106336819D01*
X126987318Y-106303334D01*
X127013676Y-106300500D01*
X134393863Y-106300500D01*
X134460902Y-106320185D01*
X134506657Y-106372989D01*
X134516601Y-106442147D01*
X134487576Y-106505703D01*
X134442763Y-106538451D01*
X134326502Y-106588342D01*
X133989941Y-106775149D01*
X133989936Y-106775152D01*
X133673994Y-106995053D01*
X133381926Y-107245786D01*
X133116714Y-107524790D01*
X132881099Y-107829180D01*
X132677487Y-108155844D01*
X132677482Y-108155853D01*
X132507963Y-108501439D01*
X132507957Y-108501454D01*
X132374273Y-108862411D01*
X132277785Y-109235070D01*
X132219496Y-109615559D01*
X132200000Y-110000000D01*
X132219496Y-110384440D01*
X132271632Y-110724763D01*
X132277786Y-110764934D01*
X132352291Y-111052690D01*
X132374273Y-111137588D01*
X132507957Y-111498545D01*
X132507963Y-111498560D01*
X132677482Y-111844146D01*
X132677487Y-111844155D01*
X132881099Y-112170819D01*
X132926870Y-112229951D01*
X133116719Y-112475215D01*
X133366592Y-112738082D01*
X133381926Y-112754213D01*
X133673994Y-113004946D01*
X133673997Y-113004948D01*
X133989937Y-113224848D01*
X134326502Y-113411657D01*
X134680240Y-113563458D01*
X134680250Y-113563461D01*
X134680255Y-113563463D01*
X135047509Y-113678690D01*
X135047512Y-113678690D01*
X135047520Y-113678693D01*
X135424574Y-113756180D01*
X135730941Y-113787334D01*
X135807532Y-113795123D01*
X135807533Y-113795123D01*
X136192468Y-113795123D01*
X136256293Y-113788632D01*
X136575426Y-113756180D01*
X136952480Y-113678693D01*
X137319760Y-113563458D01*
X137673498Y-113411657D01*
X138010063Y-113224848D01*
X138326003Y-113004948D01*
X138618074Y-112754213D01*
X138883281Y-112475215D01*
X139118901Y-112170819D01*
X139322517Y-111844147D01*
X139492040Y-111498552D01*
X139625729Y-111137580D01*
X139722214Y-110764934D01*
X139780503Y-110384440D01*
X139800000Y-110000000D01*
X139780503Y-109615560D01*
X139777496Y-109595934D01*
X139755818Y-109454424D01*
X139722214Y-109235066D01*
X139625729Y-108862420D01*
X139492040Y-108501448D01*
X139485753Y-108488632D01*
X139322517Y-108155853D01*
X139322512Y-108155844D01*
X139196654Y-107953925D01*
X139118901Y-107829181D01*
X138883281Y-107524785D01*
X138618074Y-107245787D01*
X138596655Y-107227399D01*
X138326005Y-106995053D01*
X138010063Y-106775152D01*
X138010058Y-106775149D01*
X137673497Y-106588342D01*
X137557237Y-106538451D01*
X137503393Y-106493924D01*
X137482170Y-106427356D01*
X137500305Y-106359881D01*
X137552042Y-106312922D01*
X137606137Y-106300500D01*
X141241324Y-106300500D01*
X141308363Y-106320185D01*
X141329005Y-106336819D01*
X143463181Y-108470995D01*
X143496666Y-108532318D01*
X143499500Y-108558676D01*
X143499500Y-109281517D01*
X143514354Y-109375304D01*
X143545985Y-109437382D01*
X143559500Y-109493677D01*
X143559500Y-109640892D01*
X143539815Y-109707931D01*
X143509812Y-109740158D01*
X143439952Y-109792455D01*
X143353706Y-109907664D01*
X143353702Y-109907671D01*
X143303408Y-110042517D01*
X143297001Y-110102116D01*
X143297000Y-110102135D01*
X143297000Y-111097870D01*
X143297001Y-111097876D01*
X143303408Y-111157483D01*
X143353702Y-111292328D01*
X143353706Y-111292335D01*
X143439952Y-111407544D01*
X143439955Y-111407547D01*
X143555164Y-111493793D01*
X143555171Y-111493797D01*
X143575465Y-111501366D01*
X143690017Y-111544091D01*
X143749627Y-111550500D01*
X144370372Y-111550499D01*
X144429983Y-111544091D01*
X144564831Y-111493796D01*
X144680046Y-111407546D01*
X144726002Y-111346156D01*
X144781934Y-111304287D01*
X144851625Y-111299303D01*
X144912948Y-111332788D01*
X144934165Y-111363089D01*
X144934351Y-111362975D01*
X144936319Y-111366166D01*
X144937651Y-111368068D01*
X144938142Y-111369121D01*
X145030184Y-111518345D01*
X145154154Y-111642315D01*
X145303375Y-111734356D01*
X145303380Y-111734358D01*
X145469802Y-111789505D01*
X145469809Y-111789506D01*
X145572519Y-111799999D01*
X145634999Y-111799998D01*
X145635000Y-111799998D01*
X145635000Y-110724000D01*
X145654685Y-110656961D01*
X145707489Y-110611206D01*
X145759000Y-110600000D01*
X146011000Y-110600000D01*
X146078039Y-110619685D01*
X146123794Y-110672489D01*
X146135000Y-110724000D01*
X146135000Y-111799999D01*
X146197472Y-111799999D01*
X146197486Y-111799998D01*
X146300197Y-111789505D01*
X146466619Y-111734358D01*
X146466626Y-111734355D01*
X146597134Y-111653856D01*
X146664527Y-111635415D01*
X146731190Y-111656337D01*
X146771590Y-111700941D01*
X146854059Y-111855231D01*
X146854065Y-111855238D01*
X146980589Y-112009410D01*
X147011162Y-112034500D01*
X147134763Y-112135936D01*
X147134766Y-112135937D01*
X147134768Y-112135939D01*
X147310651Y-112229951D01*
X147310654Y-112229951D01*
X147310658Y-112229954D01*
X147501515Y-112287850D01*
X147700000Y-112307399D01*
X147898485Y-112287850D01*
X148089342Y-112229954D01*
X148265237Y-112135936D01*
X148419410Y-112009410D01*
X148545936Y-111855237D01*
X148639954Y-111679342D01*
X148697850Y-111488485D01*
X148717399Y-111290000D01*
X148697850Y-111091515D01*
X148639954Y-110900658D01*
X148639951Y-110900654D01*
X148639951Y-110900651D01*
X148545939Y-110724768D01*
X148545937Y-110724766D01*
X148545936Y-110724763D01*
X148490293Y-110656961D01*
X148419410Y-110570589D01*
X148265238Y-110444065D01*
X148265231Y-110444060D01*
X148089348Y-110350048D01*
X148089342Y-110350046D01*
X147898485Y-110292150D01*
X147898483Y-110292149D01*
X147898481Y-110292149D01*
X147700000Y-110272601D01*
X147501518Y-110292149D01*
X147310651Y-110350048D01*
X147134768Y-110444060D01*
X147134762Y-110444064D01*
X147100163Y-110472459D01*
X147035853Y-110499771D01*
X146966986Y-110487980D01*
X146915426Y-110440827D01*
X146897499Y-110376605D01*
X146897499Y-110100028D01*
X146897498Y-110100013D01*
X146887005Y-109997302D01*
X146831858Y-109830880D01*
X146831856Y-109830875D01*
X146739815Y-109681654D01*
X146615845Y-109557684D01*
X146540969Y-109511500D01*
X146494244Y-109459552D01*
X146483023Y-109390589D01*
X146484276Y-109384968D01*
X146484120Y-109384944D01*
X146490826Y-109342603D01*
X146520755Y-109279468D01*
X146580066Y-109242536D01*
X146613299Y-109238000D01*
X146738457Y-109238000D01*
X146805496Y-109257685D01*
X146847816Y-109303549D01*
X146854060Y-109315231D01*
X146854065Y-109315238D01*
X146980589Y-109469410D01*
X147056263Y-109531513D01*
X147134763Y-109595936D01*
X147134766Y-109595937D01*
X147134768Y-109595939D01*
X147310651Y-109689951D01*
X147310654Y-109689951D01*
X147310658Y-109689954D01*
X147501515Y-109747850D01*
X147700000Y-109767399D01*
X147898485Y-109747850D01*
X148089342Y-109689954D01*
X148265237Y-109595936D01*
X148419410Y-109469410D01*
X148545936Y-109315237D01*
X148639954Y-109139342D01*
X148697850Y-108948485D01*
X148717399Y-108750000D01*
X148697850Y-108551515D01*
X148639954Y-108360658D01*
X148639951Y-108360654D01*
X148639951Y-108360651D01*
X148545939Y-108184768D01*
X148545937Y-108184766D01*
X148545936Y-108184763D01*
X148476126Y-108099699D01*
X148419410Y-108030589D01*
X148265238Y-107904065D01*
X148265231Y-107904060D01*
X148089348Y-107810048D01*
X148089342Y-107810046D01*
X147898485Y-107752150D01*
X147898483Y-107752149D01*
X147898481Y-107752149D01*
X147700000Y-107732601D01*
X147501518Y-107752149D01*
X147310651Y-107810048D01*
X147134768Y-107904060D01*
X147134761Y-107904065D01*
X146980589Y-108030589D01*
X146850199Y-108189472D01*
X146848538Y-108188108D01*
X146802382Y-108226691D01*
X146752881Y-108237000D01*
X146613299Y-108237000D01*
X146546260Y-108217315D01*
X146500505Y-108164511D01*
X146490826Y-108132398D01*
X146485647Y-108099699D01*
X146485646Y-108099697D01*
X146485646Y-108099696D01*
X146428050Y-107986658D01*
X146428046Y-107986654D01*
X146428045Y-107986652D01*
X146338347Y-107896954D01*
X146338344Y-107896952D01*
X146338342Y-107896950D01*
X146254533Y-107854247D01*
X146225301Y-107839352D01*
X146131524Y-107824500D01*
X145768482Y-107824500D01*
X145687519Y-107837323D01*
X145674696Y-107839354D01*
X145561658Y-107896950D01*
X145561657Y-107896951D01*
X145561652Y-107896954D01*
X145471954Y-107986652D01*
X145471951Y-107986657D01*
X145414352Y-108099698D01*
X145399500Y-108193475D01*
X145399500Y-109281519D01*
X145405945Y-109322212D01*
X145396988Y-109391505D01*
X145351991Y-109444956D01*
X145322479Y-109459312D01*
X145303379Y-109465641D01*
X145154154Y-109557684D01*
X145030184Y-109681654D01*
X144938137Y-109830885D01*
X144937648Y-109831936D01*
X144937120Y-109832535D01*
X144934351Y-109837025D01*
X144933583Y-109836551D01*
X144891475Y-109884375D01*
X144824282Y-109903526D01*
X144757401Y-109883309D01*
X144726001Y-109853841D01*
X144680047Y-109792455D01*
X144610188Y-109740158D01*
X144568318Y-109684224D01*
X144560500Y-109640892D01*
X144560500Y-109454424D01*
X144574015Y-109398130D01*
X144585646Y-109375304D01*
X144600500Y-109281519D01*
X144600499Y-108193482D01*
X144585646Y-108099696D01*
X144528050Y-107986658D01*
X144528046Y-107986654D01*
X144528045Y-107986652D01*
X144438347Y-107896954D01*
X144438344Y-107896952D01*
X144438342Y-107896950D01*
X144325304Y-107839354D01*
X144325302Y-107839353D01*
X144325301Y-107839353D01*
X144272255Y-107830951D01*
X144209121Y-107801021D01*
X144203973Y-107796159D01*
X143994994Y-107587180D01*
X143961509Y-107525857D01*
X143966493Y-107456165D01*
X144008365Y-107400232D01*
X144073829Y-107375815D01*
X144082663Y-107375499D01*
X144231518Y-107375499D01*
X144255218Y-107371745D01*
X144324509Y-107380698D01*
X144362299Y-107406537D01*
X144448442Y-107492681D01*
X144448447Y-107492685D01*
X144589801Y-107576281D01*
X144747514Y-107622100D01*
X144747511Y-107622100D01*
X144749998Y-107622295D01*
X144750000Y-107622295D01*
X144750000Y-106586500D01*
X144769685Y-106519461D01*
X144822489Y-106473706D01*
X144874000Y-106462500D01*
X145126000Y-106462500D01*
X145193039Y-106482185D01*
X145238794Y-106534989D01*
X145250000Y-106586500D01*
X145250000Y-107622295D01*
X145250001Y-107622295D01*
X145252486Y-107622100D01*
X145410198Y-107576281D01*
X145551552Y-107492685D01*
X145551557Y-107492681D01*
X145637700Y-107406538D01*
X145699023Y-107373053D01*
X145744779Y-107371746D01*
X145768481Y-107375500D01*
X146131518Y-107375499D01*
X146225304Y-107360646D01*
X146338342Y-107303050D01*
X146428050Y-107213342D01*
X146485646Y-107100304D01*
X146485646Y-107100302D01*
X146485647Y-107100301D01*
X146485647Y-107100300D01*
X146490826Y-107067603D01*
X146520755Y-107004468D01*
X146580066Y-106967536D01*
X146613299Y-106963000D01*
X146977152Y-106963000D01*
X147044191Y-106982685D01*
X147055817Y-106991147D01*
X147134761Y-107055935D01*
X147134768Y-107055939D01*
X147310651Y-107149951D01*
X147310654Y-107149951D01*
X147310658Y-107149954D01*
X147501515Y-107207850D01*
X147700000Y-107227399D01*
X147898485Y-107207850D01*
X148089342Y-107149954D01*
X148153777Y-107115513D01*
X148182238Y-107100300D01*
X148265237Y-107055936D01*
X148419410Y-106929410D01*
X148545936Y-106775237D01*
X148639954Y-106599342D01*
X148697850Y-106408485D01*
X148717399Y-106210000D01*
X148697850Y-106011515D01*
X148639954Y-105820658D01*
X148639951Y-105820654D01*
X148639951Y-105820651D01*
X148545939Y-105644768D01*
X148545937Y-105644766D01*
X148545936Y-105644763D01*
X148491263Y-105578143D01*
X148419410Y-105490589D01*
X148265238Y-105364065D01*
X148265231Y-105364060D01*
X148089348Y-105270048D01*
X148089342Y-105270046D01*
X147898485Y-105212150D01*
X147898483Y-105212149D01*
X147898481Y-105212149D01*
X147700000Y-105192601D01*
X147501518Y-105212149D01*
X147310651Y-105270048D01*
X147134768Y-105364060D01*
X147134762Y-105364063D01*
X147111647Y-105383034D01*
X147047337Y-105410346D01*
X146978470Y-105398553D01*
X146926910Y-105351400D01*
X146909028Y-105283857D01*
X146915278Y-105248174D01*
X146932005Y-105197694D01*
X146932006Y-105197690D01*
X146942499Y-105094986D01*
X146942500Y-105094973D01*
X146942500Y-104820000D01*
X146066500Y-104820000D01*
X145999461Y-104800315D01*
X145953706Y-104747511D01*
X145942500Y-104696000D01*
X145942500Y-104570000D01*
X145816500Y-104570000D01*
X145749461Y-104550315D01*
X145703706Y-104497511D01*
X145692500Y-104446000D01*
X145692500Y-104320000D01*
X146192500Y-104320000D01*
X146942499Y-104320000D01*
X146942499Y-104045028D01*
X146942498Y-104045013D01*
X146932005Y-103942302D01*
X146876858Y-103775880D01*
X146876856Y-103775875D01*
X146802359Y-103655097D01*
X146783919Y-103587705D01*
X146802359Y-103524903D01*
X146876856Y-103404124D01*
X146876858Y-103404119D01*
X146932005Y-103237697D01*
X146932006Y-103237690D01*
X146942499Y-103134986D01*
X146942500Y-103134973D01*
X146942500Y-102860000D01*
X146192500Y-102860000D01*
X146192500Y-104320000D01*
X145692500Y-104320000D01*
X145692500Y-102360000D01*
X146192500Y-102360000D01*
X146942499Y-102360000D01*
X146942499Y-102085028D01*
X146942498Y-102085013D01*
X146932005Y-101982302D01*
X146876858Y-101815880D01*
X146876856Y-101815875D01*
X146784815Y-101666654D01*
X146660845Y-101542684D01*
X146511624Y-101450643D01*
X146511619Y-101450641D01*
X146345197Y-101395494D01*
X146345190Y-101395493D01*
X146242486Y-101385000D01*
X146192500Y-101385000D01*
X146192500Y-102360000D01*
X145692500Y-102360000D01*
X145692500Y-101385000D01*
X145692499Y-101384999D01*
X145642529Y-101385000D01*
X145642511Y-101385001D01*
X145539802Y-101395494D01*
X145373380Y-101450641D01*
X145373375Y-101450643D01*
X145224154Y-101542684D01*
X145100184Y-101666654D01*
X145008143Y-101815875D01*
X145008142Y-101815878D01*
X144977569Y-101908141D01*
X144937796Y-101965585D01*
X144873280Y-101992408D01*
X144804504Y-101980093D01*
X144753304Y-101932549D01*
X144743681Y-101912468D01*
X144736298Y-101892673D01*
X144736293Y-101892664D01*
X144650047Y-101777455D01*
X144650044Y-101777452D01*
X144534835Y-101691206D01*
X144534828Y-101691202D01*
X144399986Y-101640910D01*
X144399985Y-101640909D01*
X144399983Y-101640909D01*
X144340373Y-101634500D01*
X144340363Y-101634500D01*
X143744629Y-101634500D01*
X143744623Y-101634501D01*
X143685016Y-101640908D01*
X143550171Y-101691202D01*
X143550164Y-101691206D01*
X143434955Y-101777452D01*
X143434952Y-101777455D01*
X143348706Y-101892664D01*
X143348702Y-101892671D01*
X143297918Y-102028833D01*
X143256047Y-102084767D01*
X143190583Y-102109184D01*
X143181736Y-102109500D01*
X127324108Y-102109500D01*
X127196812Y-102143608D01*
X127082686Y-102209500D01*
X127082683Y-102209502D01*
X125480480Y-103811704D01*
X125419157Y-103845189D01*
X125370016Y-103845911D01*
X125201976Y-103814500D01*
X124998024Y-103814500D01*
X124797544Y-103851976D01*
X124797541Y-103851976D01*
X124797541Y-103851977D01*
X124607364Y-103925651D01*
X124607357Y-103925655D01*
X124433960Y-104033017D01*
X124433958Y-104033019D01*
X124283237Y-104170418D01*
X124160327Y-104333178D01*
X124069422Y-104515739D01*
X124069417Y-104515752D01*
X124013602Y-104711917D01*
X123994785Y-104914999D01*
X123994785Y-104915000D01*
X124013602Y-105118082D01*
X124069417Y-105314247D01*
X124069422Y-105314260D01*
X124160327Y-105496821D01*
X124283237Y-105659581D01*
X124433958Y-105796980D01*
X124433960Y-105796982D01*
X124533141Y-105858392D01*
X124607363Y-105904348D01*
X124797544Y-105978024D01*
X124998024Y-106015500D01*
X124998026Y-106015500D01*
X125201974Y-106015500D01*
X125201976Y-106015500D01*
X125402456Y-105978024D01*
X125592637Y-105904348D01*
X125603490Y-105897627D01*
X125670846Y-105879070D01*
X125737547Y-105899875D01*
X125782410Y-105953438D01*
X125791194Y-106022754D01*
X125761108Y-106085814D01*
X125756450Y-106090734D01*
X125493118Y-106354066D01*
X125431795Y-106387551D01*
X125382652Y-106388274D01*
X125201976Y-106354500D01*
X124998024Y-106354500D01*
X124797544Y-106391976D01*
X124797541Y-106391976D01*
X124797541Y-106391977D01*
X124607364Y-106465651D01*
X124607357Y-106465655D01*
X124433960Y-106573017D01*
X124433958Y-106573019D01*
X124283237Y-106710418D01*
X124160327Y-106873178D01*
X124069422Y-107055739D01*
X124069417Y-107055752D01*
X124013602Y-107251917D01*
X123994785Y-107454999D01*
X123994785Y-107455000D01*
X124013602Y-107658082D01*
X124069417Y-107854247D01*
X124069422Y-107854260D01*
X124160327Y-108036821D01*
X124283237Y-108199581D01*
X124433958Y-108336980D01*
X124433960Y-108336982D01*
X124533141Y-108398392D01*
X124607363Y-108444348D01*
X124688283Y-108475696D01*
X124743685Y-108518269D01*
X124767276Y-108584035D01*
X124751565Y-108652116D01*
X124701542Y-108700895D01*
X124675586Y-108711097D01*
X124636519Y-108721565D01*
X124636507Y-108721570D01*
X124422422Y-108821399D01*
X124422420Y-108821400D01*
X124228926Y-108956886D01*
X124228920Y-108956891D01*
X124061891Y-109123920D01*
X124061886Y-109123926D01*
X123926400Y-109317420D01*
X123926399Y-109317422D01*
X123826570Y-109531507D01*
X123826567Y-109531513D01*
X123769364Y-109744999D01*
X121500500Y-109744999D01*
X121500500Y-100634500D01*
X121520185Y-100567461D01*
X121572989Y-100521706D01*
X121624500Y-100510500D01*
X150375500Y-100510500D01*
X150442539Y-100530185D01*
G37*
G04 #@! TD.AperFunction*
M02*
