%TF.GenerationSoftware,KiCad,Pcbnew,8.0.7*%
%TF.CreationDate,2025-01-24T14:27:28+01:00*%
%TF.ProjectId,GateDriverControlTransmitter,47617465-4472-4697-9665-72436f6e7472,rev?*%
%TF.SameCoordinates,Original*%
%TF.FileFunction,Drillmap*%
%TF.FilePolarity,Positive*%
%FSLAX45Y45*%
G04 Gerber Fmt 4.5, Leading zero omitted, Abs format (unit mm)*
G04 Created by KiCad (PCBNEW 8.0.7) date 2025-01-24 14:27:28*
%MOMM*%
%LPD*%
G01*
G04 APERTURE LIST*
%ADD10C,0.050000*%
%ADD11C,0.200000*%
%ADD12C,0.320000*%
G04 APERTURE END LIST*
D10*
X12100000Y-10001000D02*
X15100000Y-10001000D01*
X15100000Y-12001000D01*
X12100000Y-12001000D01*
X12100000Y-10001000D01*
D11*
D12*
X13440000Y-10840000D02*
X13760000Y-11160000D01*
X13760000Y-10840000D02*
X13440000Y-11160000D01*
D11*
X12358277Y-12314984D02*
X12358277Y-12114984D01*
X12358277Y-12114984D02*
X12405896Y-12114984D01*
X12405896Y-12114984D02*
X12434467Y-12124508D01*
X12434467Y-12124508D02*
X12453515Y-12143555D01*
X12453515Y-12143555D02*
X12463039Y-12162603D01*
X12463039Y-12162603D02*
X12472562Y-12200698D01*
X12472562Y-12200698D02*
X12472562Y-12229269D01*
X12472562Y-12229269D02*
X12463039Y-12267365D01*
X12463039Y-12267365D02*
X12453515Y-12286412D01*
X12453515Y-12286412D02*
X12434467Y-12305460D01*
X12434467Y-12305460D02*
X12405896Y-12314984D01*
X12405896Y-12314984D02*
X12358277Y-12314984D01*
X12558277Y-12314984D02*
X12558277Y-12181650D01*
X12558277Y-12219746D02*
X12567801Y-12200698D01*
X12567801Y-12200698D02*
X12577324Y-12191174D01*
X12577324Y-12191174D02*
X12596372Y-12181650D01*
X12596372Y-12181650D02*
X12615420Y-12181650D01*
X12682086Y-12314984D02*
X12682086Y-12181650D01*
X12682086Y-12114984D02*
X12672562Y-12124508D01*
X12672562Y-12124508D02*
X12682086Y-12134031D01*
X12682086Y-12134031D02*
X12691610Y-12124508D01*
X12691610Y-12124508D02*
X12682086Y-12114984D01*
X12682086Y-12114984D02*
X12682086Y-12134031D01*
X12805896Y-12314984D02*
X12786848Y-12305460D01*
X12786848Y-12305460D02*
X12777324Y-12286412D01*
X12777324Y-12286412D02*
X12777324Y-12114984D01*
X12910658Y-12314984D02*
X12891610Y-12305460D01*
X12891610Y-12305460D02*
X12882086Y-12286412D01*
X12882086Y-12286412D02*
X12882086Y-12114984D01*
X13139229Y-12314984D02*
X13139229Y-12114984D01*
X13139229Y-12114984D02*
X13205896Y-12257841D01*
X13205896Y-12257841D02*
X13272562Y-12114984D01*
X13272562Y-12114984D02*
X13272562Y-12314984D01*
X13453515Y-12314984D02*
X13453515Y-12210222D01*
X13453515Y-12210222D02*
X13443991Y-12191174D01*
X13443991Y-12191174D02*
X13424943Y-12181650D01*
X13424943Y-12181650D02*
X13386848Y-12181650D01*
X13386848Y-12181650D02*
X13367801Y-12191174D01*
X13453515Y-12305460D02*
X13434467Y-12314984D01*
X13434467Y-12314984D02*
X13386848Y-12314984D01*
X13386848Y-12314984D02*
X13367801Y-12305460D01*
X13367801Y-12305460D02*
X13358277Y-12286412D01*
X13358277Y-12286412D02*
X13358277Y-12267365D01*
X13358277Y-12267365D02*
X13367801Y-12248317D01*
X13367801Y-12248317D02*
X13386848Y-12238793D01*
X13386848Y-12238793D02*
X13434467Y-12238793D01*
X13434467Y-12238793D02*
X13453515Y-12229269D01*
X13548753Y-12181650D02*
X13548753Y-12381650D01*
X13548753Y-12191174D02*
X13567801Y-12181650D01*
X13567801Y-12181650D02*
X13605896Y-12181650D01*
X13605896Y-12181650D02*
X13624943Y-12191174D01*
X13624943Y-12191174D02*
X13634467Y-12200698D01*
X13634467Y-12200698D02*
X13643991Y-12219746D01*
X13643991Y-12219746D02*
X13643991Y-12276888D01*
X13643991Y-12276888D02*
X13634467Y-12295936D01*
X13634467Y-12295936D02*
X13624943Y-12305460D01*
X13624943Y-12305460D02*
X13605896Y-12314984D01*
X13605896Y-12314984D02*
X13567801Y-12314984D01*
X13567801Y-12314984D02*
X13548753Y-12305460D01*
X13729705Y-12295936D02*
X13739229Y-12305460D01*
X13739229Y-12305460D02*
X13729705Y-12314984D01*
X13729705Y-12314984D02*
X13720182Y-12305460D01*
X13720182Y-12305460D02*
X13729705Y-12295936D01*
X13729705Y-12295936D02*
X13729705Y-12314984D01*
X13729705Y-12191174D02*
X13739229Y-12200698D01*
X13739229Y-12200698D02*
X13729705Y-12210222D01*
X13729705Y-12210222D02*
X13720182Y-12200698D01*
X13720182Y-12200698D02*
X13729705Y-12191174D01*
X13729705Y-12191174D02*
X13729705Y-12210222D01*
X11897500Y-12543500D02*
X12097500Y-12743500D01*
X12097500Y-12543500D02*
X11897500Y-12743500D01*
X12339229Y-12534984D02*
X12463039Y-12534984D01*
X12463039Y-12534984D02*
X12396372Y-12611174D01*
X12396372Y-12611174D02*
X12424943Y-12611174D01*
X12424943Y-12611174D02*
X12443991Y-12620698D01*
X12443991Y-12620698D02*
X12453515Y-12630222D01*
X12453515Y-12630222D02*
X12463039Y-12649269D01*
X12463039Y-12649269D02*
X12463039Y-12696888D01*
X12463039Y-12696888D02*
X12453515Y-12715936D01*
X12453515Y-12715936D02*
X12443991Y-12725460D01*
X12443991Y-12725460D02*
X12424943Y-12734984D01*
X12424943Y-12734984D02*
X12367801Y-12734984D01*
X12367801Y-12734984D02*
X12348753Y-12725460D01*
X12348753Y-12725460D02*
X12339229Y-12715936D01*
X12548753Y-12715936D02*
X12558277Y-12725460D01*
X12558277Y-12725460D02*
X12548753Y-12734984D01*
X12548753Y-12734984D02*
X12539229Y-12725460D01*
X12539229Y-12725460D02*
X12548753Y-12715936D01*
X12548753Y-12715936D02*
X12548753Y-12734984D01*
X12634467Y-12554031D02*
X12643991Y-12544508D01*
X12643991Y-12544508D02*
X12663039Y-12534984D01*
X12663039Y-12534984D02*
X12710658Y-12534984D01*
X12710658Y-12534984D02*
X12729705Y-12544508D01*
X12729705Y-12544508D02*
X12739229Y-12554031D01*
X12739229Y-12554031D02*
X12748753Y-12573079D01*
X12748753Y-12573079D02*
X12748753Y-12592127D01*
X12748753Y-12592127D02*
X12739229Y-12620698D01*
X12739229Y-12620698D02*
X12624943Y-12734984D01*
X12624943Y-12734984D02*
X12748753Y-12734984D01*
X12872562Y-12534984D02*
X12891610Y-12534984D01*
X12891610Y-12534984D02*
X12910658Y-12544508D01*
X12910658Y-12544508D02*
X12920182Y-12554031D01*
X12920182Y-12554031D02*
X12929705Y-12573079D01*
X12929705Y-12573079D02*
X12939229Y-12611174D01*
X12939229Y-12611174D02*
X12939229Y-12658793D01*
X12939229Y-12658793D02*
X12929705Y-12696888D01*
X12929705Y-12696888D02*
X12920182Y-12715936D01*
X12920182Y-12715936D02*
X12910658Y-12725460D01*
X12910658Y-12725460D02*
X12891610Y-12734984D01*
X12891610Y-12734984D02*
X12872562Y-12734984D01*
X12872562Y-12734984D02*
X12853515Y-12725460D01*
X12853515Y-12725460D02*
X12843991Y-12715936D01*
X12843991Y-12715936D02*
X12834467Y-12696888D01*
X12834467Y-12696888D02*
X12824943Y-12658793D01*
X12824943Y-12658793D02*
X12824943Y-12611174D01*
X12824943Y-12611174D02*
X12834467Y-12573079D01*
X12834467Y-12573079D02*
X12843991Y-12554031D01*
X12843991Y-12554031D02*
X12853515Y-12544508D01*
X12853515Y-12544508D02*
X12872562Y-12534984D01*
X13063039Y-12534984D02*
X13082086Y-12534984D01*
X13082086Y-12534984D02*
X13101134Y-12544508D01*
X13101134Y-12544508D02*
X13110658Y-12554031D01*
X13110658Y-12554031D02*
X13120182Y-12573079D01*
X13120182Y-12573079D02*
X13129705Y-12611174D01*
X13129705Y-12611174D02*
X13129705Y-12658793D01*
X13129705Y-12658793D02*
X13120182Y-12696888D01*
X13120182Y-12696888D02*
X13110658Y-12715936D01*
X13110658Y-12715936D02*
X13101134Y-12725460D01*
X13101134Y-12725460D02*
X13082086Y-12734984D01*
X13082086Y-12734984D02*
X13063039Y-12734984D01*
X13063039Y-12734984D02*
X13043991Y-12725460D01*
X13043991Y-12725460D02*
X13034467Y-12715936D01*
X13034467Y-12715936D02*
X13024943Y-12696888D01*
X13024943Y-12696888D02*
X13015420Y-12658793D01*
X13015420Y-12658793D02*
X13015420Y-12611174D01*
X13015420Y-12611174D02*
X13024943Y-12573079D01*
X13024943Y-12573079D02*
X13034467Y-12554031D01*
X13034467Y-12554031D02*
X13043991Y-12544508D01*
X13043991Y-12544508D02*
X13063039Y-12534984D01*
X13215420Y-12734984D02*
X13215420Y-12601650D01*
X13215420Y-12620698D02*
X13224943Y-12611174D01*
X13224943Y-12611174D02*
X13243991Y-12601650D01*
X13243991Y-12601650D02*
X13272563Y-12601650D01*
X13272563Y-12601650D02*
X13291610Y-12611174D01*
X13291610Y-12611174D02*
X13301134Y-12630222D01*
X13301134Y-12630222D02*
X13301134Y-12734984D01*
X13301134Y-12630222D02*
X13310658Y-12611174D01*
X13310658Y-12611174D02*
X13329705Y-12601650D01*
X13329705Y-12601650D02*
X13358277Y-12601650D01*
X13358277Y-12601650D02*
X13377324Y-12611174D01*
X13377324Y-12611174D02*
X13386848Y-12630222D01*
X13386848Y-12630222D02*
X13386848Y-12734984D01*
X13482086Y-12734984D02*
X13482086Y-12601650D01*
X13482086Y-12620698D02*
X13491610Y-12611174D01*
X13491610Y-12611174D02*
X13510658Y-12601650D01*
X13510658Y-12601650D02*
X13539229Y-12601650D01*
X13539229Y-12601650D02*
X13558277Y-12611174D01*
X13558277Y-12611174D02*
X13567801Y-12630222D01*
X13567801Y-12630222D02*
X13567801Y-12734984D01*
X13567801Y-12630222D02*
X13577324Y-12611174D01*
X13577324Y-12611174D02*
X13596372Y-12601650D01*
X13596372Y-12601650D02*
X13624943Y-12601650D01*
X13624943Y-12601650D02*
X13643991Y-12611174D01*
X13643991Y-12611174D02*
X13653515Y-12630222D01*
X13653515Y-12630222D02*
X13653515Y-12734984D01*
X14043991Y-12525460D02*
X13872563Y-12782603D01*
X14301134Y-12534984D02*
X14320182Y-12534984D01*
X14320182Y-12534984D02*
X14339229Y-12544508D01*
X14339229Y-12544508D02*
X14348753Y-12554031D01*
X14348753Y-12554031D02*
X14358277Y-12573079D01*
X14358277Y-12573079D02*
X14367801Y-12611174D01*
X14367801Y-12611174D02*
X14367801Y-12658793D01*
X14367801Y-12658793D02*
X14358277Y-12696888D01*
X14358277Y-12696888D02*
X14348753Y-12715936D01*
X14348753Y-12715936D02*
X14339229Y-12725460D01*
X14339229Y-12725460D02*
X14320182Y-12734984D01*
X14320182Y-12734984D02*
X14301134Y-12734984D01*
X14301134Y-12734984D02*
X14282086Y-12725460D01*
X14282086Y-12725460D02*
X14272563Y-12715936D01*
X14272563Y-12715936D02*
X14263039Y-12696888D01*
X14263039Y-12696888D02*
X14253515Y-12658793D01*
X14253515Y-12658793D02*
X14253515Y-12611174D01*
X14253515Y-12611174D02*
X14263039Y-12573079D01*
X14263039Y-12573079D02*
X14272563Y-12554031D01*
X14272563Y-12554031D02*
X14282086Y-12544508D01*
X14282086Y-12544508D02*
X14301134Y-12534984D01*
X14453515Y-12715936D02*
X14463039Y-12725460D01*
X14463039Y-12725460D02*
X14453515Y-12734984D01*
X14453515Y-12734984D02*
X14443991Y-12725460D01*
X14443991Y-12725460D02*
X14453515Y-12715936D01*
X14453515Y-12715936D02*
X14453515Y-12734984D01*
X14653515Y-12734984D02*
X14539229Y-12734984D01*
X14596372Y-12734984D02*
X14596372Y-12534984D01*
X14596372Y-12534984D02*
X14577325Y-12563555D01*
X14577325Y-12563555D02*
X14558277Y-12582603D01*
X14558277Y-12582603D02*
X14539229Y-12592127D01*
X14729706Y-12554031D02*
X14739229Y-12544508D01*
X14739229Y-12544508D02*
X14758277Y-12534984D01*
X14758277Y-12534984D02*
X14805896Y-12534984D01*
X14805896Y-12534984D02*
X14824944Y-12544508D01*
X14824944Y-12544508D02*
X14834467Y-12554031D01*
X14834467Y-12554031D02*
X14843991Y-12573079D01*
X14843991Y-12573079D02*
X14843991Y-12592127D01*
X14843991Y-12592127D02*
X14834467Y-12620698D01*
X14834467Y-12620698D02*
X14720182Y-12734984D01*
X14720182Y-12734984D02*
X14843991Y-12734984D01*
X15015420Y-12534984D02*
X14977325Y-12534984D01*
X14977325Y-12534984D02*
X14958277Y-12544508D01*
X14958277Y-12544508D02*
X14948753Y-12554031D01*
X14948753Y-12554031D02*
X14929706Y-12582603D01*
X14929706Y-12582603D02*
X14920182Y-12620698D01*
X14920182Y-12620698D02*
X14920182Y-12696888D01*
X14920182Y-12696888D02*
X14929706Y-12715936D01*
X14929706Y-12715936D02*
X14939229Y-12725460D01*
X14939229Y-12725460D02*
X14958277Y-12734984D01*
X14958277Y-12734984D02*
X14996372Y-12734984D01*
X14996372Y-12734984D02*
X15015420Y-12725460D01*
X15015420Y-12725460D02*
X15024944Y-12715936D01*
X15024944Y-12715936D02*
X15034467Y-12696888D01*
X15034467Y-12696888D02*
X15034467Y-12649269D01*
X15034467Y-12649269D02*
X15024944Y-12630222D01*
X15024944Y-12630222D02*
X15015420Y-12620698D01*
X15015420Y-12620698D02*
X14996372Y-12611174D01*
X14996372Y-12611174D02*
X14958277Y-12611174D01*
X14958277Y-12611174D02*
X14939229Y-12620698D01*
X14939229Y-12620698D02*
X14929706Y-12630222D01*
X14929706Y-12630222D02*
X14920182Y-12649269D01*
X15158277Y-12534984D02*
X15177325Y-12534984D01*
X15177325Y-12534984D02*
X15196372Y-12544508D01*
X15196372Y-12544508D02*
X15205896Y-12554031D01*
X15205896Y-12554031D02*
X15215420Y-12573079D01*
X15215420Y-12573079D02*
X15224944Y-12611174D01*
X15224944Y-12611174D02*
X15224944Y-12658793D01*
X15224944Y-12658793D02*
X15215420Y-12696888D01*
X15215420Y-12696888D02*
X15205896Y-12715936D01*
X15205896Y-12715936D02*
X15196372Y-12725460D01*
X15196372Y-12725460D02*
X15177325Y-12734984D01*
X15177325Y-12734984D02*
X15158277Y-12734984D01*
X15158277Y-12734984D02*
X15139229Y-12725460D01*
X15139229Y-12725460D02*
X15129706Y-12715936D01*
X15129706Y-12715936D02*
X15120182Y-12696888D01*
X15120182Y-12696888D02*
X15110658Y-12658793D01*
X15110658Y-12658793D02*
X15110658Y-12611174D01*
X15110658Y-12611174D02*
X15120182Y-12573079D01*
X15120182Y-12573079D02*
X15129706Y-12554031D01*
X15129706Y-12554031D02*
X15139229Y-12544508D01*
X15139229Y-12544508D02*
X15158277Y-12534984D01*
X15301134Y-12534984D02*
X15301134Y-12573079D01*
X15377325Y-12534984D02*
X15377325Y-12573079D01*
X15672563Y-12811174D02*
X15663039Y-12801650D01*
X15663039Y-12801650D02*
X15643991Y-12773079D01*
X15643991Y-12773079D02*
X15634468Y-12754031D01*
X15634468Y-12754031D02*
X15624944Y-12725460D01*
X15624944Y-12725460D02*
X15615420Y-12677841D01*
X15615420Y-12677841D02*
X15615420Y-12639746D01*
X15615420Y-12639746D02*
X15624944Y-12592127D01*
X15624944Y-12592127D02*
X15634468Y-12563555D01*
X15634468Y-12563555D02*
X15643991Y-12544508D01*
X15643991Y-12544508D02*
X15663039Y-12515936D01*
X15663039Y-12515936D02*
X15672563Y-12506412D01*
X15853515Y-12734984D02*
X15739229Y-12734984D01*
X15796372Y-12734984D02*
X15796372Y-12534984D01*
X15796372Y-12534984D02*
X15777325Y-12563555D01*
X15777325Y-12563555D02*
X15758277Y-12582603D01*
X15758277Y-12582603D02*
X15739229Y-12592127D01*
X16091610Y-12734984D02*
X16091610Y-12534984D01*
X16177325Y-12734984D02*
X16177325Y-12630222D01*
X16177325Y-12630222D02*
X16167801Y-12611174D01*
X16167801Y-12611174D02*
X16148753Y-12601650D01*
X16148753Y-12601650D02*
X16120182Y-12601650D01*
X16120182Y-12601650D02*
X16101134Y-12611174D01*
X16101134Y-12611174D02*
X16091610Y-12620698D01*
X16301134Y-12734984D02*
X16282087Y-12725460D01*
X16282087Y-12725460D02*
X16272563Y-12715936D01*
X16272563Y-12715936D02*
X16263039Y-12696888D01*
X16263039Y-12696888D02*
X16263039Y-12639746D01*
X16263039Y-12639746D02*
X16272563Y-12620698D01*
X16272563Y-12620698D02*
X16282087Y-12611174D01*
X16282087Y-12611174D02*
X16301134Y-12601650D01*
X16301134Y-12601650D02*
X16329706Y-12601650D01*
X16329706Y-12601650D02*
X16348753Y-12611174D01*
X16348753Y-12611174D02*
X16358277Y-12620698D01*
X16358277Y-12620698D02*
X16367801Y-12639746D01*
X16367801Y-12639746D02*
X16367801Y-12696888D01*
X16367801Y-12696888D02*
X16358277Y-12715936D01*
X16358277Y-12715936D02*
X16348753Y-12725460D01*
X16348753Y-12725460D02*
X16329706Y-12734984D01*
X16329706Y-12734984D02*
X16301134Y-12734984D01*
X16482087Y-12734984D02*
X16463039Y-12725460D01*
X16463039Y-12725460D02*
X16453515Y-12706412D01*
X16453515Y-12706412D02*
X16453515Y-12534984D01*
X16634468Y-12725460D02*
X16615420Y-12734984D01*
X16615420Y-12734984D02*
X16577325Y-12734984D01*
X16577325Y-12734984D02*
X16558277Y-12725460D01*
X16558277Y-12725460D02*
X16548753Y-12706412D01*
X16548753Y-12706412D02*
X16548753Y-12630222D01*
X16548753Y-12630222D02*
X16558277Y-12611174D01*
X16558277Y-12611174D02*
X16577325Y-12601650D01*
X16577325Y-12601650D02*
X16615420Y-12601650D01*
X16615420Y-12601650D02*
X16634468Y-12611174D01*
X16634468Y-12611174D02*
X16643991Y-12630222D01*
X16643991Y-12630222D02*
X16643991Y-12649269D01*
X16643991Y-12649269D02*
X16548753Y-12668317D01*
X16710658Y-12811174D02*
X16720182Y-12801650D01*
X16720182Y-12801650D02*
X16739230Y-12773079D01*
X16739230Y-12773079D02*
X16748753Y-12754031D01*
X16748753Y-12754031D02*
X16758277Y-12725460D01*
X16758277Y-12725460D02*
X16767801Y-12677841D01*
X16767801Y-12677841D02*
X16767801Y-12639746D01*
X16767801Y-12639746D02*
X16758277Y-12592127D01*
X16758277Y-12592127D02*
X16748753Y-12563555D01*
X16748753Y-12563555D02*
X16739230Y-12544508D01*
X16739230Y-12544508D02*
X16720182Y-12515936D01*
X16720182Y-12515936D02*
X16710658Y-12506412D01*
X17072563Y-12811174D02*
X17063039Y-12801650D01*
X17063039Y-12801650D02*
X17043992Y-12773079D01*
X17043992Y-12773079D02*
X17034468Y-12754031D01*
X17034468Y-12754031D02*
X17024944Y-12725460D01*
X17024944Y-12725460D02*
X17015420Y-12677841D01*
X17015420Y-12677841D02*
X17015420Y-12639746D01*
X17015420Y-12639746D02*
X17024944Y-12592127D01*
X17024944Y-12592127D02*
X17034468Y-12563555D01*
X17034468Y-12563555D02*
X17043992Y-12544508D01*
X17043992Y-12544508D02*
X17063039Y-12515936D01*
X17063039Y-12515936D02*
X17072563Y-12506412D01*
X17148753Y-12601650D02*
X17148753Y-12734984D01*
X17148753Y-12620698D02*
X17158277Y-12611174D01*
X17158277Y-12611174D02*
X17177325Y-12601650D01*
X17177325Y-12601650D02*
X17205896Y-12601650D01*
X17205896Y-12601650D02*
X17224944Y-12611174D01*
X17224944Y-12611174D02*
X17234468Y-12630222D01*
X17234468Y-12630222D02*
X17234468Y-12734984D01*
X17358277Y-12734984D02*
X17339230Y-12725460D01*
X17339230Y-12725460D02*
X17329706Y-12715936D01*
X17329706Y-12715936D02*
X17320182Y-12696888D01*
X17320182Y-12696888D02*
X17320182Y-12639746D01*
X17320182Y-12639746D02*
X17329706Y-12620698D01*
X17329706Y-12620698D02*
X17339230Y-12611174D01*
X17339230Y-12611174D02*
X17358277Y-12601650D01*
X17358277Y-12601650D02*
X17386849Y-12601650D01*
X17386849Y-12601650D02*
X17405896Y-12611174D01*
X17405896Y-12611174D02*
X17415420Y-12620698D01*
X17415420Y-12620698D02*
X17424944Y-12639746D01*
X17424944Y-12639746D02*
X17424944Y-12696888D01*
X17424944Y-12696888D02*
X17415420Y-12715936D01*
X17415420Y-12715936D02*
X17405896Y-12725460D01*
X17405896Y-12725460D02*
X17386849Y-12734984D01*
X17386849Y-12734984D02*
X17358277Y-12734984D01*
X17482087Y-12601650D02*
X17558277Y-12601650D01*
X17510658Y-12534984D02*
X17510658Y-12706412D01*
X17510658Y-12706412D02*
X17520182Y-12725460D01*
X17520182Y-12725460D02*
X17539230Y-12734984D01*
X17539230Y-12734984D02*
X17558277Y-12734984D01*
X17777325Y-12601650D02*
X17777325Y-12801650D01*
X17777325Y-12611174D02*
X17796373Y-12601650D01*
X17796373Y-12601650D02*
X17834468Y-12601650D01*
X17834468Y-12601650D02*
X17853515Y-12611174D01*
X17853515Y-12611174D02*
X17863039Y-12620698D01*
X17863039Y-12620698D02*
X17872563Y-12639746D01*
X17872563Y-12639746D02*
X17872563Y-12696888D01*
X17872563Y-12696888D02*
X17863039Y-12715936D01*
X17863039Y-12715936D02*
X17853515Y-12725460D01*
X17853515Y-12725460D02*
X17834468Y-12734984D01*
X17834468Y-12734984D02*
X17796373Y-12734984D01*
X17796373Y-12734984D02*
X17777325Y-12725460D01*
X17986849Y-12734984D02*
X17967801Y-12725460D01*
X17967801Y-12725460D02*
X17958277Y-12706412D01*
X17958277Y-12706412D02*
X17958277Y-12534984D01*
X18148754Y-12734984D02*
X18148754Y-12630222D01*
X18148754Y-12630222D02*
X18139230Y-12611174D01*
X18139230Y-12611174D02*
X18120182Y-12601650D01*
X18120182Y-12601650D02*
X18082087Y-12601650D01*
X18082087Y-12601650D02*
X18063039Y-12611174D01*
X18148754Y-12725460D02*
X18129706Y-12734984D01*
X18129706Y-12734984D02*
X18082087Y-12734984D01*
X18082087Y-12734984D02*
X18063039Y-12725460D01*
X18063039Y-12725460D02*
X18053515Y-12706412D01*
X18053515Y-12706412D02*
X18053515Y-12687365D01*
X18053515Y-12687365D02*
X18063039Y-12668317D01*
X18063039Y-12668317D02*
X18082087Y-12658793D01*
X18082087Y-12658793D02*
X18129706Y-12658793D01*
X18129706Y-12658793D02*
X18148754Y-12649269D01*
X18215420Y-12601650D02*
X18291611Y-12601650D01*
X18243992Y-12534984D02*
X18243992Y-12706412D01*
X18243992Y-12706412D02*
X18253515Y-12725460D01*
X18253515Y-12725460D02*
X18272563Y-12734984D01*
X18272563Y-12734984D02*
X18291611Y-12734984D01*
X18434468Y-12725460D02*
X18415420Y-12734984D01*
X18415420Y-12734984D02*
X18377325Y-12734984D01*
X18377325Y-12734984D02*
X18358277Y-12725460D01*
X18358277Y-12725460D02*
X18348754Y-12706412D01*
X18348754Y-12706412D02*
X18348754Y-12630222D01*
X18348754Y-12630222D02*
X18358277Y-12611174D01*
X18358277Y-12611174D02*
X18377325Y-12601650D01*
X18377325Y-12601650D02*
X18415420Y-12601650D01*
X18415420Y-12601650D02*
X18434468Y-12611174D01*
X18434468Y-12611174D02*
X18443992Y-12630222D01*
X18443992Y-12630222D02*
X18443992Y-12649269D01*
X18443992Y-12649269D02*
X18348754Y-12668317D01*
X18615420Y-12734984D02*
X18615420Y-12534984D01*
X18615420Y-12725460D02*
X18596373Y-12734984D01*
X18596373Y-12734984D02*
X18558277Y-12734984D01*
X18558277Y-12734984D02*
X18539230Y-12725460D01*
X18539230Y-12725460D02*
X18529706Y-12715936D01*
X18529706Y-12715936D02*
X18520182Y-12696888D01*
X18520182Y-12696888D02*
X18520182Y-12639746D01*
X18520182Y-12639746D02*
X18529706Y-12620698D01*
X18529706Y-12620698D02*
X18539230Y-12611174D01*
X18539230Y-12611174D02*
X18558277Y-12601650D01*
X18558277Y-12601650D02*
X18596373Y-12601650D01*
X18596373Y-12601650D02*
X18615420Y-12611174D01*
X18691611Y-12811174D02*
X18701135Y-12801650D01*
X18701135Y-12801650D02*
X18720182Y-12773079D01*
X18720182Y-12773079D02*
X18729706Y-12754031D01*
X18729706Y-12754031D02*
X18739230Y-12725460D01*
X18739230Y-12725460D02*
X18748754Y-12677841D01*
X18748754Y-12677841D02*
X18748754Y-12639746D01*
X18748754Y-12639746D02*
X18739230Y-12592127D01*
X18739230Y-12592127D02*
X18729706Y-12563555D01*
X18729706Y-12563555D02*
X18720182Y-12544508D01*
X18720182Y-12544508D02*
X18701135Y-12515936D01*
X18701135Y-12515936D02*
X18691611Y-12506412D01*
M02*
