G04 #@! TF.GenerationSoftware,KiCad,Pcbnew,8.0.7*
G04 #@! TF.CreationDate,2025-01-24T14:27:24+01:00*
G04 #@! TF.ProjectId,GateDriverControlTransmitter,47617465-4472-4697-9665-72436f6e7472,rev?*
G04 #@! TF.SameCoordinates,Original*
G04 #@! TF.FileFunction,Legend,Bot*
G04 #@! TF.FilePolarity,Positive*
%FSLAX46Y46*%
G04 Gerber Fmt 4.6, Leading zero omitted, Abs format (unit mm)*
G04 Created by KiCad (PCBNEW 8.0.7) date 2025-01-24 14:27:24*
%MOMM*%
%LPD*%
G01*
G04 APERTURE LIST*
G04 Aperture macros list*
%AMRoundRect*
0 Rectangle with rounded corners*
0 $1 Rounding radius*
0 $2 $3 $4 $5 $6 $7 $8 $9 X,Y pos of 4 corners*
0 Add a 4 corners polygon primitive as box body*
4,1,4,$2,$3,$4,$5,$6,$7,$8,$9,$2,$3,0*
0 Add four circle primitives for the rounded corners*
1,1,$1+$1,$2,$3*
1,1,$1+$1,$4,$5*
1,1,$1+$1,$6,$7*
1,1,$1+$1,$8,$9*
0 Add four rect primitives between the rounded corners*
20,1,$1+$1,$2,$3,$4,$5,0*
20,1,$1+$1,$4,$5,$6,$7,0*
20,1,$1+$1,$6,$7,$8,$9,0*
20,1,$1+$1,$8,$9,$2,$3,0*%
G04 Aperture macros list end*
%ADD10C,0.150000*%
%ADD11C,0.508000*%
%ADD12C,0.120000*%
%ADD13C,3.200000*%
%ADD14R,1.700000X1.700000*%
%ADD15O,1.700000X1.700000*%
%ADD16C,1.524000*%
%ADD17RoundRect,0.250000X-0.262500X-0.450000X0.262500X-0.450000X0.262500X0.450000X-0.262500X0.450000X0*%
%ADD18RoundRect,0.150000X-0.150000X0.512500X-0.150000X-0.512500X0.150000X-0.512500X0.150000X0.512500X0*%
%ADD19RoundRect,0.250000X-0.250000X-0.475000X0.250000X-0.475000X0.250000X0.475000X-0.250000X0.475000X0*%
%ADD20RoundRect,0.250000X0.450000X-0.262500X0.450000X0.262500X-0.450000X0.262500X-0.450000X-0.262500X0*%
G04 APERTURE END LIST*
D10*
X144466666Y-118704819D02*
X144799999Y-118228628D01*
X145038094Y-118704819D02*
X145038094Y-117704819D01*
X145038094Y-117704819D02*
X144657142Y-117704819D01*
X144657142Y-117704819D02*
X144561904Y-117752438D01*
X144561904Y-117752438D02*
X144514285Y-117800057D01*
X144514285Y-117800057D02*
X144466666Y-117895295D01*
X144466666Y-117895295D02*
X144466666Y-118038152D01*
X144466666Y-118038152D02*
X144514285Y-118133390D01*
X144514285Y-118133390D02*
X144561904Y-118181009D01*
X144561904Y-118181009D02*
X144657142Y-118228628D01*
X144657142Y-118228628D02*
X145038094Y-118228628D01*
X143609523Y-118038152D02*
X143609523Y-118704819D01*
X143847618Y-117657200D02*
X144085713Y-118371485D01*
X144085713Y-118371485D02*
X143466666Y-118371485D01*
X143061904Y-107054819D02*
X143061904Y-107864342D01*
X143061904Y-107864342D02*
X143014285Y-107959580D01*
X143014285Y-107959580D02*
X142966666Y-108007200D01*
X142966666Y-108007200D02*
X142871428Y-108054819D01*
X142871428Y-108054819D02*
X142680952Y-108054819D01*
X142680952Y-108054819D02*
X142585714Y-108007200D01*
X142585714Y-108007200D02*
X142538095Y-107959580D01*
X142538095Y-107959580D02*
X142490476Y-107864342D01*
X142490476Y-107864342D02*
X142490476Y-107054819D01*
X141490476Y-108054819D02*
X142061904Y-108054819D01*
X141776190Y-108054819D02*
X141776190Y-107054819D01*
X141776190Y-107054819D02*
X141871428Y-107197676D01*
X141871428Y-107197676D02*
X141966666Y-107292914D01*
X141966666Y-107292914D02*
X142061904Y-107340533D01*
X142466666Y-111054819D02*
X142799999Y-110578628D01*
X143038094Y-111054819D02*
X143038094Y-110054819D01*
X143038094Y-110054819D02*
X142657142Y-110054819D01*
X142657142Y-110054819D02*
X142561904Y-110102438D01*
X142561904Y-110102438D02*
X142514285Y-110150057D01*
X142514285Y-110150057D02*
X142466666Y-110245295D01*
X142466666Y-110245295D02*
X142466666Y-110388152D01*
X142466666Y-110388152D02*
X142514285Y-110483390D01*
X142514285Y-110483390D02*
X142561904Y-110531009D01*
X142561904Y-110531009D02*
X142657142Y-110578628D01*
X142657142Y-110578628D02*
X143038094Y-110578628D01*
X141514285Y-111054819D02*
X142085713Y-111054819D01*
X141799999Y-111054819D02*
X141799999Y-110054819D01*
X141799999Y-110054819D02*
X141895237Y-110197676D01*
X141895237Y-110197676D02*
X141990475Y-110292914D01*
X141990475Y-110292914D02*
X142085713Y-110340533D01*
X142366666Y-104959580D02*
X142414285Y-105007200D01*
X142414285Y-105007200D02*
X142557142Y-105054819D01*
X142557142Y-105054819D02*
X142652380Y-105054819D01*
X142652380Y-105054819D02*
X142795237Y-105007200D01*
X142795237Y-105007200D02*
X142890475Y-104911961D01*
X142890475Y-104911961D02*
X142938094Y-104816723D01*
X142938094Y-104816723D02*
X142985713Y-104626247D01*
X142985713Y-104626247D02*
X142985713Y-104483390D01*
X142985713Y-104483390D02*
X142938094Y-104292914D01*
X142938094Y-104292914D02*
X142890475Y-104197676D01*
X142890475Y-104197676D02*
X142795237Y-104102438D01*
X142795237Y-104102438D02*
X142652380Y-104054819D01*
X142652380Y-104054819D02*
X142557142Y-104054819D01*
X142557142Y-104054819D02*
X142414285Y-104102438D01*
X142414285Y-104102438D02*
X142366666Y-104150057D01*
X141414285Y-105054819D02*
X141985713Y-105054819D01*
X141699999Y-105054819D02*
X141699999Y-104054819D01*
X141699999Y-104054819D02*
X141795237Y-104197676D01*
X141795237Y-104197676D02*
X141890475Y-104292914D01*
X141890475Y-104292914D02*
X141985713Y-104340533D01*
X128462319Y-108835833D02*
X127986128Y-108502500D01*
X128462319Y-108264405D02*
X127462319Y-108264405D01*
X127462319Y-108264405D02*
X127462319Y-108645357D01*
X127462319Y-108645357D02*
X127509938Y-108740595D01*
X127509938Y-108740595D02*
X127557557Y-108788214D01*
X127557557Y-108788214D02*
X127652795Y-108835833D01*
X127652795Y-108835833D02*
X127795652Y-108835833D01*
X127795652Y-108835833D02*
X127890890Y-108788214D01*
X127890890Y-108788214D02*
X127938509Y-108740595D01*
X127938509Y-108740595D02*
X127986128Y-108645357D01*
X127986128Y-108645357D02*
X127986128Y-108264405D01*
X127557557Y-109216786D02*
X127509938Y-109264405D01*
X127509938Y-109264405D02*
X127462319Y-109359643D01*
X127462319Y-109359643D02*
X127462319Y-109597738D01*
X127462319Y-109597738D02*
X127509938Y-109692976D01*
X127509938Y-109692976D02*
X127557557Y-109740595D01*
X127557557Y-109740595D02*
X127652795Y-109788214D01*
X127652795Y-109788214D02*
X127748033Y-109788214D01*
X127748033Y-109788214D02*
X127890890Y-109740595D01*
X127890890Y-109740595D02*
X128462319Y-109169167D01*
X128462319Y-109169167D02*
X128462319Y-109788214D01*
X142466666Y-102959580D02*
X142514285Y-103007200D01*
X142514285Y-103007200D02*
X142657142Y-103054819D01*
X142657142Y-103054819D02*
X142752380Y-103054819D01*
X142752380Y-103054819D02*
X142895237Y-103007200D01*
X142895237Y-103007200D02*
X142990475Y-102911961D01*
X142990475Y-102911961D02*
X143038094Y-102816723D01*
X143038094Y-102816723D02*
X143085713Y-102626247D01*
X143085713Y-102626247D02*
X143085713Y-102483390D01*
X143085713Y-102483390D02*
X143038094Y-102292914D01*
X143038094Y-102292914D02*
X142990475Y-102197676D01*
X142990475Y-102197676D02*
X142895237Y-102102438D01*
X142895237Y-102102438D02*
X142752380Y-102054819D01*
X142752380Y-102054819D02*
X142657142Y-102054819D01*
X142657142Y-102054819D02*
X142514285Y-102102438D01*
X142514285Y-102102438D02*
X142466666Y-102150057D01*
X142085713Y-102150057D02*
X142038094Y-102102438D01*
X142038094Y-102102438D02*
X141942856Y-102054819D01*
X141942856Y-102054819D02*
X141704761Y-102054819D01*
X141704761Y-102054819D02*
X141609523Y-102102438D01*
X141609523Y-102102438D02*
X141561904Y-102150057D01*
X141561904Y-102150057D02*
X141514285Y-102245295D01*
X141514285Y-102245295D02*
X141514285Y-102340533D01*
X141514285Y-102340533D02*
X141561904Y-102483390D01*
X141561904Y-102483390D02*
X142133332Y-103054819D01*
X142133332Y-103054819D02*
X141514285Y-103054819D01*
D11*
X148081000Y-103035000D02*
G75*
G02*
X147319000Y-103035000I-381000J0D01*
G01*
X147319000Y-103035000D02*
G75*
G02*
X148081000Y-103035000I381000J0D01*
G01*
D12*
X144477064Y-115865000D02*
X144022936Y-115865000D01*
X144477064Y-117335000D02*
X144022936Y-117335000D01*
X143440000Y-106800000D02*
X143440000Y-107600000D01*
X143440000Y-108400000D02*
X143440000Y-107600000D01*
X146560000Y-106800000D02*
X146560000Y-107600000D01*
X146560000Y-108400000D02*
X146560000Y-107600000D01*
X143490000Y-106300000D02*
X143160000Y-106540000D01*
X143160000Y-106060000D01*
X143490000Y-106300000D01*
G36*
X143490000Y-106300000D02*
G01*
X143160000Y-106540000D01*
X143160000Y-106060000D01*
X143490000Y-106300000D01*
G37*
X145199564Y-109865000D02*
X144745436Y-109865000D01*
X145199564Y-111335000D02*
X144745436Y-111335000D01*
X145253752Y-103835000D02*
X144731248Y-103835000D01*
X145253752Y-105305000D02*
X144731248Y-105305000D01*
X127215000Y-111322936D02*
X127215000Y-111777064D01*
X128685000Y-111322936D02*
X128685000Y-111777064D01*
X145253752Y-101875000D02*
X144731248Y-101875000D01*
X145253752Y-103345000D02*
X144731248Y-103345000D01*
%LPC*%
D13*
X136000000Y-110000000D03*
D14*
X125100000Y-115075000D03*
D15*
X125100000Y-112535000D03*
X125100000Y-109995000D03*
X125100000Y-107455000D03*
X125100000Y-104915000D03*
D16*
X147700000Y-106210000D03*
X147700000Y-108750000D03*
X147700000Y-111290000D03*
X147700000Y-113830000D03*
D17*
X143337500Y-116600000D03*
X145162500Y-116600000D03*
D18*
X144050000Y-106462500D03*
X145000000Y-106462500D03*
X145950000Y-106462500D03*
X145950000Y-108737500D03*
X144050000Y-108737500D03*
D17*
X144060000Y-110600000D03*
X145885000Y-110600000D03*
D19*
X144042500Y-104570000D03*
X145942500Y-104570000D03*
D20*
X127950000Y-112462500D03*
X127950000Y-110637500D03*
D19*
X144042500Y-102610000D03*
X145942500Y-102610000D03*
%LPD*%
M02*
