M48
; DRILL file {KiCad 8.0.7} date 2025-01-24T14:27:26+0100
; FORMAT={-:-/ absolute / metric / decimal}
; #@! TF.CreationDate,2025-01-24T14:27:26+01:00
; #@! TF.GenerationSoftware,Kicad,Pcbnew,8.0.7
; #@! TF.FileFunction,Plated,1,2,PTH
FMAT,2
METRIC
; #@! TA.AperFunction,Plated,PTH,ViaDrill
T1C0.300
; #@! TA.AperFunction,Plated,PTH,ComponentDrill
T2C1.000
; #@! TA.AperFunction,Plated,PTH,ComponentDrill
T3C1.016
%
G90
G05
T1
X122.0Y-101.0
X122.0Y-103.0
X122.0Y-105.0
X122.0Y-107.0
X122.0Y-109.0
X122.0Y-111.0
X122.0Y-113.0
X122.0Y-115.0
X122.0Y-117.0
X122.0Y-119.0
X124.0Y-101.0
X124.0Y-119.0
X126.0Y-101.0
X126.0Y-119.0
X128.0Y-101.0
X128.0Y-103.5
X128.0Y-105.0
X128.0Y-119.0
X130.0Y-101.0
X130.0Y-119.0
X132.0Y-101.0
X132.0Y-119.0
X134.0Y-101.0
X134.0Y-119.0
X136.0Y-101.0
X136.0Y-103.5
X136.0Y-105.0
X136.0Y-119.0
X138.0Y-101.0
X138.0Y-119.0
X139.5Y-117.73
X140.0Y-101.0
X140.0Y-119.0
X142.0Y-101.0
X142.5Y-103.5
X142.5Y-105.5
X142.5Y-109.0
X142.5Y-112.0
X144.0Y-101.0
X146.0Y-101.0
X146.0Y-119.0
X146.45Y-116.6
X148.0Y-101.0
X148.0Y-119.0
X150.0Y-101.0
X150.0Y-103.0
X150.0Y-105.0
X150.0Y-107.0
X150.0Y-109.0
X150.0Y-111.0
X150.0Y-113.0
X150.0Y-115.0
X150.0Y-119.0
X150.0Y-119.0
T2
X125.1Y-104.915
X125.1Y-107.455
X125.1Y-109.995
X125.1Y-112.535
X125.1Y-115.075
T3
X147.7Y-106.21
X147.7Y-108.75
X147.7Y-111.29
X147.7Y-113.83
M30
