G04 #@! TF.GenerationSoftware,KiCad,Pcbnew,8.0.7*
G04 #@! TF.CreationDate,2025-01-22T18:34:57+01:00*
G04 #@! TF.ProjectId,STM32_GateSignalGenerator,53544d33-325f-4476-9174-655369676e61,rev?*
G04 #@! TF.SameCoordinates,Original*
G04 #@! TF.FileFunction,Soldermask,Bot*
G04 #@! TF.FilePolarity,Negative*
%FSLAX46Y46*%
G04 Gerber Fmt 4.6, Leading zero omitted, Abs format (unit mm)*
G04 Created by KiCad (PCBNEW 8.0.7) date 2025-01-22 18:34:57*
%MOMM*%
%LPD*%
G01*
G04 APERTURE LIST*
G04 Aperture macros list*
%AMRoundRect*
0 Rectangle with rounded corners*
0 $1 Rounding radius*
0 $2 $3 $4 $5 $6 $7 $8 $9 X,Y pos of 4 corners*
0 Add a 4 corners polygon primitive as box body*
4,1,4,$2,$3,$4,$5,$6,$7,$8,$9,$2,$3,0*
0 Add four circle primitives for the rounded corners*
1,1,$1+$1,$2,$3*
1,1,$1+$1,$4,$5*
1,1,$1+$1,$6,$7*
1,1,$1+$1,$8,$9*
0 Add four rect primitives between the rounded corners*
20,1,$1+$1,$2,$3,$4,$5,0*
20,1,$1+$1,$4,$5,$6,$7,0*
20,1,$1+$1,$6,$7,$8,$9,0*
20,1,$1+$1,$8,$9,$2,$3,0*%
G04 Aperture macros list end*
%ADD10C,0.561000*%
%ADD11R,2.100000X2.100000*%
%ADD12C,2.100000*%
%ADD13R,1.700000X1.700000*%
%ADD14O,1.700000X1.700000*%
%ADD15C,2.800000*%
%ADD16RoundRect,0.250000X0.725000X-0.600000X0.725000X0.600000X-0.725000X0.600000X-0.725000X-0.600000X0*%
%ADD17O,1.950000X1.700000*%
%ADD18C,3.200000*%
%ADD19RoundRect,0.250000X0.750000X-0.600000X0.750000X0.600000X-0.750000X0.600000X-0.750000X-0.600000X0*%
%ADD20O,2.000000X1.700000*%
%ADD21RoundRect,0.249999X-1.550001X0.790001X-1.550001X-0.790001X1.550001X-0.790001X1.550001X0.790001X0*%
%ADD22O,3.600000X2.080000*%
%ADD23R,1.200000X1.200000*%
%ADD24C,1.200000*%
%ADD25R,1.000000X1.000000*%
%ADD26O,1.000000X1.000000*%
%ADD27C,1.020000*%
%ADD28RoundRect,0.250000X0.450000X-0.262500X0.450000X0.262500X-0.450000X0.262500X-0.450000X-0.262500X0*%
%ADD29RoundRect,0.200000X-0.200000X-0.275000X0.200000X-0.275000X0.200000X0.275000X-0.200000X0.275000X0*%
%ADD30RoundRect,0.250000X0.262500X0.450000X-0.262500X0.450000X-0.262500X-0.450000X0.262500X-0.450000X0*%
%ADD31RoundRect,0.250000X0.475000X-0.250000X0.475000X0.250000X-0.475000X0.250000X-0.475000X-0.250000X0*%
%ADD32RoundRect,0.150000X0.150000X-0.825000X0.150000X0.825000X-0.150000X0.825000X-0.150000X-0.825000X0*%
%ADD33RoundRect,0.150000X0.150000X-0.587500X0.150000X0.587500X-0.150000X0.587500X-0.150000X-0.587500X0*%
%ADD34RoundRect,0.250000X1.075000X-0.362500X1.075000X0.362500X-1.075000X0.362500X-1.075000X-0.362500X0*%
%ADD35RoundRect,0.250000X0.375000X1.075000X-0.375000X1.075000X-0.375000X-1.075000X0.375000X-1.075000X0*%
%ADD36C,1.500000*%
%ADD37RoundRect,0.150000X-0.150000X0.587500X-0.150000X-0.587500X0.150000X-0.587500X0.150000X0.587500X0*%
%ADD38RoundRect,0.250000X-0.262500X-0.450000X0.262500X-0.450000X0.262500X0.450000X-0.262500X0.450000X0*%
%ADD39RoundRect,0.250000X-0.475000X0.250000X-0.475000X-0.250000X0.475000X-0.250000X0.475000X0.250000X0*%
%ADD40RoundRect,0.250000X-0.503814X-0.132583X-0.132583X-0.503814X0.503814X0.132583X0.132583X0.503814X0*%
%ADD41RoundRect,0.250000X-0.450000X0.262500X-0.450000X-0.262500X0.450000X-0.262500X0.450000X0.262500X0*%
%ADD42RoundRect,0.225000X0.375000X-0.225000X0.375000X0.225000X-0.375000X0.225000X-0.375000X-0.225000X0*%
%ADD43RoundRect,0.250000X-0.250000X-0.475000X0.250000X-0.475000X0.250000X0.475000X-0.250000X0.475000X0*%
%ADD44RoundRect,0.225000X-0.335876X-0.017678X-0.017678X-0.335876X0.335876X0.017678X0.017678X0.335876X0*%
%ADD45RoundRect,0.225000X0.335876X0.017678X0.017678X0.335876X-0.335876X-0.017678X-0.017678X-0.335876X0*%
%ADD46RoundRect,0.225000X-0.017678X0.335876X-0.335876X0.017678X0.017678X-0.335876X0.335876X-0.017678X0*%
%ADD47R,1.500000X0.900000*%
%ADD48C,0.600000*%
%ADD49R,2.900000X2.900000*%
%ADD50RoundRect,0.200000X0.200000X0.275000X-0.200000X0.275000X-0.200000X-0.275000X0.200000X-0.275000X0*%
%ADD51RoundRect,0.225000X-0.375000X0.225000X-0.375000X-0.225000X0.375000X-0.225000X0.375000X0.225000X0*%
%ADD52RoundRect,0.250000X-0.375000X-1.075000X0.375000X-1.075000X0.375000X1.075000X-0.375000X1.075000X0*%
%ADD53RoundRect,0.250000X-0.650000X1.000000X-0.650000X-1.000000X0.650000X-1.000000X0.650000X1.000000X0*%
%ADD54RoundRect,0.250000X0.250000X0.475000X-0.250000X0.475000X-0.250000X-0.475000X0.250000X-0.475000X0*%
%ADD55RoundRect,0.225000X0.017678X-0.335876X0.335876X-0.017678X-0.017678X0.335876X-0.335876X0.017678X0*%
%ADD56RoundRect,0.150000X-0.825000X-0.150000X0.825000X-0.150000X0.825000X0.150000X-0.825000X0.150000X0*%
%ADD57RoundRect,0.250000X0.650000X-1.000000X0.650000X1.000000X-0.650000X1.000000X-0.650000X-1.000000X0*%
%ADD58RoundRect,0.150000X0.825000X0.150000X-0.825000X0.150000X-0.825000X-0.150000X0.825000X-0.150000X0*%
%ADD59RoundRect,0.250000X-0.512652X-0.159099X-0.159099X-0.512652X0.512652X0.159099X0.159099X0.512652X0*%
G04 APERTURE END LIST*
D10*
X209403000Y-117862500D02*
G75*
G02*
X208842000Y-117862500I-280500J0D01*
G01*
X208842000Y-117862500D02*
G75*
G02*
X209403000Y-117862500I280500J0D01*
G01*
X209403000Y-124212500D02*
G75*
G02*
X208842000Y-124212500I-280500J0D01*
G01*
X208842000Y-124212500D02*
G75*
G02*
X209403000Y-124212500I280500J0D01*
G01*
D11*
X85652500Y-109607500D03*
D12*
X85652500Y-113107500D03*
X85652500Y-116607500D03*
D13*
X164750000Y-73215000D03*
D14*
X162210000Y-73215000D03*
X159670000Y-73215000D03*
X157130000Y-73215000D03*
X154590000Y-73215000D03*
D15*
X176642500Y-79497500D03*
D11*
X85652500Y-94617500D03*
D12*
X85652500Y-98117500D03*
X85652500Y-101617500D03*
D15*
X110633064Y-81222500D03*
X130033064Y-97122500D03*
X154142500Y-79497500D03*
D16*
X185072500Y-115147500D03*
D17*
X185072500Y-112647500D03*
X185072500Y-110147500D03*
X185072500Y-107647500D03*
X185072500Y-105147500D03*
D15*
X161642500Y-79497500D03*
X132852500Y-145397500D03*
D18*
X102150000Y-73115000D03*
D15*
X152455000Y-107490000D03*
D19*
X157642500Y-104687500D03*
D20*
X157642500Y-102187500D03*
D16*
X157712500Y-129677500D03*
D17*
X157712500Y-127177500D03*
X157712500Y-124677500D03*
X157712500Y-122177500D03*
X157712500Y-119677500D03*
X157712500Y-117177500D03*
X157712500Y-114677500D03*
X157712500Y-112177500D03*
D13*
X95750000Y-73215000D03*
D14*
X93210000Y-73215000D03*
X90670000Y-73215000D03*
X88130000Y-73215000D03*
X85590000Y-73215000D03*
D15*
X146642500Y-79497500D03*
X132483064Y-107822500D03*
D13*
X118750000Y-73215000D03*
D14*
X116210000Y-73215000D03*
X113670000Y-73215000D03*
X111130000Y-73215000D03*
X108590000Y-73215000D03*
D15*
X184142500Y-79497500D03*
D16*
X186127500Y-96207500D03*
D17*
X186127500Y-93707500D03*
X186127500Y-91207500D03*
D15*
X127655000Y-117990000D03*
D11*
X85660000Y-81375000D03*
D12*
X85660000Y-84875000D03*
D18*
X85650000Y-125615000D03*
X210650000Y-143115000D03*
D21*
X87760000Y-137077500D03*
D22*
X87760000Y-142157500D03*
D11*
X210642500Y-111647500D03*
D12*
X210642500Y-108147500D03*
X210642500Y-104647500D03*
D18*
X194150000Y-73115000D03*
D13*
X187750000Y-73215000D03*
D14*
X185210000Y-73215000D03*
X182670000Y-73215000D03*
X180130000Y-73215000D03*
X177590000Y-73215000D03*
D13*
X207295000Y-130915000D03*
D14*
X207295000Y-133455000D03*
D13*
X210750000Y-73215000D03*
D14*
X208210000Y-73215000D03*
X205670000Y-73215000D03*
X203130000Y-73215000D03*
X200590000Y-73215000D03*
D15*
X169142500Y-79497500D03*
D23*
X125122500Y-142797500D03*
D24*
X125122500Y-140257500D03*
X125122500Y-137717500D03*
X125122500Y-135177500D03*
D13*
X211502500Y-96632500D03*
D14*
X211502500Y-99172500D03*
D25*
X173355000Y-125675000D03*
D26*
X174625000Y-125675000D03*
X173355000Y-126945000D03*
X174625000Y-126945000D03*
X173355000Y-128215000D03*
X174625000Y-128215000D03*
X173355000Y-129485000D03*
X174625000Y-129485000D03*
X173355000Y-130755000D03*
X174625000Y-130755000D03*
D27*
X209122500Y-124212500D03*
X209122500Y-117862500D03*
D15*
X132483064Y-114072500D03*
D13*
X141750000Y-73215000D03*
D14*
X139210000Y-73215000D03*
X136670000Y-73215000D03*
X134130000Y-73215000D03*
X131590000Y-73215000D03*
D11*
X210612500Y-136637500D03*
D12*
X210612500Y-133137500D03*
X210612500Y-129637500D03*
D11*
X210632500Y-91637500D03*
D12*
X210632500Y-88137500D03*
X210632500Y-84637500D03*
D28*
X195362500Y-114412500D03*
X195362500Y-112587500D03*
D29*
X187177500Y-107647500D03*
X188827500Y-107647500D03*
D30*
X195595000Y-96527500D03*
X193770000Y-96527500D03*
D31*
X174850000Y-135795000D03*
X174850000Y-133895000D03*
D32*
X199367500Y-90552500D03*
X198097500Y-90552500D03*
X196827500Y-90552500D03*
X195557500Y-90552500D03*
X195557500Y-85602500D03*
X196827500Y-85602500D03*
X198097500Y-85602500D03*
X199367500Y-85602500D03*
D30*
X195597500Y-92722500D03*
X193772500Y-92722500D03*
D33*
X193672500Y-103907500D03*
X191772500Y-103907500D03*
X192722500Y-102032500D03*
D31*
X160087500Y-103137500D03*
X160087500Y-101237500D03*
D33*
X193662500Y-114197500D03*
X191762500Y-114197500D03*
X192712500Y-112322500D03*
D34*
X98387851Y-138337500D03*
X98387851Y-133712500D03*
X108387851Y-138337500D03*
X108387851Y-133712500D03*
D35*
X94127500Y-108182500D03*
X91327500Y-108182500D03*
D30*
X97615000Y-118782500D03*
X95790000Y-118782500D03*
D36*
X180255000Y-107590000D03*
D37*
X202765000Y-110420000D03*
X204665000Y-110420000D03*
X203715000Y-112295000D03*
D38*
X88097500Y-102437500D03*
X89922500Y-102437500D03*
D30*
X195600000Y-81517500D03*
X193775000Y-81517500D03*
D39*
X121312500Y-135477500D03*
X121312500Y-137377500D03*
D28*
X208271881Y-114400000D03*
X208271881Y-112575000D03*
D40*
X169542549Y-100628971D03*
X170833019Y-101919441D03*
D41*
X201062500Y-112587500D03*
X201062500Y-114412500D03*
D42*
X92342500Y-102097500D03*
X92342500Y-98797500D03*
D43*
X204482500Y-81697500D03*
X206382500Y-81697500D03*
D30*
X195600000Y-83417500D03*
X193775000Y-83417500D03*
X188855000Y-113927500D03*
X187030000Y-113927500D03*
D31*
X176810000Y-135805000D03*
X176810000Y-133905000D03*
D44*
X166326980Y-102575282D03*
X167422996Y-103671298D03*
D28*
X160097500Y-106510000D03*
X160097500Y-104685000D03*
D38*
X202840000Y-101997500D03*
X204665000Y-101997500D03*
D45*
X176799232Y-102426790D03*
X175703216Y-101330774D03*
D46*
X171368652Y-97356834D03*
X170272636Y-98452850D03*
D47*
X178800000Y-135715000D03*
X178800000Y-134215000D03*
X178800000Y-132715000D03*
X178800000Y-131215000D03*
X178800000Y-129715000D03*
X178800000Y-128215000D03*
X178800000Y-126715000D03*
X178800000Y-125215000D03*
X178800000Y-123715000D03*
X196300000Y-123715000D03*
X196300000Y-125215000D03*
X196300000Y-126715000D03*
X196300000Y-128215000D03*
X196300000Y-129715000D03*
X196300000Y-131215000D03*
X196300000Y-132715000D03*
X196300000Y-134215000D03*
X196300000Y-135715000D03*
D48*
X187410000Y-128965000D03*
X187410000Y-130065000D03*
X187960000Y-128415000D03*
X187960000Y-129515000D03*
X187960000Y-130615000D03*
X188510000Y-128965000D03*
D49*
X188510000Y-129515000D03*
D48*
X188510000Y-130065000D03*
X189060000Y-128415000D03*
X189060000Y-129515000D03*
X189060000Y-130615000D03*
X189610000Y-128965000D03*
X189610000Y-130065000D03*
D41*
X197272500Y-101825000D03*
X197272500Y-103650000D03*
D50*
X199760000Y-125245000D03*
X198110000Y-125245000D03*
D39*
X90212500Y-95437500D03*
X90212500Y-97337500D03*
D32*
X199022500Y-110592500D03*
X197752500Y-110592500D03*
X196482500Y-110592500D03*
X195212500Y-110592500D03*
X195212500Y-105642500D03*
X196482500Y-105642500D03*
X197752500Y-105642500D03*
X199022500Y-105642500D03*
D30*
X188855000Y-110127500D03*
X187030000Y-110127500D03*
D31*
X91427500Y-115807500D03*
X91427500Y-113907500D03*
D36*
X176555000Y-116990000D03*
D33*
X96142500Y-96252500D03*
X94242500Y-96252500D03*
X95192500Y-94377500D03*
D39*
X193767500Y-87147500D03*
X193767500Y-89047500D03*
D28*
X197317500Y-83610000D03*
X197317500Y-81785000D03*
D51*
X92342500Y-94097500D03*
X92342500Y-97397500D03*
D52*
X91327500Y-118132500D03*
X94127500Y-118132500D03*
D41*
X199172500Y-101822500D03*
X199172500Y-103647500D03*
D53*
X88702500Y-107657500D03*
X88702500Y-111657500D03*
D38*
X88090000Y-93737500D03*
X89915000Y-93737500D03*
D50*
X199760000Y-126705000D03*
X198110000Y-126705000D03*
D41*
X208282500Y-101817500D03*
X208282500Y-103642500D03*
D39*
X91427500Y-110507500D03*
X91427500Y-112407500D03*
D41*
X88287500Y-95500000D03*
X88287500Y-97325000D03*
D39*
X193432500Y-107177500D03*
X193432500Y-109077500D03*
D41*
X197317500Y-92537500D03*
X197317500Y-94362500D03*
D28*
X199162500Y-114412500D03*
X199162500Y-112587500D03*
D31*
X90212500Y-100737500D03*
X90212500Y-98837500D03*
D41*
X197262500Y-112587500D03*
X197262500Y-114412500D03*
D30*
X195605000Y-79617500D03*
X193780000Y-79617500D03*
D54*
X206392500Y-94457500D03*
X204492500Y-94457500D03*
D37*
X94242500Y-99942500D03*
X96142500Y-99942500D03*
X95192500Y-101817500D03*
D38*
X202802500Y-114227500D03*
X204627500Y-114227500D03*
D43*
X95752500Y-109557500D03*
X97652500Y-109557500D03*
D55*
X171715134Y-107715949D03*
X172811150Y-106619933D03*
D34*
X93387851Y-138337500D03*
X93387851Y-133712500D03*
D30*
X195597500Y-94622500D03*
X193772500Y-94622500D03*
X192245000Y-92722500D03*
X190420000Y-92722500D03*
D33*
X204682500Y-105802500D03*
X202782500Y-105802500D03*
X203732500Y-103927500D03*
D28*
X206371881Y-114410000D03*
X206371881Y-112585000D03*
D56*
X202967500Y-87277500D03*
X202967500Y-86007500D03*
X202967500Y-84737500D03*
X202967500Y-83467500D03*
X207917500Y-83467500D03*
X207917500Y-84737500D03*
X207917500Y-86007500D03*
X207917500Y-87277500D03*
D41*
X206382500Y-101817500D03*
X206382500Y-103642500D03*
D30*
X188855000Y-112027500D03*
X187030000Y-112027500D03*
D34*
X103387851Y-138337500D03*
X103387851Y-133712500D03*
D43*
X95752500Y-107582500D03*
X97652500Y-107582500D03*
D28*
X201072500Y-103647500D03*
X201072500Y-101822500D03*
X88282500Y-100690000D03*
X88282500Y-98865000D03*
D41*
X199217500Y-81782500D03*
X199217500Y-83607500D03*
D57*
X88702500Y-118657500D03*
X88702500Y-114657500D03*
D56*
X202967500Y-92682500D03*
X202967500Y-91412500D03*
X202967500Y-90142500D03*
X202967500Y-88872500D03*
X207917500Y-88872500D03*
X207917500Y-90142500D03*
X207917500Y-91412500D03*
X207917500Y-92682500D03*
D39*
X123272500Y-135477500D03*
X123272500Y-137377500D03*
D31*
X182822500Y-108567500D03*
X182822500Y-106667500D03*
D58*
X98577500Y-111327500D03*
X98577500Y-112597500D03*
X98577500Y-113867500D03*
X98577500Y-115137500D03*
X93627500Y-115137500D03*
X93627500Y-113867500D03*
X93627500Y-112597500D03*
X93627500Y-111327500D03*
D41*
X195372500Y-101825000D03*
X195372500Y-103650000D03*
D28*
X199217500Y-94365000D03*
X199217500Y-92540000D03*
D30*
X97615000Y-116882500D03*
X95790000Y-116882500D03*
D59*
X168158388Y-101988384D03*
X169501890Y-103331886D03*
D30*
X192200000Y-83417500D03*
X190375000Y-83417500D03*
G36*
X109308260Y-92721517D02*
G01*
X109495950Y-92771808D01*
X109496178Y-92771940D01*
X109633624Y-92909386D01*
X109633756Y-92909614D01*
X109684064Y-93097368D01*
X109684064Y-93097632D01*
X109633756Y-93285386D01*
X109633624Y-93285614D01*
X109496178Y-93423060D01*
X109495950Y-93423192D01*
X109308260Y-93473483D01*
X109308130Y-93473500D01*
X102184064Y-93473500D01*
X102184064Y-118221500D01*
X116932064Y-118221500D01*
X116932064Y-115472451D01*
X116932074Y-115472353D01*
X116970162Y-115280866D01*
X116970238Y-115280684D01*
X117078734Y-115118310D01*
X117078874Y-115118170D01*
X117241248Y-115009674D01*
X117241430Y-115009598D01*
X117432917Y-114971510D01*
X117433015Y-114971500D01*
X128432064Y-114971500D01*
X128432064Y-109347434D01*
X128432081Y-109347304D01*
X128482372Y-109159614D01*
X128482504Y-109159386D01*
X128619950Y-109021940D01*
X128620178Y-109021808D01*
X128807932Y-108971500D01*
X128808196Y-108971500D01*
X128995950Y-109021808D01*
X128996178Y-109021940D01*
X129133624Y-109159386D01*
X129133756Y-109159614D01*
X129184047Y-109347304D01*
X129184064Y-109347434D01*
X129184064Y-115222549D01*
X129184054Y-115222647D01*
X129145966Y-115414134D01*
X129145890Y-115414316D01*
X129037394Y-115576690D01*
X129037254Y-115576830D01*
X128874880Y-115685326D01*
X128874698Y-115685402D01*
X128683211Y-115723490D01*
X128683113Y-115723500D01*
X117684064Y-115723500D01*
X117684064Y-118472549D01*
X117684054Y-118472647D01*
X117645966Y-118664134D01*
X117645890Y-118664316D01*
X117537394Y-118826690D01*
X117537254Y-118826830D01*
X117374880Y-118935326D01*
X117374698Y-118935402D01*
X117183211Y-118973490D01*
X117183113Y-118973500D01*
X101933015Y-118973500D01*
X101932917Y-118973490D01*
X101741430Y-118935402D01*
X101741248Y-118935326D01*
X101578874Y-118826830D01*
X101578734Y-118826690D01*
X101470238Y-118664316D01*
X101470162Y-118664134D01*
X101432074Y-118472647D01*
X101432064Y-118472549D01*
X101432064Y-93222451D01*
X101432074Y-93222353D01*
X101470162Y-93030866D01*
X101470238Y-93030684D01*
X101578734Y-92868310D01*
X101578874Y-92868170D01*
X101741248Y-92759674D01*
X101741430Y-92759598D01*
X101932917Y-92721510D01*
X101933015Y-92721500D01*
X109308130Y-92721500D01*
X109308260Y-92721517D01*
G37*
G36*
X133934174Y-77722721D02*
G01*
X134122161Y-77760113D01*
X134126307Y-77761830D01*
X134284714Y-77867676D01*
X134287887Y-77870849D01*
X134393733Y-78029256D01*
X134395450Y-78033401D01*
X134432843Y-78221388D01*
X134433064Y-78223632D01*
X134433064Y-82595986D01*
X134432672Y-82598962D01*
X134383621Y-82782022D01*
X134380645Y-82787178D01*
X134247742Y-82920081D01*
X134242586Y-82923057D01*
X134061040Y-82971702D01*
X134055088Y-82971702D01*
X133873541Y-82923057D01*
X133868385Y-82920081D01*
X133735482Y-82787178D01*
X133732506Y-82782022D01*
X133683456Y-82598962D01*
X133683064Y-82595986D01*
X133683064Y-78972500D01*
X133658285Y-78847925D01*
X133658064Y-78845682D01*
X133658064Y-78497501D01*
X133658063Y-78497500D01*
X133309881Y-78497500D01*
X133307638Y-78497279D01*
X133183063Y-78472500D01*
X114683065Y-78472500D01*
X114558490Y-78497279D01*
X114556247Y-78497500D01*
X114208065Y-78497500D01*
X114208064Y-78497501D01*
X114208064Y-78845682D01*
X114207843Y-78847925D01*
X114183064Y-78972500D01*
X114183064Y-84345986D01*
X114182672Y-84348962D01*
X114133621Y-84532022D01*
X114130645Y-84537178D01*
X113997742Y-84670081D01*
X113992586Y-84673057D01*
X113811040Y-84721702D01*
X113805088Y-84721702D01*
X113623541Y-84673057D01*
X113618385Y-84670081D01*
X113485482Y-84537178D01*
X113482506Y-84532022D01*
X113433456Y-84348962D01*
X113433064Y-84345986D01*
X113433064Y-78223632D01*
X113433285Y-78221389D01*
X113470677Y-78033402D01*
X113472394Y-78029256D01*
X113578240Y-77870849D01*
X113581413Y-77867676D01*
X113739820Y-77761830D01*
X113743966Y-77760113D01*
X113931954Y-77722721D01*
X113934197Y-77722500D01*
X133931931Y-77722500D01*
X133934174Y-77722721D01*
G37*
M02*
