G04 #@! TF.GenerationSoftware,KiCad,Pcbnew,8.0.7*
G04 #@! TF.CreationDate,2025-01-22T18:34:56+01:00*
G04 #@! TF.ProjectId,STM32_GateSignalGenerator,53544d33-325f-4476-9174-655369676e61,rev?*
G04 #@! TF.SameCoordinates,Original*
G04 #@! TF.FileFunction,Paste,Top*
G04 #@! TF.FilePolarity,Positive*
%FSLAX46Y46*%
G04 Gerber Fmt 4.6, Leading zero omitted, Abs format (unit mm)*
G04 Created by KiCad (PCBNEW 8.0.7) date 2025-01-22 18:34:56*
%MOMM*%
%LPD*%
G01*
G04 APERTURE LIST*
G04 Aperture macros list*
%AMRoundRect*
0 Rectangle with rounded corners*
0 $1 Rounding radius*
0 $2 $3 $4 $5 $6 $7 $8 $9 X,Y pos of 4 corners*
0 Add a 4 corners polygon primitive as box body*
4,1,4,$2,$3,$4,$5,$6,$7,$8,$9,$2,$3,0*
0 Add four circle primitives for the rounded corners*
1,1,$1+$1,$2,$3*
1,1,$1+$1,$4,$5*
1,1,$1+$1,$6,$7*
1,1,$1+$1,$8,$9*
0 Add four rect primitives between the rounded corners*
20,1,$1+$1,$2,$3,$4,$5,0*
20,1,$1+$1,$4,$5,$6,$7,0*
20,1,$1+$1,$6,$7,$8,$9,0*
20,1,$1+$1,$8,$9,$2,$3,0*%
G04 Aperture macros list end*
%ADD10C,0.010000*%
%ADD11RoundRect,0.112500X-0.112500X0.187500X-0.112500X-0.187500X0.112500X-0.187500X0.112500X0.187500X0*%
%ADD12RoundRect,0.250000X0.250000X0.475000X-0.250000X0.475000X-0.250000X-0.475000X0.250000X-0.475000X0*%
%ADD13RoundRect,0.102000X-0.492146X0.035355X0.035355X-0.492146X0.492146X-0.035355X-0.035355X0.492146X0*%
%ADD14RoundRect,0.225000X-0.225000X-0.375000X0.225000X-0.375000X0.225000X0.375000X-0.225000X0.375000X0*%
%ADD15RoundRect,0.250000X0.325000X0.650000X-0.325000X0.650000X-0.325000X-0.650000X0.325000X-0.650000X0*%
%ADD16RoundRect,0.250000X0.262500X0.450000X-0.262500X0.450000X-0.262500X-0.450000X0.262500X-0.450000X0*%
%ADD17R,8.200000X2.600000*%
%ADD18RoundRect,0.250000X0.229810X-0.689429X0.689429X-0.229810X-0.229810X0.689429X-0.689429X0.229810X0*%
%ADD19RoundRect,0.150000X-0.825000X-0.150000X0.825000X-0.150000X0.825000X0.150000X-0.825000X0.150000X0*%
%ADD20RoundRect,0.250000X-0.450000X0.262500X-0.450000X-0.262500X0.450000X-0.262500X0.450000X0.262500X0*%
%ADD21RoundRect,0.225000X-0.335876X-0.017678X-0.017678X-0.335876X0.335876X0.017678X0.017678X0.335876X0*%
%ADD22RoundRect,0.250000X0.450000X-0.262500X0.450000X0.262500X-0.450000X0.262500X-0.450000X-0.262500X0*%
%ADD23RoundRect,0.250000X0.312500X0.625000X-0.312500X0.625000X-0.312500X-0.625000X0.312500X-0.625000X0*%
%ADD24RoundRect,0.250000X-0.525000X-0.250000X0.525000X-0.250000X0.525000X0.250000X-0.525000X0.250000X0*%
%ADD25RoundRect,0.200000X-0.200000X-0.275000X0.200000X-0.275000X0.200000X0.275000X-0.200000X0.275000X0*%
%ADD26RoundRect,0.250000X-0.475000X0.250000X-0.475000X-0.250000X0.475000X-0.250000X0.475000X0.250000X0*%
%ADD27R,1.550000X0.600000*%
%ADD28R,2.600000X3.100000*%
%ADD29RoundRect,0.250000X-0.262500X-0.450000X0.262500X-0.450000X0.262500X0.450000X-0.262500X0.450000X0*%
%ADD30RoundRect,0.250000X0.550000X-1.500000X0.550000X1.500000X-0.550000X1.500000X-0.550000X-1.500000X0*%
%ADD31RoundRect,0.225000X0.225000X0.375000X-0.225000X0.375000X-0.225000X-0.375000X0.225000X-0.375000X0*%
%ADD32RoundRect,0.250000X-0.325000X-0.650000X0.325000X-0.650000X0.325000X0.650000X-0.325000X0.650000X0*%
%ADD33RoundRect,0.250000X0.475000X-0.250000X0.475000X0.250000X-0.475000X0.250000X-0.475000X-0.250000X0*%
%ADD34RoundRect,0.250000X0.650000X-0.325000X0.650000X0.325000X-0.650000X0.325000X-0.650000X-0.325000X0*%
%ADD35RoundRect,0.225000X-0.017678X0.335876X-0.335876X0.017678X0.017678X-0.335876X0.335876X-0.017678X0*%
%ADD36RoundRect,0.150000X0.150000X-0.512500X0.150000X0.512500X-0.150000X0.512500X-0.150000X-0.512500X0*%
%ADD37RoundRect,0.200000X-0.275000X0.200000X-0.275000X-0.200000X0.275000X-0.200000X0.275000X0.200000X0*%
%ADD38R,4.000000X7.000000*%
%ADD39RoundRect,0.150000X-0.150000X0.587500X-0.150000X-0.587500X0.150000X-0.587500X0.150000X0.587500X0*%
%ADD40RoundRect,0.250000X0.250000X-0.525000X0.250000X0.525000X-0.250000X0.525000X-0.250000X-0.525000X0*%
%ADD41RoundRect,0.250000X-0.300000X0.300000X-0.300000X-0.300000X0.300000X-0.300000X0.300000X0.300000X0*%
%ADD42RoundRect,0.250000X-1.500000X-0.550000X1.500000X-0.550000X1.500000X0.550000X-1.500000X0.550000X0*%
%ADD43RoundRect,0.075000X0.441942X0.548008X-0.548008X-0.441942X-0.441942X-0.548008X0.548008X0.441942X0*%
%ADD44RoundRect,0.075000X-0.441942X0.548008X-0.548008X0.441942X0.441942X-0.548008X0.548008X-0.441942X0*%
%ADD45RoundRect,0.250000X-0.250000X-0.475000X0.250000X-0.475000X0.250000X0.475000X-0.250000X0.475000X0*%
%ADD46RoundRect,0.243750X0.456250X-0.243750X0.456250X0.243750X-0.456250X0.243750X-0.456250X-0.243750X0*%
%ADD47RoundRect,0.243750X-0.456250X0.243750X-0.456250X-0.243750X0.456250X-0.243750X0.456250X0.243750X0*%
%ADD48RoundRect,0.250000X0.300000X-0.300000X0.300000X0.300000X-0.300000X0.300000X-0.300000X-0.300000X0*%
%ADD49R,3.175000X4.950000*%
%ADD50RoundRect,0.055000X-0.220000X-0.345000X0.220000X-0.345000X0.220000X0.345000X-0.220000X0.345000X0*%
%ADD51R,0.250000X0.800000*%
%ADD52R,0.800000X0.250000*%
%ADD53R,0.850000X0.800000*%
%ADD54R,0.850000X0.850000*%
%ADD55R,1.050000X0.450000*%
%ADD56R,2.790000X0.740000*%
%ADD57RoundRect,0.250000X0.300000X0.300000X-0.300000X0.300000X-0.300000X-0.300000X0.300000X-0.300000X0*%
%ADD58RoundRect,0.225000X0.225000X0.250000X-0.225000X0.250000X-0.225000X-0.250000X0.225000X-0.250000X0*%
%ADD59RoundRect,0.150000X0.512500X0.150000X-0.512500X0.150000X-0.512500X-0.150000X0.512500X-0.150000X0*%
%ADD60R,0.600000X1.550000*%
%ADD61R,3.100000X2.600000*%
%ADD62RoundRect,0.225000X-0.225000X-0.250000X0.225000X-0.250000X0.225000X0.250000X-0.225000X0.250000X0*%
%ADD63RoundRect,0.250000X0.850000X0.350000X-0.850000X0.350000X-0.850000X-0.350000X0.850000X-0.350000X0*%
%ADD64RoundRect,0.250000X1.275000X1.125000X-1.275000X1.125000X-1.275000X-1.125000X1.275000X-1.125000X0*%
%ADD65RoundRect,0.243750X0.243750X0.456250X-0.243750X0.456250X-0.243750X-0.456250X0.243750X-0.456250X0*%
G04 APERTURE END LIST*
D10*
X208485500Y-117597500D02*
X205695500Y-117597500D01*
X205695500Y-116857500D01*
X208485500Y-116857500D01*
X208485500Y-117597500D01*
G36*
X208485500Y-117597500D02*
G01*
X205695500Y-117597500D01*
X205695500Y-116857500D01*
X208485500Y-116857500D01*
X208485500Y-117597500D01*
G37*
X208485500Y-118867500D02*
X205695500Y-118867500D01*
X205695500Y-118127500D01*
X208485500Y-118127500D01*
X208485500Y-118867500D01*
G36*
X208485500Y-118867500D02*
G01*
X205695500Y-118867500D01*
X205695500Y-118127500D01*
X208485500Y-118127500D01*
X208485500Y-118867500D01*
G37*
X208485500Y-120137500D02*
X205695500Y-120137500D01*
X205695500Y-119397500D01*
X208485500Y-119397500D01*
X208485500Y-120137500D01*
G36*
X208485500Y-120137500D02*
G01*
X205695500Y-120137500D01*
X205695500Y-119397500D01*
X208485500Y-119397500D01*
X208485500Y-120137500D01*
G37*
X208485500Y-121407500D02*
X205695500Y-121407500D01*
X205695500Y-120667500D01*
X208485500Y-120667500D01*
X208485500Y-121407500D01*
G36*
X208485500Y-121407500D02*
G01*
X205695500Y-121407500D01*
X205695500Y-120667500D01*
X208485500Y-120667500D01*
X208485500Y-121407500D01*
G37*
X208485500Y-122677500D02*
X205695500Y-122677500D01*
X205695500Y-121937500D01*
X208485500Y-121937500D01*
X208485500Y-122677500D01*
G36*
X208485500Y-122677500D02*
G01*
X205695500Y-122677500D01*
X205695500Y-121937500D01*
X208485500Y-121937500D01*
X208485500Y-122677500D01*
G37*
X212549500Y-117597500D02*
X209759500Y-117597500D01*
X209759500Y-116857500D01*
X212549500Y-116857500D01*
X212549500Y-117597500D01*
G36*
X212549500Y-117597500D02*
G01*
X209759500Y-117597500D01*
X209759500Y-116857500D01*
X212549500Y-116857500D01*
X212549500Y-117597500D01*
G37*
X212549500Y-118867500D02*
X209759500Y-118867500D01*
X209759500Y-118127500D01*
X212549500Y-118127500D01*
X212549500Y-118867500D01*
G36*
X212549500Y-118867500D02*
G01*
X209759500Y-118867500D01*
X209759500Y-118127500D01*
X212549500Y-118127500D01*
X212549500Y-118867500D01*
G37*
X212549500Y-120137500D02*
X209759500Y-120137500D01*
X209759500Y-119397500D01*
X212549500Y-119397500D01*
X212549500Y-120137500D01*
G36*
X212549500Y-120137500D02*
G01*
X209759500Y-120137500D01*
X209759500Y-119397500D01*
X212549500Y-119397500D01*
X212549500Y-120137500D01*
G37*
X212549500Y-121407500D02*
X209759500Y-121407500D01*
X209759500Y-120667500D01*
X212549500Y-120667500D01*
X212549500Y-121407500D01*
G36*
X212549500Y-121407500D02*
G01*
X209759500Y-121407500D01*
X209759500Y-120667500D01*
X212549500Y-120667500D01*
X212549500Y-121407500D01*
G37*
X212549500Y-122677500D02*
X209759500Y-122677500D01*
X209759500Y-121937500D01*
X212549500Y-121937500D01*
X212549500Y-122677500D01*
G36*
X212549500Y-122677500D02*
G01*
X209759500Y-122677500D01*
X209759500Y-121937500D01*
X212549500Y-121937500D01*
X212549500Y-122677500D01*
G37*
D11*
X91345000Y-82202500D03*
X91345000Y-84302500D03*
D12*
X202395000Y-127780000D03*
X200495000Y-127780000D03*
D13*
X179079651Y-95585532D03*
X180104956Y-96610837D03*
X180918129Y-95797664D03*
X179892824Y-94772359D03*
D14*
X98940351Y-138507500D03*
X102240351Y-138507500D03*
D15*
X147008064Y-114362500D03*
X144058064Y-114362500D03*
D16*
X208512500Y-96632500D03*
X206687500Y-96632500D03*
D17*
X118943064Y-82702500D03*
X118943064Y-88302500D03*
D18*
X168917017Y-112707983D03*
X171002983Y-110622017D03*
D19*
X195817500Y-97867500D03*
X195817500Y-99137500D03*
X195817500Y-100407500D03*
X195817500Y-101677500D03*
X200767500Y-101677500D03*
X200767500Y-100407500D03*
X200767500Y-99137500D03*
X200767500Y-97867500D03*
D20*
X93288627Y-85771956D03*
X93288627Y-87596956D03*
D21*
X180900451Y-93715234D03*
X181996467Y-94811250D03*
D22*
X201245000Y-113442500D03*
X201245000Y-111617500D03*
D23*
X95687851Y-140777500D03*
X92762851Y-140777500D03*
D24*
X191830000Y-110890000D03*
X197080000Y-110890000D03*
X191830000Y-114090000D03*
X197080000Y-114090000D03*
D25*
X202602500Y-120847500D03*
X204252500Y-120847500D03*
D26*
X119117851Y-141777500D03*
X119117851Y-143677500D03*
D20*
X191682500Y-99880000D03*
X191682500Y-101705000D03*
D27*
X126985564Y-83290000D03*
X126985564Y-84560000D03*
X126985564Y-85830000D03*
X126985564Y-87100000D03*
X132385564Y-87100000D03*
X132385564Y-85830000D03*
X132385564Y-84560000D03*
X132385564Y-83290000D03*
D28*
X129685564Y-85195000D03*
D20*
X203530000Y-137315000D03*
X203530000Y-139140000D03*
D29*
X206720000Y-99192500D03*
X208545000Y-99192500D03*
D30*
X119960564Y-106510000D03*
X119960564Y-101110000D03*
D31*
X106937851Y-138507500D03*
X103637851Y-138507500D03*
D32*
X110668064Y-90252500D03*
X113618064Y-90252500D03*
D20*
X204535000Y-132097500D03*
X204535000Y-133922500D03*
X178255000Y-112277500D03*
X178255000Y-114102500D03*
D33*
X199315000Y-113469999D03*
X199315000Y-111570001D03*
D34*
X134583064Y-87117500D03*
X134583064Y-84167500D03*
D35*
X179090258Y-93439462D03*
X177994242Y-94535478D03*
D36*
X99215351Y-142845000D03*
X100165351Y-142845000D03*
X101115351Y-142845000D03*
X101115351Y-140570000D03*
X99215351Y-140570000D03*
D19*
X197400000Y-129555000D03*
X197400000Y-130825000D03*
X197400000Y-132095000D03*
X197400000Y-133365000D03*
X202350000Y-133365000D03*
X202350000Y-132095000D03*
X202350000Y-130825000D03*
X202350000Y-129555000D03*
D15*
X141685564Y-89422500D03*
X138735564Y-89422500D03*
D12*
X153810564Y-100272500D03*
X151910564Y-100272500D03*
D32*
X110668064Y-87952500D03*
X113618064Y-87952500D03*
D37*
X203522500Y-116842500D03*
X203522500Y-118492500D03*
D38*
X104760564Y-111010000D03*
X114760564Y-111010000D03*
D33*
X93308627Y-84254456D03*
X93308627Y-82354456D03*
D12*
X153810564Y-104192500D03*
X151910564Y-104192500D03*
D25*
X202602500Y-122307500D03*
X204252500Y-122307500D03*
D33*
X95265000Y-84242500D03*
X95265000Y-82342500D03*
D22*
X153142500Y-85410000D03*
X153142500Y-83585000D03*
D12*
X171620000Y-135585000D03*
X169720000Y-135585000D03*
D39*
X133592500Y-140440000D03*
X131692500Y-140440000D03*
X132642500Y-142315000D03*
D34*
X139183064Y-87117500D03*
X139183064Y-84167500D03*
D40*
X168440000Y-142840000D03*
X168440000Y-137590000D03*
X171640000Y-142840000D03*
X171640000Y-137590000D03*
D22*
X168142500Y-85352500D03*
X168142500Y-83527500D03*
D29*
X105138627Y-87946956D03*
X106963627Y-87946956D03*
D22*
X160642500Y-85410000D03*
X160642500Y-83585000D03*
D41*
X107793064Y-94852500D03*
X107793064Y-97652500D03*
D22*
X146642500Y-85410000D03*
X146642500Y-83585000D03*
D12*
X133592500Y-138477500D03*
X131692500Y-138477500D03*
D42*
X121193064Y-94152500D03*
X126593064Y-94152500D03*
D29*
X127455564Y-88902500D03*
X129280564Y-88902500D03*
X93116127Y-90044456D03*
X94941127Y-90044456D03*
X131710000Y-136547500D03*
X133535000Y-136547500D03*
D43*
X178216981Y-101136319D03*
X177863428Y-100782766D03*
X177509875Y-100429213D03*
X177156321Y-100075659D03*
X176802768Y-99722106D03*
X176449214Y-99368552D03*
X176095661Y-99014999D03*
X175742108Y-98661446D03*
X175388554Y-98307892D03*
X175035001Y-97954339D03*
X174681448Y-97600786D03*
X174327894Y-97247232D03*
X173974341Y-96893679D03*
X173620787Y-96540125D03*
X173267234Y-96186572D03*
X172913681Y-95833019D03*
D44*
X170191319Y-95833019D03*
X169837766Y-96186572D03*
X169484213Y-96540125D03*
X169130659Y-96893679D03*
X168777106Y-97247232D03*
X168423552Y-97600786D03*
X168069999Y-97954339D03*
X167716446Y-98307892D03*
X167362892Y-98661446D03*
X167009339Y-99014999D03*
X166655786Y-99368552D03*
X166302232Y-99722106D03*
X165948679Y-100075659D03*
X165595125Y-100429213D03*
X165241572Y-100782766D03*
X164888019Y-101136319D03*
D43*
X164888019Y-103858681D03*
X165241572Y-104212234D03*
X165595125Y-104565787D03*
X165948679Y-104919341D03*
X166302232Y-105272894D03*
X166655786Y-105626448D03*
X167009339Y-105980001D03*
X167362892Y-106333554D03*
X167716446Y-106687108D03*
X168069999Y-107040661D03*
X168423552Y-107394214D03*
X168777106Y-107747768D03*
X169130659Y-108101321D03*
X169484213Y-108454875D03*
X169837766Y-108808428D03*
X170191319Y-109161981D03*
D44*
X172913681Y-109161981D03*
X173267234Y-108808428D03*
X173620787Y-108454875D03*
X173974341Y-108101321D03*
X174327894Y-107747768D03*
X174681448Y-107394214D03*
X175035001Y-107040661D03*
X175388554Y-106687108D03*
X175742108Y-106333554D03*
X176095661Y-105980001D03*
X176449214Y-105626448D03*
X176802768Y-105272894D03*
X177156321Y-104919341D03*
X177509875Y-104565787D03*
X177863428Y-104212234D03*
X178216981Y-103858681D03*
D45*
X107875564Y-102320000D03*
X109775564Y-102320000D03*
D29*
X143998064Y-116462500D03*
X145823064Y-116462500D03*
D46*
X203530000Y-142535000D03*
X203530000Y-140660000D03*
D47*
X180155000Y-112252499D03*
X180155000Y-114127501D03*
D48*
X104798627Y-84031956D03*
X104798627Y-81231956D03*
D22*
X115390000Y-100217500D03*
X115390000Y-98392500D03*
X155142500Y-85410000D03*
X155142500Y-83585000D03*
D49*
X144753064Y-93712500D03*
X153768064Y-93712500D03*
D33*
X109025351Y-144742500D03*
X109025351Y-142842500D03*
X102847851Y-142307500D03*
X102847851Y-140407500D03*
D26*
X129962500Y-140645000D03*
X129962500Y-142545000D03*
D12*
X153810564Y-102232500D03*
X151910564Y-102232500D03*
D32*
X110668064Y-92552500D03*
X113618064Y-92552500D03*
D34*
X107151127Y-84121956D03*
X107151127Y-81171956D03*
D16*
X171585000Y-133645000D03*
X169760000Y-133645000D03*
D25*
X202602500Y-123767500D03*
X204252500Y-123767500D03*
D20*
X191682500Y-96517500D03*
X191682500Y-98342500D03*
D34*
X136883064Y-87117500D03*
X136883064Y-84167500D03*
D45*
X197352500Y-96082500D03*
X199252500Y-96082500D03*
D22*
X184152500Y-85360000D03*
X184152500Y-83535000D03*
X132783064Y-94602500D03*
X132783064Y-92777500D03*
D16*
X103860351Y-136407500D03*
X102035351Y-136407500D03*
D50*
X104777851Y-142657500D03*
X105727851Y-142657500D03*
X106677851Y-142657500D03*
X106677851Y-140257500D03*
X105727851Y-140257500D03*
X104777851Y-140257500D03*
D20*
X134683064Y-92777500D03*
X134683064Y-94602500D03*
D51*
X98827500Y-85717500D03*
X98827500Y-86817500D03*
D52*
X99602500Y-84942500D03*
D53*
X99602500Y-85717500D03*
D54*
X99602500Y-86817500D03*
D52*
X99602500Y-87592500D03*
X100702500Y-84942500D03*
D54*
X100702500Y-85717500D03*
X100702500Y-86817500D03*
D52*
X100702500Y-87592500D03*
D51*
X101477500Y-85717500D03*
X101477500Y-86817500D03*
D55*
X97377500Y-83992500D03*
X97377500Y-84642500D03*
X97377500Y-85292500D03*
X97377500Y-85942500D03*
X97377500Y-86592500D03*
X97377500Y-87242500D03*
X97377500Y-87892500D03*
X97377500Y-88542500D03*
X102927500Y-88542500D03*
X102927500Y-87892500D03*
X102927500Y-87242500D03*
X102927500Y-86592500D03*
X102927500Y-85942500D03*
X102927500Y-85292500D03*
X102927500Y-84642500D03*
X102927500Y-83992500D03*
D34*
X148983064Y-109987500D03*
X148983064Y-107037500D03*
D56*
X211157500Y-124847500D03*
X207087500Y-124847500D03*
X211157500Y-123577500D03*
X207087500Y-123577500D03*
X211157500Y-122307500D03*
X207087500Y-122307500D03*
X211157500Y-121037500D03*
X207087500Y-121037500D03*
X211157500Y-119767500D03*
X207087500Y-119767500D03*
X211157500Y-118497500D03*
X207087500Y-118497500D03*
X211157500Y-117227500D03*
X207087500Y-117227500D03*
D45*
X93265351Y-145127500D03*
X95165351Y-145127500D03*
D26*
X127962500Y-140645000D03*
X127962500Y-142545000D03*
D57*
X132367899Y-81280427D03*
X129567899Y-81280427D03*
D22*
X170142500Y-85352500D03*
X170142500Y-83527500D03*
D58*
X140990564Y-91302500D03*
X139440564Y-91302500D03*
D29*
X124080564Y-88895000D03*
X125905564Y-88895000D03*
D59*
X140780564Y-94682500D03*
X140780564Y-93732500D03*
X140780564Y-92782500D03*
X138505564Y-92782500D03*
X138505564Y-93732500D03*
X138505564Y-94682500D03*
D22*
X115390000Y-103600000D03*
X115390000Y-101775000D03*
D33*
X97477851Y-142307500D03*
X97477851Y-140407500D03*
D30*
X127060564Y-106535000D03*
X127060564Y-101135000D03*
D26*
X124943064Y-81502500D03*
X124943064Y-83402500D03*
D45*
X105126127Y-85971956D03*
X107026127Y-85971956D03*
D26*
X193612500Y-99822500D03*
X193612500Y-101722500D03*
D60*
X109788064Y-100252500D03*
X111058064Y-100252500D03*
X112328064Y-100252500D03*
X113598064Y-100252500D03*
X113598064Y-94852500D03*
X112328064Y-94852500D03*
X111058064Y-94852500D03*
X109788064Y-94852500D03*
D61*
X111693064Y-97552500D03*
D22*
X129992500Y-138187500D03*
X129992500Y-136362500D03*
D29*
X96476127Y-90034456D03*
X98301127Y-90034456D03*
D22*
X176662500Y-85360000D03*
X176662500Y-83535000D03*
D23*
X95687851Y-143027500D03*
X92762851Y-143027500D03*
D22*
X162642500Y-85410000D03*
X162642500Y-83585000D03*
D19*
X111222851Y-140887500D03*
X111222851Y-142157500D03*
X111222851Y-143427500D03*
X111222851Y-144697500D03*
X116172851Y-144697500D03*
X116172851Y-143427500D03*
X116172851Y-142157500D03*
X116172851Y-140887500D03*
D62*
X136855564Y-96162500D03*
X138405564Y-96162500D03*
D63*
X146483064Y-111992500D03*
X146483064Y-109712500D03*
D64*
X141858064Y-111237500D03*
X141858064Y-108187500D03*
X138508064Y-111237500D03*
X138508064Y-108187500D03*
D63*
X146483064Y-107432500D03*
D65*
X149208064Y-116462500D03*
X147333064Y-116462500D03*
M02*
