G04 #@! TF.GenerationSoftware,KiCad,Pcbnew,8.0.7*
G04 #@! TF.CreationDate,2025-01-22T18:34:57+01:00*
G04 #@! TF.ProjectId,STM32_GateSignalGenerator,53544d33-325f-4476-9174-655369676e61,rev?*
G04 #@! TF.SameCoordinates,Original*
G04 #@! TF.FileFunction,Soldermask,Top*
G04 #@! TF.FilePolarity,Negative*
%FSLAX46Y46*%
G04 Gerber Fmt 4.6, Leading zero omitted, Abs format (unit mm)*
G04 Created by KiCad (PCBNEW 8.0.7) date 2025-01-22 18:34:57*
%MOMM*%
%LPD*%
G01*
G04 APERTURE LIST*
G04 Aperture macros list*
%AMRoundRect*
0 Rectangle with rounded corners*
0 $1 Rounding radius*
0 $2 $3 $4 $5 $6 $7 $8 $9 X,Y pos of 4 corners*
0 Add a 4 corners polygon primitive as box body*
4,1,4,$2,$3,$4,$5,$6,$7,$8,$9,$2,$3,0*
0 Add four circle primitives for the rounded corners*
1,1,$1+$1,$2,$3*
1,1,$1+$1,$4,$5*
1,1,$1+$1,$6,$7*
1,1,$1+$1,$8,$9*
0 Add four rect primitives between the rounded corners*
20,1,$1+$1,$2,$3,$4,$5,0*
20,1,$1+$1,$4,$5,$6,$7,0*
20,1,$1+$1,$6,$7,$8,$9,0*
20,1,$1+$1,$8,$9,$2,$3,0*%
G04 Aperture macros list end*
%ADD10RoundRect,0.112500X-0.112500X0.187500X-0.112500X-0.187500X0.112500X-0.187500X0.112500X0.187500X0*%
%ADD11RoundRect,0.250000X0.250000X0.475000X-0.250000X0.475000X-0.250000X-0.475000X0.250000X-0.475000X0*%
%ADD12RoundRect,0.102000X-0.492146X0.035355X0.035355X-0.492146X0.492146X-0.035355X-0.035355X0.492146X0*%
%ADD13R,2.100000X2.100000*%
%ADD14C,2.100000*%
%ADD15R,1.700000X1.700000*%
%ADD16O,1.700000X1.700000*%
%ADD17C,2.800000*%
%ADD18RoundRect,0.225000X-0.225000X-0.375000X0.225000X-0.375000X0.225000X0.375000X-0.225000X0.375000X0*%
%ADD19RoundRect,0.250000X0.325000X0.650000X-0.325000X0.650000X-0.325000X-0.650000X0.325000X-0.650000X0*%
%ADD20RoundRect,0.250000X0.262500X0.450000X-0.262500X0.450000X-0.262500X-0.450000X0.262500X-0.450000X0*%
%ADD21R,8.200000X2.600000*%
%ADD22RoundRect,0.250000X0.229810X-0.689429X0.689429X-0.229810X-0.229810X0.689429X-0.689429X0.229810X0*%
%ADD23RoundRect,0.150000X-0.825000X-0.150000X0.825000X-0.150000X0.825000X0.150000X-0.825000X0.150000X0*%
%ADD24RoundRect,0.250000X0.725000X-0.600000X0.725000X0.600000X-0.725000X0.600000X-0.725000X-0.600000X0*%
%ADD25O,1.950000X1.700000*%
%ADD26RoundRect,0.250000X-0.450000X0.262500X-0.450000X-0.262500X0.450000X-0.262500X0.450000X0.262500X0*%
%ADD27RoundRect,0.225000X-0.335876X-0.017678X-0.017678X-0.335876X0.335876X0.017678X0.017678X0.335876X0*%
%ADD28RoundRect,0.250000X0.450000X-0.262500X0.450000X0.262500X-0.450000X0.262500X-0.450000X-0.262500X0*%
%ADD29RoundRect,0.250000X0.312500X0.625000X-0.312500X0.625000X-0.312500X-0.625000X0.312500X-0.625000X0*%
%ADD30RoundRect,0.250000X-0.525000X-0.250000X0.525000X-0.250000X0.525000X0.250000X-0.525000X0.250000X0*%
%ADD31RoundRect,0.200000X-0.200000X-0.275000X0.200000X-0.275000X0.200000X0.275000X-0.200000X0.275000X0*%
%ADD32RoundRect,0.250000X-0.475000X0.250000X-0.475000X-0.250000X0.475000X-0.250000X0.475000X0.250000X0*%
%ADD33R,1.550000X0.600000*%
%ADD34R,2.600000X3.100000*%
%ADD35C,3.200000*%
%ADD36RoundRect,0.250000X-0.262500X-0.450000X0.262500X-0.450000X0.262500X0.450000X-0.262500X0.450000X0*%
%ADD37RoundRect,0.250000X0.550000X-1.500000X0.550000X1.500000X-0.550000X1.500000X-0.550000X-1.500000X0*%
%ADD38RoundRect,0.225000X0.225000X0.375000X-0.225000X0.375000X-0.225000X-0.375000X0.225000X-0.375000X0*%
%ADD39RoundRect,0.250000X-0.325000X-0.650000X0.325000X-0.650000X0.325000X0.650000X-0.325000X0.650000X0*%
%ADD40RoundRect,0.250000X0.750000X-0.600000X0.750000X0.600000X-0.750000X0.600000X-0.750000X-0.600000X0*%
%ADD41O,2.000000X1.700000*%
%ADD42RoundRect,0.250000X0.475000X-0.250000X0.475000X0.250000X-0.475000X0.250000X-0.475000X-0.250000X0*%
%ADD43RoundRect,0.250000X0.650000X-0.325000X0.650000X0.325000X-0.650000X0.325000X-0.650000X-0.325000X0*%
%ADD44RoundRect,0.225000X-0.017678X0.335876X-0.335876X0.017678X0.017678X-0.335876X0.335876X-0.017678X0*%
%ADD45RoundRect,0.150000X0.150000X-0.512500X0.150000X0.512500X-0.150000X0.512500X-0.150000X-0.512500X0*%
%ADD46RoundRect,0.200000X-0.275000X0.200000X-0.275000X-0.200000X0.275000X-0.200000X0.275000X0.200000X0*%
%ADD47R,4.000000X7.000000*%
%ADD48RoundRect,0.150000X-0.150000X0.587500X-0.150000X-0.587500X0.150000X-0.587500X0.150000X0.587500X0*%
%ADD49RoundRect,0.250000X0.250000X-0.525000X0.250000X0.525000X-0.250000X0.525000X-0.250000X-0.525000X0*%
%ADD50RoundRect,0.250000X-0.300000X0.300000X-0.300000X-0.300000X0.300000X-0.300000X0.300000X0.300000X0*%
%ADD51RoundRect,0.250000X-1.500000X-0.550000X1.500000X-0.550000X1.500000X0.550000X-1.500000X0.550000X0*%
%ADD52RoundRect,0.075000X0.441942X0.548008X-0.548008X-0.441942X-0.441942X-0.548008X0.548008X0.441942X0*%
%ADD53RoundRect,0.075000X-0.441942X0.548008X-0.548008X0.441942X0.441942X-0.548008X0.548008X-0.441942X0*%
%ADD54RoundRect,0.250000X-0.250000X-0.475000X0.250000X-0.475000X0.250000X0.475000X-0.250000X0.475000X0*%
%ADD55RoundRect,0.243750X0.456250X-0.243750X0.456250X0.243750X-0.456250X0.243750X-0.456250X-0.243750X0*%
%ADD56RoundRect,0.243750X-0.456250X0.243750X-0.456250X-0.243750X0.456250X-0.243750X0.456250X0.243750X0*%
%ADD57RoundRect,0.250000X0.300000X-0.300000X0.300000X0.300000X-0.300000X0.300000X-0.300000X-0.300000X0*%
%ADD58R,3.175000X4.950000*%
%ADD59RoundRect,0.249999X-1.550001X0.790001X-1.550001X-0.790001X1.550001X-0.790001X1.550001X0.790001X0*%
%ADD60O,3.600000X2.080000*%
%ADD61R,1.200000X1.200000*%
%ADD62C,1.200000*%
%ADD63RoundRect,0.055000X-0.220000X-0.345000X0.220000X-0.345000X0.220000X0.345000X-0.220000X0.345000X0*%
%ADD64R,1.000000X1.000000*%
%ADD65O,1.000000X1.000000*%
%ADD66R,3.000000X3.000000*%
%ADD67R,1.050000X0.450000*%
%ADD68C,1.020000*%
%ADD69RoundRect,0.102000X1.395000X-0.370000X1.395000X0.370000X-1.395000X0.370000X-1.395000X-0.370000X0*%
%ADD70RoundRect,0.250000X0.300000X0.300000X-0.300000X0.300000X-0.300000X-0.300000X0.300000X-0.300000X0*%
%ADD71RoundRect,0.225000X0.225000X0.250000X-0.225000X0.250000X-0.225000X-0.250000X0.225000X-0.250000X0*%
%ADD72RoundRect,0.150000X0.512500X0.150000X-0.512500X0.150000X-0.512500X-0.150000X0.512500X-0.150000X0*%
%ADD73R,0.600000X1.550000*%
%ADD74R,3.100000X2.600000*%
%ADD75RoundRect,0.225000X-0.225000X-0.250000X0.225000X-0.250000X0.225000X0.250000X-0.225000X0.250000X0*%
%ADD76RoundRect,0.250000X0.850000X0.350000X-0.850000X0.350000X-0.850000X-0.350000X0.850000X-0.350000X0*%
%ADD77RoundRect,0.249997X2.950003X2.650003X-2.950003X2.650003X-2.950003X-2.650003X2.950003X-2.650003X0*%
%ADD78RoundRect,0.243750X0.243750X0.456250X-0.243750X0.456250X-0.243750X-0.456250X0.243750X-0.456250X0*%
G04 APERTURE END LIST*
D10*
X91345000Y-82202500D03*
X91345000Y-84302500D03*
D11*
X202395000Y-127780000D03*
X200495000Y-127780000D03*
D12*
X179079651Y-95585532D03*
X180104956Y-96610837D03*
X180918129Y-95797664D03*
X179892824Y-94772359D03*
D13*
X85652500Y-109607500D03*
D14*
X85652500Y-113107500D03*
X85652500Y-116607500D03*
D15*
X164750000Y-73215000D03*
D16*
X162210000Y-73215000D03*
X159670000Y-73215000D03*
X157130000Y-73215000D03*
X154590000Y-73215000D03*
D17*
X176642500Y-79497500D03*
D13*
X85652500Y-94617500D03*
D14*
X85652500Y-98117500D03*
X85652500Y-101617500D03*
D18*
X98940351Y-138507500D03*
X102240351Y-138507500D03*
D17*
X110633064Y-81222500D03*
X130033064Y-97122500D03*
D19*
X147008064Y-114362500D03*
X144058064Y-114362500D03*
D20*
X208512500Y-96632500D03*
X206687500Y-96632500D03*
D21*
X118943064Y-82702500D03*
X118943064Y-88302500D03*
D22*
X168917017Y-112707983D03*
X171002983Y-110622017D03*
D23*
X195817500Y-97867500D03*
X195817500Y-99137500D03*
X195817500Y-100407500D03*
X195817500Y-101677500D03*
X200767500Y-101677500D03*
X200767500Y-100407500D03*
X200767500Y-99137500D03*
X200767500Y-97867500D03*
D17*
X154142500Y-79497500D03*
D24*
X185072500Y-115147500D03*
D25*
X185072500Y-112647500D03*
X185072500Y-110147500D03*
X185072500Y-107647500D03*
X185072500Y-105147500D03*
D26*
X93288627Y-85771956D03*
X93288627Y-87596956D03*
D27*
X180900451Y-93715234D03*
X181996467Y-94811250D03*
D28*
X201245000Y-113442500D03*
X201245000Y-111617500D03*
D29*
X95687851Y-140777500D03*
X92762851Y-140777500D03*
D30*
X191830000Y-110890000D03*
X197080000Y-110890000D03*
X191830000Y-114090000D03*
X197080000Y-114090000D03*
D31*
X202602500Y-120847500D03*
X204252500Y-120847500D03*
D17*
X161642500Y-79497500D03*
D32*
X119117851Y-141777500D03*
X119117851Y-143677500D03*
D26*
X191682500Y-99880000D03*
X191682500Y-101705000D03*
D33*
X126985564Y-83290000D03*
X126985564Y-84560000D03*
X126985564Y-85830000D03*
X126985564Y-87100000D03*
X132385564Y-87100000D03*
X132385564Y-85830000D03*
X132385564Y-84560000D03*
X132385564Y-83290000D03*
D34*
X129685564Y-85195000D03*
D26*
X203530000Y-137315000D03*
X203530000Y-139140000D03*
D17*
X132852500Y-145397500D03*
D35*
X102150000Y-73115000D03*
D17*
X152455000Y-107490000D03*
D36*
X206720000Y-99192500D03*
X208545000Y-99192500D03*
D37*
X119960564Y-106510000D03*
X119960564Y-101110000D03*
D38*
X106937851Y-138507500D03*
X103637851Y-138507500D03*
D39*
X110668064Y-90252500D03*
X113618064Y-90252500D03*
D26*
X204535000Y-132097500D03*
X204535000Y-133922500D03*
D40*
X157642500Y-104687500D03*
D41*
X157642500Y-102187500D03*
D26*
X178255000Y-112277500D03*
X178255000Y-114102500D03*
D42*
X199315000Y-113469999D03*
X199315000Y-111570001D03*
D24*
X157712500Y-129677500D03*
D25*
X157712500Y-127177500D03*
X157712500Y-124677500D03*
X157712500Y-122177500D03*
X157712500Y-119677500D03*
X157712500Y-117177500D03*
X157712500Y-114677500D03*
X157712500Y-112177500D03*
D43*
X134583064Y-87117500D03*
X134583064Y-84167500D03*
D44*
X179090258Y-93439462D03*
X177994242Y-94535478D03*
D45*
X99215351Y-142845000D03*
X100165351Y-142845000D03*
X101115351Y-142845000D03*
X101115351Y-140570000D03*
X99215351Y-140570000D03*
D23*
X197400000Y-129555000D03*
X197400000Y-130825000D03*
X197400000Y-132095000D03*
X197400000Y-133365000D03*
X202350000Y-133365000D03*
X202350000Y-132095000D03*
X202350000Y-130825000D03*
X202350000Y-129555000D03*
D19*
X141685564Y-89422500D03*
X138735564Y-89422500D03*
D11*
X153810564Y-100272500D03*
X151910564Y-100272500D03*
D39*
X110668064Y-87952500D03*
X113618064Y-87952500D03*
D15*
X95750000Y-73215000D03*
D16*
X93210000Y-73215000D03*
X90670000Y-73215000D03*
X88130000Y-73215000D03*
X85590000Y-73215000D03*
D46*
X203522500Y-116842500D03*
X203522500Y-118492500D03*
D17*
X146642500Y-79497500D03*
D47*
X104760564Y-111010000D03*
X114760564Y-111010000D03*
D42*
X93308627Y-84254456D03*
X93308627Y-82354456D03*
D11*
X153810564Y-104192500D03*
X151910564Y-104192500D03*
D31*
X202602500Y-122307500D03*
X204252500Y-122307500D03*
D42*
X95265000Y-84242500D03*
X95265000Y-82342500D03*
D28*
X153142500Y-85410000D03*
X153142500Y-83585000D03*
D11*
X171620000Y-135585000D03*
X169720000Y-135585000D03*
D48*
X133592500Y-140440000D03*
X131692500Y-140440000D03*
X132642500Y-142315000D03*
D43*
X139183064Y-87117500D03*
X139183064Y-84167500D03*
D49*
X168440000Y-142840000D03*
X168440000Y-137590000D03*
X171640000Y-142840000D03*
X171640000Y-137590000D03*
D28*
X168142500Y-85352500D03*
X168142500Y-83527500D03*
D36*
X105138627Y-87946956D03*
X106963627Y-87946956D03*
D28*
X160642500Y-85410000D03*
X160642500Y-83585000D03*
D50*
X107793064Y-94852500D03*
X107793064Y-97652500D03*
D28*
X146642500Y-85410000D03*
X146642500Y-83585000D03*
D11*
X133592500Y-138477500D03*
X131692500Y-138477500D03*
D51*
X121193064Y-94152500D03*
X126593064Y-94152500D03*
D17*
X132483064Y-107822500D03*
D36*
X127455564Y-88902500D03*
X129280564Y-88902500D03*
X93116127Y-90044456D03*
X94941127Y-90044456D03*
X131710000Y-136547500D03*
X133535000Y-136547500D03*
D52*
X178216981Y-101136319D03*
X177863428Y-100782766D03*
X177509875Y-100429213D03*
X177156321Y-100075659D03*
X176802768Y-99722106D03*
X176449214Y-99368552D03*
X176095661Y-99014999D03*
X175742108Y-98661446D03*
X175388554Y-98307892D03*
X175035001Y-97954339D03*
X174681448Y-97600786D03*
X174327894Y-97247232D03*
X173974341Y-96893679D03*
X173620787Y-96540125D03*
X173267234Y-96186572D03*
X172913681Y-95833019D03*
D53*
X170191319Y-95833019D03*
X169837766Y-96186572D03*
X169484213Y-96540125D03*
X169130659Y-96893679D03*
X168777106Y-97247232D03*
X168423552Y-97600786D03*
X168069999Y-97954339D03*
X167716446Y-98307892D03*
X167362892Y-98661446D03*
X167009339Y-99014999D03*
X166655786Y-99368552D03*
X166302232Y-99722106D03*
X165948679Y-100075659D03*
X165595125Y-100429213D03*
X165241572Y-100782766D03*
X164888019Y-101136319D03*
D52*
X164888019Y-103858681D03*
X165241572Y-104212234D03*
X165595125Y-104565787D03*
X165948679Y-104919341D03*
X166302232Y-105272894D03*
X166655786Y-105626448D03*
X167009339Y-105980001D03*
X167362892Y-106333554D03*
X167716446Y-106687108D03*
X168069999Y-107040661D03*
X168423552Y-107394214D03*
X168777106Y-107747768D03*
X169130659Y-108101321D03*
X169484213Y-108454875D03*
X169837766Y-108808428D03*
X170191319Y-109161981D03*
D53*
X172913681Y-109161981D03*
X173267234Y-108808428D03*
X173620787Y-108454875D03*
X173974341Y-108101321D03*
X174327894Y-107747768D03*
X174681448Y-107394214D03*
X175035001Y-107040661D03*
X175388554Y-106687108D03*
X175742108Y-106333554D03*
X176095661Y-105980001D03*
X176449214Y-105626448D03*
X176802768Y-105272894D03*
X177156321Y-104919341D03*
X177509875Y-104565787D03*
X177863428Y-104212234D03*
X178216981Y-103858681D03*
D54*
X107875564Y-102320000D03*
X109775564Y-102320000D03*
D36*
X143998064Y-116462500D03*
X145823064Y-116462500D03*
D15*
X118750000Y-73215000D03*
D16*
X116210000Y-73215000D03*
X113670000Y-73215000D03*
X111130000Y-73215000D03*
X108590000Y-73215000D03*
D55*
X203530000Y-142535000D03*
X203530000Y-140660000D03*
D56*
X180155000Y-112252499D03*
X180155000Y-114127501D03*
D57*
X104798627Y-84031956D03*
X104798627Y-81231956D03*
D28*
X115390000Y-100217500D03*
X115390000Y-98392500D03*
X155142500Y-85410000D03*
X155142500Y-83585000D03*
D58*
X144753064Y-93712500D03*
X153768064Y-93712500D03*
D17*
X184142500Y-79497500D03*
D42*
X109025351Y-144742500D03*
X109025351Y-142842500D03*
X102847851Y-142307500D03*
X102847851Y-140407500D03*
D32*
X129962500Y-140645000D03*
X129962500Y-142545000D03*
D11*
X153810564Y-102232500D03*
X151910564Y-102232500D03*
D24*
X186127500Y-96207500D03*
D25*
X186127500Y-93707500D03*
X186127500Y-91207500D03*
D39*
X110668064Y-92552500D03*
X113618064Y-92552500D03*
D43*
X107151127Y-84121956D03*
X107151127Y-81171956D03*
D17*
X127655000Y-117990000D03*
D13*
X85660000Y-81375000D03*
D14*
X85660000Y-84875000D03*
D35*
X85650000Y-125615000D03*
D20*
X171585000Y-133645000D03*
X169760000Y-133645000D03*
D35*
X210650000Y-143115000D03*
D31*
X202602500Y-123767500D03*
X204252500Y-123767500D03*
D26*
X191682500Y-96517500D03*
X191682500Y-98342500D03*
D59*
X87760000Y-137077500D03*
D60*
X87760000Y-142157500D03*
D43*
X136883064Y-87117500D03*
X136883064Y-84167500D03*
D54*
X197352500Y-96082500D03*
X199252500Y-96082500D03*
D28*
X184152500Y-85360000D03*
X184152500Y-83535000D03*
D13*
X210642500Y-111647500D03*
D14*
X210642500Y-108147500D03*
X210642500Y-104647500D03*
D28*
X132783064Y-94602500D03*
X132783064Y-92777500D03*
D35*
X194150000Y-73115000D03*
D15*
X187750000Y-73215000D03*
D16*
X185210000Y-73215000D03*
X182670000Y-73215000D03*
X180130000Y-73215000D03*
X177590000Y-73215000D03*
D15*
X207295000Y-130915000D03*
D16*
X207295000Y-133455000D03*
D15*
X210750000Y-73215000D03*
D16*
X208210000Y-73215000D03*
X205670000Y-73215000D03*
X203130000Y-73215000D03*
X200590000Y-73215000D03*
D20*
X103860351Y-136407500D03*
X102035351Y-136407500D03*
D17*
X169142500Y-79497500D03*
D61*
X125122500Y-142797500D03*
D62*
X125122500Y-140257500D03*
X125122500Y-137717500D03*
X125122500Y-135177500D03*
D15*
X211502500Y-96632500D03*
D16*
X211502500Y-99172500D03*
D63*
X104777851Y-142657500D03*
X105727851Y-142657500D03*
X106677851Y-142657500D03*
X106677851Y-140257500D03*
X105727851Y-140257500D03*
X104777851Y-140257500D03*
D64*
X173355000Y-125675000D03*
D65*
X174625000Y-125675000D03*
X173355000Y-126945000D03*
X174625000Y-126945000D03*
X173355000Y-128215000D03*
X174625000Y-128215000D03*
X173355000Y-129485000D03*
X174625000Y-129485000D03*
X173355000Y-130755000D03*
X174625000Y-130755000D03*
D26*
X134683064Y-92777500D03*
X134683064Y-94602500D03*
D66*
X100152500Y-86267500D03*
D67*
X97377500Y-83992500D03*
X97377500Y-84642500D03*
X97377500Y-85292500D03*
X97377500Y-85942500D03*
X97377500Y-86592500D03*
X97377500Y-87242500D03*
X97377500Y-87892500D03*
X97377500Y-88542500D03*
X102927500Y-88542500D03*
X102927500Y-87892500D03*
X102927500Y-87242500D03*
X102927500Y-86592500D03*
X102927500Y-85942500D03*
X102927500Y-85292500D03*
X102927500Y-84642500D03*
X102927500Y-83992500D03*
D43*
X148983064Y-109987500D03*
X148983064Y-107037500D03*
D68*
X209122500Y-124212500D03*
X209122500Y-117862500D03*
D69*
X211157500Y-124847500D03*
X207087500Y-124847500D03*
X211157500Y-123577500D03*
X207087500Y-123577500D03*
X211157500Y-122307500D03*
X207087500Y-122307500D03*
X211157500Y-121037500D03*
X207087500Y-121037500D03*
X211157500Y-119767500D03*
X207087500Y-119767500D03*
X211157500Y-118497500D03*
X207087500Y-118497500D03*
X211157500Y-117227500D03*
X207087500Y-117227500D03*
D17*
X132483064Y-114072500D03*
D54*
X93265351Y-145127500D03*
X95165351Y-145127500D03*
D32*
X127962500Y-140645000D03*
X127962500Y-142545000D03*
D70*
X132367899Y-81280427D03*
X129567899Y-81280427D03*
D28*
X170142500Y-85352500D03*
X170142500Y-83527500D03*
D71*
X140990564Y-91302500D03*
X139440564Y-91302500D03*
D15*
X141750000Y-73215000D03*
D16*
X139210000Y-73215000D03*
X136670000Y-73215000D03*
X134130000Y-73215000D03*
X131590000Y-73215000D03*
D36*
X124080564Y-88895000D03*
X125905564Y-88895000D03*
D72*
X140780564Y-94682500D03*
X140780564Y-93732500D03*
X140780564Y-92782500D03*
X138505564Y-92782500D03*
X138505564Y-93732500D03*
X138505564Y-94682500D03*
D28*
X115390000Y-103600000D03*
X115390000Y-101775000D03*
D42*
X97477851Y-142307500D03*
X97477851Y-140407500D03*
D37*
X127060564Y-106535000D03*
X127060564Y-101135000D03*
D13*
X210612500Y-136637500D03*
D14*
X210612500Y-133137500D03*
X210612500Y-129637500D03*
D32*
X124943064Y-81502500D03*
X124943064Y-83402500D03*
D54*
X105126127Y-85971956D03*
X107026127Y-85971956D03*
D32*
X193612500Y-99822500D03*
X193612500Y-101722500D03*
D13*
X210632500Y-91637500D03*
D14*
X210632500Y-88137500D03*
X210632500Y-84637500D03*
D73*
X109788064Y-100252500D03*
X111058064Y-100252500D03*
X112328064Y-100252500D03*
X113598064Y-100252500D03*
X113598064Y-94852500D03*
X112328064Y-94852500D03*
X111058064Y-94852500D03*
X109788064Y-94852500D03*
D74*
X111693064Y-97552500D03*
D28*
X129992500Y-138187500D03*
X129992500Y-136362500D03*
D36*
X96476127Y-90034456D03*
X98301127Y-90034456D03*
D28*
X176662500Y-85360000D03*
X176662500Y-83535000D03*
D29*
X95687851Y-143027500D03*
X92762851Y-143027500D03*
D28*
X162642500Y-85410000D03*
X162642500Y-83585000D03*
D23*
X111222851Y-140887500D03*
X111222851Y-142157500D03*
X111222851Y-143427500D03*
X111222851Y-144697500D03*
X116172851Y-144697500D03*
X116172851Y-143427500D03*
X116172851Y-142157500D03*
X116172851Y-140887500D03*
D75*
X136855564Y-96162500D03*
X138405564Y-96162500D03*
D76*
X146483064Y-111992500D03*
X146483064Y-109712500D03*
D77*
X140183064Y-109712500D03*
D76*
X146483064Y-107432500D03*
D78*
X149208064Y-116462500D03*
X147333064Y-116462500D03*
G36*
X109308260Y-92721517D02*
G01*
X109495950Y-92771808D01*
X109496178Y-92771940D01*
X109633624Y-92909386D01*
X109633756Y-92909614D01*
X109684064Y-93097368D01*
X109684064Y-93097632D01*
X109633756Y-93285386D01*
X109633624Y-93285614D01*
X109496178Y-93423060D01*
X109495950Y-93423192D01*
X109308260Y-93473483D01*
X109308130Y-93473500D01*
X102184064Y-93473500D01*
X102184064Y-118221500D01*
X116932064Y-118221500D01*
X116932064Y-115472451D01*
X116932074Y-115472353D01*
X116970162Y-115280866D01*
X116970238Y-115280684D01*
X117078734Y-115118310D01*
X117078874Y-115118170D01*
X117241248Y-115009674D01*
X117241430Y-115009598D01*
X117432917Y-114971510D01*
X117433015Y-114971500D01*
X128432064Y-114971500D01*
X128432064Y-109347434D01*
X128432081Y-109347304D01*
X128482372Y-109159614D01*
X128482504Y-109159386D01*
X128619950Y-109021940D01*
X128620178Y-109021808D01*
X128807932Y-108971500D01*
X128808196Y-108971500D01*
X128995950Y-109021808D01*
X128996178Y-109021940D01*
X129133624Y-109159386D01*
X129133756Y-109159614D01*
X129184047Y-109347304D01*
X129184064Y-109347434D01*
X129184064Y-115222549D01*
X129184054Y-115222647D01*
X129145966Y-115414134D01*
X129145890Y-115414316D01*
X129037394Y-115576690D01*
X129037254Y-115576830D01*
X128874880Y-115685326D01*
X128874698Y-115685402D01*
X128683211Y-115723490D01*
X128683113Y-115723500D01*
X117684064Y-115723500D01*
X117684064Y-118472549D01*
X117684054Y-118472647D01*
X117645966Y-118664134D01*
X117645890Y-118664316D01*
X117537394Y-118826690D01*
X117537254Y-118826830D01*
X117374880Y-118935326D01*
X117374698Y-118935402D01*
X117183211Y-118973490D01*
X117183113Y-118973500D01*
X101933015Y-118973500D01*
X101932917Y-118973490D01*
X101741430Y-118935402D01*
X101741248Y-118935326D01*
X101578874Y-118826830D01*
X101578734Y-118826690D01*
X101470238Y-118664316D01*
X101470162Y-118664134D01*
X101432074Y-118472647D01*
X101432064Y-118472549D01*
X101432064Y-93222451D01*
X101432074Y-93222353D01*
X101470162Y-93030866D01*
X101470238Y-93030684D01*
X101578734Y-92868310D01*
X101578874Y-92868170D01*
X101741248Y-92759674D01*
X101741430Y-92759598D01*
X101932917Y-92721510D01*
X101933015Y-92721500D01*
X109308130Y-92721500D01*
X109308260Y-92721517D01*
G37*
G36*
X133934174Y-77722721D02*
G01*
X134122161Y-77760113D01*
X134126307Y-77761830D01*
X134284714Y-77867676D01*
X134287887Y-77870849D01*
X134393733Y-78029256D01*
X134395450Y-78033401D01*
X134432843Y-78221388D01*
X134433064Y-78223632D01*
X134433064Y-82595986D01*
X134432672Y-82598962D01*
X134383621Y-82782022D01*
X134380645Y-82787178D01*
X134247742Y-82920081D01*
X134242586Y-82923057D01*
X134061040Y-82971702D01*
X134055088Y-82971702D01*
X133873541Y-82923057D01*
X133868385Y-82920081D01*
X133735482Y-82787178D01*
X133732506Y-82782022D01*
X133683456Y-82598962D01*
X133683064Y-82595986D01*
X133683064Y-78972500D01*
X133658285Y-78847925D01*
X133658064Y-78845682D01*
X133658064Y-78497501D01*
X133658063Y-78497500D01*
X133309881Y-78497500D01*
X133307638Y-78497279D01*
X133183063Y-78472500D01*
X114683065Y-78472500D01*
X114558490Y-78497279D01*
X114556247Y-78497500D01*
X114208065Y-78497500D01*
X114208064Y-78497501D01*
X114208064Y-78845682D01*
X114207843Y-78847925D01*
X114183064Y-78972500D01*
X114183064Y-84345986D01*
X114182672Y-84348962D01*
X114133621Y-84532022D01*
X114130645Y-84537178D01*
X113997742Y-84670081D01*
X113992586Y-84673057D01*
X113811040Y-84721702D01*
X113805088Y-84721702D01*
X113623541Y-84673057D01*
X113618385Y-84670081D01*
X113485482Y-84537178D01*
X113482506Y-84532022D01*
X113433456Y-84348962D01*
X113433064Y-84345986D01*
X113433064Y-78223632D01*
X113433285Y-78221389D01*
X113470677Y-78033402D01*
X113472394Y-78029256D01*
X113578240Y-77870849D01*
X113581413Y-77867676D01*
X113739820Y-77761830D01*
X113743966Y-77760113D01*
X113931954Y-77722721D01*
X113934197Y-77722500D01*
X133931931Y-77722500D01*
X133934174Y-77722721D01*
G37*
M02*
