M48
; DRILL file {KiCad 8.0.7} date 2025-01-22T18:35:04+0100
; FORMAT={-:-/ absolute / metric / decimal}
; #@! TF.CreationDate,2025-01-22T18:35:04+01:00
; #@! TF.GenerationSoftware,Kicad,Pcbnew,8.0.7
; #@! TF.FileFunction,Plated,1,4,PTH
FMAT,2
METRIC
; #@! TA.AperFunction,Plated,PTH,ComponentDrill
T1C0.200
; #@! TA.AperFunction,Plated,PTH,ViaDrill
T2C0.300
; #@! TA.AperFunction,Plated,PTH,ComponentDrill
T3C0.300
; #@! TA.AperFunction,Plated,PTH,ViaDrill
T4C0.350
; #@! TA.AperFunction,Plated,PTH,ComponentDrill
T5C0.650
; #@! TA.AperFunction,Plated,PTH,ComponentDrill
T6C0.750
; #@! TA.AperFunction,Plated,PTH,ComponentDrill
T7C0.950
; #@! TA.AperFunction,Plated,PTH,ComponentDrill
T8C1.000
; #@! TA.AperFunction,Plated,PTH,ComponentDrill
T9C1.300
; #@! TA.AperFunction,Plated,PTH,ComponentDrill
T10C1.400
; #@! TA.AperFunction,Plated,PTH,ComponentDrill
T11C1.600
%
G90
G05
T1
X187.41Y-128.965
X187.41Y-130.065
X187.96Y-128.415
X187.96Y-129.515
X187.96Y-130.615
X188.51Y-128.965
X188.51Y-130.065
X189.06Y-128.415
X189.06Y-129.515
X189.06Y-130.615
X189.61Y-128.965
X189.61Y-130.065
T2
X82.65Y-65.115
X82.65Y-67.115
X82.65Y-69.115
X82.65Y-71.115
X82.65Y-73.115
X82.65Y-75.115
X82.65Y-77.115
X82.65Y-79.115
X82.65Y-81.115
X82.65Y-83.115
X82.65Y-85.115
X82.65Y-87.115
X82.65Y-89.115
X82.65Y-91.115
X82.65Y-93.115
X82.65Y-95.115
X82.65Y-97.115
X82.65Y-99.115
X82.65Y-101.115
X82.65Y-103.115
X82.65Y-105.115
X82.65Y-107.115
X82.65Y-109.115
X82.65Y-111.115
X82.65Y-113.115
X82.65Y-115.115
X82.65Y-117.115
X82.65Y-119.115
X82.65Y-121.115
X82.65Y-123.115
X84.65Y-65.115
X86.65Y-65.115
X88.65Y-65.115
X90.65Y-65.115
X90.65Y-126.115
X91.433Y-85.972
X91.433Y-88.718
X91.433Y-91.222
X92.65Y-65.115
X92.65Y-126.115
X93.92Y-101.835
X93.94Y-94.375
X94.242Y-97.927
X94.65Y-65.115
X94.65Y-126.115
X95.45Y-115.245
X96.14Y-97.895
X96.373Y-145.188
X96.65Y-65.115
X96.65Y-126.115
X96.82Y-111.255
X96.92Y-115.245
X97.265Y-82.222
X97.472Y-143.588
X97.79Y-81.222
X98.405Y-116.03
X98.433Y-82.222
X98.572Y-140.588
X98.65Y-65.115
X98.65Y-126.115
X98.68Y-102.995
X99.215Y-143.977
X99.933Y-91.222
X100.002Y-117.782
X100.65Y-65.115
X100.65Y-126.115
X100.683Y-90.222
X101.433Y-91.222
X101.811Y-95.293
X101.811Y-97.405
X101.811Y-99.518
X101.811Y-101.631
X101.811Y-103.743
X101.811Y-105.856
X101.811Y-107.969
X101.811Y-110.081
X101.811Y-112.194
X101.811Y-114.307
X101.811Y-116.419
X101.813Y-93.093
X101.834Y-118.589
X102.039Y-82.222
X102.619Y-81.222
X102.65Y-65.115
X102.65Y-126.115
X103.183Y-82.224
X103.882Y-93.094
X103.951Y-88.542
X104.402Y-118.589
X104.65Y-65.115
X104.65Y-126.115
X104.692Y-141.528
X105.722Y-141.487
X105.802Y-93.128
X105.979Y-82.222
X106.65Y-65.115
X106.65Y-126.115
X106.764Y-141.439
X106.933Y-91.222
X106.969Y-118.589
X107.602Y-93.094
X107.672Y-144.787
X107.772Y-142.887
X108.372Y-134.887
X108.593Y-106.752
X108.593Y-108.752
X108.593Y-110.752
X108.593Y-112.752
X108.593Y-114.752
X108.65Y-65.115
X108.65Y-126.115
X109.042Y-141.597
X109.292Y-93.099
X109.537Y-118.589
X110.593Y-106.752
X110.593Y-108.752
X110.593Y-110.752
X110.593Y-112.752
X110.593Y-114.752
X110.65Y-65.115
X110.65Y-126.115
X112.104Y-118.589
X112.65Y-65.115
X112.65Y-126.115
X113.807Y-79.619
X113.807Y-81.114
X113.807Y-82.609
X113.807Y-84.104
X113.808Y-78.099
X114.433Y-94.822
X114.643Y-86.203
X114.65Y-65.115
X114.65Y-126.115
X114.671Y-118.589
X115.143Y-90.703
X115.143Y-92.703
X115.143Y-96.703
X115.49Y-78.099
X116.143Y-85.203
X116.65Y-65.115
X116.65Y-126.115
X117.133Y-90.722
X117.133Y-92.722
X117.133Y-94.822
X117.143Y-96.703
X117.143Y-98.703
X117.172Y-78.099
X117.239Y-118.589
X117.309Y-116.995
X117.353Y-115.347
X117.433Y-105.222
X117.433Y-106.422
X117.643Y-86.203
X117.663Y-143.427
X118.65Y-65.115
X118.65Y-126.115
X118.772Y-135.487
X118.772Y-137.387
X118.854Y-78.099
X119.133Y-90.722
X119.133Y-92.722
X119.143Y-85.203
X119.143Y-96.703
X119.143Y-98.703
X119.245Y-115.347
X119.772Y-135.477
X119.772Y-137.377
X120.536Y-78.099
X120.643Y-86.203
X120.65Y-65.115
X120.65Y-126.115
X121.137Y-115.347
X121.143Y-90.703
X121.143Y-92.703
X121.143Y-96.703
X121.143Y-98.703
X122.143Y-85.203
X122.218Y-78.099
X122.65Y-65.115
X122.65Y-126.115
X123.029Y-115.347
X123.143Y-96.703
X123.143Y-98.703
X123.9Y-78.099
X124.65Y-65.115
X124.65Y-126.115
X124.922Y-115.347
X125.143Y-96.703
X125.143Y-98.703
X125.582Y-78.099
X126.65Y-65.115
X126.65Y-126.115
X126.814Y-115.347
X127.143Y-96.703
X127.143Y-98.703
X127.265Y-78.099
X128.65Y-65.115
X128.65Y-126.115
X128.65Y-128.115
X128.65Y-130.115
X128.65Y-132.115
X128.65Y-134.115
X128.65Y-136.115
X128.7Y-138.175
X128.808Y-109.391
X128.808Y-111.379
X128.808Y-113.368
X128.808Y-115.357
X128.947Y-78.099
X129.0Y-144.425
X129.05Y-146.335
X130.02Y-139.455
X130.629Y-78.099
X130.65Y-65.115
X131.72Y-135.215
X132.311Y-78.099
X132.393Y-87.902
X132.65Y-65.115
X134.06Y-78.096
X134.06Y-79.595
X134.06Y-81.094
X134.06Y-82.593
X134.613Y-88.922
X134.633Y-91.222
X134.65Y-65.115
X135.65Y-146.115
X136.65Y-65.115
X136.833Y-88.922
X136.833Y-91.222
X137.043Y-93.733
X137.65Y-146.115
X137.733Y-107.622
X137.733Y-109.722
X137.733Y-112.022
X138.401Y-97.422
X138.65Y-65.115
X138.933Y-108.622
X138.933Y-110.922
X139.65Y-146.115
X139.953Y-104.402
X140.233Y-107.622
X140.233Y-109.722
X140.233Y-112.022
X140.65Y-65.115
X141.533Y-108.622
X141.533Y-110.922
X141.65Y-146.115
X142.361Y-93.733
X142.633Y-107.622
X142.633Y-109.722
X142.633Y-112.022
X142.65Y-65.115
X143.533Y-97.422
X143.533Y-99.123
X143.633Y-88.422
X143.633Y-90.292
X143.65Y-146.115
X144.65Y-65.115
X145.033Y-97.422
X145.033Y-99.123
X145.65Y-146.115
X146.65Y-65.115
X147.65Y-146.115
X148.65Y-65.115
X149.033Y-112.022
X149.033Y-113.522
X149.033Y-114.822
X149.65Y-146.115
X150.413Y-99.623
X150.433Y-101.222
X150.433Y-102.722
X150.433Y-104.222
X150.65Y-65.115
X151.65Y-146.115
X152.65Y-65.115
X153.65Y-146.115
X154.65Y-65.115
X154.8Y-126.255
X154.833Y-88.422
X154.833Y-90.272
X155.56Y-125.045
X155.65Y-146.115
X156.2Y-106.495
X156.65Y-65.115
X157.65Y-146.115
X158.65Y-65.115
X158.755Y-109.99
X159.65Y-146.115
X160.25Y-113.115
X160.25Y-114.515
X160.65Y-65.115
X161.25Y-94.515
X161.25Y-95.915
X161.65Y-146.115
X162.65Y-65.115
X162.755Y-96.09
X163.65Y-146.115
X163.795Y-108.61
X163.855Y-100.14
X163.855Y-107.69
X163.89Y-103.575
X164.045Y-98.87
X164.415Y-105.51
X164.65Y-65.115
X164.82Y-114.635
X164.855Y-91.09
X165.29Y-94.935
X165.362Y-98.557
X165.49Y-95.765
X165.65Y-146.115
X165.716Y-101.956
X166.355Y-110.99
X166.65Y-65.115
X167.268Y-101.395
X167.65Y-91.715
X167.65Y-146.115
X167.745Y-95.02
X168.142Y-86.498
X168.175Y-113.45
X168.282Y-104.407
X168.44Y-140.175
X168.65Y-65.115
X168.66Y-99.733
X168.94Y-110.285
X169.439Y-105.913
X169.65Y-146.115
X169.76Y-132.245
X169.922Y-94.117
X169.955Y-111.64
X170.105Y-113.89
X170.265Y-106.02
X170.445Y-104.14
X170.65Y-65.115
X170.782Y-95.242
X171.01Y-108.414
X171.05Y-106.715
X171.325Y-100.06
X171.65Y-146.115
X171.891Y-105.699
X171.94Y-96.785
X172.115Y-98.453
X172.25Y-94.715
X172.255Y-109.94
X172.477Y-124.052
X172.555Y-104.79
X172.65Y-65.115
X172.82Y-134.095
X173.045Y-103.64
X173.355Y-132.387
X173.45Y-93.115
X174.314Y-99.941
X174.36Y-111.545
X174.377Y-104.968
X174.64Y-112.375
X174.65Y-65.115
X175.115Y-108.85
X175.405Y-100.12
X175.565Y-102.53
X175.85Y-90.715
X176.255Y-110.03
X176.555Y-113.035
X176.65Y-65.115
X176.662Y-86.447
X177.112Y-123.715
X177.155Y-110.64
X177.45Y-92.315
X177.755Y-95.995
X178.45Y-91.515
X178.64Y-102.824
X178.65Y-65.115
X179.155Y-106.617
X179.155Y-110.94
X179.486Y-105.13
X179.495Y-101.34
X179.511Y-97.205
X179.59Y-100.117
X179.843Y-92.672
X180.65Y-65.115
X181.055Y-105.89
X181.055Y-117.29
X181.65Y-135.115
X182.06Y-98.065
X182.65Y-65.115
X182.88Y-86.995
X183.65Y-135.115
X184.65Y-65.115
X184.99Y-101.005
X185.65Y-135.115
X186.65Y-65.115
X187.65Y-135.115
X188.29Y-104.325
X188.65Y-65.115
X189.232Y-101.688
X189.65Y-135.115
X189.93Y-115.135
X190.282Y-101.667
X190.302Y-96.517
X190.65Y-65.115
X191.51Y-81.515
X191.62Y-93.955
X191.65Y-135.115
X191.772Y-108.167
X192.09Y-94.325
X192.623Y-79.627
X192.65Y-65.115
X192.81Y-103.905
X193.433Y-105.677
X193.442Y-110.547
X193.65Y-135.115
X193.852Y-97.847
X194.65Y-65.115
X194.782Y-129.558
X194.81Y-130.825
X194.822Y-133.357
X196.65Y-65.115
X197.352Y-97.337
X197.352Y-99.727
X197.65Y-135.115
X198.65Y-65.115
X199.65Y-135.115
X200.65Y-65.115
X200.892Y-105.642
X201.65Y-135.115
X202.65Y-65.115
X202.784Y-112.995
X202.822Y-103.297
X203.462Y-108.417
X203.53Y-143.875
X203.65Y-146.115
X204.65Y-65.115
X204.672Y-109.047
X205.452Y-99.192
X205.65Y-146.115
X206.65Y-65.115
X207.65Y-146.115
X208.65Y-65.115
X210.65Y-65.115
X212.65Y-65.115
X213.61Y-124.235
X213.65Y-65.115
X213.65Y-67.115
X213.65Y-69.115
X213.65Y-71.115
X213.65Y-73.115
X213.65Y-75.115
X213.65Y-77.115
X213.65Y-79.115
X213.65Y-81.115
X213.65Y-83.115
X213.65Y-85.115
X213.65Y-87.115
X213.65Y-89.115
X213.65Y-91.115
X213.65Y-93.115
X213.65Y-95.115
X213.65Y-97.115
X213.65Y-99.115
X213.65Y-101.115
X213.65Y-103.115
X213.65Y-105.115
X213.65Y-107.115
X213.65Y-109.115
X213.65Y-111.115
X213.65Y-113.115
X213.65Y-115.115
X213.65Y-117.115
X213.65Y-127.115
X213.65Y-129.115
X213.65Y-131.115
X213.65Y-133.115
X213.65Y-135.115
X213.65Y-137.115
X213.65Y-139.115
X213.65Y-146.115
T3
X99.052Y-84.067
X99.052Y-85.167
X99.052Y-86.267
X99.052Y-87.367
X99.052Y-88.468
X100.152Y-84.067
X100.152Y-85.167
X100.152Y-86.267
X100.152Y-87.367
X100.152Y-88.468
X101.252Y-84.067
X101.252Y-85.167
X101.252Y-86.267
X101.252Y-87.367
X101.252Y-88.468
X109.893Y-96.953
X109.893Y-98.152
X111.093Y-96.953
X111.093Y-98.152
X112.393Y-96.953
X112.393Y-98.152
X113.493Y-96.953
X113.493Y-98.152
X129.086Y-83.395
X129.086Y-84.595
X129.086Y-85.895
X129.086Y-86.995
X130.286Y-83.395
X130.286Y-84.595
X130.286Y-85.895
X130.286Y-86.995
T4
X90.052Y-113.157
X171.64Y-138.905
X176.81Y-129.715
X177.51Y-132.285
X180.29Y-134.205
X192.192Y-89.017
X195.232Y-87.487
X200.462Y-85.138
X203.427Y-94.453
X203.438Y-81.682
X203.53Y-136.125
X207.407Y-81.672
X207.427Y-94.422
T5
X173.355Y-125.675
X173.355Y-126.945
X173.355Y-128.215
X173.355Y-129.485
X173.355Y-130.755
X174.625Y-125.675
X174.625Y-126.945
X174.625Y-128.215
X174.625Y-129.485
X174.625Y-130.755
T6
X125.122Y-135.177
X125.122Y-137.718
X125.122Y-140.257
X125.122Y-142.797
T7
X157.713Y-112.177
X157.713Y-114.677
X157.713Y-117.177
X157.713Y-119.677
X157.713Y-122.177
X157.713Y-124.677
X157.713Y-127.177
X157.713Y-129.677
X185.072Y-105.147
X185.072Y-107.647
X185.072Y-110.147
X185.072Y-112.647
X185.072Y-115.147
X186.127Y-91.207
X186.127Y-93.707
X186.127Y-96.207
T8
X85.59Y-73.215
X88.13Y-73.215
X90.67Y-73.215
X93.21Y-73.215
X95.75Y-73.215
X108.59Y-73.215
X111.13Y-73.215
X113.67Y-73.215
X116.21Y-73.215
X118.75Y-73.215
X131.59Y-73.215
X134.13Y-73.215
X136.67Y-73.215
X139.21Y-73.215
X141.75Y-73.215
X154.59Y-73.215
X157.13Y-73.215
X157.642Y-102.188
X157.642Y-104.688
X159.67Y-73.215
X162.21Y-73.215
X164.75Y-73.215
X177.59Y-73.215
X180.13Y-73.215
X182.67Y-73.215
X185.21Y-73.215
X187.75Y-73.215
X200.59Y-73.215
X203.13Y-73.215
X205.67Y-73.215
X207.295Y-130.915
X207.295Y-133.455
X208.21Y-73.215
X210.75Y-73.215
X211.502Y-96.632
X211.502Y-99.172
T9
X85.652Y-94.617
X85.652Y-98.117
X85.652Y-101.617
X85.652Y-109.608
X85.652Y-113.108
X85.652Y-116.608
X85.66Y-81.375
X85.66Y-84.875
X210.612Y-129.637
X210.612Y-133.137
X210.612Y-136.637
X210.632Y-84.638
X210.632Y-88.138
X210.632Y-91.638
X210.642Y-104.647
X210.642Y-108.147
X210.642Y-111.647
T10
X87.76Y-137.077
X87.76Y-142.157
T11
X110.633Y-81.222
X127.655Y-117.99
X130.033Y-97.123
X132.483Y-107.822
X132.483Y-114.072
X132.852Y-145.397
X146.642Y-79.498
X152.455Y-107.49
X154.142Y-79.498
X161.642Y-79.498
X169.142Y-79.498
X176.642Y-79.498
X184.142Y-79.498
M30
