%TF.GenerationSoftware,KiCad,Pcbnew,8.0.7*%
%TF.CreationDate,2025-01-22T18:35:03+01:00*%
%TF.ProjectId,STM32_GateSignalGenerator,53544d33-325f-4476-9174-655369676e61,rev?*%
%TF.SameCoordinates,Original*%
%TF.FileFunction,Drillmap*%
%TF.FilePolarity,Positive*%
%FSLAX45Y45*%
G04 Gerber Fmt 4.5, Leading zero omitted, Abs format (unit mm)*
G04 Created by KiCad (PCBNEW 8.0.7) date 2025-01-22 18:35:03*
%MOMM*%
%LPD*%
G01*
G04 APERTURE LIST*
%ADD10C,0.100000*%
%ADD11C,0.200000*%
%ADD12C,0.102000*%
%ADD13C,0.320000*%
G04 APERTURE END LIST*
D10*
X20185000Y-14811500D02*
X20185000Y-14661500D01*
X21565000Y-6311500D02*
X21565000Y-14811500D01*
X17335000Y-13711500D02*
X20185000Y-13711500D01*
X8065000Y-6311500D02*
X21565000Y-6311500D01*
X17335000Y-14811500D02*
X17335000Y-13711500D01*
X8065000Y-6311500D02*
X8065000Y-14811500D01*
X20185000Y-13711500D02*
X20185000Y-14661500D01*
X21565000Y-14811500D02*
X20185000Y-14811500D01*
X8065000Y-14811500D02*
X17335000Y-14811500D01*
D11*
D12*
X20861250Y-11735250D02*
X20963250Y-11837250D01*
X20963250Y-11735250D02*
X20861250Y-11837250D01*
X20861250Y-12370250D02*
X20963250Y-12472250D01*
X20963250Y-12370250D02*
X20861250Y-12472250D01*
D13*
X8725000Y-12561500D02*
G75*
G02*
X8405000Y-12561500I-160000J0D01*
G01*
X8405000Y-12561500D02*
G75*
G02*
X8725000Y-12561500I160000J0D01*
G01*
X10375000Y-7311500D02*
G75*
G02*
X10055000Y-7311500I-160000J0D01*
G01*
X10055000Y-7311500D02*
G75*
G02*
X10375000Y-7311500I160000J0D01*
G01*
X19575000Y-7311500D02*
G75*
G02*
X19255000Y-7311500I-160000J0D01*
G01*
X19255000Y-7311500D02*
G75*
G02*
X19575000Y-7311500I160000J0D01*
G01*
X21225000Y-14311500D02*
G75*
G02*
X20905000Y-14311500I-160000J0D01*
G01*
X20905000Y-14311500D02*
G75*
G02*
X21225000Y-14311500I160000J0D01*
G01*
D11*
X8320777Y-15127984D02*
X8320777Y-14927984D01*
X8320777Y-14927984D02*
X8368396Y-14927984D01*
X8368396Y-14927984D02*
X8396967Y-14937508D01*
X8396967Y-14937508D02*
X8416015Y-14956555D01*
X8416015Y-14956555D02*
X8425539Y-14975603D01*
X8425539Y-14975603D02*
X8435063Y-15013698D01*
X8435063Y-15013698D02*
X8435063Y-15042269D01*
X8435063Y-15042269D02*
X8425539Y-15080365D01*
X8425539Y-15080365D02*
X8416015Y-15099412D01*
X8416015Y-15099412D02*
X8396967Y-15118460D01*
X8396967Y-15118460D02*
X8368396Y-15127984D01*
X8368396Y-15127984D02*
X8320777Y-15127984D01*
X8520777Y-15127984D02*
X8520777Y-14994650D01*
X8520777Y-15032746D02*
X8530301Y-15013698D01*
X8530301Y-15013698D02*
X8539824Y-15004174D01*
X8539824Y-15004174D02*
X8558872Y-14994650D01*
X8558872Y-14994650D02*
X8577920Y-14994650D01*
X8644586Y-15127984D02*
X8644586Y-14994650D01*
X8644586Y-14927984D02*
X8635063Y-14937508D01*
X8635063Y-14937508D02*
X8644586Y-14947031D01*
X8644586Y-14947031D02*
X8654110Y-14937508D01*
X8654110Y-14937508D02*
X8644586Y-14927984D01*
X8644586Y-14927984D02*
X8644586Y-14947031D01*
X8768396Y-15127984D02*
X8749348Y-15118460D01*
X8749348Y-15118460D02*
X8739824Y-15099412D01*
X8739824Y-15099412D02*
X8739824Y-14927984D01*
X8873158Y-15127984D02*
X8854110Y-15118460D01*
X8854110Y-15118460D02*
X8844586Y-15099412D01*
X8844586Y-15099412D02*
X8844586Y-14927984D01*
X9101729Y-15127984D02*
X9101729Y-14927984D01*
X9101729Y-14927984D02*
X9168396Y-15070841D01*
X9168396Y-15070841D02*
X9235063Y-14927984D01*
X9235063Y-14927984D02*
X9235063Y-15127984D01*
X9416015Y-15127984D02*
X9416015Y-15023222D01*
X9416015Y-15023222D02*
X9406491Y-15004174D01*
X9406491Y-15004174D02*
X9387444Y-14994650D01*
X9387444Y-14994650D02*
X9349348Y-14994650D01*
X9349348Y-14994650D02*
X9330301Y-15004174D01*
X9416015Y-15118460D02*
X9396967Y-15127984D01*
X9396967Y-15127984D02*
X9349348Y-15127984D01*
X9349348Y-15127984D02*
X9330301Y-15118460D01*
X9330301Y-15118460D02*
X9320777Y-15099412D01*
X9320777Y-15099412D02*
X9320777Y-15080365D01*
X9320777Y-15080365D02*
X9330301Y-15061317D01*
X9330301Y-15061317D02*
X9349348Y-15051793D01*
X9349348Y-15051793D02*
X9396967Y-15051793D01*
X9396967Y-15051793D02*
X9416015Y-15042269D01*
X9511253Y-14994650D02*
X9511253Y-15194650D01*
X9511253Y-15004174D02*
X9530301Y-14994650D01*
X9530301Y-14994650D02*
X9568396Y-14994650D01*
X9568396Y-14994650D02*
X9587444Y-15004174D01*
X9587444Y-15004174D02*
X9596967Y-15013698D01*
X9596967Y-15013698D02*
X9606491Y-15032746D01*
X9606491Y-15032746D02*
X9606491Y-15089888D01*
X9606491Y-15089888D02*
X9596967Y-15108936D01*
X9596967Y-15108936D02*
X9587444Y-15118460D01*
X9587444Y-15118460D02*
X9568396Y-15127984D01*
X9568396Y-15127984D02*
X9530301Y-15127984D01*
X9530301Y-15127984D02*
X9511253Y-15118460D01*
X9692205Y-15108936D02*
X9701729Y-15118460D01*
X9701729Y-15118460D02*
X9692205Y-15127984D01*
X9692205Y-15127984D02*
X9682682Y-15118460D01*
X9682682Y-15118460D02*
X9692205Y-15108936D01*
X9692205Y-15108936D02*
X9692205Y-15127984D01*
X9692205Y-15004174D02*
X9701729Y-15013698D01*
X9701729Y-15013698D02*
X9692205Y-15023222D01*
X9692205Y-15023222D02*
X9682682Y-15013698D01*
X9682682Y-15013698D02*
X9692205Y-15004174D01*
X9692205Y-15004174D02*
X9692205Y-15023222D01*
D12*
X7958000Y-15405500D02*
X8060000Y-15507500D01*
X8060000Y-15405500D02*
X7958000Y-15507500D01*
D11*
X8425539Y-15547984D02*
X8311253Y-15547984D01*
X8368396Y-15547984D02*
X8368396Y-15347984D01*
X8368396Y-15347984D02*
X8349348Y-15376555D01*
X8349348Y-15376555D02*
X8330301Y-15395603D01*
X8330301Y-15395603D02*
X8311253Y-15405127D01*
X8511253Y-15528936D02*
X8520777Y-15538460D01*
X8520777Y-15538460D02*
X8511253Y-15547984D01*
X8511253Y-15547984D02*
X8501729Y-15538460D01*
X8501729Y-15538460D02*
X8511253Y-15528936D01*
X8511253Y-15528936D02*
X8511253Y-15547984D01*
X8644586Y-15347984D02*
X8663634Y-15347984D01*
X8663634Y-15347984D02*
X8682682Y-15357508D01*
X8682682Y-15357508D02*
X8692205Y-15367031D01*
X8692205Y-15367031D02*
X8701729Y-15386079D01*
X8701729Y-15386079D02*
X8711253Y-15424174D01*
X8711253Y-15424174D02*
X8711253Y-15471793D01*
X8711253Y-15471793D02*
X8701729Y-15509888D01*
X8701729Y-15509888D02*
X8692205Y-15528936D01*
X8692205Y-15528936D02*
X8682682Y-15538460D01*
X8682682Y-15538460D02*
X8663634Y-15547984D01*
X8663634Y-15547984D02*
X8644586Y-15547984D01*
X8644586Y-15547984D02*
X8625539Y-15538460D01*
X8625539Y-15538460D02*
X8616015Y-15528936D01*
X8616015Y-15528936D02*
X8606491Y-15509888D01*
X8606491Y-15509888D02*
X8596967Y-15471793D01*
X8596967Y-15471793D02*
X8596967Y-15424174D01*
X8596967Y-15424174D02*
X8606491Y-15386079D01*
X8606491Y-15386079D02*
X8616015Y-15367031D01*
X8616015Y-15367031D02*
X8625539Y-15357508D01*
X8625539Y-15357508D02*
X8644586Y-15347984D01*
X8787444Y-15367031D02*
X8796967Y-15357508D01*
X8796967Y-15357508D02*
X8816015Y-15347984D01*
X8816015Y-15347984D02*
X8863634Y-15347984D01*
X8863634Y-15347984D02*
X8882682Y-15357508D01*
X8882682Y-15357508D02*
X8892205Y-15367031D01*
X8892205Y-15367031D02*
X8901729Y-15386079D01*
X8901729Y-15386079D02*
X8901729Y-15405127D01*
X8901729Y-15405127D02*
X8892205Y-15433698D01*
X8892205Y-15433698D02*
X8777920Y-15547984D01*
X8777920Y-15547984D02*
X8901729Y-15547984D01*
X9025539Y-15347984D02*
X9044586Y-15347984D01*
X9044586Y-15347984D02*
X9063634Y-15357508D01*
X9063634Y-15357508D02*
X9073158Y-15367031D01*
X9073158Y-15367031D02*
X9082682Y-15386079D01*
X9082682Y-15386079D02*
X9092205Y-15424174D01*
X9092205Y-15424174D02*
X9092205Y-15471793D01*
X9092205Y-15471793D02*
X9082682Y-15509888D01*
X9082682Y-15509888D02*
X9073158Y-15528936D01*
X9073158Y-15528936D02*
X9063634Y-15538460D01*
X9063634Y-15538460D02*
X9044586Y-15547984D01*
X9044586Y-15547984D02*
X9025539Y-15547984D01*
X9025539Y-15547984D02*
X9006491Y-15538460D01*
X9006491Y-15538460D02*
X8996967Y-15528936D01*
X8996967Y-15528936D02*
X8987444Y-15509888D01*
X8987444Y-15509888D02*
X8977920Y-15471793D01*
X8977920Y-15471793D02*
X8977920Y-15424174D01*
X8977920Y-15424174D02*
X8987444Y-15386079D01*
X8987444Y-15386079D02*
X8996967Y-15367031D01*
X8996967Y-15367031D02*
X9006491Y-15357508D01*
X9006491Y-15357508D02*
X9025539Y-15347984D01*
X9177920Y-15547984D02*
X9177920Y-15414650D01*
X9177920Y-15433698D02*
X9187444Y-15424174D01*
X9187444Y-15424174D02*
X9206491Y-15414650D01*
X9206491Y-15414650D02*
X9235063Y-15414650D01*
X9235063Y-15414650D02*
X9254110Y-15424174D01*
X9254110Y-15424174D02*
X9263634Y-15443222D01*
X9263634Y-15443222D02*
X9263634Y-15547984D01*
X9263634Y-15443222D02*
X9273158Y-15424174D01*
X9273158Y-15424174D02*
X9292205Y-15414650D01*
X9292205Y-15414650D02*
X9320777Y-15414650D01*
X9320777Y-15414650D02*
X9339825Y-15424174D01*
X9339825Y-15424174D02*
X9349348Y-15443222D01*
X9349348Y-15443222D02*
X9349348Y-15547984D01*
X9444586Y-15547984D02*
X9444586Y-15414650D01*
X9444586Y-15433698D02*
X9454110Y-15424174D01*
X9454110Y-15424174D02*
X9473158Y-15414650D01*
X9473158Y-15414650D02*
X9501729Y-15414650D01*
X9501729Y-15414650D02*
X9520777Y-15424174D01*
X9520777Y-15424174D02*
X9530301Y-15443222D01*
X9530301Y-15443222D02*
X9530301Y-15547984D01*
X9530301Y-15443222D02*
X9539825Y-15424174D01*
X9539825Y-15424174D02*
X9558872Y-15414650D01*
X9558872Y-15414650D02*
X9587444Y-15414650D01*
X9587444Y-15414650D02*
X9606491Y-15424174D01*
X9606491Y-15424174D02*
X9616015Y-15443222D01*
X9616015Y-15443222D02*
X9616015Y-15547984D01*
X10006491Y-15338460D02*
X9835063Y-15595603D01*
X10263634Y-15347984D02*
X10282682Y-15347984D01*
X10282682Y-15347984D02*
X10301729Y-15357508D01*
X10301729Y-15357508D02*
X10311253Y-15367031D01*
X10311253Y-15367031D02*
X10320777Y-15386079D01*
X10320777Y-15386079D02*
X10330301Y-15424174D01*
X10330301Y-15424174D02*
X10330301Y-15471793D01*
X10330301Y-15471793D02*
X10320777Y-15509888D01*
X10320777Y-15509888D02*
X10311253Y-15528936D01*
X10311253Y-15528936D02*
X10301729Y-15538460D01*
X10301729Y-15538460D02*
X10282682Y-15547984D01*
X10282682Y-15547984D02*
X10263634Y-15547984D01*
X10263634Y-15547984D02*
X10244587Y-15538460D01*
X10244587Y-15538460D02*
X10235063Y-15528936D01*
X10235063Y-15528936D02*
X10225539Y-15509888D01*
X10225539Y-15509888D02*
X10216015Y-15471793D01*
X10216015Y-15471793D02*
X10216015Y-15424174D01*
X10216015Y-15424174D02*
X10225539Y-15386079D01*
X10225539Y-15386079D02*
X10235063Y-15367031D01*
X10235063Y-15367031D02*
X10244587Y-15357508D01*
X10244587Y-15357508D02*
X10263634Y-15347984D01*
X10416015Y-15528936D02*
X10425539Y-15538460D01*
X10425539Y-15538460D02*
X10416015Y-15547984D01*
X10416015Y-15547984D02*
X10406491Y-15538460D01*
X10406491Y-15538460D02*
X10416015Y-15528936D01*
X10416015Y-15528936D02*
X10416015Y-15547984D01*
X10549348Y-15347984D02*
X10568396Y-15347984D01*
X10568396Y-15347984D02*
X10587444Y-15357508D01*
X10587444Y-15357508D02*
X10596968Y-15367031D01*
X10596968Y-15367031D02*
X10606491Y-15386079D01*
X10606491Y-15386079D02*
X10616015Y-15424174D01*
X10616015Y-15424174D02*
X10616015Y-15471793D01*
X10616015Y-15471793D02*
X10606491Y-15509888D01*
X10606491Y-15509888D02*
X10596968Y-15528936D01*
X10596968Y-15528936D02*
X10587444Y-15538460D01*
X10587444Y-15538460D02*
X10568396Y-15547984D01*
X10568396Y-15547984D02*
X10549348Y-15547984D01*
X10549348Y-15547984D02*
X10530301Y-15538460D01*
X10530301Y-15538460D02*
X10520777Y-15528936D01*
X10520777Y-15528936D02*
X10511253Y-15509888D01*
X10511253Y-15509888D02*
X10501729Y-15471793D01*
X10501729Y-15471793D02*
X10501729Y-15424174D01*
X10501729Y-15424174D02*
X10511253Y-15386079D01*
X10511253Y-15386079D02*
X10520777Y-15367031D01*
X10520777Y-15367031D02*
X10530301Y-15357508D01*
X10530301Y-15357508D02*
X10549348Y-15347984D01*
X10787444Y-15414650D02*
X10787444Y-15547984D01*
X10739825Y-15338460D02*
X10692206Y-15481317D01*
X10692206Y-15481317D02*
X10816015Y-15481317D01*
X10930301Y-15347984D02*
X10949349Y-15347984D01*
X10949349Y-15347984D02*
X10968396Y-15357508D01*
X10968396Y-15357508D02*
X10977920Y-15367031D01*
X10977920Y-15367031D02*
X10987444Y-15386079D01*
X10987444Y-15386079D02*
X10996968Y-15424174D01*
X10996968Y-15424174D02*
X10996968Y-15471793D01*
X10996968Y-15471793D02*
X10987444Y-15509888D01*
X10987444Y-15509888D02*
X10977920Y-15528936D01*
X10977920Y-15528936D02*
X10968396Y-15538460D01*
X10968396Y-15538460D02*
X10949349Y-15547984D01*
X10949349Y-15547984D02*
X10930301Y-15547984D01*
X10930301Y-15547984D02*
X10911253Y-15538460D01*
X10911253Y-15538460D02*
X10901729Y-15528936D01*
X10901729Y-15528936D02*
X10892206Y-15509888D01*
X10892206Y-15509888D02*
X10882682Y-15471793D01*
X10882682Y-15471793D02*
X10882682Y-15424174D01*
X10882682Y-15424174D02*
X10892206Y-15386079D01*
X10892206Y-15386079D02*
X10901729Y-15367031D01*
X10901729Y-15367031D02*
X10911253Y-15357508D01*
X10911253Y-15357508D02*
X10930301Y-15347984D01*
X11073158Y-15367031D02*
X11082682Y-15357508D01*
X11082682Y-15357508D02*
X11101729Y-15347984D01*
X11101729Y-15347984D02*
X11149349Y-15347984D01*
X11149349Y-15347984D02*
X11168396Y-15357508D01*
X11168396Y-15357508D02*
X11177920Y-15367031D01*
X11177920Y-15367031D02*
X11187444Y-15386079D01*
X11187444Y-15386079D02*
X11187444Y-15405127D01*
X11187444Y-15405127D02*
X11177920Y-15433698D01*
X11177920Y-15433698D02*
X11063634Y-15547984D01*
X11063634Y-15547984D02*
X11187444Y-15547984D01*
X11263634Y-15347984D02*
X11263634Y-15386079D01*
X11339825Y-15347984D02*
X11339825Y-15386079D01*
X11635063Y-15624174D02*
X11625539Y-15614650D01*
X11625539Y-15614650D02*
X11606491Y-15586079D01*
X11606491Y-15586079D02*
X11596968Y-15567031D01*
X11596968Y-15567031D02*
X11587444Y-15538460D01*
X11587444Y-15538460D02*
X11577920Y-15490841D01*
X11577920Y-15490841D02*
X11577920Y-15452746D01*
X11577920Y-15452746D02*
X11587444Y-15405127D01*
X11587444Y-15405127D02*
X11596968Y-15376555D01*
X11596968Y-15376555D02*
X11606491Y-15357508D01*
X11606491Y-15357508D02*
X11625539Y-15328936D01*
X11625539Y-15328936D02*
X11635063Y-15319412D01*
X11701729Y-15367031D02*
X11711253Y-15357508D01*
X11711253Y-15357508D02*
X11730301Y-15347984D01*
X11730301Y-15347984D02*
X11777920Y-15347984D01*
X11777920Y-15347984D02*
X11796968Y-15357508D01*
X11796968Y-15357508D02*
X11806491Y-15367031D01*
X11806491Y-15367031D02*
X11816015Y-15386079D01*
X11816015Y-15386079D02*
X11816015Y-15405127D01*
X11816015Y-15405127D02*
X11806491Y-15433698D01*
X11806491Y-15433698D02*
X11692206Y-15547984D01*
X11692206Y-15547984D02*
X11816015Y-15547984D01*
X12054110Y-15547984D02*
X12054110Y-15347984D01*
X12139825Y-15547984D02*
X12139825Y-15443222D01*
X12139825Y-15443222D02*
X12130301Y-15424174D01*
X12130301Y-15424174D02*
X12111253Y-15414650D01*
X12111253Y-15414650D02*
X12082682Y-15414650D01*
X12082682Y-15414650D02*
X12063634Y-15424174D01*
X12063634Y-15424174D02*
X12054110Y-15433698D01*
X12263634Y-15547984D02*
X12244587Y-15538460D01*
X12244587Y-15538460D02*
X12235063Y-15528936D01*
X12235063Y-15528936D02*
X12225539Y-15509888D01*
X12225539Y-15509888D02*
X12225539Y-15452746D01*
X12225539Y-15452746D02*
X12235063Y-15433698D01*
X12235063Y-15433698D02*
X12244587Y-15424174D01*
X12244587Y-15424174D02*
X12263634Y-15414650D01*
X12263634Y-15414650D02*
X12292206Y-15414650D01*
X12292206Y-15414650D02*
X12311253Y-15424174D01*
X12311253Y-15424174D02*
X12320777Y-15433698D01*
X12320777Y-15433698D02*
X12330301Y-15452746D01*
X12330301Y-15452746D02*
X12330301Y-15509888D01*
X12330301Y-15509888D02*
X12320777Y-15528936D01*
X12320777Y-15528936D02*
X12311253Y-15538460D01*
X12311253Y-15538460D02*
X12292206Y-15547984D01*
X12292206Y-15547984D02*
X12263634Y-15547984D01*
X12444587Y-15547984D02*
X12425539Y-15538460D01*
X12425539Y-15538460D02*
X12416015Y-15519412D01*
X12416015Y-15519412D02*
X12416015Y-15347984D01*
X12596968Y-15538460D02*
X12577920Y-15547984D01*
X12577920Y-15547984D02*
X12539825Y-15547984D01*
X12539825Y-15547984D02*
X12520777Y-15538460D01*
X12520777Y-15538460D02*
X12511253Y-15519412D01*
X12511253Y-15519412D02*
X12511253Y-15443222D01*
X12511253Y-15443222D02*
X12520777Y-15424174D01*
X12520777Y-15424174D02*
X12539825Y-15414650D01*
X12539825Y-15414650D02*
X12577920Y-15414650D01*
X12577920Y-15414650D02*
X12596968Y-15424174D01*
X12596968Y-15424174D02*
X12606491Y-15443222D01*
X12606491Y-15443222D02*
X12606491Y-15462269D01*
X12606491Y-15462269D02*
X12511253Y-15481317D01*
X12682682Y-15538460D02*
X12701730Y-15547984D01*
X12701730Y-15547984D02*
X12739825Y-15547984D01*
X12739825Y-15547984D02*
X12758872Y-15538460D01*
X12758872Y-15538460D02*
X12768396Y-15519412D01*
X12768396Y-15519412D02*
X12768396Y-15509888D01*
X12768396Y-15509888D02*
X12758872Y-15490841D01*
X12758872Y-15490841D02*
X12739825Y-15481317D01*
X12739825Y-15481317D02*
X12711253Y-15481317D01*
X12711253Y-15481317D02*
X12692206Y-15471793D01*
X12692206Y-15471793D02*
X12682682Y-15452746D01*
X12682682Y-15452746D02*
X12682682Y-15443222D01*
X12682682Y-15443222D02*
X12692206Y-15424174D01*
X12692206Y-15424174D02*
X12711253Y-15414650D01*
X12711253Y-15414650D02*
X12739825Y-15414650D01*
X12739825Y-15414650D02*
X12758872Y-15424174D01*
X12835063Y-15624174D02*
X12844587Y-15614650D01*
X12844587Y-15614650D02*
X12863634Y-15586079D01*
X12863634Y-15586079D02*
X12873158Y-15567031D01*
X12873158Y-15567031D02*
X12882682Y-15538460D01*
X12882682Y-15538460D02*
X12892206Y-15490841D01*
X12892206Y-15490841D02*
X12892206Y-15452746D01*
X12892206Y-15452746D02*
X12882682Y-15405127D01*
X12882682Y-15405127D02*
X12873158Y-15376555D01*
X12873158Y-15376555D02*
X12863634Y-15357508D01*
X12863634Y-15357508D02*
X12844587Y-15328936D01*
X12844587Y-15328936D02*
X12835063Y-15319412D01*
X13196968Y-15624174D02*
X13187444Y-15614650D01*
X13187444Y-15614650D02*
X13168396Y-15586079D01*
X13168396Y-15586079D02*
X13158872Y-15567031D01*
X13158872Y-15567031D02*
X13149349Y-15538460D01*
X13149349Y-15538460D02*
X13139825Y-15490841D01*
X13139825Y-15490841D02*
X13139825Y-15452746D01*
X13139825Y-15452746D02*
X13149349Y-15405127D01*
X13149349Y-15405127D02*
X13158872Y-15376555D01*
X13158872Y-15376555D02*
X13168396Y-15357508D01*
X13168396Y-15357508D02*
X13187444Y-15328936D01*
X13187444Y-15328936D02*
X13196968Y-15319412D01*
X13273158Y-15414650D02*
X13273158Y-15547984D01*
X13273158Y-15433698D02*
X13282682Y-15424174D01*
X13282682Y-15424174D02*
X13301730Y-15414650D01*
X13301730Y-15414650D02*
X13330301Y-15414650D01*
X13330301Y-15414650D02*
X13349349Y-15424174D01*
X13349349Y-15424174D02*
X13358872Y-15443222D01*
X13358872Y-15443222D02*
X13358872Y-15547984D01*
X13482682Y-15547984D02*
X13463634Y-15538460D01*
X13463634Y-15538460D02*
X13454111Y-15528936D01*
X13454111Y-15528936D02*
X13444587Y-15509888D01*
X13444587Y-15509888D02*
X13444587Y-15452746D01*
X13444587Y-15452746D02*
X13454111Y-15433698D01*
X13454111Y-15433698D02*
X13463634Y-15424174D01*
X13463634Y-15424174D02*
X13482682Y-15414650D01*
X13482682Y-15414650D02*
X13511253Y-15414650D01*
X13511253Y-15414650D02*
X13530301Y-15424174D01*
X13530301Y-15424174D02*
X13539825Y-15433698D01*
X13539825Y-15433698D02*
X13549349Y-15452746D01*
X13549349Y-15452746D02*
X13549349Y-15509888D01*
X13549349Y-15509888D02*
X13539825Y-15528936D01*
X13539825Y-15528936D02*
X13530301Y-15538460D01*
X13530301Y-15538460D02*
X13511253Y-15547984D01*
X13511253Y-15547984D02*
X13482682Y-15547984D01*
X13606492Y-15414650D02*
X13682682Y-15414650D01*
X13635063Y-15347984D02*
X13635063Y-15519412D01*
X13635063Y-15519412D02*
X13644587Y-15538460D01*
X13644587Y-15538460D02*
X13663634Y-15547984D01*
X13663634Y-15547984D02*
X13682682Y-15547984D01*
X13901730Y-15414650D02*
X13901730Y-15614650D01*
X13901730Y-15424174D02*
X13920777Y-15414650D01*
X13920777Y-15414650D02*
X13958873Y-15414650D01*
X13958873Y-15414650D02*
X13977920Y-15424174D01*
X13977920Y-15424174D02*
X13987444Y-15433698D01*
X13987444Y-15433698D02*
X13996968Y-15452746D01*
X13996968Y-15452746D02*
X13996968Y-15509888D01*
X13996968Y-15509888D02*
X13987444Y-15528936D01*
X13987444Y-15528936D02*
X13977920Y-15538460D01*
X13977920Y-15538460D02*
X13958873Y-15547984D01*
X13958873Y-15547984D02*
X13920777Y-15547984D01*
X13920777Y-15547984D02*
X13901730Y-15538460D01*
X14111253Y-15547984D02*
X14092206Y-15538460D01*
X14092206Y-15538460D02*
X14082682Y-15519412D01*
X14082682Y-15519412D02*
X14082682Y-15347984D01*
X14273158Y-15547984D02*
X14273158Y-15443222D01*
X14273158Y-15443222D02*
X14263634Y-15424174D01*
X14263634Y-15424174D02*
X14244587Y-15414650D01*
X14244587Y-15414650D02*
X14206492Y-15414650D01*
X14206492Y-15414650D02*
X14187444Y-15424174D01*
X14273158Y-15538460D02*
X14254111Y-15547984D01*
X14254111Y-15547984D02*
X14206492Y-15547984D01*
X14206492Y-15547984D02*
X14187444Y-15538460D01*
X14187444Y-15538460D02*
X14177920Y-15519412D01*
X14177920Y-15519412D02*
X14177920Y-15500365D01*
X14177920Y-15500365D02*
X14187444Y-15481317D01*
X14187444Y-15481317D02*
X14206492Y-15471793D01*
X14206492Y-15471793D02*
X14254111Y-15471793D01*
X14254111Y-15471793D02*
X14273158Y-15462269D01*
X14339825Y-15414650D02*
X14416015Y-15414650D01*
X14368396Y-15347984D02*
X14368396Y-15519412D01*
X14368396Y-15519412D02*
X14377920Y-15538460D01*
X14377920Y-15538460D02*
X14396968Y-15547984D01*
X14396968Y-15547984D02*
X14416015Y-15547984D01*
X14558873Y-15538460D02*
X14539825Y-15547984D01*
X14539825Y-15547984D02*
X14501730Y-15547984D01*
X14501730Y-15547984D02*
X14482682Y-15538460D01*
X14482682Y-15538460D02*
X14473158Y-15519412D01*
X14473158Y-15519412D02*
X14473158Y-15443222D01*
X14473158Y-15443222D02*
X14482682Y-15424174D01*
X14482682Y-15424174D02*
X14501730Y-15414650D01*
X14501730Y-15414650D02*
X14539825Y-15414650D01*
X14539825Y-15414650D02*
X14558873Y-15424174D01*
X14558873Y-15424174D02*
X14568396Y-15443222D01*
X14568396Y-15443222D02*
X14568396Y-15462269D01*
X14568396Y-15462269D02*
X14473158Y-15481317D01*
X14739825Y-15547984D02*
X14739825Y-15347984D01*
X14739825Y-15538460D02*
X14720777Y-15547984D01*
X14720777Y-15547984D02*
X14682682Y-15547984D01*
X14682682Y-15547984D02*
X14663634Y-15538460D01*
X14663634Y-15538460D02*
X14654111Y-15528936D01*
X14654111Y-15528936D02*
X14644587Y-15509888D01*
X14644587Y-15509888D02*
X14644587Y-15452746D01*
X14644587Y-15452746D02*
X14654111Y-15433698D01*
X14654111Y-15433698D02*
X14663634Y-15424174D01*
X14663634Y-15424174D02*
X14682682Y-15414650D01*
X14682682Y-15414650D02*
X14720777Y-15414650D01*
X14720777Y-15414650D02*
X14739825Y-15424174D01*
X14816015Y-15624174D02*
X14825539Y-15614650D01*
X14825539Y-15614650D02*
X14844587Y-15586079D01*
X14844587Y-15586079D02*
X14854111Y-15567031D01*
X14854111Y-15567031D02*
X14863634Y-15538460D01*
X14863634Y-15538460D02*
X14873158Y-15490841D01*
X14873158Y-15490841D02*
X14873158Y-15452746D01*
X14873158Y-15452746D02*
X14863634Y-15405127D01*
X14863634Y-15405127D02*
X14854111Y-15376555D01*
X14854111Y-15376555D02*
X14844587Y-15357508D01*
X14844587Y-15357508D02*
X14825539Y-15328936D01*
X14825539Y-15328936D02*
X14816015Y-15319412D01*
X8060000Y-15720500D02*
G75*
G02*
X7860000Y-15720500I-100000J0D01*
G01*
X7860000Y-15720500D02*
G75*
G02*
X8060000Y-15720500I100000J0D01*
G01*
X8301729Y-15611984D02*
X8425539Y-15611984D01*
X8425539Y-15611984D02*
X8358872Y-15688174D01*
X8358872Y-15688174D02*
X8387443Y-15688174D01*
X8387443Y-15688174D02*
X8406491Y-15697698D01*
X8406491Y-15697698D02*
X8416015Y-15707222D01*
X8416015Y-15707222D02*
X8425539Y-15726269D01*
X8425539Y-15726269D02*
X8425539Y-15773888D01*
X8425539Y-15773888D02*
X8416015Y-15792936D01*
X8416015Y-15792936D02*
X8406491Y-15802460D01*
X8406491Y-15802460D02*
X8387443Y-15811984D01*
X8387443Y-15811984D02*
X8330301Y-15811984D01*
X8330301Y-15811984D02*
X8311253Y-15802460D01*
X8311253Y-15802460D02*
X8301729Y-15792936D01*
X8511253Y-15792936D02*
X8520777Y-15802460D01*
X8520777Y-15802460D02*
X8511253Y-15811984D01*
X8511253Y-15811984D02*
X8501729Y-15802460D01*
X8501729Y-15802460D02*
X8511253Y-15792936D01*
X8511253Y-15792936D02*
X8511253Y-15811984D01*
X8596967Y-15631031D02*
X8606491Y-15621508D01*
X8606491Y-15621508D02*
X8625539Y-15611984D01*
X8625539Y-15611984D02*
X8673158Y-15611984D01*
X8673158Y-15611984D02*
X8692205Y-15621508D01*
X8692205Y-15621508D02*
X8701729Y-15631031D01*
X8701729Y-15631031D02*
X8711253Y-15650079D01*
X8711253Y-15650079D02*
X8711253Y-15669127D01*
X8711253Y-15669127D02*
X8701729Y-15697698D01*
X8701729Y-15697698D02*
X8587444Y-15811984D01*
X8587444Y-15811984D02*
X8711253Y-15811984D01*
X8835063Y-15611984D02*
X8854110Y-15611984D01*
X8854110Y-15611984D02*
X8873158Y-15621508D01*
X8873158Y-15621508D02*
X8882682Y-15631031D01*
X8882682Y-15631031D02*
X8892205Y-15650079D01*
X8892205Y-15650079D02*
X8901729Y-15688174D01*
X8901729Y-15688174D02*
X8901729Y-15735793D01*
X8901729Y-15735793D02*
X8892205Y-15773888D01*
X8892205Y-15773888D02*
X8882682Y-15792936D01*
X8882682Y-15792936D02*
X8873158Y-15802460D01*
X8873158Y-15802460D02*
X8854110Y-15811984D01*
X8854110Y-15811984D02*
X8835063Y-15811984D01*
X8835063Y-15811984D02*
X8816015Y-15802460D01*
X8816015Y-15802460D02*
X8806491Y-15792936D01*
X8806491Y-15792936D02*
X8796967Y-15773888D01*
X8796967Y-15773888D02*
X8787444Y-15735793D01*
X8787444Y-15735793D02*
X8787444Y-15688174D01*
X8787444Y-15688174D02*
X8796967Y-15650079D01*
X8796967Y-15650079D02*
X8806491Y-15631031D01*
X8806491Y-15631031D02*
X8816015Y-15621508D01*
X8816015Y-15621508D02*
X8835063Y-15611984D01*
X9025539Y-15611984D02*
X9044586Y-15611984D01*
X9044586Y-15611984D02*
X9063634Y-15621508D01*
X9063634Y-15621508D02*
X9073158Y-15631031D01*
X9073158Y-15631031D02*
X9082682Y-15650079D01*
X9082682Y-15650079D02*
X9092205Y-15688174D01*
X9092205Y-15688174D02*
X9092205Y-15735793D01*
X9092205Y-15735793D02*
X9082682Y-15773888D01*
X9082682Y-15773888D02*
X9073158Y-15792936D01*
X9073158Y-15792936D02*
X9063634Y-15802460D01*
X9063634Y-15802460D02*
X9044586Y-15811984D01*
X9044586Y-15811984D02*
X9025539Y-15811984D01*
X9025539Y-15811984D02*
X9006491Y-15802460D01*
X9006491Y-15802460D02*
X8996967Y-15792936D01*
X8996967Y-15792936D02*
X8987444Y-15773888D01*
X8987444Y-15773888D02*
X8977920Y-15735793D01*
X8977920Y-15735793D02*
X8977920Y-15688174D01*
X8977920Y-15688174D02*
X8987444Y-15650079D01*
X8987444Y-15650079D02*
X8996967Y-15631031D01*
X8996967Y-15631031D02*
X9006491Y-15621508D01*
X9006491Y-15621508D02*
X9025539Y-15611984D01*
X9177920Y-15811984D02*
X9177920Y-15678650D01*
X9177920Y-15697698D02*
X9187444Y-15688174D01*
X9187444Y-15688174D02*
X9206491Y-15678650D01*
X9206491Y-15678650D02*
X9235063Y-15678650D01*
X9235063Y-15678650D02*
X9254110Y-15688174D01*
X9254110Y-15688174D02*
X9263634Y-15707222D01*
X9263634Y-15707222D02*
X9263634Y-15811984D01*
X9263634Y-15707222D02*
X9273158Y-15688174D01*
X9273158Y-15688174D02*
X9292205Y-15678650D01*
X9292205Y-15678650D02*
X9320777Y-15678650D01*
X9320777Y-15678650D02*
X9339825Y-15688174D01*
X9339825Y-15688174D02*
X9349348Y-15707222D01*
X9349348Y-15707222D02*
X9349348Y-15811984D01*
X9444586Y-15811984D02*
X9444586Y-15678650D01*
X9444586Y-15697698D02*
X9454110Y-15688174D01*
X9454110Y-15688174D02*
X9473158Y-15678650D01*
X9473158Y-15678650D02*
X9501729Y-15678650D01*
X9501729Y-15678650D02*
X9520777Y-15688174D01*
X9520777Y-15688174D02*
X9530301Y-15707222D01*
X9530301Y-15707222D02*
X9530301Y-15811984D01*
X9530301Y-15707222D02*
X9539825Y-15688174D01*
X9539825Y-15688174D02*
X9558872Y-15678650D01*
X9558872Y-15678650D02*
X9587444Y-15678650D01*
X9587444Y-15678650D02*
X9606491Y-15688174D01*
X9606491Y-15688174D02*
X9616015Y-15707222D01*
X9616015Y-15707222D02*
X9616015Y-15811984D01*
X10006491Y-15602460D02*
X9835063Y-15859603D01*
X10263634Y-15611984D02*
X10282682Y-15611984D01*
X10282682Y-15611984D02*
X10301729Y-15621508D01*
X10301729Y-15621508D02*
X10311253Y-15631031D01*
X10311253Y-15631031D02*
X10320777Y-15650079D01*
X10320777Y-15650079D02*
X10330301Y-15688174D01*
X10330301Y-15688174D02*
X10330301Y-15735793D01*
X10330301Y-15735793D02*
X10320777Y-15773888D01*
X10320777Y-15773888D02*
X10311253Y-15792936D01*
X10311253Y-15792936D02*
X10301729Y-15802460D01*
X10301729Y-15802460D02*
X10282682Y-15811984D01*
X10282682Y-15811984D02*
X10263634Y-15811984D01*
X10263634Y-15811984D02*
X10244587Y-15802460D01*
X10244587Y-15802460D02*
X10235063Y-15792936D01*
X10235063Y-15792936D02*
X10225539Y-15773888D01*
X10225539Y-15773888D02*
X10216015Y-15735793D01*
X10216015Y-15735793D02*
X10216015Y-15688174D01*
X10216015Y-15688174D02*
X10225539Y-15650079D01*
X10225539Y-15650079D02*
X10235063Y-15631031D01*
X10235063Y-15631031D02*
X10244587Y-15621508D01*
X10244587Y-15621508D02*
X10263634Y-15611984D01*
X10416015Y-15792936D02*
X10425539Y-15802460D01*
X10425539Y-15802460D02*
X10416015Y-15811984D01*
X10416015Y-15811984D02*
X10406491Y-15802460D01*
X10406491Y-15802460D02*
X10416015Y-15792936D01*
X10416015Y-15792936D02*
X10416015Y-15811984D01*
X10616015Y-15811984D02*
X10501729Y-15811984D01*
X10558872Y-15811984D02*
X10558872Y-15611984D01*
X10558872Y-15611984D02*
X10539825Y-15640555D01*
X10539825Y-15640555D02*
X10520777Y-15659603D01*
X10520777Y-15659603D02*
X10501729Y-15669127D01*
X10692206Y-15631031D02*
X10701729Y-15621508D01*
X10701729Y-15621508D02*
X10720777Y-15611984D01*
X10720777Y-15611984D02*
X10768396Y-15611984D01*
X10768396Y-15611984D02*
X10787444Y-15621508D01*
X10787444Y-15621508D02*
X10796968Y-15631031D01*
X10796968Y-15631031D02*
X10806491Y-15650079D01*
X10806491Y-15650079D02*
X10806491Y-15669127D01*
X10806491Y-15669127D02*
X10796968Y-15697698D01*
X10796968Y-15697698D02*
X10682682Y-15811984D01*
X10682682Y-15811984D02*
X10806491Y-15811984D01*
X10977920Y-15611984D02*
X10939825Y-15611984D01*
X10939825Y-15611984D02*
X10920777Y-15621508D01*
X10920777Y-15621508D02*
X10911253Y-15631031D01*
X10911253Y-15631031D02*
X10892206Y-15659603D01*
X10892206Y-15659603D02*
X10882682Y-15697698D01*
X10882682Y-15697698D02*
X10882682Y-15773888D01*
X10882682Y-15773888D02*
X10892206Y-15792936D01*
X10892206Y-15792936D02*
X10901729Y-15802460D01*
X10901729Y-15802460D02*
X10920777Y-15811984D01*
X10920777Y-15811984D02*
X10958872Y-15811984D01*
X10958872Y-15811984D02*
X10977920Y-15802460D01*
X10977920Y-15802460D02*
X10987444Y-15792936D01*
X10987444Y-15792936D02*
X10996968Y-15773888D01*
X10996968Y-15773888D02*
X10996968Y-15726269D01*
X10996968Y-15726269D02*
X10987444Y-15707222D01*
X10987444Y-15707222D02*
X10977920Y-15697698D01*
X10977920Y-15697698D02*
X10958872Y-15688174D01*
X10958872Y-15688174D02*
X10920777Y-15688174D01*
X10920777Y-15688174D02*
X10901729Y-15697698D01*
X10901729Y-15697698D02*
X10892206Y-15707222D01*
X10892206Y-15707222D02*
X10882682Y-15726269D01*
X11120777Y-15611984D02*
X11139825Y-15611984D01*
X11139825Y-15611984D02*
X11158872Y-15621508D01*
X11158872Y-15621508D02*
X11168396Y-15631031D01*
X11168396Y-15631031D02*
X11177920Y-15650079D01*
X11177920Y-15650079D02*
X11187444Y-15688174D01*
X11187444Y-15688174D02*
X11187444Y-15735793D01*
X11187444Y-15735793D02*
X11177920Y-15773888D01*
X11177920Y-15773888D02*
X11168396Y-15792936D01*
X11168396Y-15792936D02*
X11158872Y-15802460D01*
X11158872Y-15802460D02*
X11139825Y-15811984D01*
X11139825Y-15811984D02*
X11120777Y-15811984D01*
X11120777Y-15811984D02*
X11101729Y-15802460D01*
X11101729Y-15802460D02*
X11092206Y-15792936D01*
X11092206Y-15792936D02*
X11082682Y-15773888D01*
X11082682Y-15773888D02*
X11073158Y-15735793D01*
X11073158Y-15735793D02*
X11073158Y-15688174D01*
X11073158Y-15688174D02*
X11082682Y-15650079D01*
X11082682Y-15650079D02*
X11092206Y-15631031D01*
X11092206Y-15631031D02*
X11101729Y-15621508D01*
X11101729Y-15621508D02*
X11120777Y-15611984D01*
X11263634Y-15611984D02*
X11263634Y-15650079D01*
X11339825Y-15611984D02*
X11339825Y-15650079D01*
X11635063Y-15888174D02*
X11625539Y-15878650D01*
X11625539Y-15878650D02*
X11606491Y-15850079D01*
X11606491Y-15850079D02*
X11596968Y-15831031D01*
X11596968Y-15831031D02*
X11587444Y-15802460D01*
X11587444Y-15802460D02*
X11577920Y-15754841D01*
X11577920Y-15754841D02*
X11577920Y-15716746D01*
X11577920Y-15716746D02*
X11587444Y-15669127D01*
X11587444Y-15669127D02*
X11596968Y-15640555D01*
X11596968Y-15640555D02*
X11606491Y-15621508D01*
X11606491Y-15621508D02*
X11625539Y-15592936D01*
X11625539Y-15592936D02*
X11635063Y-15583412D01*
X11796968Y-15678650D02*
X11796968Y-15811984D01*
X11749348Y-15602460D02*
X11701729Y-15745317D01*
X11701729Y-15745317D02*
X11825539Y-15745317D01*
X12054110Y-15811984D02*
X12054110Y-15611984D01*
X12139825Y-15811984D02*
X12139825Y-15707222D01*
X12139825Y-15707222D02*
X12130301Y-15688174D01*
X12130301Y-15688174D02*
X12111253Y-15678650D01*
X12111253Y-15678650D02*
X12082682Y-15678650D01*
X12082682Y-15678650D02*
X12063634Y-15688174D01*
X12063634Y-15688174D02*
X12054110Y-15697698D01*
X12263634Y-15811984D02*
X12244587Y-15802460D01*
X12244587Y-15802460D02*
X12235063Y-15792936D01*
X12235063Y-15792936D02*
X12225539Y-15773888D01*
X12225539Y-15773888D02*
X12225539Y-15716746D01*
X12225539Y-15716746D02*
X12235063Y-15697698D01*
X12235063Y-15697698D02*
X12244587Y-15688174D01*
X12244587Y-15688174D02*
X12263634Y-15678650D01*
X12263634Y-15678650D02*
X12292206Y-15678650D01*
X12292206Y-15678650D02*
X12311253Y-15688174D01*
X12311253Y-15688174D02*
X12320777Y-15697698D01*
X12320777Y-15697698D02*
X12330301Y-15716746D01*
X12330301Y-15716746D02*
X12330301Y-15773888D01*
X12330301Y-15773888D02*
X12320777Y-15792936D01*
X12320777Y-15792936D02*
X12311253Y-15802460D01*
X12311253Y-15802460D02*
X12292206Y-15811984D01*
X12292206Y-15811984D02*
X12263634Y-15811984D01*
X12444587Y-15811984D02*
X12425539Y-15802460D01*
X12425539Y-15802460D02*
X12416015Y-15783412D01*
X12416015Y-15783412D02*
X12416015Y-15611984D01*
X12596968Y-15802460D02*
X12577920Y-15811984D01*
X12577920Y-15811984D02*
X12539825Y-15811984D01*
X12539825Y-15811984D02*
X12520777Y-15802460D01*
X12520777Y-15802460D02*
X12511253Y-15783412D01*
X12511253Y-15783412D02*
X12511253Y-15707222D01*
X12511253Y-15707222D02*
X12520777Y-15688174D01*
X12520777Y-15688174D02*
X12539825Y-15678650D01*
X12539825Y-15678650D02*
X12577920Y-15678650D01*
X12577920Y-15678650D02*
X12596968Y-15688174D01*
X12596968Y-15688174D02*
X12606491Y-15707222D01*
X12606491Y-15707222D02*
X12606491Y-15726269D01*
X12606491Y-15726269D02*
X12511253Y-15745317D01*
X12682682Y-15802460D02*
X12701730Y-15811984D01*
X12701730Y-15811984D02*
X12739825Y-15811984D01*
X12739825Y-15811984D02*
X12758872Y-15802460D01*
X12758872Y-15802460D02*
X12768396Y-15783412D01*
X12768396Y-15783412D02*
X12768396Y-15773888D01*
X12768396Y-15773888D02*
X12758872Y-15754841D01*
X12758872Y-15754841D02*
X12739825Y-15745317D01*
X12739825Y-15745317D02*
X12711253Y-15745317D01*
X12711253Y-15745317D02*
X12692206Y-15735793D01*
X12692206Y-15735793D02*
X12682682Y-15716746D01*
X12682682Y-15716746D02*
X12682682Y-15707222D01*
X12682682Y-15707222D02*
X12692206Y-15688174D01*
X12692206Y-15688174D02*
X12711253Y-15678650D01*
X12711253Y-15678650D02*
X12739825Y-15678650D01*
X12739825Y-15678650D02*
X12758872Y-15688174D01*
X12835063Y-15888174D02*
X12844587Y-15878650D01*
X12844587Y-15878650D02*
X12863634Y-15850079D01*
X12863634Y-15850079D02*
X12873158Y-15831031D01*
X12873158Y-15831031D02*
X12882682Y-15802460D01*
X12882682Y-15802460D02*
X12892206Y-15754841D01*
X12892206Y-15754841D02*
X12892206Y-15716746D01*
X12892206Y-15716746D02*
X12882682Y-15669127D01*
X12882682Y-15669127D02*
X12873158Y-15640555D01*
X12873158Y-15640555D02*
X12863634Y-15621508D01*
X12863634Y-15621508D02*
X12844587Y-15592936D01*
X12844587Y-15592936D02*
X12835063Y-15583412D01*
X13196968Y-15888174D02*
X13187444Y-15878650D01*
X13187444Y-15878650D02*
X13168396Y-15850079D01*
X13168396Y-15850079D02*
X13158872Y-15831031D01*
X13158872Y-15831031D02*
X13149349Y-15802460D01*
X13149349Y-15802460D02*
X13139825Y-15754841D01*
X13139825Y-15754841D02*
X13139825Y-15716746D01*
X13139825Y-15716746D02*
X13149349Y-15669127D01*
X13149349Y-15669127D02*
X13158872Y-15640555D01*
X13158872Y-15640555D02*
X13168396Y-15621508D01*
X13168396Y-15621508D02*
X13187444Y-15592936D01*
X13187444Y-15592936D02*
X13196968Y-15583412D01*
X13273158Y-15678650D02*
X13273158Y-15811984D01*
X13273158Y-15697698D02*
X13282682Y-15688174D01*
X13282682Y-15688174D02*
X13301730Y-15678650D01*
X13301730Y-15678650D02*
X13330301Y-15678650D01*
X13330301Y-15678650D02*
X13349349Y-15688174D01*
X13349349Y-15688174D02*
X13358872Y-15707222D01*
X13358872Y-15707222D02*
X13358872Y-15811984D01*
X13482682Y-15811984D02*
X13463634Y-15802460D01*
X13463634Y-15802460D02*
X13454111Y-15792936D01*
X13454111Y-15792936D02*
X13444587Y-15773888D01*
X13444587Y-15773888D02*
X13444587Y-15716746D01*
X13444587Y-15716746D02*
X13454111Y-15697698D01*
X13454111Y-15697698D02*
X13463634Y-15688174D01*
X13463634Y-15688174D02*
X13482682Y-15678650D01*
X13482682Y-15678650D02*
X13511253Y-15678650D01*
X13511253Y-15678650D02*
X13530301Y-15688174D01*
X13530301Y-15688174D02*
X13539825Y-15697698D01*
X13539825Y-15697698D02*
X13549349Y-15716746D01*
X13549349Y-15716746D02*
X13549349Y-15773888D01*
X13549349Y-15773888D02*
X13539825Y-15792936D01*
X13539825Y-15792936D02*
X13530301Y-15802460D01*
X13530301Y-15802460D02*
X13511253Y-15811984D01*
X13511253Y-15811984D02*
X13482682Y-15811984D01*
X13606492Y-15678650D02*
X13682682Y-15678650D01*
X13635063Y-15611984D02*
X13635063Y-15783412D01*
X13635063Y-15783412D02*
X13644587Y-15802460D01*
X13644587Y-15802460D02*
X13663634Y-15811984D01*
X13663634Y-15811984D02*
X13682682Y-15811984D01*
X13901730Y-15678650D02*
X13901730Y-15878650D01*
X13901730Y-15688174D02*
X13920777Y-15678650D01*
X13920777Y-15678650D02*
X13958873Y-15678650D01*
X13958873Y-15678650D02*
X13977920Y-15688174D01*
X13977920Y-15688174D02*
X13987444Y-15697698D01*
X13987444Y-15697698D02*
X13996968Y-15716746D01*
X13996968Y-15716746D02*
X13996968Y-15773888D01*
X13996968Y-15773888D02*
X13987444Y-15792936D01*
X13987444Y-15792936D02*
X13977920Y-15802460D01*
X13977920Y-15802460D02*
X13958873Y-15811984D01*
X13958873Y-15811984D02*
X13920777Y-15811984D01*
X13920777Y-15811984D02*
X13901730Y-15802460D01*
X14111253Y-15811984D02*
X14092206Y-15802460D01*
X14092206Y-15802460D02*
X14082682Y-15783412D01*
X14082682Y-15783412D02*
X14082682Y-15611984D01*
X14273158Y-15811984D02*
X14273158Y-15707222D01*
X14273158Y-15707222D02*
X14263634Y-15688174D01*
X14263634Y-15688174D02*
X14244587Y-15678650D01*
X14244587Y-15678650D02*
X14206492Y-15678650D01*
X14206492Y-15678650D02*
X14187444Y-15688174D01*
X14273158Y-15802460D02*
X14254111Y-15811984D01*
X14254111Y-15811984D02*
X14206492Y-15811984D01*
X14206492Y-15811984D02*
X14187444Y-15802460D01*
X14187444Y-15802460D02*
X14177920Y-15783412D01*
X14177920Y-15783412D02*
X14177920Y-15764365D01*
X14177920Y-15764365D02*
X14187444Y-15745317D01*
X14187444Y-15745317D02*
X14206492Y-15735793D01*
X14206492Y-15735793D02*
X14254111Y-15735793D01*
X14254111Y-15735793D02*
X14273158Y-15726269D01*
X14339825Y-15678650D02*
X14416015Y-15678650D01*
X14368396Y-15611984D02*
X14368396Y-15783412D01*
X14368396Y-15783412D02*
X14377920Y-15802460D01*
X14377920Y-15802460D02*
X14396968Y-15811984D01*
X14396968Y-15811984D02*
X14416015Y-15811984D01*
X14558873Y-15802460D02*
X14539825Y-15811984D01*
X14539825Y-15811984D02*
X14501730Y-15811984D01*
X14501730Y-15811984D02*
X14482682Y-15802460D01*
X14482682Y-15802460D02*
X14473158Y-15783412D01*
X14473158Y-15783412D02*
X14473158Y-15707222D01*
X14473158Y-15707222D02*
X14482682Y-15688174D01*
X14482682Y-15688174D02*
X14501730Y-15678650D01*
X14501730Y-15678650D02*
X14539825Y-15678650D01*
X14539825Y-15678650D02*
X14558873Y-15688174D01*
X14558873Y-15688174D02*
X14568396Y-15707222D01*
X14568396Y-15707222D02*
X14568396Y-15726269D01*
X14568396Y-15726269D02*
X14473158Y-15745317D01*
X14739825Y-15811984D02*
X14739825Y-15611984D01*
X14739825Y-15802460D02*
X14720777Y-15811984D01*
X14720777Y-15811984D02*
X14682682Y-15811984D01*
X14682682Y-15811984D02*
X14663634Y-15802460D01*
X14663634Y-15802460D02*
X14654111Y-15792936D01*
X14654111Y-15792936D02*
X14644587Y-15773888D01*
X14644587Y-15773888D02*
X14644587Y-15716746D01*
X14644587Y-15716746D02*
X14654111Y-15697698D01*
X14654111Y-15697698D02*
X14663634Y-15688174D01*
X14663634Y-15688174D02*
X14682682Y-15678650D01*
X14682682Y-15678650D02*
X14720777Y-15678650D01*
X14720777Y-15678650D02*
X14739825Y-15688174D01*
X14816015Y-15888174D02*
X14825539Y-15878650D01*
X14825539Y-15878650D02*
X14844587Y-15850079D01*
X14844587Y-15850079D02*
X14854111Y-15831031D01*
X14854111Y-15831031D02*
X14863634Y-15802460D01*
X14863634Y-15802460D02*
X14873158Y-15754841D01*
X14873158Y-15754841D02*
X14873158Y-15716746D01*
X14873158Y-15716746D02*
X14863634Y-15669127D01*
X14863634Y-15669127D02*
X14854111Y-15640555D01*
X14854111Y-15640555D02*
X14844587Y-15621508D01*
X14844587Y-15621508D02*
X14825539Y-15592936D01*
X14825539Y-15592936D02*
X14816015Y-15583412D01*
M02*
